<?xml version="1.0" standalone="no"?>
<!DOCTYPE svg PUBLIC "-//W3C//DTD SVG 1.1//EN" "http://www.w3.org/Graphics/SVG/1.1/DTD/svg11.dtd" >
<svg xmlns="http://www.w3.org/2000/svg" xmlns:xlink="http://www.w3.org/1999/xlink" version="1.1">
<metadata>
Created by FontForge 20170924 at Mon Feb 20 02:05:07 2017
 By www-data
Copyright \(c\) 2017 by Kastelov. All rights reserved.
</metadata>
<defs>
<font id="Axiforma-Heavy" horiz-adv-x="637" >
  <font-face 
    font-family="Axiforma Heavy"
    font-weight="900"
    font-stretch="normal"
    units-per-em="1000"
    panose-1="0 0 10 0 0 0 0 0 0 0"
    ascent="800"
    descent="-200"
    x-height="555"
    cap-height="739"
    bbox="-511 -394 1313 1094"
    underline-thickness="50"
    underline-position="-100"
    unicode-range="U+000D-25CA"
  />
<missing-glyph horiz-adv-x="130" 
 />
    <glyph glyph-name="f_b" unicode="fb" horiz-adv-x="1170" 
d="M377 633c-45 0 -77 -26 -77 -74v-3h169v-162h-169v-394h-196v394h-74v162h74c5 169 89 243 227 243c77 0 119 -15 172 -44l-39 -149c-23 13 -54 27 -87 27zM866 570c157 0 276 -121 276 -292c0 -172 -119 -292 -275 -292c-65 0 -112 22 -148 54v-40h-189v764h196v-241
c35 28 80 47 140 47zM830 165c65 0 112 50 112 114c0 62 -47 112 -112 112c-64 0 -112 -50 -112 -112c0 -64 48 -114 112 -114z" />
    <glyph glyph-name="f_f" unicode="ff" horiz-adv-x="926" 
d="M829 632c-50 0 -82 -26 -82 -74v-2h168v-162h-168v-394h-195v394h-252v-394h-195v394h-75v162h75v4c0 169 114 241 262 239c72 -1 129 -19 181 -46l-59 -148c-26 14 -54 28 -92 28c-54 0 -97 -26 -97 -74v-3h252v4c0 165 109 239 247 239c64 0 124 -21 186 -53l-66 -143
c-26 13 -61 29 -90 29z" />
    <glyph glyph-name="f_f_i" unicode="ffi" horiz-adv-x="1246" 
d="M1097 600c-62 0 -110 46 -110 109c0 62 49 109 110 109c62 0 110 -47 110 -109c0 -63 -48 -109 -110 -109zM825 633c-45 0 -77 -26 -77 -74v-3h183v-162h-183v-394h-196v394h-252v-394h-196v394h-74v162h74v4c0 169 118 239 258 239c69 0 130 -19 190 -46l-59 -149
c-33 14 -66 28 -103 28c-50 0 -90 -26 -90 -74v-2h252c5 169 99 243 237 243c77 0 119 -15 172 -44l-49 -149c-23 13 -54 27 -87 27zM998 0v556h197v-556h-197z" />
    <glyph glyph-name="f_f_j" unicode="ffj" horiz-adv-x="1245" 
d="M1096 600c-62 0 -110 46 -110 109c0 62 49 109 110 109c62 0 110 -47 110 -109c0 -63 -48 -109 -110 -109zM926 394h-179v-394h-196v394h-251v-394h-196v394h-74v162h74v4c0 169 117 239 257 239c68 0 126 -15 182 -46l-51 -149c-28 14 -63 28 -101 28
c-49 0 -91 -26 -91 -74v-2h251c5 169 99 243 237 243c77 0 119 -15 172 -44l-49 -149c-23 13 -54 27 -87 27c-45 0 -77 -26 -77 -74v-3h179v-162zM997 36v520h197v-544c0 -178 -116 -249 -248 -249c-60 0 -128 14 -161 36l36 151c30 -10 57 -17 87 -17c56 0 89 35 89 103z
" />
    <glyph glyph-name="f_h" unicode="fh" horiz-adv-x="1154" 
d="M377 633c-45 0 -77 -26 -77 -74v-3h169v-162h-169v-394h-196v394h-74v162h74c5 169 90 243 228 243c77 0 119 -15 172 -44l-40 -149c-23 13 -54 27 -87 27zM896 571c108 0 213 -73 213 -229v-342h-197v291c0 64 -32 101 -87 101c-58 0 -99 -42 -99 -107v-285h-196v764
h192v-285c23 45 86 92 174 92z" />
    <glyph glyph-name="f_i" unicode="fi" horiz-adv-x="798" 
d="M649 600c-62 0 -110 46 -110 109c0 62 49 109 110 109c62 0 110 -47 110 -109c0 -63 -48 -109 -110 -109zM377 633c-45 0 -77 -26 -77 -74v-3h169v-162h-169v-394h-196v394h-74v162h74c5 169 99 243 237 243c77 0 119 -15 172 -44l-49 -149c-23 13 -54 27 -87 27zM550 0
v556h197v-556h-197z" />
    <glyph glyph-name="f_j" unicode="fj" horiz-adv-x="798" 
d="M649 600c-62 0 -110 46 -110 109c0 62 49 109 110 109c62 0 110 -47 110 -109c0 -63 -48 -109 -110 -109zM476 394h-176v-394h-196v394h-74v162h74c5 169 99 243 237 243c77 0 119 -15 172 -44l-49 -149c-23 13 -54 27 -87 27c-45 0 -77 -26 -77 -74v-3h176v-162zM550 36
v520h197v-544c0 -178 -116 -249 -248 -249c-60 0 -128 14 -161 36l36 151c30 -10 57 -17 87 -17c56 0 89 35 89 103z" />
    <glyph glyph-name="f_k" unicode="fk" horiz-adv-x="1110" 
d="M377 633c-45 0 -77 -26 -77 -74v-3h169v-162h-169v-394h-196v394h-74v162h74c5 169 87 243 225 243c77 0 119 -15 174 -44l-39 -149c-23 13 -54 27 -87 27zM899 0l-154 211l-19 -18v-193h-196v764h196v-353l148 145h236l-235 -222l255 -334h-231z" />
    <glyph glyph-name="f_l" unicode="fl" horiz-adv-x="777" 
d="M377 633c-45 0 -77 -26 -77 -74v-3h169v-162h-169v-394h-196v394h-74v162h74c5 169 86 243 233 243c68 0 116 -16 166 -44l-39 -149c-23 13 -54 27 -87 27zM530 764h196v-764h-196v764z" />
    <glyph glyph-name=".notdef" horiz-adv-x="130" 
 />
    <glyph glyph-name="A" unicode="A" horiz-adv-x="723" 
d="M508 0l-35 121h-223l-37 -121h-213l263 739h203l255 -739h-213zM426 300l-62 204l-64 -204h126z" />
    <glyph glyph-name="Aacute" unicode="&#xc1;" horiz-adv-x="723" 
d="M566 997l-103 -202h-191l70 202h224zM508 0l-35 121h-223l-37 -121h-213l263 739h203l255 -739h-213zM426 300l-62 204l-64 -204h126z" />
    <glyph glyph-name="Abreve" unicode="&#x102;" horiz-adv-x="723" 
d="M363 787c-127 0 -209 75 -222 207h159c2 -34 18 -75 63 -75c46 0 62 41 63 75h161c-13 -132 -95 -207 -224 -207zM508 0l-35 121h-223l-37 -121h-213l263 739h203l255 -739h-213zM426 300l-62 204l-64 -204h126z" />
    <glyph glyph-name="Acircumflex" unicode="&#xc2;" horiz-adv-x="723" 
d="M364 885l-60 -90h-188l170 206h162l171 -206h-194zM508 0l-35 121h-223l-37 -121h-213l263 739h203l255 -739h-213zM426 300l-62 204l-64 -204h126z" />
    <glyph glyph-name="Adieresis" unicode="&#xc4;" horiz-adv-x="723" 
d="M226 785c-62 0 -111 46 -111 111c0 62 50 110 111 110c63 0 111 -48 111 -110c0 -65 -48 -111 -111 -111zM485 785c-62 0 -111 46 -111 111c0 62 50 110 111 110c63 0 112 -48 112 -110c0 -65 -49 -111 -112 -111zM508 0l-35 121h-223l-37 -121h-213l263 739h203
l255 -739h-213zM426 300l-62 204l-64 -204h126z" />
    <glyph glyph-name="Agrave" unicode="&#xc0;" horiz-adv-x="723" 
d="M458 796h-191l-103 202h224zM508 0l-35 121h-223l-37 -121h-213l263 739h203l255 -739h-213zM426 300l-62 204l-64 -204h126z" />
    <glyph glyph-name="Amacron" unicode="&#x100;" horiz-adv-x="723" 
d="M568 974v-167l-405 -2v169h405zM508 0l-35 121h-223l-37 -121h-213l263 739h203l255 -739h-213zM426 300l-62 204l-64 -204h126z" />
    <glyph glyph-name="Aogonek" unicode="&#x104;" horiz-adv-x="719" 
d="M710 -120l26 -118c-42 -22 -80 -31 -122 -31c-89 0 -130 58 -130 121c0 51 29 104 90 148h-66l-35 121h-223l-37 -121h-213l263 739h203l255 -739c-42 -21 -83 -65 -83 -99c0 -21 14 -32 31 -32c11 0 25 5 41 11zM426 300l-62 204l-64 -204h126z" />
    <glyph glyph-name="Aring" unicode="&#xc5;" horiz-adv-x="723" 
d="M365 777c-92 0 -165 70 -165 157c0 89 73 160 165 160s165 -71 165 -160c0 -87 -73 -157 -165 -157zM365 988c-30 0 -54 -22 -54 -52s24 -54 54 -54c29 0 53 24 53 54s-24 52 -53 52zM508 0l-35 121h-223l-37 -121h-213l263 739h203l255 -739h-213zM426 300l-62 204
l-64 -204h126z" />
    <glyph glyph-name="Atilde" unicode="&#xc3;" horiz-adv-x="723" 
d="M302 834c-24 0 -47 -12 -73 -58l-129 65c50 94 98 145 183 145c67 0 99 -44 136 -44c21 0 37 12 63 53l130 -62c-42 -92 -97 -146 -166 -146c-61 0 -100 47 -144 47zM508 0l-35 121h-223l-37 -121h-213l263 739h203l255 -739h-213zM426 300l-62 204l-64 -204h126z" />
    <glyph glyph-name="AE" unicode="&#xc6;" horiz-adv-x="1093" 
d="M1042 547h-343v-82h318v-191h-318v-82h341v-192h-552v119h-222l-64 -119h-224l427 739h637v-192zM362 299h126v237z" />
    <glyph glyph-name="B" unicode="B" horiz-adv-x="716" 
d="M545 406c96 -22 141 -99 141 -187c0 -128 -98 -219 -241 -219h-377v739h359c148 0 220 -92 220 -182c0 -66 -42 -129 -102 -151zM387 565h-115v-105h106c50 0 65 28 65 52c0 28 -20 53 -56 53zM399 176c56 0 73 34 73 61c0 30 -20 60 -66 60h-134v-121h127z" />
    <glyph glyph-name="C" unicode="C" horiz-adv-x="751" 
d="M413 -11c-214 0 -380 152 -380 378c0 228 172 385 381 385c135 0 249 -58 316 -142l-130 -141c-45 47 -103 84 -172 84c-100 0 -179 -78 -179 -184c0 -104 78 -182 178 -182c68 0 131 36 176 88l137 -133c-63 -84 -183 -153 -327 -153z" />
    <glyph glyph-name="Cacute" unicode="&#x106;" horiz-adv-x="751" 
d="M320 795l70 202h224l-103 -202h-191zM413 -11c-214 0 -380 152 -380 378c0 228 172 385 381 385c135 0 249 -58 316 -142l-130 -141c-45 47 -103 84 -172 84c-100 0 -179 -78 -179 -184c0 -104 78 -182 178 -182c68 0 131 36 176 88l137 -133
c-63 -84 -183 -153 -327 -153z" />
    <glyph glyph-name="Ccaron" unicode="&#x10c;" horiz-adv-x="751" 
d="M190 987h174l56 -83l56 83h180l-158 -191h-150zM413 -11c-214 0 -380 152 -380 378c0 228 172 385 381 385c135 0 249 -58 316 -142l-130 -141c-45 47 -103 84 -172 84c-100 0 -179 -78 -179 -184c0 -104 78 -182 178 -182c68 0 131 36 176 88l137 -133
c-63 -84 -183 -153 -327 -153z" />
    <glyph glyph-name="Ccedilla" unicode="&#xc7;" horiz-adv-x="750" 
d="M739 142c-53 -70 -145 -130 -258 -148l-18 -44c56 -8 105 -47 105 -108c0 -65 -56 -131 -165 -131c-45 0 -90 11 -137 33l38 104c22 -11 54 -21 81 -21c34 0 45 15 45 30c0 21 -21 32 -59 32h-52l-7 33l29 73c-179 30 -309 172 -309 372c0 228 172 385 381 385
c135 0 249 -58 316 -142l-130 -141c-45 47 -103 84 -172 84c-100 0 -179 -78 -179 -184c0 -104 78 -182 178 -182c68 0 131 36 176 88z" />
    <glyph glyph-name="Ccircumflex" unicode="&#x108;" horiz-adv-x="751" 
d="M162 795l170 206h162l171 -206h-194l-61 90l-60 -90h-188zM413 -11c-214 0 -380 152 -380 378c0 228 172 385 381 385c135 0 249 -58 316 -142l-130 -141c-45 47 -103 84 -172 84c-100 0 -179 -78 -179 -184c0 -104 78 -182 178 -182c68 0 131 36 176 88l137 -133
c-63 -84 -183 -153 -327 -153z" />
    <glyph glyph-name="Cdotaccent" unicode="&#x10a;" horiz-adv-x="751" 
d="M414 790c-62 0 -110 46 -110 109c0 62 49 109 110 109c62 0 110 -47 110 -109c0 -63 -48 -109 -110 -109zM413 -11c-214 0 -380 152 -380 378c0 228 172 385 381 385c135 0 249 -58 316 -142l-130 -141c-45 47 -103 84 -172 84c-100 0 -179 -78 -179 -184
c0 -104 78 -182 178 -182c68 0 131 36 176 88l137 -133c-63 -84 -183 -153 -327 -153z" />
    <glyph glyph-name="D" unicode="D" horiz-adv-x="785" 
d="M68 0v739h308c238 0 374 -143 374 -370s-139 -369 -376 -369h-306zM276 200h108c103 0 150 85 150 170s-46 169 -150 169h-108v-339z" />
    <glyph glyph-name="Eth" unicode="&#xd0;" horiz-adv-x="796" 
d="M387 739c238 0 374 -143 374 -370s-139 -369 -376 -369h-306v290h-58v160h58v289h308zM395 200c103 0 150 85 150 170s-46 169 -150 169h-108v-89h165v-160h-165v-90h108z" />
    <glyph glyph-name="Dcaron" unicode="&#x10e;" horiz-adv-x="785" 
d="M126 987h174l56 -83l56 83h180l-158 -191h-150zM68 0v739h308c238 0 374 -143 374 -370s-139 -369 -376 -369h-306zM276 200h108c103 0 150 85 150 170s-46 169 -150 169h-108v-339z" />
    <glyph glyph-name="Dcroat" unicode="&#x110;" horiz-adv-x="796" 
d="M387 739c238 0 374 -143 374 -370s-139 -369 -376 -369h-306v290h-58v160h58v289h308zM395 200c103 0 150 85 150 170s-46 169 -150 169h-108v-89h165v-160h-165v-90h108z" />
    <glyph glyph-name="E" unicode="E" horiz-adv-x="671" 
d="M68 0v739h553v-192h-343v-82h317v-191h-317v-82h341v-192h-551z" />
    <glyph glyph-name="Eacute" unicode="&#xc9;" horiz-adv-x="671" 
d="M242 795l70 202h224l-103 -202h-191zM68 0v739h553v-192h-343v-82h317v-191h-317v-82h341v-192h-551z" />
    <glyph glyph-name="Ebreve" unicode="&#x114;" horiz-adv-x="671" 
d="M353 787c-127 0 -209 75 -222 207h159c2 -34 18 -75 63 -75c46 0 62 41 63 75h161c-13 -132 -95 -207 -224 -207zM68 0v739h553v-192h-343v-82h317v-191h-317v-82h341v-192h-551z" />
    <glyph glyph-name="Ecaron" unicode="&#x11a;" horiz-adv-x="671" 
d="M122 987h174l56 -83l56 83h180l-158 -191h-150zM68 0v739h553v-192h-343v-82h317v-191h-317v-82h341v-192h-551z" />
    <glyph glyph-name="Ecircumflex" unicode="&#xca;" horiz-adv-x="671" 
d="M94 795l170 206h162l171 -206h-194l-61 90l-60 -90h-188zM68 0v739h553v-192h-343v-82h317v-191h-317v-82h341v-192h-551z" />
    <glyph glyph-name="Edieresis" unicode="&#xcb;" horiz-adv-x="671" 
d="M216 785c-62 0 -111 46 -111 111c0 62 50 110 111 110c63 0 111 -48 111 -110c0 -65 -48 -111 -111 -111zM475 785c-62 0 -111 46 -111 111c0 62 50 110 111 110c63 0 112 -48 112 -110c0 -65 -49 -111 -112 -111zM68 0v739h553v-192h-343v-82h317v-191h-317v-82h341
v-192h-551z" />
    <glyph glyph-name="Edotaccent" unicode="&#x116;" horiz-adv-x="671" 
d="M346 790c-62 0 -110 46 -110 109c0 62 49 109 110 109c62 0 110 -47 110 -109c0 -63 -48 -109 -110 -109zM68 0v739h553v-192h-343v-82h317v-191h-317v-82h341v-192h-551z" />
    <glyph glyph-name="Egrave" unicode="&#xc8;" horiz-adv-x="671" 
d="M448 796h-191l-103 202h224zM68 0v739h553v-192h-343v-82h317v-191h-317v-82h341v-192h-551z" />
    <glyph glyph-name="Emacron" unicode="&#x112;" horiz-adv-x="671" 
d="M144 802v169h405v-167zM68 0v739h553v-192h-343v-82h317v-191h-317v-82h341v-192h-551z" />
    <glyph glyph-name="Eogonek" unicode="&#x118;" horiz-adv-x="663" 
d="M608 -120l26 -118c-42 -22 -80 -31 -122 -31c-89 0 -130 58 -130 121c0 51 29 104 90 148h-404v739h553v-192h-343v-82h317v-191h-317v-82h341v-192c-42 -21 -83 -65 -83 -99c0 -21 14 -32 31 -32c11 0 25 5 41 11z" />
    <glyph glyph-name="F" unicode="F" horiz-adv-x="641" 
d="M68 0v739h543v-194h-335v-99h297v-192h-297v-254h-208z" />
    <glyph glyph-name="G" unicode="G" horiz-adv-x="808" 
d="M427 -11c-233 0 -395 161 -395 380c0 225 172 383 400 383c122 0 223 -46 287 -101l-130 -157c-43 35 -99 59 -159 59c-112 0 -185 -82 -185 -181c0 -95 66 -185 185 -185c65 0 123 26 149 48v44h-149v176h336v-329c-89 -82 -203 -137 -339 -137z" />
    <glyph glyph-name="Gbreve" unicode="&#x11e;" horiz-adv-x="808" 
d="M424 790c-127 0 -209 75 -222 207h159c2 -34 18 -75 63 -75c46 0 62 41 63 75h161c-13 -132 -95 -207 -224 -207zM427 -11c-233 0 -395 161 -395 380c0 225 172 383 400 383c122 0 223 -46 287 -101l-130 -157c-43 35 -99 59 -159 59c-112 0 -185 -82 -185 -181
c0 -95 66 -185 185 -185c65 0 123 26 149 48v44h-149v176h336v-329c-89 -82 -203 -137 -339 -137z" />
    <glyph glyph-name="Gcircumflex" unicode="&#x11c;" horiz-adv-x="808" 
d="M185 798l170 206h162l171 -206h-194l-61 90l-60 -90h-188zM427 -11c-233 0 -395 161 -395 380c0 225 172 383 400 383c122 0 223 -46 287 -101l-130 -157c-43 35 -99 59 -159 59c-112 0 -185 -82 -185 -181c0 -95 66 -185 185 -185c65 0 123 26 149 48v44h-149v176h336
v-329c-89 -82 -203 -137 -339 -137z" />
    <glyph glyph-name="Gcommaaccent" unicode="&#x122;" horiz-adv-x="808" 
d="M430 455h336v-329c-89 -82 -203 -137 -339 -137c-233 0 -395 161 -395 380c0 225 172 383 400 383c122 0 223 -46 287 -101l-130 -157c-43 35 -99 59 -159 59c-112 0 -185 -82 -185 -181c0 -95 66 -185 185 -185c65 0 123 26 149 48v44h-149v176zM425 -41
c58 0 114 -40 114 -113c0 -80 -67 -140 -179 -225l-69 86c33 25 60 46 80 64c-31 16 -53 50 -53 88c0 54 45 100 107 100z" />
    <glyph glyph-name="Gdotaccent" unicode="&#x120;" horiz-adv-x="808" 
d="M427 786c-62 0 -110 46 -110 109c0 62 49 109 110 109c62 0 110 -47 110 -109c0 -63 -48 -109 -110 -109zM427 -11c-233 0 -395 161 -395 380c0 225 172 383 400 383c122 0 223 -46 287 -101l-130 -157c-43 35 -99 59 -159 59c-112 0 -185 -82 -185 -181
c0 -95 66 -185 185 -185c65 0 123 26 149 48v44h-149v176h336v-329c-89 -82 -203 -137 -339 -137z" />
    <glyph glyph-name="H" unicode="H" horiz-adv-x="786" 
d="M68 0v739h208v-274h232v274h210v-739h-210v265h-232v-265h-208z" />
    <glyph glyph-name="Hbar" unicode="&#x126;" horiz-adv-x="810" 
d="M795 662v-125h-65v-537h-210v265h-232v-265h-208v537h-65v125h65v77h208v-77h232v77h210v-77h65zM520 465v72h-232v-72h232z" />
    <glyph glyph-name="Hcircumflex" unicode="&#x124;" horiz-adv-x="786" 
d="M145 795l170 206h162l171 -206h-194l-61 90l-60 -90h-188zM68 0v739h208v-274h232v274h210v-739h-210v265h-232v-265h-208z" />
    <glyph glyph-name="I" unicode="I" horiz-adv-x="346" 
d="M68 739h210v-739h-210v739z" />
    <glyph glyph-name="IJ" unicode="&#x132;" horiz-adv-x="956" 
d="M68 739h210v-739h-210v739zM588 -12c-86 0 -180 27 -248 86l85 169c46 -36 93 -55 139 -55c87 0 132 59 132 141v410h208v-417c0 -247 -153 -334 -316 -334z" />
    <glyph glyph-name="Iacute" unicode="&#xcd;" horiz-adv-x="346" 
d="M72 797l70 202h224l-103 -202h-191zM68 739h210v-739h-210v739z" />
    <glyph glyph-name="Ibreve" unicode="&#x12c;" horiz-adv-x="346" 
d="M172 789c-127 0 -209 75 -222 207h159c2 -34 18 -75 63 -75c46 0 62 41 63 75h161c-13 -132 -95 -207 -224 -207zM68 739h210v-739h-210v739z" />
    <glyph glyph-name="Icircumflex" unicode="&#xce;" horiz-adv-x="346" 
d="M-76 797l170 206h162l171 -206h-194l-61 90l-60 -90h-188zM68 739h210v-739h-210v739z" />
    <glyph glyph-name="Idieresis" unicode="&#xcf;" horiz-adv-x="346" 
d="M44 787c-62 0 -111 46 -111 111c0 62 50 110 111 110c63 0 111 -48 111 -110c0 -65 -48 -111 -111 -111zM303 787c-62 0 -111 46 -111 111c0 62 50 110 111 110c63 0 112 -48 112 -110c0 -65 -49 -111 -112 -111zM68 739h210v-739h-210v739z" />
    <glyph glyph-name="Idotaccent" unicode="&#x130;" horiz-adv-x="346" 
d="M164 786c-62 0 -110 46 -110 109c0 62 49 109 110 109c62 0 110 -47 110 -109c0 -63 -48 -109 -110 -109zM60 739h210v-739h-210v739z" />
    <glyph glyph-name="Igrave" unicode="&#xcc;" horiz-adv-x="346" 
d="M275 797h-191l-103 202h224zM68 739h210v-739h-210v739z" />
    <glyph glyph-name="Imacron" unicode="&#x12a;" horiz-adv-x="346" 
d="M-29 805v169h405v-167zM68 739h210v-739h-210v739z" />
    <glyph glyph-name="Iogonek" unicode="&#x12e;" horiz-adv-x="346" 
d="M267 -120l26 -118c-42 -22 -80 -31 -122 -31c-89 0 -130 58 -130 121c0 51 29 104 90 148h-63v739h210v-739c-42 -21 -83 -65 -83 -99c0 -21 14 -32 31 -32c11 0 25 5 41 11z" />
    <glyph glyph-name="Itilde" unicode="&#x128;" horiz-adv-x="346" 
d="M44 778l-129 65c50 94 98 145 183 145c67 0 99 -44 136 -44c21 0 37 12 63 53l130 -62c-42 -92 -97 -146 -166 -146c-61 0 -100 47 -144 47c-24 0 -47 -12 -73 -58zM68 739h210v-739h-210v739z" />
    <glyph glyph-name="J" unicode="J" horiz-adv-x="617" 
d="M242 -12c-86 0 -180 27 -248 86l85 169c46 -36 93 -55 139 -55c87 0 132 59 132 141v410h208v-417c0 -247 -153 -334 -316 -334z" />
    <glyph glyph-name="Jacute" horiz-adv-x="610" 
d="M353 795l70 202h224l-103 -202h-191zM242 -12c-86 0 -180 27 -248 86l85 169c46 -36 93 -55 139 -55c87 0 132 59 132 141v410h208v-417c0 -247 -153 -334 -316 -334z" />
    <glyph glyph-name="Jcircumflex" unicode="&#x134;" horiz-adv-x="610" 
d="M203 795l170 206h162l171 -206h-194l-61 90l-60 -90h-188zM242 -12c-86 0 -180 27 -248 86l85 169c46 -36 93 -55 139 -55c87 0 132 59 132 141v410h208v-417c0 -247 -153 -334 -316 -334z" />
    <glyph glyph-name="K" unicode="K" horiz-adv-x="733" 
d="M492 0l-143 250l-73 -91v-159h-208v739h208v-278l207 278h253l-249 -321l259 -418h-254z" />
    <glyph glyph-name="Kcommaaccent" unicode="&#x136;" horiz-adv-x="733" 
d="M487 418l259 -418h-254l-143 250l-73 -91v-159h-208v739h208v-278l207 278h253zM376 -30c58 0 114 -40 114 -113c0 -80 -67 -140 -179 -225l-69 86c33 25 60 46 80 64c-31 16 -53 50 -53 88c0 54 45 100 107 100z" />
    <glyph glyph-name="L" unicode="L" horiz-adv-x="640" 
d="M68 0v739h210v-541h349v-198h-559z" />
    <glyph glyph-name="Lacute" unicode="&#x139;" horiz-adv-x="640" 
d="M80 795l70 202h224l-103 -202h-191zM68 0v739h210v-541h349v-198h-559z" />
    <glyph glyph-name="Lcaron" unicode="&#x13d;" horiz-adv-x="646" 
d="M367 629l74 194h199l-105 -194h-168zM68 0v739h210v-541h349v-198h-559z" />
    <glyph glyph-name="Lcommaaccent" unicode="&#x13b;" horiz-adv-x="640" 
d="M278 198h349v-198h-559v739h210v-541zM356 -31c58 0 114 -40 114 -113c0 -80 -67 -140 -179 -225l-69 86c33 25 60 46 80 64c-31 16 -53 50 -53 88c0 54 45 100 107 100z" />
    <glyph glyph-name="Ldot" unicode="&#x13f;" horiz-adv-x="643" 
d="M68 0v739h210v-541h349v-198h-559zM495 329c-59 0 -106 44 -106 104c0 57 47 102 106 102c55 0 101 -45 101 -102c0 -60 -46 -104 -101 -104z" />
    <glyph glyph-name="Lslash" unicode="&#x141;" horiz-adv-x="659" 
d="M297 198h349v-198h-559v219l-64 -38v178l64 38v342h210v-216l96 57v-179l-96 -57v-146z" />
    <glyph glyph-name="M" unicode="M" horiz-adv-x="963" 
d="M68 0v739h160l253 -358l252 358h162v-739h-206v320l-168 -231h-81l-168 231v-320h-204z" />
    <glyph glyph-name="N" unicode="N" horiz-adv-x="812" 
d="M540 739h204v-739h-163l-309 365v-365h-204v739h156l316 -370v370z" />
    <glyph glyph-name="Nacute" unicode="&#x143;" horiz-adv-x="812" 
d="M301 795l70 202h224l-103 -202h-191zM540 739h204v-739h-163l-309 365v-365h-204v739h156l316 -370v370z" />
    <glyph glyph-name="Ncaron" unicode="&#x147;" horiz-adv-x="812" 
d="M179 987h174l56 -83l56 83h180l-158 -191h-150zM540 739h204v-739h-163l-309 365v-365h-204v739h156l316 -370v370z" />
    <glyph glyph-name="Ncommaaccent" unicode="&#x145;" horiz-adv-x="812" 
d="M540 739h204v-739h-163l-309 365v-365h-204v739h156l316 -370v370zM417 -19c58 0 114 -40 114 -113c0 -80 -67 -140 -179 -225l-69 86c33 25 60 46 80 64c-31 16 -53 50 -53 88c0 54 45 100 107 100z" />
    <glyph glyph-name="Eng" unicode="&#x14a;" horiz-adv-x="812" 
d="M540 739h204v-656c0 -247 -147 -334 -306 -334c-48 0 -102 8 -151 25l38 189c24 -11 69 -18 97 -18c63 0 113 34 119 102l-269 318v-365h-204v739h156l316 -370v370z" />
    <glyph glyph-name="Ntilde" unicode="&#xd1;" horiz-adv-x="812" 
d="M279 783l-129 65c50 94 98 145 183 145c67 0 99 -44 136 -44c21 0 37 12 63 53l130 -62c-42 -92 -97 -146 -166 -146c-61 0 -100 47 -144 47c-24 0 -47 -12 -73 -58zM540 739h204v-739h-163l-309 365v-365h-204v739h156l316 -370v370z" />
    <glyph glyph-name="O" unicode="O" horiz-adv-x="840" 
d="M421 -12c-224 0 -389 169 -389 382s165 382 388 382s388 -169 388 -383c0 -213 -164 -381 -387 -381zM420 194c98 0 173 76 172 176c-1 106 -80 176 -172 176c-95 0 -172 -73 -172 -176s77 -176 172 -176z" />
    <glyph glyph-name="Oacute" unicode="&#xd3;" horiz-adv-x="840" 
d="M327 795l70 202h224l-103 -202h-191zM421 -12c-224 0 -389 169 -389 382s165 382 388 382s388 -169 388 -383c0 -213 -164 -381 -387 -381zM420 194c98 0 173 76 172 176c-1 106 -80 176 -172 176c-95 0 -172 -73 -172 -176s77 -176 172 -176z" />
    <glyph glyph-name="Obreve" unicode="&#x14e;" horiz-adv-x="840" 
d="M425 787c-127 0 -209 75 -222 207h159c2 -34 18 -75 63 -75c46 0 62 41 63 75h161c-13 -132 -95 -207 -224 -207zM421 -12c-224 0 -389 169 -389 382s165 382 388 382s388 -169 388 -383c0 -213 -164 -381 -387 -381zM420 194c98 0 173 76 172 176
c-1 106 -80 176 -172 176c-95 0 -172 -73 -172 -176s77 -176 172 -176z" />
    <glyph glyph-name="Ocircumflex" unicode="&#xd4;" horiz-adv-x="840" 
d="M172 795l170 206h162l171 -206h-194l-61 90l-60 -90h-188zM421 -12c-224 0 -389 169 -389 382s165 382 388 382s388 -169 388 -383c0 -213 -164 -381 -387 -381zM420 194c98 0 173 76 172 176c-1 106 -80 176 -172 176c-95 0 -172 -73 -172 -176s77 -176 172 -176z" />
    <glyph glyph-name="Odieresis" unicode="&#xd6;" horiz-adv-x="840" 
d="M291 785c-62 0 -111 46 -111 111c0 62 50 110 111 110c63 0 111 -48 111 -110c0 -65 -48 -111 -111 -111zM550 785c-62 0 -111 46 -111 111c0 62 50 110 111 110c63 0 112 -48 112 -110c0 -65 -49 -111 -112 -111zM421 -12c-224 0 -389 169 -389 382s165 382 388 382
s388 -169 388 -383c0 -213 -164 -381 -387 -381zM420 194c98 0 173 76 172 176c-1 106 -80 176 -172 176c-95 0 -172 -73 -172 -176s77 -176 172 -176z" />
    <glyph glyph-name="Ograve" unicode="&#xd2;" horiz-adv-x="840" 
d="M523 796h-191l-103 202h224zM421 -12c-224 0 -389 169 -389 382s165 382 388 382s388 -169 388 -383c0 -213 -164 -381 -387 -381zM420 194c98 0 173 76 172 176c-1 106 -80 176 -172 176c-95 0 -172 -73 -172 -176s77 -176 172 -176z" />
    <glyph glyph-name="Ohungarumlaut" unicode="&#x150;" horiz-adv-x="840" 
d="M209 796l48 202h208l-81 -202h-175zM452 796l76 202h218l-112 -202h-182zM421 -12c-224 0 -389 169 -389 382s165 382 388 382s388 -169 388 -383c0 -213 -164 -381 -387 -381zM420 194c98 0 173 76 172 176c-1 106 -80 176 -172 176c-95 0 -172 -73 -172 -176
s77 -176 172 -176z" />
    <glyph glyph-name="Omacron" unicode="&#x14c;" horiz-adv-x="840" 
d="M219 805v169h405v-167zM421 -12c-224 0 -389 169 -389 382s165 382 388 382s388 -169 388 -383c0 -213 -164 -381 -387 -381zM420 194c98 0 173 76 172 176c-1 106 -80 176 -172 176c-95 0 -172 -73 -172 -176s77 -176 172 -176z" />
    <glyph glyph-name="Oslash" unicode="&#xd8;" horiz-adv-x="840" 
d="M703 635c66 -69 105 -162 105 -266c0 -213 -164 -381 -387 -381c-55 0 -106 10 -153 29l-64 -92l-112 76l62 87c-76 70 -122 170 -122 282c0 213 165 382 388 382c64 0 123 -14 175 -39l66 94l110 -76zM248 370c0 -40 12 -75 31 -104l192 272c-16 5 -33 8 -51 8
c-95 0 -172 -73 -172 -176zM420 194c98 0 173 76 172 176c0 30 -7 57 -18 81l-180 -255c9 -1 17 -2 26 -2z" />
    <glyph glyph-name="Otilde" unicode="&#xd5;" horiz-adv-x="840" 
d="M294 776l-129 65c50 94 98 145 183 145c67 0 99 -44 136 -44c21 0 37 12 63 53l130 -62c-42 -92 -97 -146 -166 -146c-61 0 -100 47 -144 47c-24 0 -47 -12 -73 -58zM421 -12c-224 0 -389 169 -389 382s165 382 388 382s388 -169 388 -383c0 -213 -164 -381 -387 -381z
M420 194c98 0 173 76 172 176c-1 106 -80 176 -172 176c-95 0 -172 -73 -172 -176s77 -176 172 -176z" />
    <glyph glyph-name="OE" unicode="&#x152;" horiz-adv-x="1082" 
d="M1032 547h-343v-82h317v-191h-317v-82h341v-192h-542c-23 -2 -46 -3 -67 -3c-260 0 -387 162 -387 372s125 373 385 373c21 0 44 -1 67 -3h546v-192zM478 200v339c-19 3 -37 5 -53 5c-131 0 -175 -98 -175 -174s45 -175 175 -175c16 0 34 2 53 5z" />
    <glyph glyph-name="P" unicode="P" horiz-adv-x="678" 
d="M374 739c211 0 287 -129 287 -264c0 -138 -80 -255 -301 -255h-84v-220h-208v739h306zM370 406c52 0 77 34 77 71c0 41 -31 72 -75 72h-96v-143h94z" />
    <glyph glyph-name="Thorn" unicode="&#xde;" horiz-adv-x="689" 
d="M382 632c203 0 279 -128 279 -258c0 -132 -80 -252 -293 -252h-92v-122h-208v739h208v-107h106zM374 311c53 0 71 35 71 65c0 34 -24 64 -69 64h-100v-129h98z" />
    <glyph glyph-name="Q" unicode="Q" horiz-adv-x="840" 
d="M809 7l30 -168c-55 -18 -109 -28 -166 -28c-129 0 -247 51 -327 184c-185 35 -314 186 -314 375c0 213 165 382 388 382s388 -169 388 -383c0 -158 -90 -292 -227 -350c24 -21 54 -32 105 -32c38 0 76 6 123 20zM242 369c0 -104 79 -180 178 -180s178 76 178 180
s-79 182 -178 182s-178 -78 -178 -182z" />
    <glyph glyph-name="R" unicode="R" horiz-adv-x="716" 
d="M457 0l-117 231h-64v-231h-208v739h322c193 0 280 -112 280 -251c0 -87 -35 -174 -127 -221l151 -267h-237zM276 550v-139h107c53 0 73 35 73 70c0 38 -24 69 -68 69h-112z" />
    <glyph glyph-name="Racute" unicode="&#x154;" horiz-adv-x="716" 
d="M509 997l-103 -202h-191l70 202h224zM457 0l-117 231h-64v-231h-208v739h322c193 0 280 -112 280 -251c0 -87 -35 -174 -127 -221l151 -267h-237zM276 550v-139h107c53 0 73 35 73 70c0 38 -24 69 -68 69h-112z" />
    <glyph glyph-name="Rcaron" unicode="&#x158;" horiz-adv-x="716" 
d="M413 796h-150l-158 191h174l56 -83l56 83h180zM457 0l-117 231h-64v-231h-208v739h322c193 0 280 -112 280 -251c0 -87 -35 -174 -127 -221l151 -267h-237zM276 550v-139h107c53 0 73 35 73 70c0 38 -24 69 -68 69h-112z" />
    <glyph glyph-name="Rcommaaccent" unicode="&#x156;" horiz-adv-x="716" 
d="M276 231v-231h-208v739h322c193 0 280 -112 280 -251c0 -87 -35 -174 -127 -221l151 -267h-237l-117 231h-64zM388 550h-112v-139h107c53 0 73 35 73 70c0 38 -24 69 -68 69zM360 -22c58 0 114 -40 114 -113c0 -80 -67 -140 -179 -225l-69 86c33 25 60 46 80 64
c-31 16 -53 50 -53 88c0 54 45 100 107 100z" />
    <glyph glyph-name="S" unicode="S" horiz-adv-x="658" 
d="M323 -13c-127 0 -234 45 -314 122l100 155c58 -48 135 -86 217 -86c32 0 71 8 71 39c0 21 -22 34 -56 46c-43 15 -106 29 -161 56c-67 33 -124 89 -124 195c0 135 119 236 288 236c93 0 192 -29 274 -90l-92 -161c-45 33 -125 57 -179 57c-51 0 -69 -19 -69 -36
c0 -27 32 -37 58 -45c38 -12 93 -28 142 -47c82 -32 150 -87 150 -199c0 -137 -114 -242 -305 -242z" />
    <glyph glyph-name="Sacute" unicode="&#x15a;" horiz-adv-x="640" 
d="M229 793l70 202h224l-103 -202h-191zM323 -13c-127 0 -234 45 -314 122l100 155c58 -48 135 -86 217 -86c32 0 71 8 71 39c0 21 -22 34 -56 46c-43 15 -106 29 -161 56c-67 33 -124 89 -124 195c0 135 119 236 288 236c93 0 192 -29 274 -90l-92 -161
c-45 33 -125 57 -179 57c-51 0 -69 -19 -69 -36c0 -27 32 -37 58 -45c38 -12 93 -28 142 -47c82 -32 150 -87 150 -199c0 -137 -114 -242 -305 -242z" />
    <glyph glyph-name="Scaron" unicode="&#x160;" horiz-adv-x="640" 
d="M111 985h174l56 -83l56 83h180l-158 -191h-150zM323 -13c-127 0 -234 45 -314 122l100 155c58 -48 135 -86 217 -86c32 0 71 8 71 39c0 21 -22 34 -56 46c-43 15 -106 29 -161 56c-67 33 -124 89 -124 195c0 135 119 236 288 236c93 0 192 -29 274 -90l-92 -161
c-45 33 -125 57 -179 57c-51 0 -69 -19 -69 -36c0 -27 32 -37 58 -45c38 -12 93 -28 142 -47c82 -32 150 -87 150 -199c0 -137 -114 -242 -305 -242z" />
    <glyph glyph-name="Scedilla" unicode="&#x15e;" horiz-adv-x="640" 
d="M628 229c0 -122 -90 -219 -245 -238l-17 -41c56 -8 105 -47 105 -108c0 -65 -56 -131 -165 -131c-45 0 -90 11 -137 33l38 104c22 -11 54 -21 81 -21c34 0 45 15 45 30c0 21 -21 32 -59 32h-52l-7 33l28 71c-92 15 -171 56 -234 116l100 155c58 -48 135 -86 217 -86
c32 0 71 8 71 39c0 21 -22 34 -56 46c-43 15 -106 29 -161 56c-67 33 -124 89 -124 195c0 135 119 236 288 236c93 0 192 -29 274 -90l-92 -161c-45 33 -125 57 -179 57c-51 0 -69 -19 -69 -36c0 -27 32 -37 58 -45c38 -12 93 -28 142 -47c82 -32 150 -87 150 -199z" />
    <glyph glyph-name="Scircumflex" unicode="&#x15c;" horiz-adv-x="640" 
d="M93 793l170 206h162l171 -206h-194l-61 90l-60 -90h-188zM323 -13c-127 0 -234 45 -314 122l100 155c58 -48 135 -86 217 -86c32 0 71 8 71 39c0 21 -22 34 -56 46c-43 15 -106 29 -161 56c-67 33 -124 89 -124 195c0 135 119 236 288 236c93 0 192 -29 274 -90l-92 -161
c-45 33 -125 57 -179 57c-51 0 -69 -19 -69 -36c0 -27 32 -37 58 -45c38 -12 93 -28 142 -47c82 -32 150 -87 150 -199c0 -137 -114 -242 -305 -242z" />
    <glyph glyph-name="Scommaaccent" unicode="&#x218;" horiz-adv-x="640" 
d="M478 428c82 -32 150 -87 150 -199c0 -137 -114 -242 -305 -242c-127 0 -234 45 -314 122l100 155c58 -48 135 -86 217 -86c32 0 71 8 71 39c0 21 -22 34 -56 46c-43 15 -106 29 -161 56c-67 33 -124 89 -124 195c0 135 119 236 288 236c93 0 192 -29 274 -90l-92 -161
c-45 33 -125 57 -179 57c-51 0 -69 -19 -69 -36c0 -27 32 -37 58 -45c38 -12 93 -28 142 -47zM316 -42c58 0 114 -40 114 -113c0 -80 -67 -140 -179 -225l-69 86c33 25 60 46 80 64c-31 16 -53 50 -53 88c0 54 45 100 107 100z" />
    <glyph glyph-name="T" unicode="T" horiz-adv-x="641" 
d="M216 539h-202v200h613v-200h-201v-539h-210v539z" />
    <glyph glyph-name="Tbar" unicode="&#x166;" horiz-adv-x="649" 
d="M631 539h-201v-98h110v-160h-110v-281h-210v281h-111v160h111v98h-202v200h613v-200z" />
    <glyph glyph-name="Tcaron" unicode="&#x164;" horiz-adv-x="641" 
d="M93 987h174l56 -83l56 83h180l-158 -191h-150zM216 539h-202v200h613v-200h-201v-539h-210v539z" />
    <glyph glyph-name="uni021A" unicode="&#x21a;" horiz-adv-x="641" 
d="M14 739h613v-200h-201v-539h-210v539h-202v200zM317 -27c58 0 114 -40 114 -113c0 -80 -67 -140 -179 -225l-69 86c33 25 60 46 80 64c-31 16 -53 50 -53 88c0 54 45 100 107 100z" />
    <glyph glyph-name="U" unicode="U" horiz-adv-x="748" 
d="M374 -13c-152 0 -314 78 -314 309v443h210v-443c0 -79 50 -109 104 -109c53 0 104 30 104 109v443h210v-443c0 -231 -161 -309 -314 -309z" />
    <glyph glyph-name="Uacute" unicode="&#xda;" horiz-adv-x="748" 
d="M274 795l70 202h224l-103 -202h-191zM374 -13c-152 0 -314 78 -314 309v443h210v-443c0 -79 50 -109 104 -109c53 0 104 30 104 109v443h210v-443c0 -231 -161 -309 -314 -309z" />
    <glyph glyph-name="Ubreve" unicode="&#x16c;" horiz-adv-x="748" 
d="M375 787c-127 0 -209 75 -222 207h159c2 -34 18 -75 63 -75c46 0 62 41 63 75h161c-13 -132 -95 -207 -224 -207zM374 -13c-152 0 -314 78 -314 309v443h210v-443c0 -79 50 -109 104 -109c53 0 104 30 104 109v443h210v-443c0 -231 -161 -309 -314 -309z" />
    <glyph glyph-name="Ucircumflex" unicode="&#xdb;" horiz-adv-x="748" 
d="M125 795l170 206h162l171 -206h-194l-61 90l-60 -90h-188zM374 -13c-152 0 -314 78 -314 309v443h210v-443c0 -79 50 -109 104 -109c53 0 104 30 104 109v443h210v-443c0 -231 -161 -309 -314 -309z" />
    <glyph glyph-name="Udieresis" unicode="&#xdc;" horiz-adv-x="748" 
d="M245 785c-62 0 -111 46 -111 111c0 62 50 110 111 110c63 0 111 -48 111 -110c0 -65 -48 -111 -111 -111zM504 785c-62 0 -111 46 -111 111c0 62 50 110 111 110c63 0 112 -48 112 -110c0 -65 -49 -111 -112 -111zM374 -13c-152 0 -314 78 -314 309v443h210v-443
c0 -79 50 -109 104 -109c53 0 104 30 104 109v443h210v-443c0 -231 -161 -309 -314 -309z" />
    <glyph glyph-name="Ugrave" unicode="&#xd9;" horiz-adv-x="748" 
d="M478 796h-191l-103 202h224zM374 -13c-152 0 -314 78 -314 309v443h210v-443c0 -79 50 -109 104 -109c53 0 104 30 104 109v443h210v-443c0 -231 -161 -309 -314 -309z" />
    <glyph glyph-name="Uhungarumlaut" unicode="&#x170;" horiz-adv-x="750" 
d="M164 796l48 202h208l-81 -202h-175zM407 796l76 202h218l-112 -202h-182zM374 -13c-152 0 -314 78 -314 309v443h210v-443c0 -79 50 -109 104 -109c53 0 104 30 104 109v443h210v-443c0 -231 -161 -309 -314 -309z" />
    <glyph glyph-name="Umacron" unicode="&#x16a;" horiz-adv-x="748" 
d="M174 810v169h405v-167zM374 -13c-152 0 -314 78 -314 309v443h210v-443c0 -79 50 -109 104 -109c53 0 104 30 104 109v443h210v-443c0 -231 -161 -309 -314 -309z" />
    <glyph glyph-name="Uogonek" unicode="&#x172;" horiz-adv-x="748" 
d="M478 739h210v-443c0 -170 -88 -258 -195 -292c-41 -21 -80 -64 -80 -97c0 -21 14 -32 31 -32c11 0 25 5 41 11l26 -118c-42 -22 -80 -31 -122 -31c-89 0 -130 58 -130 121c0 45 22 91 69 131c-137 15 -268 99 -268 307v443h210v-443c0 -79 50 -109 104 -109
c53 0 104 30 104 109v443z" />
    <glyph glyph-name="Uring" unicode="&#x16e;" horiz-adv-x="748" 
d="M374 777c-92 0 -165 70 -165 157c0 89 73 160 165 160s165 -71 165 -160c0 -87 -73 -157 -165 -157zM374 882c29 0 53 24 53 54s-24 52 -53 52c-30 0 -54 -22 -54 -52s24 -54 54 -54zM374 -13c-152 0 -314 78 -314 309v443h210v-443c0 -79 50 -109 104 -109
c53 0 104 30 104 109v443h210v-443c0 -231 -161 -309 -314 -309z" />
    <glyph glyph-name="Utilde" unicode="&#x168;" horiz-adv-x="748" 
d="M249 780l-129 65c50 94 98 145 183 145c67 0 99 -44 136 -44c21 0 37 12 63 53l130 -62c-42 -92 -97 -146 -166 -146c-61 0 -100 47 -144 47c-24 0 -47 -12 -73 -58zM374 -13c-152 0 -314 78 -314 309v443h210v-443c0 -79 50 -109 104 -109c53 0 104 30 104 109v443h210
v-443c0 -231 -161 -309 -314 -309z" />
    <glyph glyph-name="V" unicode="V" horiz-adv-x="774" 
d="M533 739h241l-289 -739h-194l-293 739h242l148 -442z" />
    <glyph glyph-name="W" unicode="W" horiz-adv-x="1109" 
d="M233 0l-234 739h232l112 -442l134 442h155l134 -442l112 442h232l-234 -739h-210l-111 400l-112 -400h-210z" />
    <glyph glyph-name="Wacute" unicode="&#x1e82;" horiz-adv-x="1109" 
d="M466 795l70 202h224l-103 -202h-191zM233 0l-234 739h232l112 -442l134 442h155l134 -442l112 442h232l-234 -739h-210l-111 400l-112 -400h-210z" />
    <glyph glyph-name="Wcircumflex" unicode="&#x174;" horiz-adv-x="1109" 
d="M306 795l170 206h162l171 -206h-194l-61 90l-60 -90h-188zM233 0l-234 739h232l112 -442l134 442h155l134 -442l112 442h232l-234 -739h-210l-111 400l-112 -400h-210z" />
    <glyph glyph-name="Wdieresis" unicode="&#x1e84;" horiz-adv-x="1109" 
d="M427 785c-62 0 -111 46 -111 111c0 62 50 110 111 110c63 0 111 -48 111 -110c0 -65 -48 -111 -111 -111zM686 785c-62 0 -111 46 -111 111c0 62 50 110 111 110c63 0 112 -48 112 -110c0 -65 -49 -111 -112 -111zM233 0l-234 739h232l112 -442l134 442h155l134 -442
l112 442h232l-234 -739h-210l-111 400l-112 -400h-210z" />
    <glyph glyph-name="Wgrave" unicode="&#x1e80;" horiz-adv-x="1109" 
d="M652 796h-191l-103 202h224zM233 0l-234 739h232l112 -442l134 442h155l134 -442l112 442h232l-234 -739h-210l-111 400l-112 -400h-210z" />
    <glyph glyph-name="X" unicode="X" horiz-adv-x="721" 
d="M-1 0l226 372l-205 367h239l102 -211l115 211h241l-222 -367l216 -372h-239l-113 218l-119 -218h-241z" />
    <glyph glyph-name="Y" unicode="Y" horiz-adv-x="729" 
d="M728 739l-260 -495v-244h-208v244l-257 495h246l115 -261l118 261h246z" />
    <glyph glyph-name="Yacute" unicode="&#xdd;" horiz-adv-x="729" 
d="M265 795l70 202h224l-103 -202h-191zM728 739l-260 -495v-244h-208v244l-257 495h246l115 -261l118 261h246z" />
    <glyph glyph-name="Ycircumflex" unicode="&#x176;" horiz-adv-x="729" 
d="M117 795l170 206h162l171 -206h-194l-61 90l-60 -90h-188zM728 739l-260 -495v-244h-208v244l-257 495h246l115 -261l118 261h246z" />
    <glyph glyph-name="Ydieresis" unicode="&#x178;" horiz-adv-x="729" 
d="M235 785c-62 0 -111 46 -111 111c0 62 50 110 111 110c63 0 111 -48 111 -110c0 -65 -48 -111 -111 -111zM494 785c-62 0 -111 46 -111 111c0 62 50 110 111 110c63 0 112 -48 112 -110c0 -65 -49 -111 -112 -111zM728 739l-260 -495v-244h-208v244l-257 495h246
l115 -261l118 261h246z" />
    <glyph glyph-name="Ygrave" unicode="&#x1ef2;" horiz-adv-x="729" 
d="M471 796h-191l-103 202h224zM728 739l-260 -495v-244h-208v244l-257 495h246l115 -261l118 261h246z" />
    <glyph glyph-name="Z" unicode="Z" horiz-adv-x="691" 
d="M40 0v160l321 390h-311v189h590v-168l-311 -382h322v-189h-611z" />
    <glyph glyph-name="Zacute" unicode="&#x179;" horiz-adv-x="691" 
d="M249 797l70 202h224l-103 -202h-191zM40 0v160l321 390h-311v189h590v-168l-311 -382h322v-189h-611z" />
    <glyph glyph-name="Zcaron" unicode="&#x17d;" horiz-adv-x="691" 
d="M122 989h174l56 -83l56 83h180l-158 -191h-150zM40 0v160l321 390h-311v189h590v-168l-311 -382h322v-189h-611z" />
    <glyph glyph-name="Zdotaccent" unicode="&#x17b;" horiz-adv-x="691" 
d="M352 790c-62 0 -110 46 -110 109c0 62 49 109 110 109c62 0 110 -47 110 -109c0 -63 -48 -109 -110 -109zM40 0v160l321 390h-311v189h590v-168l-311 -382h322v-189h-611z" />
    <glyph glyph-name="Iacute_J.loclNLD" horiz-adv-x="956" 
d="M76 797l70 202h224l-103 -202h-191zM699 795l70 202h224l-103 -202h-191zM68 739h210v-739h-210v739zM588 -12c-86 0 -180 27 -248 86l85 169c46 -36 93 -55 139 -55c87 0 132 59 132 141v410h208v-417c0 -247 -153 -334 -316 -334z" />
    <glyph glyph-name="J.loclNLD" horiz-adv-x="610" 
d="M353 795l70 202h224l-103 -202h-191zM242 -12c-86 0 -180 27 -248 86l85 169c46 -36 93 -55 139 -55c87 0 132 59 132 141v410h208v-417c0 -247 -153 -334 -316 -334z" />
    <glyph glyph-name="a" unicode="a" horiz-adv-x="691" 
d="M455 556h185v-556h-185v39c-39 -31 -89 -53 -156 -53c-161 0 -271 130 -271 294c0 167 115 290 271 290c66 0 117 -22 156 -55v41zM337 165c64 0 114 52 114 114c0 61 -50 112 -114 112c-65 0 -113 -51 -113 -112c0 -63 50 -114 113 -114z" />
    <glyph glyph-name="aacute" unicode="&#xe1;" horiz-adv-x="695" 
d="M528 818l-95 -187h-177l65 187h207zM455 556h185v-556h-185v39c-39 -31 -89 -53 -156 -53c-161 0 -271 130 -271 294c0 167 115 290 271 290c66 0 117 -22 156 -55v41zM337 165c64 0 114 52 114 114c0 61 -50 112 -114 112c-65 0 -113 -51 -113 -112
c0 -63 50 -114 113 -114z" />
    <glyph glyph-name="abreve" unicode="&#x103;" horiz-adv-x="695" 
d="M347 626c-118 0 -194 70 -206 192h147c2 -32 17 -70 59 -70s57 38 58 70h149c-12 -122 -88 -192 -207 -192zM455 556h185v-556h-185v39c-39 -31 -89 -53 -156 -53c-161 0 -271 130 -271 294c0 167 115 290 271 290c66 0 117 -22 156 -55v41zM337 165c64 0 114 52 114 114
c0 61 -50 112 -114 112c-65 0 -113 -51 -113 -112c0 -63 50 -114 113 -114z" />
    <glyph glyph-name="acircumflex" unicode="&#xe2;" horiz-adv-x="695" 
d="M347 714l-56 -83h-174l158 191h150l158 -191h-180zM455 556h185v-556h-185v39c-39 -31 -89 -53 -156 -53c-161 0 -271 130 -271 294c0 167 115 290 271 290c66 0 117 -22 156 -55v41zM337 165c64 0 114 52 114 114c0 61 -50 112 -114 112c-65 0 -113 -51 -113 -112
c0 -63 50 -114 113 -114z" />
    <glyph glyph-name="adieresis" unicode="&#xe4;" horiz-adv-x="695" 
d="M236 616c-58 0 -103 43 -103 103c0 58 46 102 103 102c58 0 103 -44 103 -102c0 -60 -45 -103 -103 -103zM476 616c-58 0 -103 43 -103 103c0 58 46 102 103 102c58 0 103 -44 103 -102c0 -60 -45 -103 -103 -103zM455 556h185v-556h-185v39c-39 -31 -89 -53 -156 -53
c-161 0 -271 130 -271 294c0 167 115 290 271 290c66 0 117 -22 156 -55v41zM337 165c64 0 114 52 114 114c0 61 -50 112 -114 112c-65 0 -113 -51 -113 -112c0 -63 50 -114 113 -114z" />
    <glyph glyph-name="agrave" unicode="&#xe0;" horiz-adv-x="695" 
d="M438 632h-177l-95 187h207zM455 556h185v-556h-185v39c-39 -31 -89 -53 -156 -53c-161 0 -271 130 -271 294c0 167 115 290 271 290c66 0 117 -22 156 -55v41zM337 165c64 0 114 52 114 114c0 61 -50 112 -114 112c-65 0 -113 -51 -113 -112c0 -63 50 -114 113 -114z" />
    <glyph glyph-name="amacron" unicode="&#x101;" horiz-adv-x="695" 
d="M526 802v-167l-352 -2v169h352zM455 556h185v-556h-185v39c-39 -31 -89 -53 -156 -53c-161 0 -271 130 -271 294c0 167 115 290 271 290c66 0 117 -22 156 -55v41zM337 165c64 0 114 52 114 114c0 61 -50 112 -114 112c-65 0 -113 -51 -113 -112c0 -63 50 -114 113 -114z
" />
    <glyph glyph-name="aogonek" unicode="&#x105;" horiz-adv-x="685" 
d="M629 -120l26 -118c-42 -22 -80 -31 -122 -31c-89 0 -130 58 -130 121c0 51 29 104 90 148h-38v39c-39 -31 -89 -53 -156 -53c-161 0 -271 130 -271 294c0 167 115 290 271 290c66 0 117 -22 156 -55v41h185v-556c-42 -21 -83 -65 -83 -99c0 -21 14 -32 31 -32
c11 0 25 5 41 11zM337 165c64 0 114 52 114 114c0 61 -50 112 -114 112c-65 0 -113 -51 -113 -112c0 -63 50 -114 113 -114z" />
    <glyph glyph-name="aring" unicode="&#xe5;" horiz-adv-x="695" 
d="M350 613c-85 0 -153 65 -153 146c0 82 68 148 153 148s153 -66 153 -148c0 -81 -68 -146 -153 -146zM350 809c-28 0 -50 -21 -50 -48c0 -28 22 -50 50 -50c27 0 49 22 49 50c0 27 -22 48 -49 48zM455 556h185v-556h-185v39c-39 -31 -89 -53 -156 -53
c-161 0 -271 130 -271 294c0 167 115 290 271 290c66 0 117 -22 156 -55v41zM337 165c64 0 114 52 114 114c0 61 -50 112 -114 112c-65 0 -113 -51 -113 -112c0 -63 50 -114 113 -114z" />
    <glyph glyph-name="atilde" unicode="&#xe3;" horiz-adv-x="695" 
d="M303 666c-22 0 -44 -11 -69 -55l-123 62c48 90 93 138 174 138c64 0 95 -42 130 -42c20 0 35 12 60 51l124 -59c-40 -88 -93 -139 -158 -139c-59 0 -96 44 -138 44zM455 556h185v-556h-185v39c-39 -31 -89 -53 -156 -53c-161 0 -271 130 -271 294c0 167 115 290 271 290
c66 0 117 -22 156 -55v41zM337 165c64 0 114 52 114 114c0 61 -50 112 -114 112c-65 0 -113 -51 -113 -112c0 -63 50 -114 113 -114z" />
    <glyph glyph-name="ae" unicode="&#xe6;" horiz-adv-x="963" 
d="M935 302c0 -24 -2 -59 -7 -81l-367 2c17 -48 55 -81 116 -81c49 0 100 18 147 51l81 -125c-57 -42 -137 -80 -241 -80c-100 0 -173 35 -219 90c-51 -59 -126 -90 -211 -90c-139 0 -210 80 -210 180c0 131 118 180 273 180h74c-19 58 -69 70 -113 70
c-50 0 -102 -15 -157 -46l-55 133c66 39 156 65 234 65c67 0 139 -19 187 -76c49 47 116 76 197 76c142 0 271 -85 271 -268zM666 418c-47 0 -86 -23 -104 -70h204c-13 44 -51 70 -100 70zM261 142c34 0 89 15 110 82h-67c-47 0 -99 -4 -99 -42c0 -25 21 -40 56 -40z" />
    <glyph glyph-name="b" unicode="b" horiz-adv-x="691" 
d="M387 570c157 0 276 -121 276 -292c0 -172 -119 -292 -275 -292c-65 0 -112 22 -148 54v-40h-189v764h196v-241c35 28 80 47 140 47zM351 165c65 0 112 50 112 114c0 62 -47 112 -112 112c-64 0 -112 -50 -112 -112c0 -64 48 -114 112 -114z" />
    <glyph glyph-name="c" unicode="c" horiz-adv-x="609" 
d="M324 -12c-176 0 -296 121 -296 291c0 169 120 291 298 291c112 0 217 -51 268 -166l-156 -81c-24 40 -61 65 -107 65c-64 0 -109 -47 -109 -109c0 -64 46 -111 108 -111c47 0 89 26 106 65l157 -93c-49 -94 -147 -152 -269 -152z" />
    <glyph glyph-name="cacute" unicode="&#x107;" horiz-adv-x="609" 
d="M229 631l65 187h207l-95 -187h-177zM324 -12c-176 0 -296 121 -296 291c0 169 120 291 298 291c112 0 217 -51 268 -166l-156 -81c-24 40 -61 65 -107 65c-64 0 -109 -47 -109 -109c0 -64 46 -111 108 -111c47 0 89 26 106 65l157 -93c-49 -94 -147 -152 -269 -152z" />
    <glyph glyph-name="ccaron" unicode="&#x10d;" horiz-adv-x="609" 
d="M95 821h174l56 -83l56 83h180l-158 -191h-150zM324 -12c-176 0 -296 121 -296 291c0 169 120 291 298 291c112 0 217 -51 268 -166l-156 -81c-24 40 -61 65 -107 65c-64 0 -109 -47 -109 -109c0 -64 46 -111 108 -111c47 0 89 26 106 65l157 -93
c-49 -94 -147 -152 -269 -152z" />
    <glyph glyph-name="ccedilla" unicode="&#xe7;" horiz-adv-x="609" 
d="M330 168c47 0 89 26 106 65l157 -93c-41 -78 -115 -131 -209 -147l-18 -43c56 -8 105 -47 105 -108c0 -65 -56 -131 -165 -131c-45 0 -90 11 -137 33l38 104c22 -11 54 -21 81 -21c34 0 45 15 45 30c0 21 -21 32 -59 32h-52l-7 33l30 75c-132 31 -217 139 -217 282
c0 169 120 291 298 291c112 0 217 -51 268 -166l-156 -81c-24 40 -61 65 -107 65c-64 0 -109 -47 -109 -109c0 -64 46 -111 108 -111z" />
    <glyph glyph-name="ccircumflex" unicode="&#x109;" horiz-adv-x="609" 
d="M90 631l158 191h150l158 -191h-180l-56 83l-56 -83h-174zM324 -12c-176 0 -296 121 -296 291c0 169 120 291 298 291c112 0 217 -51 268 -166l-156 -81c-24 40 -61 65 -107 65c-64 0 -109 -47 -109 -109c0 -64 46 -111 108 -111c47 0 89 26 106 65l157 -93
c-49 -94 -147 -152 -269 -152z" />
    <glyph glyph-name="cdotaccent" unicode="&#x10b;" horiz-adv-x="609" 
d="M323 602c-62 0 -110 46 -110 109c0 62 49 109 110 109c62 0 110 -47 110 -109c0 -63 -48 -109 -110 -109zM324 -12c-176 0 -296 121 -296 291c0 169 120 291 298 291c112 0 217 -51 268 -166l-156 -81c-24 40 -61 65 -107 65c-64 0 -109 -47 -109 -109
c0 -64 46 -111 108 -111c47 0 89 26 106 65l157 -93c-49 -94 -147 -152 -269 -152z" />
    <glyph glyph-name="d" unicode="d" horiz-adv-x="686" 
d="M438 764h197v-764h-190v39c-35 -31 -83 -53 -147 -53c-151 0 -270 120 -270 292c0 171 119 292 271 292c59 0 105 -19 139 -47v241zM334 165c65 0 112 50 112 114c0 62 -47 112 -112 112c-64 0 -112 -50 -112 -112c0 -64 48 -114 112 -114z" />
    <glyph glyph-name="eth" unicode="&#xf0;" horiz-adv-x="654" 
d="M486 698c75 -96 136 -218 136 -355c0 -200 -130 -355 -321 -355c-170 0 -275 124 -275 266c0 157 134 251 249 251c48 0 96 -13 142 -65c-22 60 -51 107 -81 145l-68 -52l-66 79l63 47c-29 27 -59 52 -91 79l140 131c32 -24 68 -56 105 -93l69 52l64 -80zM317 163
c53 0 96 42 96 97c0 54 -43 94 -94 94c-54 0 -95 -43 -95 -96c0 -52 39 -95 93 -95z" />
    <glyph glyph-name="dcaron" unicode="&#x10f;" horiz-adv-x="714" 
d="M739 822h199l-105 -194h-168zM438 523v241h197v-764h-190v39c-35 -31 -83 -53 -147 -53c-151 0 -270 120 -270 292c0 171 119 292 271 292c59 0 105 -19 139 -47zM334 165c65 0 112 50 112 114c0 62 -47 112 -112 112c-64 0 -112 -50 -112 -112c0 -64 48 -114 112 -114z
" />
    <glyph glyph-name="dcroat" unicode="&#x111;" horiz-adv-x="684" 
d="M705 703v-112h-70v-591h-190v39c-35 -31 -83 -53 -147 -53c-151 0 -270 120 -270 292c0 171 119 292 271 292c59 0 105 -19 139 -47v68h-115v112h115v61h197v-61h70zM334 165c65 0 112 50 112 114c0 62 -47 112 -112 112c-64 0 -112 -50 -112 -112
c0 -64 48 -114 112 -114z" />
    <glyph glyph-name="e" unicode="e" horiz-adv-x="645" 
d="M618 293c0 -22 -2 -49 -6 -77h-385c19 -43 59 -70 121 -70c56 0 120 21 161 48l76 -130c-57 -40 -141 -76 -247 -76c-207 0 -310 136 -310 290c0 166 120 292 301 292c162 0 289 -101 289 -277zM329 416c-48 0 -87 -23 -105 -69h207c-15 42 -50 69 -102 69z" />
    <glyph glyph-name="eacute" unicode="&#xe9;" horiz-adv-x="645" 
d="M497 818l-95 -187h-177l65 187h207zM618 293c0 -22 -2 -49 -6 -77h-385c19 -43 59 -70 121 -70c56 0 120 21 161 48l76 -130c-57 -40 -141 -76 -247 -76c-207 0 -310 136 -310 290c0 166 120 292 301 292c162 0 289 -101 289 -277zM329 416c-48 0 -87 -23 -105 -69h207
c-15 42 -50 69 -102 69z" />
    <glyph glyph-name="ebreve" unicode="&#x115;" horiz-adv-x="645" 
d="M332 624c-118 0 -194 70 -206 192h147c2 -32 17 -70 59 -70s57 38 58 70h149c-12 -122 -88 -192 -207 -192zM618 293c0 -22 -2 -49 -6 -77h-385c19 -43 59 -70 121 -70c56 0 120 21 161 48l76 -130c-57 -40 -141 -76 -247 -76c-207 0 -310 136 -310 290
c0 166 120 292 301 292c162 0 289 -101 289 -277zM329 416c-48 0 -87 -23 -105 -69h207c-15 42 -50 69 -102 69z" />
    <glyph glyph-name="ecaron" unicode="&#x11b;" horiz-adv-x="645" 
d="M405 628h-150l-158 191h174l56 -83l56 83h180zM618 293c0 -22 -2 -49 -6 -77h-385c19 -43 59 -70 121 -70c56 0 120 21 161 48l76 -130c-57 -40 -141 -76 -247 -76c-207 0 -310 136 -310 290c0 166 120 292 301 292c162 0 289 -101 289 -277zM329 416
c-48 0 -87 -23 -105 -69h207c-15 42 -50 69 -102 69z" />
    <glyph glyph-name="ecircumflex" unicode="&#xea;" horiz-adv-x="645" 
d="M326 718l-56 -83h-174l158 191h150l158 -191h-180zM618 293c0 -22 -2 -49 -6 -77h-385c19 -43 59 -70 121 -70c56 0 120 21 161 48l76 -130c-57 -40 -141 -76 -247 -76c-207 0 -310 136 -310 290c0 166 120 292 301 292c162 0 289 -101 289 -277zM329 416
c-48 0 -87 -23 -105 -69h207c-15 42 -50 69 -102 69z" />
    <glyph glyph-name="edieresis" unicode="&#xeb;" horiz-adv-x="645" 
d="M218 609c-58 0 -103 43 -103 103c0 58 46 102 103 102c58 0 103 -44 103 -102c0 -60 -45 -103 -103 -103zM458 609c-58 0 -103 43 -103 103c0 58 46 102 103 102c58 0 103 -44 103 -102c0 -60 -45 -103 -103 -103zM618 293c0 -22 -2 -49 -6 -77h-385
c19 -43 59 -70 121 -70c56 0 120 21 161 48l76 -130c-57 -40 -141 -76 -247 -76c-207 0 -310 136 -310 290c0 166 120 292 301 292c162 0 289 -101 289 -277zM329 416c-48 0 -87 -23 -105 -69h207c-15 42 -50 69 -102 69z" />
    <glyph glyph-name="edotaccent" unicode="&#x117;" horiz-adv-x="645" 
d="M335 607c-62 0 -110 46 -110 109c0 62 49 109 110 109c62 0 110 -47 110 -109c0 -63 -48 -109 -110 -109zM618 293c0 -22 -2 -49 -6 -77h-385c19 -43 59 -70 121 -70c56 0 120 21 161 48l76 -130c-57 -40 -141 -76 -247 -76c-207 0 -310 136 -310 290
c0 166 120 292 301 292c162 0 289 -101 289 -277zM329 416c-48 0 -87 -23 -105 -69h207c-15 42 -50 69 -102 69z" />
    <glyph glyph-name="egrave" unicode="&#xe8;" horiz-adv-x="645" 
d="M427 631h-177l-95 187h207zM618 293c0 -22 -2 -49 -6 -77h-385c19 -43 59 -70 121 -70c56 0 120 21 161 48l76 -130c-57 -40 -141 -76 -247 -76c-207 0 -310 136 -310 290c0 166 120 292 301 292c162 0 289 -101 289 -277zM329 416c-48 0 -87 -23 -105 -69h207
c-15 42 -50 69 -102 69z" />
    <glyph glyph-name="emacron" unicode="&#x113;" horiz-adv-x="645" 
d="M500 806v-167l-352 -2v169h352zM618 293c0 -22 -2 -49 -6 -77h-385c19 -43 59 -70 121 -70c56 0 120 21 161 48l76 -130c-57 -40 -141 -76 -247 -76c-207 0 -310 136 -310 290c0 166 120 292 301 292c162 0 289 -101 289 -277zM329 416c-48 0 -87 -23 -105 -69h207
c-15 42 -50 69 -102 69z" />
    <glyph glyph-name="eogonek" unicode="&#x119;" horiz-adv-x="644" 
d="M617 293c0 -22 -2 -49 -6 -77h-385c19 -43 59 -70 121 -70c56 0 120 21 161 48l76 -130c-34 -24 -77 -46 -128 -60c-40 -22 -79 -64 -79 -97c0 -21 14 -32 31 -32c11 0 25 5 41 11l26 -118c-42 -22 -80 -31 -122 -31c-89 0 -130 58 -130 121c0 45 23 91 70 132
c-178 18 -266 145 -266 288c0 166 120 292 301 292c162 0 289 -101 289 -277zM328 416c-48 0 -87 -23 -105 -69h207c-15 42 -50 69 -102 69z" />
    <glyph glyph-name="f" unicode="f" horiz-adv-x="479" 
d="M383 632c-51 0 -83 -26 -83 -74v-2h168v-162h-168v-394h-196v394h-74v162h74v6c0 165 111 239 246 239c77 0 136 -21 198 -53l-66 -145c-26 13 -62 29 -99 29z" />
    <glyph glyph-name="g" unicode="g" horiz-adv-x="685" 
d="M459 556h175v-503c0 -181 -143 -289 -320 -289c-101 0 -200 35 -268 85l69 143c50 -32 116 -63 190 -63c100 0 143 53 143 114v2c-34 -28 -81 -46 -145 -46c-169 0 -275 118 -275 283c0 176 124 288 283 288c63 0 111 -21 148 -52v38zM337 167c64 0 111 49 111 113
c0 63 -47 110 -111 110c-63 0 -111 -46 -111 -110c0 -65 48 -113 111 -113z" />
    <glyph glyph-name="gbreve" unicode="&#x11f;" horiz-adv-x="685" 
d="M331 624c-118 0 -194 70 -206 192h147c2 -32 17 -70 59 -70s57 38 58 70h149c-12 -122 -88 -192 -207 -192zM459 556h175v-503c0 -181 -143 -289 -320 -289c-101 0 -200 35 -268 85l69 143c50 -32 116 -63 190 -63c100 0 143 53 143 114v2c-34 -28 -81 -46 -145 -46
c-169 0 -275 118 -275 283c0 176 124 288 283 288c63 0 111 -21 148 -52v38zM337 167c64 0 111 49 111 113c0 63 -47 110 -111 110c-63 0 -111 -46 -111 -110c0 -65 48 -113 111 -113z" />
    <glyph glyph-name="gcircumflex" unicode="&#x11d;" horiz-adv-x="685" 
d="M333 712l-56 -83h-174l158 191h150l158 -191h-180zM459 556h175v-503c0 -181 -143 -289 -320 -289c-101 0 -200 35 -268 85l69 143c50 -32 116 -63 190 -63c100 0 143 53 143 114v2c-34 -28 -81 -46 -145 -46c-169 0 -275 118 -275 283c0 176 124 288 283 288
c63 0 111 -21 148 -52v38zM337 167c64 0 111 49 111 113c0 63 -47 110 -111 110c-63 0 -111 -46 -111 -110c0 -65 48 -113 111 -113z" />
    <glyph glyph-name="gcommaaccent" unicode="&#x123;" horiz-adv-x="685" 
d="M331 603c-55 0 -108 38 -108 108c0 76 64 133 170 214l66 -82c-32 -23 -57 -43 -76 -61c29 -15 50 -47 50 -83c0 -52 -43 -96 -102 -96zM459 556h175v-503c0 -181 -143 -289 -320 -289c-101 0 -200 35 -268 85l69 143c50 -32 116 -63 190 -63c100 0 143 53 143 114v2
c-34 -28 -81 -46 -145 -46c-169 0 -275 118 -275 283c0 176 124 288 283 288c63 0 111 -21 148 -52v38zM337 167c64 0 111 49 111 113c0 63 -47 110 -111 110c-63 0 -111 -46 -111 -110c0 -65 48 -113 111 -113z" />
    <glyph glyph-name="gdotaccent" unicode="&#x121;" horiz-adv-x="685" 
d="M334 604c-62 0 -110 46 -110 109c0 62 49 109 110 109c62 0 110 -47 110 -109c0 -63 -48 -109 -110 -109zM459 556h175v-503c0 -181 -143 -289 -320 -289c-101 0 -200 35 -268 85l69 143c50 -32 116 -63 190 -63c100 0 143 53 143 114v2c-34 -28 -81 -46 -145 -46
c-169 0 -275 118 -275 283c0 176 124 288 283 288c63 0 111 -21 148 -52v38zM337 167c64 0 111 49 111 113c0 63 -47 110 -111 110c-63 0 -111 -46 -111 -110c0 -65 48 -113 111 -113z" />
    <glyph glyph-name="h" unicode="h" horiz-adv-x="675" 
d="M51 0v764h192v-285c23 45 86 92 174 92c108 0 213 -73 213 -229v-342h-197v291c0 64 -32 101 -87 101c-58 0 -99 -42 -99 -107v-285h-196z" />
    <glyph glyph-name="hbar" unicode="&#x127;" horiz-adv-x="677" 
d="M419 571c108 0 213 -73 213 -229v-342h-197v291c0 64 -32 101 -87 101c-58 0 -99 -42 -99 -107v-285h-196v592h-67v112h67v60h192v-60h123v-112h-123v-113c23 45 86 92 174 92z" />
    <glyph glyph-name="hcircumflex" unicode="&#x125;" horiz-adv-x="677" 
d="M-100 803l170 206h162l171 -206h-194l-61 90l-60 -90h-188zM53 0v764h192v-285c23 45 86 92 174 92c108 0 213 -73 213 -229v-342h-197v291c0 64 -32 101 -87 101c-58 0 -99 -42 -99 -107v-285h-196z" />
    <glyph glyph-name="i" unicode="i" horiz-adv-x="299" 
d="M154 599c-62 0 -110 46 -110 109c0 62 49 109 110 109c62 0 110 -47 110 -109c0 -63 -48 -109 -110 -109zM253 0h-197v556h197v-556z" />
    <glyph glyph-name="dotlessi" unicode="&#x131;" horiz-adv-x="299" 
d="M248 0h-197v556h197v-556z" />
    <glyph glyph-name="iacute" unicode="&#xed;" horiz-adv-x="294" 
d="M56 631l65 187h207l-95 -187h-177zM248 0h-197v556h197v-556z" />
    <glyph glyph-name="ibreve" unicode="&#x12d;" horiz-adv-x="299" 
d="M153 628c-118 0 -194 70 -206 192h147c2 -32 17 -70 59 -70s57 38 58 70h149c-12 -122 -88 -192 -207 -192zM253 0h-197v556h197v-556z" />
    <glyph glyph-name="icircumflex" unicode="&#xee;" horiz-adv-x="299" 
d="M-77 633l158 191h150l158 -191h-180l-56 83l-56 -83h-174zM253 0h-197v556h197v-556z" />
    <glyph glyph-name="idieresis" unicode="&#xef;" horiz-adv-x="299" 
d="M34 615c-58 0 -103 43 -103 103c0 58 46 102 103 102c58 0 103 -44 103 -102c0 -60 -45 -103 -103 -103zM274 615c-58 0 -103 43 -103 103c0 58 46 102 103 102c58 0 103 -44 103 -102c0 -60 -45 -103 -103 -103zM253 0h-197v556h197v-556z" />
    <glyph glyph-name="i.loclTRK" horiz-adv-x="299" 
d="M155 599c-62 0 -110 46 -110 109c0 62 49 109 110 109c62 0 110 -47 110 -109c0 -63 -48 -109 -110 -109zM253 0h-197v556h197v-556z" />
    <glyph glyph-name="igrave" unicode="&#xec;" horiz-adv-x="304" 
d="M246 631h-177l-95 187h207zM253 0h-197v556h197v-556z" />
    <glyph glyph-name="ij" unicode="&#x133;" horiz-adv-x="650" 
d="M154 599c-62 0 -110 46 -110 109c0 62 49 109 110 109c62 0 110 -47 110 -109c0 -63 -48 -109 -110 -109zM451 599c-62 0 -110 46 -110 109c0 62 49 109 110 109c62 0 110 -47 110 -109c0 -63 -48 -109 -110 -109zM253 0h-197v556h197v-556zM302 -237
c-60 0 -128 14 -161 36l36 151c30 -10 57 -17 87 -17c56 0 89 35 89 103v520h197v-544c0 -178 -116 -249 -248 -249z" />
    <glyph glyph-name="imacron" unicode="&#x12b;" horiz-adv-x="299" 
d="M-21 639v169h352v-167zM253 0h-197v556h197v-556z" />
    <glyph glyph-name="iogonek" unicode="&#x12f;" horiz-adv-x="299" 
d="M155 599c-62 0 -110 46 -110 109c0 62 49 109 110 109c62 0 110 -47 110 -109c0 -63 -48 -109 -110 -109zM242 -120l26 -118c-42 -22 -80 -31 -122 -31c-89 0 -130 58 -130 121c0 51 29 104 90 148h-50v556h197v-556c-42 -21 -83 -65 -83 -99c0 -21 14 -32 31 -32
c11 0 25 5 41 11z" />
    <glyph glyph-name="itilde" unicode="&#x129;" horiz-adv-x="299" 
d="M34 613l-123 62c48 90 93 138 174 138c64 0 95 -42 130 -42c20 0 35 12 60 51l124 -59c-40 -88 -93 -139 -158 -139c-59 0 -96 44 -138 44c-22 0 -44 -11 -69 -55zM253 0h-197v556h197v-556z" />
    <glyph glyph-name="j" unicode="j" horiz-adv-x="323" 
d="M173 599c-62 0 -110 46 -110 109c0 62 49 109 110 109c62 0 110 -47 110 -109c0 -63 -48 -109 -110 -109zM24 -237c-60 0 -128 14 -161 36l36 151c30 -10 57 -17 87 -17c56 0 89 35 89 103v520h197v-544c0 -178 -116 -249 -248 -249z" />
    <glyph glyph-name="uni0237" unicode="&#x237;" horiz-adv-x="323" 
d="M24 -237c-60 0 -128 14 -161 36l36 151c30 -10 57 -17 87 -17c56 0 89 35 89 103v520h197v-544c0 -178 -116 -249 -248 -249z" />
    <glyph glyph-name="jacute" horiz-adv-x="323" 
d="M75 631l65 187h207l-95 -187h-177zM24 -237c-60 0 -128 14 -161 36l36 151c30 -10 57 -17 87 -17c56 0 89 35 89 103v520h197v-544c0 -178 -116 -249 -248 -249z" />
    <glyph glyph-name="jcircumflex" unicode="&#x135;" horiz-adv-x="323" 
d="M-61 633l158 191h150l158 -191h-180l-56 83l-56 -83h-174zM24 -237c-60 0 -128 14 -161 36l36 151c30 -10 57 -17 87 -17c56 0 89 35 89 103v520h197v-544c0 -178 -116 -249 -248 -249z" />
    <glyph glyph-name="k" unicode="k" horiz-adv-x="631" 
d="M420 0l-154 211l-19 -18v-193h-196v764h196v-353l148 145h236l-235 -222l255 -334h-231z" />
    <glyph glyph-name="kcommaaccent" unicode="&#x137;" horiz-adv-x="631" 
d="M247 193v-193h-196v764h196v-353l148 145h236l-235 -222l255 -334h-231l-154 211zM330 -14c55 0 108 -38 108 -108c0 -76 -64 -133 -170 -214l-66 82c32 23 57 43 76 61c-29 15 -50 47 -50 83c0 52 43 96 102 96z" />
    <glyph glyph-name="kgreenlandic" unicode="&#x138;" horiz-adv-x="611" 
d="M404 0l-134 190l-30 -32v-158h-189v556h189v-169l158 169h221l-226 -237l233 -319h-222z" />
    <glyph glyph-name="l" unicode="l" horiz-adv-x="298" 
d="M247 0h-196v764h196v-764z" />
    <glyph glyph-name="lacute" unicode="&#x13a;" horiz-adv-x="295" 
d="M52 798l70 202h224l-103 -202h-191zM247 0h-196v764h196v-764z" />
    <glyph glyph-name="lcaron" unicode="&#x13e;" horiz-adv-x="325" 
d="M267 628l74 194h199l-105 -194h-168zM247 0h-196v764h196v-764z" />
    <glyph glyph-name="lcommaaccent" unicode="&#x13c;" horiz-adv-x="298" 
d="M250 764v-764h-196v764h196zM145 -42c55 0 108 -38 108 -108c0 -76 -64 -133 -170 -214l-66 82c32 23 57 43 76 61c-29 15 -50 47 -50 83c0 52 43 96 102 96z" />
    <glyph glyph-name="ldot" unicode="&#x140;" horiz-adv-x="480" 
d="M247 0h-196v764h196v-764zM391 266c-59 0 -106 44 -106 104c0 57 47 102 106 102c55 0 101 -45 101 -102c0 -60 -46 -104 -101 -104z" />
    <glyph glyph-name="lslash" unicode="&#x142;" horiz-adv-x="395" 
d="M368 609v-185l-72 -52v-372h-196v230l-65 -47v185l65 47v349h196v-207z" />
    <glyph glyph-name="m" unicode="m" horiz-adv-x="1037" 
d="M759 572c116 0 233 -70 233 -230v-342h-197v302c0 65 -40 90 -83 90c-52 0 -93 -33 -93 -97v-295h-196v302c0 59 -39 90 -86 90c-48 0 -90 -31 -90 -97v-295h-196v556h192v-77c31 60 104 94 173 93c57 -1 118 -24 149 -88c46 62 123 88 194 88z" />
    <glyph glyph-name="n" unicode="n" horiz-adv-x="675" 
d="M51 0v556h192v-77c23 45 86 92 174 92c108 0 213 -73 213 -229v-342h-197v291c0 64 -32 101 -87 101c-58 0 -99 -42 -99 -107v-285h-196z" />
    <glyph glyph-name="nacute" unicode="&#x144;" horiz-adv-x="675" 
d="M249 631l65 187h207l-95 -187h-177zM51 0v556h192v-77c23 45 86 92 174 92c108 0 213 -73 213 -229v-342h-197v291c0 64 -32 101 -87 101c-58 0 -99 -42 -99 -107v-285h-196z" />
    <glyph glyph-name="napostrophe" unicode="&#x149;" horiz-adv-x="766" 
d="M-54 629l74 194h199l-105 -194h-168zM142 0v556h192v-77c23 45 86 92 174 92c108 0 213 -73 213 -229v-342h-197v291c0 64 -32 101 -87 101c-58 0 -99 -42 -99 -107v-285h-196z" />
    <glyph glyph-name="ncaron" unicode="&#x148;" horiz-adv-x="675" 
d="M110 818h174l56 -83l56 83h180l-158 -191h-150zM51 0v556h192v-77c23 45 86 92 174 92c108 0 213 -73 213 -229v-342h-197v291c0 64 -32 101 -87 101c-58 0 -99 -42 -99 -107v-285h-196z" />
    <glyph glyph-name="ncommaaccent" unicode="&#x146;" horiz-adv-x="675" 
d="M417 571c108 0 213 -73 213 -229v-342h-197v291c0 64 -32 101 -87 101c-58 0 -99 -42 -99 -107v-285h-196v556h192v-77c23 45 86 92 174 92zM339 -23c55 0 108 -38 108 -108c0 -76 -64 -133 -170 -214l-66 82c32 23 57 43 76 61c-29 15 -50 47 -50 83c0 52 43 96 102 96z
" />
    <glyph glyph-name="eng" unicode="&#x14b;" horiz-adv-x="675" 
d="M308 -231v170c77 -6 125 7 125 92v260c0 64 -32 101 -87 101c-58 0 -99 -42 -99 -107v-285h-196v556h192v-77c23 45 86 92 174 92c108 0 213 -73 213 -229v-318c0 -233 -169 -274 -322 -255z" />
    <glyph glyph-name="ntilde" unicode="&#xf1;" horiz-adv-x="675" 
d="M223 616l-123 62c48 90 93 138 174 138c64 0 95 -42 130 -42c20 0 35 12 60 51l124 -59c-40 -88 -93 -139 -158 -139c-59 0 -96 44 -138 44c-22 0 -44 -11 -69 -55zM51 0v556h192v-77c23 45 86 92 174 92c108 0 213 -73 213 -229v-342h-197v291c0 64 -32 101 -87 101
c-58 0 -99 -42 -99 -107v-285h-196z" />
    <glyph glyph-name="o" unicode="o" horiz-adv-x="665" 
d="M332 -16c-185 0 -305 132 -305 294c0 161 120 294 305 294c186 0 306 -133 306 -294c0 -162 -120 -294 -306 -294zM332 168c62 0 110 47 110 111c0 62 -48 109 -110 109c-61 0 -109 -47 -109 -109c0 -64 48 -111 109 -111z" />
    <glyph glyph-name="oacute" unicode="&#xf3;" horiz-adv-x="665" 
d="M236 631l65 187h207l-95 -187h-177zM332 -16c-185 0 -305 132 -305 294c0 161 120 294 305 294c186 0 306 -133 306 -294c0 -162 -120 -294 -306 -294zM332 168c62 0 110 47 110 111c0 62 -48 109 -110 109c-61 0 -109 -47 -109 -109c0 -64 48 -111 109 -111z" />
    <glyph glyph-name="obreve" unicode="&#x14f;" horiz-adv-x="665" 
d="M328 629c-118 0 -194 70 -206 192h147c2 -32 17 -70 59 -70s57 38 58 70h149c-12 -122 -88 -192 -207 -192zM332 -16c-185 0 -305 132 -305 294c0 161 120 294 305 294c186 0 306 -133 306 -294c0 -162 -120 -294 -306 -294zM332 168c62 0 110 47 110 111
c0 62 -48 109 -110 109c-61 0 -109 -47 -109 -109c0 -64 48 -111 109 -111z" />
    <glyph glyph-name="ocircumflex" unicode="&#xf4;" horiz-adv-x="665" 
d="M98 631l158 191h150l158 -191h-180l-56 83l-56 -83h-174zM332 -16c-185 0 -305 132 -305 294c0 161 120 294 305 294c186 0 306 -133 306 -294c0 -162 -120 -294 -306 -294zM332 168c62 0 110 47 110 111c0 62 -48 109 -110 109c-61 0 -109 -47 -109 -109
c0 -64 48 -111 109 -111z" />
    <glyph glyph-name="odieresis" unicode="&#xf6;" horiz-adv-x="665" 
d="M211 616c-58 0 -103 43 -103 103c0 58 46 102 103 102c58 0 103 -44 103 -102c0 -60 -45 -103 -103 -103zM451 616c-58 0 -103 43 -103 103c0 58 46 102 103 102c58 0 103 -44 103 -102c0 -60 -45 -103 -103 -103zM332 -16c-185 0 -305 132 -305 294
c0 161 120 294 305 294c186 0 306 -133 306 -294c0 -162 -120 -294 -306 -294zM332 168c62 0 110 47 110 111c0 62 -48 109 -110 109c-61 0 -109 -47 -109 -109c0 -64 48 -111 109 -111z" />
    <glyph glyph-name="ograve" unicode="&#xf2;" horiz-adv-x="665" 
d="M428 631h-177l-95 187h207zM332 -16c-185 0 -305 132 -305 294c0 161 120 294 305 294c186 0 306 -133 306 -294c0 -162 -120 -294 -306 -294zM332 168c62 0 110 47 110 111c0 62 -48 109 -110 109c-61 0 -109 -47 -109 -109c0 -64 48 -111 109 -111z" />
    <glyph glyph-name="ohungarumlaut" unicode="&#x151;" horiz-adv-x="665" 
d="M139 631l44 187h193l-75 -187h-162zM364 631l70 187h202l-104 -187h-168zM332 -16c-185 0 -305 132 -305 294c0 161 120 294 305 294c186 0 306 -133 306 -294c0 -162 -120 -294 -306 -294zM332 168c62 0 110 47 110 111c0 62 -48 109 -110 109c-61 0 -109 -47 -109 -109
c0 -64 48 -111 109 -111z" />
    <glyph glyph-name="omacron" unicode="&#x14d;" horiz-adv-x="665" 
d="M157 636v169h352v-167zM332 -16c-185 0 -305 132 -305 294c0 161 120 294 305 294c186 0 306 -133 306 -294c0 -162 -120 -294 -306 -294zM332 168c62 0 110 47 110 111c0 62 -48 109 -110 109c-61 0 -109 -47 -109 -109c0 -64 48 -111 109 -111z" />
    <glyph glyph-name="oslash" unicode="&#xf8;" horiz-adv-x="665" 
d="M539 500c63 -54 99 -134 99 -222c0 -162 -120 -294 -306 -294c-49 0 -93 9 -131 25l-55 -79l-77 53l53 76c-61 54 -95 132 -95 219c0 161 120 294 305 294c46 0 89 -8 126 -23l50 72l80 -51zM223 279c0 -20 5 -38 13 -54l111 162c-5 1 -10 1 -15 1
c-61 0 -109 -47 -109 -109zM332 168c62 0 110 47 110 111c0 21 -6 41 -16 57l-114 -166c6 -1 13 -2 20 -2z" />
    <glyph glyph-name="otilde" unicode="&#xf5;" horiz-adv-x="665" 
d="M215 614l-123 62c48 90 93 138 174 138c64 0 95 -42 130 -42c20 0 35 12 60 51l124 -59c-40 -88 -93 -139 -158 -139c-59 0 -96 44 -138 44c-22 0 -44 -11 -69 -55zM332 -16c-185 0 -305 132 -305 294c0 161 120 294 305 294c186 0 306 -133 306 -294
c0 -162 -120 -294 -306 -294zM332 168c62 0 110 47 110 111c0 62 -48 109 -110 109c-61 0 -109 -47 -109 -109c0 -64 48 -111 109 -111z" />
    <glyph glyph-name="oe" unicode="&#x153;" horiz-adv-x="1057" 
d="M1030 293c0 -22 -2 -49 -6 -77h-385c19 -43 59 -70 121 -70c56 0 120 21 161 48l76 -130c-57 -40 -141 -76 -247 -76c-94 0 -167 28 -219 74c-51 -46 -121 -74 -205 -74c-181 0 -299 132 -299 291c0 158 118 290 299 290c84 0 154 -28 206 -74c52 47 124 75 209 75
c162 0 289 -101 289 -277zM741 416c-48 0 -87 -23 -105 -69h207c-15 42 -50 69 -102 69zM326 168c63 0 111 48 111 112c0 62 -48 110 -111 110c-62 0 -110 -48 -110 -110c0 -64 48 -112 110 -112z" />
    <glyph glyph-name="p" unicode="p" horiz-adv-x="694" 
d="M396 570c160 0 270 -130 270 -291s-111 -293 -269 -293c-63 0 -112 21 -149 52v-267h-197v785h194v-41c37 32 87 55 151 55zM356 166c64 0 110 49 110 111s-46 111 -110 111c-63 0 -110 -49 -110 -111s47 -111 110 -111z" />
    <glyph glyph-name="thorn" unicode="&#xfe;" horiz-adv-x="698" 
d="M395 570c155 0 276 -130 276 -291s-122 -293 -273 -293c-64 0 -113 23 -151 57v-272h-196v993h193v-249c37 32 87 55 151 55zM355 166c64 0 111 49 111 111s-47 111 -111 111c-63 0 -110 -49 -110 -111s47 -111 110 -111z" />
    <glyph glyph-name="q" unicode="q" horiz-adv-x="694" 
d="M449 556h194v-785h-197v267c-37 -31 -86 -52 -149 -52c-158 0 -269 132 -269 293s110 291 270 291c64 0 114 -23 151 -55v41zM338 166c63 0 110 49 110 111s-47 111 -110 111c-64 0 -110 -49 -110 -111s46 -111 110 -111z" />
    <glyph glyph-name="r" unicode="r" horiz-adv-x="460" 
d="M51 0v556h189v-66c37 56 91 81 145 81c21 0 49 -6 71 -16l-16 -187c-25 9 -52 14 -77 14c-66 0 -116 -37 -116 -155v-227h-196z" />
    <glyph glyph-name="racute" unicode="&#x155;" horiz-adv-x="475" 
d="M157 631l65 187h207l-95 -187h-177zM51 0v556h189v-66c37 56 91 81 145 81c21 0 49 -6 71 -16l-16 -187c-25 9 -52 14 -77 14c-66 0 -116 -37 -116 -155v-227h-196z" />
    <glyph glyph-name="rcaron" unicode="&#x159;" horiz-adv-x="475" 
d="M33 821h174l56 -83l56 83h180l-158 -191h-150zM53 0v556h189v-66c37 56 91 81 145 81c21 0 49 -6 71 -16l-16 -187c-25 9 -52 14 -77 14c-66 0 -116 -37 -116 -155v-227h-196z" />
    <glyph glyph-name="rcommaaccent" unicode="&#x157;" horiz-adv-x="477" 
d="M387 571c21 0 49 -6 71 -16l-16 -187c-25 9 -52 14 -77 14c-66 0 -116 -37 -116 -155v-227h-196v556h189v-66c37 56 91 81 145 81zM147 -30c55 0 108 -38 108 -108c0 -76 -64 -133 -170 -214l-66 82c32 23 57 43 76 61c-29 15 -50 47 -50 83c0 52 43 96 102 96z" />
    <glyph glyph-name="s" unicode="s" horiz-adv-x="548" 
d="M273 -16c-102 0 -189 35 -257 90l82 135c47 -32 107 -65 173 -65c25 0 50 6 50 26c0 6 -3 13 -25 21c-26 9 -106 32 -138 46c-67 29 -109 76 -109 155c0 108 95 181 241 181c75 0 143 -17 215 -69l-80 -131c-54 32 -106 44 -137 44c-24 0 -44 -8 -44 -23s12 -25 52 -34
c32 -7 85 -22 130 -45c69 -36 94 -79 94 -142c0 -109 -91 -189 -247 -189z" />
    <glyph glyph-name="sacute" unicode="&#x15b;" horiz-adv-x="535" 
d="M184 631l65 187h207l-95 -187h-177zM273 -16c-102 0 -189 35 -257 90l82 135c47 -32 107 -65 173 -65c25 0 50 6 50 26c0 6 -3 13 -25 21c-26 9 -106 32 -138 46c-67 29 -109 76 -109 155c0 108 95 181 241 181c75 0 143 -17 215 -69l-80 -131c-54 32 -106 44 -137 44
c-24 0 -44 -8 -44 -23s12 -25 52 -34c32 -7 85 -22 130 -45c69 -36 94 -79 94 -142c0 -109 -91 -189 -247 -189z" />
    <glyph glyph-name="scaron" unicode="&#x161;" horiz-adv-x="530" 
d="M46 820h174l56 -83l56 83h180l-158 -191h-150zM273 -16c-102 0 -189 35 -257 90l82 135c47 -32 107 -65 173 -65c25 0 50 6 50 26c0 6 -3 13 -25 21c-26 9 -106 32 -138 46c-67 29 -109 76 -109 155c0 108 95 181 241 181c75 0 143 -17 215 -69l-80 -131
c-54 32 -106 44 -137 44c-24 0 -44 -8 -44 -23s12 -25 52 -34c32 -7 85 -22 130 -45c69 -36 94 -79 94 -142c0 -109 -91 -189 -247 -189z" />
    <glyph glyph-name="scedilla" unicode="&#x15f;" horiz-adv-x="535" 
d="M520 173c0 -99 -76 -175 -207 -187l-14 -33c56 -8 105 -47 105 -108c0 -65 -56 -131 -165 -131c-45 0 -90 11 -137 33l38 104c22 -11 54 -21 81 -21c34 0 45 15 45 30c0 21 -21 32 -59 32h-52l-7 33l28 70c-61 15 -115 42 -160 79l82 135c47 -32 107 -65 173 -65
c25 0 50 6 50 26c0 6 -3 13 -25 21c-26 9 -106 32 -138 46c-67 29 -109 76 -109 155c0 108 95 181 241 181c75 0 143 -17 215 -69l-80 -131c-54 32 -106 44 -137 44c-24 0 -44 -8 -44 -23s12 -25 52 -34c32 -7 85 -22 130 -45c69 -36 94 -79 94 -142z" />
    <glyph glyph-name="scircumflex" unicode="&#x15d;" horiz-adv-x="530" 
d="M45 631l158 191h150l158 -191h-180l-56 83l-56 -83h-174zM273 -16c-102 0 -189 35 -257 90l82 135c47 -32 107 -65 173 -65c25 0 50 6 50 26c0 6 -3 13 -25 21c-26 9 -106 32 -138 46c-67 29 -109 76 -109 155c0 108 95 181 241 181c75 0 143 -17 215 -69l-80 -131
c-54 32 -106 44 -137 44c-24 0 -44 -8 -44 -23s12 -25 52 -34c32 -7 85 -22 130 -45c69 -36 94 -79 94 -142c0 -109 -91 -189 -247 -189z" />
    <glyph glyph-name="scommaaccent" unicode="&#x219;" horiz-adv-x="535" 
d="M426 315c69 -36 94 -79 94 -142c0 -109 -91 -189 -247 -189c-102 0 -189 35 -257 90l82 135c47 -32 107 -65 173 -65c25 0 50 6 50 26c0 6 -3 13 -25 21c-26 9 -106 32 -138 46c-67 29 -109 76 -109 155c0 108 95 181 241 181c75 0 143 -17 215 -69l-80 -131
c-54 32 -106 44 -137 44c-24 0 -44 -8 -44 -23s12 -25 52 -34c32 -7 85 -22 130 -45zM264 -48c55 0 108 -38 108 -108c0 -76 -64 -133 -170 -214l-66 82c32 23 57 43 76 61c-29 15 -50 47 -50 83c0 52 43 96 102 96z" />
    <glyph glyph-name="germandbls" unicode="&#xdf;" horiz-adv-x="695" 
d="M534 398c85 -26 134 -105 134 -194c0 -122 -94 -222 -251 -222c-46 0 -95 8 -132 23l35 162c20 -8 47 -12 66 -12c48 0 84 22 84 65c0 58 -61 75 -147 75v151c70 0 103 41 103 81c0 34 -24 68 -76 68c-67 0 -102 -56 -102 -136v-636h-197v651c0 258 196 312 308 312
c154 0 270 -102 270 -228c0 -63 -29 -123 -95 -160z" />
    <glyph glyph-name="t" unicode="t" horiz-adv-x="503" 
d="M450 188l50 -157c-48 -27 -121 -45 -184 -45c-136 0 -213 73 -213 234v174h-82v162h84v197h195v-197h168v-162h-168v-146c0 -61 25 -83 65 -83c36 0 61 12 85 23z" />
    <glyph glyph-name="tbar" unicode="&#x167;" horiz-adv-x="507" 
d="M453 188l50 -157c-48 -27 -121 -45 -184 -45c-136 0 -213 73 -213 234v8h-80v115h80v51h-82v162h84v197h195v-197h168v-162h-168v-51h160v-115h-159c5 -46 29 -63 64 -63c36 0 61 12 85 23z" />
    <glyph glyph-name="tcaron" unicode="&#x165;" horiz-adv-x="492" 
d="M444 820h199l-105 -194h-168zM365 165c36 0 61 12 85 23l50 -157c-48 -27 -121 -45 -184 -45c-136 0 -213 73 -213 234v174h-82v162h84v197h195v-197h168v-162h-168v-146c0 -61 25 -83 65 -83z" />
    <glyph glyph-name="uni021B" unicode="&#x21b;" horiz-adv-x="503" 
d="M500 31c-48 -27 -121 -45 -184 -45c-136 0 -213 73 -213 234v174h-82v162h84v197h195v-197h168v-162h-168v-146c0 -61 25 -83 65 -83c36 0 61 12 85 23zM293 -43c55 0 108 -38 108 -108c0 -76 -64 -133 -170 -214l-66 82c32 23 57 43 76 61c-29 15 -50 47 -50 83
c0 52 43 96 102 96z" />
    <glyph glyph-name="u" unicode="u" 
d="M318 -14c-168 0 -274 90 -274 261v309h197v-312c0 -45 29 -79 77 -79c49 0 78 34 78 79v312h197v-309c0 -171 -106 -261 -275 -261z" />
    <glyph glyph-name="uacute" unicode="&#xfa;" 
d="M224 631l65 187h207l-95 -187h-177zM318 -14c-168 0 -274 90 -274 261v309h197v-312c0 -45 29 -79 77 -79c49 0 78 34 78 79v312h197v-309c0 -171 -106 -261 -275 -261z" />
    <glyph glyph-name="ubreve" unicode="&#x16d;" 
d="M318 625c-118 0 -194 70 -206 192h147c2 -32 17 -70 59 -70s57 38 58 70h149c-12 -122 -88 -192 -207 -192zM318 -14c-168 0 -274 90 -274 261v309h197v-312c0 -45 29 -79 77 -79c49 0 78 34 78 79v312h197v-309c0 -171 -106 -261 -275 -261z" />
    <glyph glyph-name="ucircumflex" unicode="&#xfb;" 
d="M88 636l158 191h150l158 -191h-180l-56 83l-56 -83h-174zM318 -14c-168 0 -274 90 -274 261v309h197v-312c0 -45 29 -79 77 -79c49 0 78 34 78 79v312h197v-309c0 -171 -106 -261 -275 -261z" />
    <glyph glyph-name="udieresis" unicode="&#xfc;" 
d="M199 614c-58 0 -103 43 -103 103c0 58 46 102 103 102c58 0 103 -44 103 -102c0 -60 -45 -103 -103 -103zM439 614c-58 0 -103 43 -103 103c0 58 46 102 103 102c58 0 103 -44 103 -102c0 -60 -45 -103 -103 -103zM318 -14c-168 0 -274 90 -274 261v309h197v-312
c0 -45 29 -79 77 -79c49 0 78 34 78 79v312h197v-309c0 -171 -106 -261 -275 -261z" />
    <glyph glyph-name="ugrave" unicode="&#xf9;" 
d="M410 631h-177l-95 187h207zM318 -14c-168 0 -274 90 -274 261v309h197v-312c0 -45 29 -79 77 -79c49 0 78 34 78 79v312h197v-309c0 -171 -106 -261 -275 -261z" />
    <glyph glyph-name="uhungarumlaut" unicode="&#x171;" horiz-adv-x="629" 
d="M118 631l44 187h193l-75 -187h-162zM343 631l70 187h202l-104 -187h-168zM318 -14c-168 0 -274 90 -274 261v309h197v-312c0 -45 29 -79 77 -79c49 0 78 34 78 79v312h197v-309c0 -171 -106 -261 -275 -261z" />
    <glyph glyph-name="umacron" unicode="&#x16b;" 
d="M142 638v169h352v-167zM318 -14c-168 0 -274 90 -274 261v309h197v-312c0 -45 29 -79 77 -79c49 0 78 34 78 79v312h197v-309c0 -171 -106 -261 -275 -261z" />
    <glyph glyph-name="uogonek" unicode="&#x173;" 
d="M396 556h197v-309c0 -132 -64 -216 -171 -247c-41 -22 -80 -65 -80 -98c0 -21 14 -32 31 -32c11 0 25 5 41 11l26 -118c-42 -22 -80 -31 -122 -31c-89 0 -130 58 -130 121c0 47 24 95 75 136c-136 19 -219 106 -219 258v309h197v-312c0 -45 29 -79 77 -79
c49 0 78 34 78 79v312z" />
    <glyph glyph-name="uring" unicode="&#x16f;" 
d="M318 608c-85 0 -153 65 -153 146c0 82 68 148 153 148s153 -66 153 -148c0 -81 -68 -146 -153 -146zM318 706c27 0 49 22 49 50c0 27 -22 48 -49 48c-28 0 -50 -21 -50 -48c0 -28 22 -50 50 -50zM318 -14c-168 0 -274 90 -274 261v309h197v-312c0 -45 29 -79 77 -79
c49 0 78 34 78 79v312h197v-309c0 -171 -106 -261 -275 -261z" />
    <glyph glyph-name="utilde" unicode="&#x169;" 
d="M195 616l-123 62c48 90 93 138 174 138c64 0 95 -42 130 -42c20 0 35 12 60 51l124 -59c-40 -88 -93 -139 -158 -139c-59 0 -96 44 -138 44c-22 0 -44 -11 -69 -55zM318 -14c-168 0 -274 90 -274 261v309h197v-312c0 -45 29 -79 77 -79c49 0 78 34 78 79v312h197v-309
c0 -171 -106 -261 -275 -261z" />
    <glyph glyph-name="v" unicode="v" 
d="M421 556h215l-238 -555h-160l-236 555h216l104 -294z" />
    <glyph glyph-name="w" unicode="w" horiz-adv-x="923" 
d="M192 1l-189 555h207l87 -301l95 301h139l95 -301l87 301h207l-189 -555h-177l-92 267l-93 -267h-177z" />
    <glyph glyph-name="wacute" unicode="&#x1e83;" horiz-adv-x="923" 
d="M373 631l65 187h207l-95 -187h-177zM192 1l-189 555h207l87 -301l95 301h139l95 -301l87 301h207l-189 -555h-177l-92 267l-93 -267h-177z" />
    <glyph glyph-name="wcircumflex" unicode="&#x175;" horiz-adv-x="923" 
d="M232 628l158 191h150l158 -191h-180l-56 83l-56 -83h-174zM192 1l-189 555h207l87 -301l95 301h139l95 -301l87 301h207l-189 -555h-177l-92 267l-93 -267h-177z" />
    <glyph glyph-name="wdieresis" unicode="&#x1e85;" horiz-adv-x="923" 
d="M342 616c-58 0 -103 43 -103 103c0 58 46 102 103 102c58 0 103 -44 103 -102c0 -60 -45 -103 -103 -103zM582 616c-58 0 -103 43 -103 103c0 58 46 102 103 102c58 0 103 -44 103 -102c0 -60 -45 -103 -103 -103zM192 1l-189 555h207l87 -301l95 301h139l95 -301l87 301
h207l-189 -555h-177l-92 267l-93 -267h-177z" />
    <glyph glyph-name="wgrave" unicode="&#x1e81;" horiz-adv-x="923" 
d="M555 631h-177l-95 187h207zM192 1l-189 555h207l87 -301l95 301h139l95 -301l87 301h207l-189 -555h-177l-92 267l-93 -267h-177z" />
    <glyph glyph-name="x" unicode="x" horiz-adv-x="608" 
d="M602 0h-227l-72 152l-82 -152h-221l170 278l-148 278h223l60 -141l74 141h216l-158 -278z" />
    <glyph glyph-name="y" unicode="y" horiz-adv-x="653" 
d="M439 556h212l-212 -542c-58 -149 -138 -251 -286 -251c-48 0 -93 12 -128 34l40 160c23 -12 47 -20 74 -20c47 0 78 25 104 74l-241 545h226l111 -295z" />
    <glyph glyph-name="yacute" unicode="&#xfd;" horiz-adv-x="653" 
d="M505 818l-95 -187h-177l65 187h207zM439 556h212l-212 -542c-58 -149 -138 -251 -286 -251c-48 0 -93 12 -128 34l40 160c23 -12 47 -20 74 -20c47 0 78 25 104 74l-241 545h226l111 -295z" />
    <glyph glyph-name="ycircumflex" unicode="&#x177;" horiz-adv-x="653" 
d="M335 714l-56 -83h-174l158 191h150l158 -191h-180zM439 556h212l-212 -542c-58 -149 -138 -251 -286 -251c-48 0 -93 12 -128 34l40 160c23 -12 47 -20 74 -20c47 0 78 25 104 74l-241 545h226l111 -295z" />
    <glyph glyph-name="ydieresis" unicode="&#xff;" horiz-adv-x="653" 
d="M215 616c-58 0 -103 43 -103 103c0 58 46 102 103 102c58 0 103 -44 103 -102c0 -60 -45 -103 -103 -103zM455 616c-58 0 -103 43 -103 103c0 58 46 102 103 102c58 0 103 -44 103 -102c0 -60 -45 -103 -103 -103zM439 556h212l-212 -542c-58 -149 -138 -251 -286 -251
c-48 0 -93 12 -128 34l40 160c23 -12 47 -20 74 -20c47 0 78 25 104 74l-241 545h226l111 -295z" />
    <glyph glyph-name="ygrave" unicode="&#x1ef3;" horiz-adv-x="653" 
d="M420 631h-177l-95 187h207zM439 556h212l-212 -542c-58 -149 -138 -251 -286 -251c-48 0 -93 12 -128 34l40 160c23 -12 47 -20 74 -20c47 0 78 25 104 74l-241 545h226l111 -295z" />
    <glyph glyph-name="z" unicode="z" horiz-adv-x="575" 
d="M307 161h234v-161h-506v140l232 254h-223v161h486v-143z" />
    <glyph glyph-name="zacute" unicode="&#x17a;" horiz-adv-x="575" 
d="M194 631l65 187h207l-95 -187h-177zM307 161h234v-161h-506v140l232 254h-223v161h486v-143z" />
    <glyph glyph-name="zcaron" unicode="&#x17e;" horiz-adv-x="575" 
d="M54 822h174l56 -83l56 83h180l-158 -191h-150zM307 161h234v-161h-506v140l232 254h-223v161h486v-143z" />
    <glyph glyph-name="zdotaccent" unicode="&#x17c;" horiz-adv-x="575" 
d="M293 602c-62 0 -110 46 -110 109c0 62 49 109 110 109c62 0 110 -47 110 -109c0 -63 -48 -109 -110 -109zM307 161h234v-161h-506v140l232 254h-223v161h486v-143z" />
    <glyph glyph-name="iacute_j.loclNLD" horiz-adv-x="601" 
d="M56 631l65 187h207l-95 -187h-177zM364 631l65 187h207l-95 -187h-177zM248 0h-197v556h197v-556zM302 -237c-60 0 -128 14 -161 36l36 151c30 -10 57 -17 87 -17c56 0 89 35 89 103v520h197v-544c0 -178 -116 -249 -248 -249z" />
    <glyph glyph-name="j.loclNLD" horiz-adv-x="323" 
d="M173 599c-62 0 -110 46 -110 109c0 62 49 109 110 109c62 0 110 -47 110 -109c0 -63 -48 -109 -110 -109zM24 -237c-60 0 -128 14 -161 36l36 151c30 -10 57 -17 87 -17c56 0 89 35 89 103v520h197v-544c0 -178 -116 -249 -248 -249z" />
    <glyph glyph-name="a.ss02" horiz-adv-x="595" 
d="M289 570c123 0 261 -43 261 -246v-324h-174v47c-38 -37 -93 -59 -160 -59c-130 0 -191 81 -191 176c0 135 123 178 259 181c11 0 44 0 84 1c-8 41 -41 58 -91 58c-53 0 -126 -18 -176 -41l-58 145c70 33 145 62 246 62zM258 135c49 0 103 29 111 80c-36 -1 -69 -1 -86 -2
c-45 -2 -75 -13 -75 -42c0 -19 13 -36 50 -36z" />
    <glyph glyph-name="aacute.ss02" horiz-adv-x="595" 
d="M479 818l-95 -187h-177l65 187h207zM289 570c123 0 261 -43 261 -246v-324h-174v47c-38 -37 -93 -59 -160 -59c-130 0 -191 81 -191 176c0 135 123 178 259 181c11 0 44 0 84 1c-8 41 -41 58 -91 58c-53 0 -126 -18 -176 -41l-58 145c70 33 145 62 246 62zM258 135
c49 0 103 29 111 80c-36 -1 -69 -1 -86 -2c-45 -2 -75 -13 -75 -42c0 -19 13 -36 50 -36z" />
    <glyph glyph-name="abreve.ss02" horiz-adv-x="595" 
d="M303 626c-118 0 -194 70 -206 192h147c2 -32 17 -70 59 -70s57 38 58 70h149c-12 -122 -88 -192 -207 -192zM289 570c123 0 261 -43 261 -246v-324h-174v47c-38 -37 -93 -59 -160 -59c-130 0 -191 81 -191 176c0 135 123 178 259 181c11 0 44 0 84 1c-8 41 -41 58 -91 58
c-53 0 -126 -18 -176 -41l-58 145c70 33 145 62 246 62zM258 135c49 0 103 29 111 80c-36 -1 -69 -1 -86 -2c-45 -2 -75 -13 -75 -42c0 -19 13 -36 50 -36z" />
    <glyph glyph-name="acircumflex.ss02" horiz-adv-x="595" 
d="M291 714l-56 -83h-174l158 191h150l158 -191h-180zM289 570c123 0 261 -43 261 -246v-324h-174v47c-38 -37 -93 -59 -160 -59c-130 0 -191 81 -191 176c0 135 123 178 259 181c11 0 44 0 84 1c-8 41 -41 58 -91 58c-53 0 -126 -18 -176 -41l-58 145c70 33 145 62 246 62z
M258 135c49 0 103 29 111 80c-36 -1 -69 -1 -86 -2c-45 -2 -75 -13 -75 -42c0 -19 13 -36 50 -36z" />
    <glyph glyph-name="adieresis.ss02" horiz-adv-x="595" 
d="M185 616c-58 0 -103 43 -103 103c0 58 46 102 103 102c58 0 103 -44 103 -102c0 -60 -45 -103 -103 -103zM425 616c-58 0 -103 43 -103 103c0 58 46 102 103 102c58 0 103 -44 103 -102c0 -60 -45 -103 -103 -103zM289 570c123 0 261 -43 261 -246v-324h-174v47
c-38 -37 -93 -59 -160 -59c-130 0 -191 81 -191 176c0 135 123 178 259 181c11 0 44 0 84 1c-8 41 -41 58 -91 58c-53 0 -126 -18 -176 -41l-58 145c70 33 145 62 246 62zM258 135c49 0 103 29 111 80c-36 -1 -69 -1 -86 -2c-45 -2 -75 -13 -75 -42c0 -19 13 -36 50 -36z
" />
    <glyph glyph-name="agrave.ss02" horiz-adv-x="595" 
d="M407 632h-177l-95 187h207zM289 570c123 0 261 -43 261 -246v-324h-174v47c-38 -37 -93 -59 -160 -59c-130 0 -191 81 -191 176c0 135 123 178 259 181c11 0 44 0 84 1c-8 41 -41 58 -91 58c-53 0 -126 -18 -176 -41l-58 145c70 33 145 62 246 62zM258 135
c49 0 103 29 111 80c-36 -1 -69 -1 -86 -2c-45 -2 -75 -13 -75 -42c0 -19 13 -36 50 -36z" />
    <glyph glyph-name="amacron.ss02" horiz-adv-x="595" 
d="M483 807v-167l-352 -2v169h352zM289 570c123 0 261 -43 261 -246v-324h-174v47c-38 -37 -93 -59 -160 -59c-130 0 -191 81 -191 176c0 135 123 178 259 181c11 0 44 0 84 1c-8 41 -41 58 -91 58c-53 0 -126 -18 -176 -41l-58 145c70 33 145 62 246 62zM258 135
c49 0 103 29 111 80c-36 -1 -69 -1 -86 -2c-45 -2 -75 -13 -75 -42c0 -19 13 -36 50 -36z" />
    <glyph glyph-name="aogonek.ss02" horiz-adv-x="590" 
d="M539 -120l26 -118c-42 -22 -80 -31 -122 -31c-89 0 -130 58 -130 121c0 51 29 104 90 148h-27v47c-38 -37 -93 -59 -160 -59c-130 0 -191 81 -191 176c0 135 123 178 259 181c11 0 44 0 84 1c-8 41 -41 58 -91 58c-53 0 -126 -18 -176 -41l-58 145c70 33 145 62 246 62
c123 0 261 -43 261 -246v-324c-42 -21 -83 -65 -83 -99c0 -21 14 -32 31 -32c11 0 25 5 41 11zM258 135c49 0 103 29 111 80c-36 -1 -69 -1 -86 -2c-45 -2 -75 -13 -75 -42c0 -19 13 -36 50 -36z" />
    <glyph glyph-name="aring.ss02" horiz-adv-x="595" 
d="M302 613c-85 0 -153 65 -153 146c0 82 68 148 153 148s153 -66 153 -148c0 -81 -68 -146 -153 -146zM302 809c-28 0 -50 -21 -50 -48c0 -28 22 -50 50 -50c27 0 49 22 49 50c0 27 -22 48 -49 48zM289 570c123 0 261 -43 261 -246v-324h-174v47c-38 -37 -93 -59 -160 -59
c-130 0 -191 81 -191 176c0 135 123 178 259 181c11 0 44 0 84 1c-8 41 -41 58 -91 58c-53 0 -126 -18 -176 -41l-58 145c70 33 145 62 246 62zM258 135c49 0 103 29 111 80c-36 -1 -69 -1 -86 -2c-45 -2 -75 -13 -75 -42c0 -19 13 -36 50 -36z" />
    <glyph glyph-name="atilde.ss02" horiz-adv-x="595" 
d="M246 666c-22 0 -44 -11 -69 -55l-123 62c48 90 93 138 174 138c64 0 95 -42 130 -42c20 0 35 12 60 51l124 -59c-40 -88 -93 -139 -158 -139c-59 0 -96 44 -138 44zM289 570c123 0 261 -43 261 -246v-324h-174v47c-38 -37 -93 -59 -160 -59c-130 0 -191 81 -191 176
c0 135 123 178 259 181c11 0 44 0 84 1c-8 41 -41 58 -91 58c-53 0 -126 -18 -176 -41l-58 145c70 33 145 62 246 62zM258 135c49 0 103 29 111 80c-36 -1 -69 -1 -86 -2c-45 -2 -75 -13 -75 -42c0 -19 13 -36 50 -36z" />
    <glyph glyph-name="I_J.loclNLD" horiz-adv-x="963" 
d="M68 739h210v-739h-210v739zM588 -12c-86 0 -180 27 -248 86l85 169c46 -36 93 -55 139 -55c87 0 132 59 132 141v410h208v-417c0 -247 -153 -334 -316 -334z" />
    <glyph glyph-name="i_j.loclNLD" horiz-adv-x="650" 
d="M154 599c-62 0 -110 46 -110 109c0 62 49 109 110 109c62 0 110 -47 110 -109c0 -63 -48 -109 -110 -109zM451 599c-62 0 -110 46 -110 109c0 62 49 109 110 109c62 0 110 -47 110 -109c0 -63 -48 -109 -110 -109zM253 0h-197v556h197v-556zM302 -237
c-60 0 -128 14 -161 36l36 151c30 -10 57 -17 87 -17c56 0 89 35 89 103v520h197v-544c0 -178 -116 -249 -248 -249z" />
    <glyph glyph-name="ordfeminine" unicode="&#xaa;" horiz-adv-x="403" 
d="M196 736c77 0 160 -35 160 -163v-183h-108v31c-23 -24 -58 -38 -100 -38c-79 0 -116 49 -116 107c0 80 68 108 157 108h52c-4 22 -26 37 -61 37c-26 0 -73 -8 -102 -21l-33 86c42 21 93 36 151 36zM175 472c30 0 67 19 67 55v3c-20 0 -38 -1 -46 -1
c-35 -1 -53 -12 -53 -32c0 -13 8 -25 32 -25z" />
    <glyph glyph-name="ordmasculine" unicode="&#xba;" horiz-adv-x="414" 
d="M206 381c-102 0 -180 75 -180 175s78 175 180 175c103 0 182 -75 182 -175s-79 -175 -182 -175zM207 496c39 0 63 27 63 60c0 34 -26 61 -64 61c-36 0 -62 -27 -62 -61c0 -35 27 -60 63 -60z" />
    <glyph glyph-name="uni0410" unicode="&#x410;" horiz-adv-x="723" 
d="M508 0l-35 121h-223l-37 -121h-213l263 739h203l255 -739h-213zM426 300l-62 204l-64 -204h126z" />
    <glyph glyph-name="uni0411" unicode="&#x411;" horiz-adv-x="689" 
d="M396 473c211 0 267 -138 267 -239c0 -135 -98 -234 -251 -234h-344v739h514v-174h-310v-92h124zM376 176c56 0 73 34 73 61c0 30 -20 60 -66 60h-111v-121h104z" />
    <glyph glyph-name="uni0412" unicode="&#x412;" horiz-adv-x="716" 
d="M545 406c96 -22 141 -99 141 -187c0 -128 -98 -219 -241 -219h-377v739h359c148 0 220 -92 220 -182c0 -66 -42 -129 -102 -151zM387 565h-115v-105h106c50 0 65 28 65 52c0 28 -20 53 -56 53zM399 176c56 0 73 34 73 61c0 30 -20 60 -66 60h-134v-121h127z" />
    <glyph glyph-name="uni0413" unicode="&#x413;" horiz-adv-x="571" 
d="M68 0v739h494v-181h-290v-558h-204z" />
    <glyph glyph-name="uni0414" unicode="&#x414;" horiz-adv-x="844" 
d="M726 186h87v-336h-198v150h-387v-150h-198v336h83l187 553h245zM320 186h199l-97 344z" />
    <glyph glyph-name="uni0415" unicode="&#x415;" horiz-adv-x="671" 
d="M68 0v739h553v-192h-343v-82h317v-191h-317v-82h341v-192h-551z" />
    <glyph glyph-name="uni0401" unicode="&#x401;" horiz-adv-x="671" 
d="M218 785c-62 0 -111 46 -111 111c0 62 50 110 111 110c63 0 111 -48 111 -110c0 -65 -48 -111 -111 -111zM477 785c-62 0 -111 46 -111 111c0 62 50 110 111 110c63 0 112 -48 112 -110c0 -65 -49 -111 -112 -111zM68 0v739h553v-192h-343v-82h317v-191h-317v-82h341
v-192h-551z" />
    <glyph glyph-name="uni0416" unicode="&#x416;" horiz-adv-x="1082" 
d="M1044 175l10 -169c-26 -11 -58 -17 -96 -17c-161 0 -191 129 -234 220c-23 48 -40 66 -65 66h-14v-275h-208v275h-14c-25 0 -42 -18 -65 -66c-43 -91 -73 -220 -234 -220c-38 0 -70 6 -96 17l10 169c18 -6 37 -8 56 -8c47 0 56 36 128 166c7 13 15 29 25 43
c-23 22 -35 52 -52 86c-38 72 -57 108 -103 108c-7 0 -25 -1 -41 -3l-6 159c26 17 60 24 89 24c104 0 145 -65 194 -170c51 -109 55 -117 83 -118h26v277h208v-277h26c28 1 32 9 83 118c49 105 90 170 194 170c29 0 63 -7 89 -24l-6 -159c-16 2 -34 3 -41 3
c-46 0 -65 -36 -103 -108c-16 -32 -32 -61 -54 -83c11 -16 19 -32 27 -46c72 -130 81 -166 128 -166c19 0 38 2 56 8z" />
    <glyph glyph-name="uni0417" unicode="&#x417;" 
d="M285 -12c-103 0 -192 27 -272 73l72 166c79 -39 158 -51 206 -51c65 0 95 22 95 51c0 27 -26 46 -76 46h-132v181h78c72 0 102 26 103 57c1 29 -25 50 -75 50c-44 0 -108 -17 -166 -50l-92 147c70 58 181 94 289 94c168 0 260 -98 260 -193c0 -58 -33 -114 -104 -146
l-1 -4c92 -27 135 -100 135 -180c0 -116 -98 -241 -320 -241z" />
    <glyph glyph-name="uni0418" unicode="&#x418;" horiz-adv-x="790" 
d="M68 0v739h204v-400l313 400h137v-739h-204v394l-316 -394h-134z" />
    <glyph glyph-name="uni0419" unicode="&#x419;" horiz-adv-x="790" 
d="M422 770c-94 0 -176 43 -244 129l101 103c60 -76 98 -89 144 -89c45 0 84 13 144 89l101 -103c-69 -86 -153 -129 -246 -129zM68 0v739h204v-400l313 400h137v-739h-204v394l-316 -394h-134z" />
    <glyph glyph-name="uni041A" unicode="&#x41a;" horiz-adv-x="733" 
d="M492 0l-143 250l-73 -91v-159h-208v739h208v-278l207 278h253l-249 -321l259 -418h-254z" />
    <glyph glyph-name="uni041B" unicode="&#x41b;" horiz-adv-x="737" 
d="M0 0l250 739h245l242 -739h-225l-140 500l-147 -500h-225z" />
    <glyph glyph-name="uni041C" unicode="&#x41c;" horiz-adv-x="963" 
d="M68 0v739h160l253 -358l252 358h162v-739h-206v320l-168 -231h-81l-168 231v-320h-204z" />
    <glyph glyph-name="uni041D" unicode="&#x41d;" horiz-adv-x="786" 
d="M68 0v739h208v-274h232v274h210v-739h-210v265h-232v-265h-208z" />
    <glyph glyph-name="uni041E" unicode="&#x41e;" horiz-adv-x="840" 
d="M421 -12c-224 0 -389 169 -389 382s165 382 388 382s388 -169 388 -383c0 -213 -164 -381 -387 -381zM420 194c98 0 173 76 172 176c-1 106 -80 176 -172 176c-95 0 -172 -73 -172 -176s77 -176 172 -176z" />
    <glyph glyph-name="uni041F" unicode="&#x41f;" horiz-adv-x="786" 
d="M68 0v739h650v-739h-210v539h-232v-539h-208z" />
    <glyph glyph-name="uni0420" unicode="&#x420;" horiz-adv-x="678" 
d="M374 739c211 0 287 -129 287 -264c0 -138 -80 -255 -301 -255h-84v-220h-208v739h306zM370 406c52 0 77 34 77 71c0 41 -31 72 -75 72h-96v-143h94z" />
    <glyph glyph-name="uni0421" unicode="&#x421;" horiz-adv-x="751" 
d="M413 -11c-214 0 -380 152 -380 378c0 228 172 385 381 385c135 0 249 -58 316 -142l-130 -141c-45 47 -103 84 -172 84c-100 0 -179 -78 -179 -184c0 -104 78 -182 178 -182c68 0 131 36 176 88l137 -133c-63 -84 -183 -153 -327 -153z" />
    <glyph glyph-name="uni0422" unicode="&#x422;" horiz-adv-x="641" 
d="M216 539h-202v200h613v-200h-201v-539h-210v539z" />
    <glyph glyph-name="uni0423" unicode="&#x423;" horiz-adv-x="665" 
d="M166 -11c-43 0 -84 10 -117 27l13 164c21 -9 43 -14 65 -14c49 0 95 24 119 80l-228 493h246l93 -263l79 263h245c-89 -202 -150 -356 -204 -468c-62 -130 -126 -282 -311 -282z" />
    <glyph glyph-name="uni0424" unicode="&#x424;" horiz-adv-x="982" 
d="M954 370c0 -195 -133 -335 -358 -355v-95h-210v95c-227 20 -358 162 -358 355c0 201 141 337 358 356v93h210v-93c218 -18 358 -156 358 -356zM236 367c0 -99 53 -165 150 -175v354c-91 -13 -150 -75 -150 -179zM596 192c97 10 150 76 150 175c0 104 -59 166 -150 179
v-354z" />
    <glyph glyph-name="uni0425" unicode="&#x425;" horiz-adv-x="721" 
d="M-1 0l226 372l-205 367h239l102 -211l115 211h241l-222 -367l216 -372h-239l-113 218l-119 -218h-241z" />
    <glyph glyph-name="uni0427" unicode="&#x427;" horiz-adv-x="720" 
d="M442 739h210v-739h-210v208c-39 -12 -82 -20 -120 -20c-133 0 -282 46 -282 287v264h210v-242c0 -80 34 -109 94 -109c28 0 61 4 98 14v337z" />
    <glyph glyph-name="uni0426" unicode="&#x426;" horiz-adv-x="795" 
d="M551 -150v150h-483v739h210v-539h187v539h210v-539h84v-350h-208z" />
    <glyph glyph-name="uni0428" unicode="&#x428;" horiz-adv-x="1110" 
d="M68 0v739h210v-539h172v539h210v-539h172v539h210v-739h-974z" />
    <glyph glyph-name="uni0429" unicode="&#x429;" horiz-adv-x="1162" 
d="M918 -150v150h-850v739h210v-539h172v539h210v-539h172v539h210v-539h84v-350h-208z" />
    <glyph glyph-name="uni042C" unicode="&#x42c;" horiz-adv-x="682" 
d="M379 533c167 0 285 -98 285 -269c0 -130 -80 -264 -274 -264h-322v739h204v-220c34 9 71 14 107 14zM350 183c70 0 99 34 99 84c0 62 -40 84 -101 84c-24 0 -50 -4 -76 -10v-158h78z" />
    <glyph glyph-name="uni042A" unicode="&#x42a;" horiz-adv-x="772" 
d="M469 533c167 0 285 -98 285 -269c0 -130 -80 -264 -274 -264h-322v565h-145v174h349v-220c34 9 71 14 107 14zM440 183c70 0 99 34 99 84c0 62 -40 84 -101 84c-24 0 -50 -4 -76 -10v-158h78z" />
    <glyph glyph-name="uni042B" unicode="&#x42b;" horiz-adv-x="1021" 
d="M395 505c205 0 271 -138 271 -252c0 -149 -100 -253 -253 -253h-342v739h204v-234h120zM743 739h210v-739h-210v739zM377 178c53 0 75 39 75 76c0 43 -31 73 -73 73h-104v-149h102z" />
    <glyph glyph-name="uni042D" unicode="&#x42d;" horiz-adv-x="754" 
d="M340 752c209 0 381 -157 381 -385c0 -226 -166 -378 -380 -378c-144 0 -264 69 -327 153l137 133c45 -52 108 -88 176 -88c66 0 123 34 154 88h-219v180h223c-29 60 -89 98 -159 98c-69 0 -127 -37 -172 -84l-130 141c67 84 181 142 316 142z" />
    <glyph glyph-name="uni042E" unicode="&#x42e;" horiz-adv-x="1156" 
d="M736 752c223 0 388 -169 388 -383c0 -213 -164 -381 -387 -381c-186 0 -331 116 -375 277h-84v-265h-210v739h210v-274h81c41 166 188 287 377 287zM736 194c98 0 173 76 172 176c-1 106 -80 176 -172 176c-95 0 -172 -73 -172 -176s77 -176 172 -176z" />
    <glyph glyph-name="uni042F" unicode="&#x42f;" horiz-adv-x="715" 
d="M647 739v-739h-204v221c-26 -4 -51 -6 -77 -7l-121 -214h-229l156 252c-89 49 -119 137 -119 225c0 154 98 262 309 262h285zM369 389c25 0 50 3 74 7v157h-74c-74 0 -103 -32 -103 -81c0 -44 22 -83 103 -83z" />
    <glyph glyph-name="uni0414.ss01" horiz-adv-x="829" 
d="M710 192h84v-342h-208v150h-347v-150h-208v342h70c50 97 88 229 114 473l8 74h487v-547zM315 192h187v352h-100l-8 -47c-14 -80 -38 -201 -79 -305z" />
    <glyph glyph-name="uni0416.ss01" horiz-adv-x="1002" 
d="M1017 0h-234l-182 266v-266h-200v266l-182 -266h-234l267 376l-248 363h231l166 -269v269h200v-269l166 269h231l-248 -364z" />
    <glyph glyph-name="uni041B.ss01" horiz-adv-x="783" 
d="M88 -13c-13 0 -26 1 -40 2l-48 171h13c56 0 88 27 110 66c49 86 54 244 83 513h509v-739h-210v538h-112c-18 -154 -32 -323 -95 -433c-42 -73 -107 -118 -210 -118z" />
    <glyph glyph-name="uni0424.ss01" horiz-adv-x="1000" 
d="M973 371c0 -201 -148 -312 -368 -326v-125h-210v125c-217 14 -368 122 -368 326c0 196 142 313 368 326v122h210v-122c221 -13 368 -126 368 -326zM235 370c0 -84 54 -143 160 -149v297c-108 -8 -160 -66 -160 -148zM605 221c106 6 160 65 160 149c0 82 -52 140 -160 148
v-297z" />
    <glyph glyph-name="uni042C.ss01" horiz-adv-x="679" 
d="M392 505c205 0 271 -138 271 -252c0 -149 -100 -253 -253 -253h-342v739h204v-234h120zM374 178c53 0 75 39 75 76c0 43 -31 73 -73 73h-104v-149h102z" />
    <glyph glyph-name="uni042A.ss01" horiz-adv-x="772" 
d="M485 505c205 0 271 -138 271 -252c0 -149 -100 -253 -253 -253h-342v565h-148v174h352v-234h120zM467 178c53 0 75 39 75 76c0 43 -31 73 -73 73h-104v-149h102z" />
    <glyph glyph-name="uni0430" unicode="&#x430;" horiz-adv-x="695" 
d="M455 556h185v-556h-185v39c-39 -31 -89 -53 -156 -53c-161 0 -271 130 -271 294c0 167 115 290 271 290c66 0 117 -22 156 -55v41zM337 165c64 0 114 52 114 114c0 61 -50 112 -114 112c-65 0 -113 -51 -113 -112c0 -63 50 -114 113 -114z" />
    <glyph glyph-name="uni0431" unicode="&#x431;" horiz-adv-x="709" 
d="M404 549c142 0 277 -101 277 -275c0 -159 -114 -290 -313 -290c-259 0 -336 218 -336 407c0 253 129 359 256 389c114 27 165 15 283 101l72 -147c-58 -58 -110 -79 -264 -108c-100 -19 -161 -52 -174 -177c41 65 115 100 199 100zM369 159c64 0 112 49 112 112
c0 62 -48 110 -112 110c-63 0 -111 -47 -111 -110c0 -64 48 -112 111 -112z" />
    <glyph glyph-name="uni0432" unicode="&#x432;" horiz-adv-x="675" 
d="M510 435c92 -27 138 -103 138 -205c0 -114 -103 -243 -298 -243c-88 0 -308 6 -308 293v188c0 253 156 317 303 317c155 0 265 -79 265 -198c0 -72 -38 -128 -100 -152zM341 605c-101 0 -101 -112 -101 -121v-5h72c86 0 102 39 102 68c0 43 -36 58 -73 58zM351 166
c67 0 95 42 95 73c0 43 -17 75 -103 75h-103v-32c0 -33 3 -116 111 -116z" />
    <glyph glyph-name="uni0433" unicode="&#x433;" horiz-adv-x="526" 
d="M260 -13c-172 0 -231 82 -231 159c0 206 240 184 240 240c0 14 -13 28 -48 28s-93 -14 -133 -32l-47 140c58 26 147 48 226 48c139 0 218 -64 218 -152c0 -189 -234 -169 -234 -236c0 -23 28 -34 65 -34c39 0 98 13 151 39l36 -150c-68 -29 -159 -50 -243 -50z" />
    <glyph glyph-name="uni0434" unicode="&#x434;" horiz-adv-x="684" 
d="M459 556h175v-471c0 -213 -126 -321 -332 -321c-95 0 -179 25 -235 43l40 156c57 -21 132 -34 189 -34c113 0 152 53 152 114v2c-34 -27 -81 -46 -145 -46c-169 -1 -275 118 -275 283c0 176 124 288 283 288c63 0 111 -21 148 -52v38zM337 167c64 0 111 49 111 113
c0 63 -47 110 -111 110c-63 0 -111 -46 -111 -110c0 -65 48 -113 111 -113z" />
    <glyph glyph-name="uni0435" unicode="&#x435;" horiz-adv-x="645" 
d="M618 293c0 -22 -2 -49 -6 -77h-385c19 -43 59 -70 121 -70c56 0 120 21 161 48l76 -130c-57 -40 -141 -76 -247 -76c-207 0 -310 136 -310 290c0 166 120 292 301 292c162 0 289 -101 289 -277zM329 416c-48 0 -87 -23 -105 -69h207c-15 42 -50 69 -102 69z" />
    <glyph glyph-name="uni0451" unicode="&#x451;" horiz-adv-x="645" 
d="M220 603c-58 0 -103 43 -103 103c0 58 46 102 103 102c58 0 103 -44 103 -102c0 -60 -45 -103 -103 -103zM460 603c-58 0 -103 43 -103 103c0 58 46 102 103 102c58 0 103 -44 103 -102c0 -60 -45 -103 -103 -103zM618 293c0 -22 -2 -49 -6 -77h-385
c19 -43 59 -70 121 -70c56 0 120 21 161 48l76 -130c-57 -40 -141 -76 -247 -76c-207 0 -310 136 -310 290c0 166 120 292 301 292c162 0 289 -101 289 -277zM329 416c-48 0 -87 -23 -105 -69h207c-15 42 -50 69 -102 69z" />
    <glyph glyph-name="uni0436" unicode="&#x436;" horiz-adv-x="948" 
d="M912 155l8 -150c-22 -8 -52 -14 -87 -14c-147 0 -174 101 -200 152c-19 37 -32 41 -50 41h-11v-184h-196v184h-11c-18 0 -31 -4 -50 -41c-27 -51 -53 -152 -200 -152c-35 0 -65 6 -87 14l8 150c16 -4 30 -5 39 -5c35 0 60 28 108 106l14 24c-11 10 -19 24 -30 42
c-33 54 -49 81 -87 81c-5 0 -22 0 -35 -1l-3 141c22 14 54 20 80 20c89 0 131 -47 162 -104c36 -66 43 -94 80 -94h12v191h196v-191h12c37 0 44 28 80 94c31 57 73 104 162 104c26 0 58 -6 80 -20l-3 -141c-13 1 -30 1 -35 1c-38 0 -54 -27 -87 -81c-11 -18 -19 -32 -30 -42
l14 -24c48 -78 73 -106 108 -106c9 0 23 1 39 5z" />
    <glyph glyph-name="uni0437" unicode="&#x437;" horiz-adv-x="572" 
d="M264 -233c-102 0 -194 33 -267 83l61 150c70 -41 117 -58 170 -58c72 0 109 30 109 76c0 45 -35 72 -100 72h-88v161h61c81 0 103 38 103 73c0 47 -38 69 -83 69s-94 -22 -146 -55l-79 139c58 52 162 93 262 93c155 0 255 -99 255 -207c0 -63 -34 -125 -101 -156v-4
c84 -28 127 -103 127 -190c0 -127 -92 -246 -284 -246z" />
    <glyph glyph-name="uni0438" unicode="&#x438;" horiz-adv-x="675" 
d="M624 556v-556h-190v78c-23 -45 -91 -92 -180 -92c-107 0 -209 73 -209 239v331h197v-290c0 -64 32 -101 87 -101c58 0 99 42 99 107v284h196z" />
    <glyph glyph-name="uni0439" unicode="&#x439;" horiz-adv-x="675" 
d="M337 590c-84 0 -158 39 -219 116l91 93c54 -69 88 -80 129 -80s76 11 130 80l91 -93c-62 -77 -138 -116 -222 -116zM624 556v-556h-190v78c-23 -45 -91 -92 -180 -92c-107 0 -209 73 -209 239v331h197v-290c0 -64 32 -101 87 -101c58 0 99 42 99 107v284h196z" />
    <glyph glyph-name="uni043A" unicode="&#x43a;" horiz-adv-x="631" 
d="M420 0l-154 211l-19 -18v-193h-196v764h196v-353l148 145h236l-235 -222l255 -334h-231z" />
    <glyph glyph-name="uni043B" unicode="&#x43b;" horiz-adv-x="659" 
d="M4 0l211 556h237l203 -556h-219l-103 350l-110 -350h-219z" />
    <glyph glyph-name="uni043C" unicode="&#x43c;" horiz-adv-x="796" 
d="M51 0v556h155l192 -237l193 237h154v-556h-189v220l-120 -134h-77l-119 134v-220h-189z" />
    <glyph glyph-name="uni043D" unicode="&#x43d;" horiz-adv-x="652" 
d="M406 556h195v-556h-195v185h-160v-185h-195v556h195v-192h160v192z" />
    <glyph glyph-name="uni043E" unicode="&#x43e;" horiz-adv-x="665" 
d="M332 -16c-185 0 -305 132 -305 294c0 161 120 294 305 294c186 0 306 -133 306 -294c0 -162 -120 -294 -306 -294zM332 168c62 0 110 47 110 111c0 62 -48 109 -110 109c-61 0 -109 -47 -109 -109c0 -64 48 -111 109 -111z" />
    <glyph glyph-name="uni043F" unicode="&#x43f;" horiz-adv-x="675" 
d="M51 0v556h192v-77c23 45 86 92 174 92c108 0 213 -73 213 -229v-342h-197v291c0 64 -32 101 -87 101c-58 0 -99 -42 -99 -107v-285h-196z" />
    <glyph glyph-name="uni0440" unicode="&#x440;" horiz-adv-x="694" 
d="M396 570c160 0 270 -130 270 -291s-111 -293 -269 -293c-63 0 -112 21 -149 52v-267h-197v785h194v-41c37 32 87 55 151 55zM356 166c64 0 110 49 110 111s-46 111 -110 111c-63 0 -110 -49 -110 -111s47 -111 110 -111z" />
    <glyph glyph-name="uni0441" unicode="&#x441;" horiz-adv-x="609" 
d="M324 -12c-176 0 -296 121 -296 291c0 169 120 291 298 291c112 0 217 -51 268 -166l-156 -81c-24 40 -61 65 -107 65c-64 0 -109 -47 -109 -109c0 -64 46 -111 108 -111c47 0 89 26 106 65l157 -93c-49 -94 -147 -152 -269 -152z" />
    <glyph glyph-name="uni0442" unicode="&#x442;" horiz-adv-x="1037" 
d="M759 572c116 0 233 -70 233 -230v-342h-197v302c0 65 -40 90 -83 90c-52 0 -93 -33 -93 -97v-295h-196v302c0 59 -39 90 -86 90c-48 0 -90 -31 -90 -97v-295h-196v556h192v-77c31 60 104 94 173 93c57 -1 118 -24 149 -88c46 62 123 88 194 88z" />
    <glyph glyph-name="uni0443" unicode="&#x443;" horiz-adv-x="653" 
d="M438 556h212l-212 -542c-58 -149 -138 -251 -286 -251c-48 0 -93 12 -128 34l40 160c23 -12 47 -20 74 -20c47 0 78 25 104 74l-241 545h226l111 -295z" />
    <glyph glyph-name="uni0444" unicode="&#x444;" horiz-adv-x="889" 
d="M862 279c0 -185 -128 -280 -322 -291v-219h-190v219c-189 11 -322 105 -322 291c0 178 123 283 322 293v192h190v-192c195 -10 322 -110 322 -293zM540 154c88 3 127 53 127 124c0 69 -37 119 -127 123v-247zM223 278c0 -71 40 -121 127 -124v247
c-89 -5 -127 -54 -127 -123z" />
    <glyph glyph-name="uni0445" unicode="&#x445;" horiz-adv-x="610" 
d="M603 0h-227l-72 152l-82 -152h-221l170 278l-148 278h223l60 -141l74 141h216l-158 -278z" />
    <glyph glyph-name="uni0447" unicode="&#x447;" horiz-adv-x="620" 
d="M373 556h196v-556h-196v144c-34 -8 -70 -13 -101 -13c-110 0 -238 26 -238 229v196h196v-183c0 -45 26 -63 70 -63c18 0 44 1 73 7v239z" />
    <glyph glyph-name="uni0446" unicode="&#x446;" horiz-adv-x="774" 
d="M625 227c-5 -91 45 -100 143 -100v-307h-168v168c-71 0 -135 32 -145 125c-25 -76 -104 -127 -201 -127c-107 0 -209 73 -209 239v331h197v-290c0 -64 32 -101 87 -101c58 0 99 42 99 107v284h197v-329z" />
    <glyph glyph-name="uni0448" unicode="&#x448;" horiz-adv-x="995" 
d="M746 556h198v-556h-188v78c-21 -45 -86 -92 -163 -92c-56 0 -116 24 -147 82c-43 -60 -116 -82 -177 -82c-115 0 -224 77 -224 249v321h198v-304c0 -56 29 -87 74 -87c49 0 79 37 79 92v299h198v-303c0 -55 25 -88 71 -88c48 0 81 37 81 92v299z" />
    <glyph glyph-name="uni0449" unicode="&#x449;" horiz-adv-x="1098" 
d="M943 227c0 -91 51 -100 149 -100v-307h-168v168c-71 0 -135 32 -145 125c-25 -76 -104 -127 -193 -127c-51 0 -109 24 -140 82c-43 -60 -116 -82 -177 -82c-115 0 -224 77 -224 249v321h197v-304c0 -56 30 -87 75 -87c49 0 79 37 79 92v299h197v-303c0 -55 26 -88 72 -88
c48 0 81 37 81 92v299h197v-329z" />
    <glyph glyph-name="uni044C" unicode="&#x44c;" horiz-adv-x="594" 
d="M335 461c125 0 235 -89 235 -230c0 -118 -70 -245 -267 -245c-211 0 -260 158 -260 289v281h192v-118c29 15 62 23 100 23zM309 152c48 0 69 33 69 73c0 45 -25 71 -77 71c-23 0 -46 -4 -66 -11v-46c0 -37 14 -87 74 -87z" />
    <glyph glyph-name="uni044A" unicode="&#x44a;" horiz-adv-x="669" 
d="M413 461c120 0 232 -89 232 -230c0 -118 -70 -245 -267 -245c-211 0 -260 158 -260 289v124h-103v157h295v-121c30 16 63 26 103 26zM384 152c48 0 69 33 69 73c0 45 -25 71 -77 71c-23 0 -46 -4 -66 -11v-46c0 -37 14 -87 74 -87z" />
    <glyph glyph-name="uni044B" unicode="&#x44b;" horiz-adv-x="844" 
d="M322 405c166 0 226 -105 226 -200c0 -121 -85 -205 -220 -205h-277v556h185l-1 -151h87zM599 556h195v-556h-195v556zM310 156c34 0 49 24 49 46c0 26 -21 47 -49 47h-76v-93h76z" />
    <glyph glyph-name="uni044D" unicode="&#x44d;" horiz-adv-x="604" 
d="M280 570c178 0 296 -122 296 -291c0 -170 -118 -291 -294 -291c-122 0 -220 58 -269 152l150 90c17 -39 64 -70 111 -70c39 0 76 22 97 55h-145v126h145c-21 32 -57 55 -98 55c-46 0 -88 -29 -112 -70l-149 78c51 115 156 166 268 166z" />
    <glyph glyph-name="uni044E" unicode="&#x44e;" horiz-adv-x="926" 
d="M593 572c186 0 306 -133 306 -294c0 -162 -120 -294 -306 -294c-154 0 -263 91 -295 215h-54v-199h-193v764h193v-409h54c31 124 141 217 295 217zM593 168c62 0 110 47 110 111c0 62 -48 109 -110 109c-61 0 -109 -47 -109 -109c0 -64 48 -111 109 -111z" />
    <glyph glyph-name="uni044F" unicode="&#x44f;" horiz-adv-x="612" 
d="M561 556v-556h-188v151c-21 -3 -43 -5 -64 -6l-88 -145h-208l121 181c-67 39 -88 105 -88 170c0 126 88 205 273 205h242zM313 295c21 0 41 3 60 6v103h-45c-56 0 -86 -16 -86 -57c0 -26 16 -52 71 -52z" />
    <glyph glyph-name="uni0431.ss01" horiz-adv-x="697" 
d="M388 549c143 0 281 -101 281 -276c0 -158 -115 -289 -303 -289c-235 0 -334 207 -334 400c0 411 341 381 571 476v-180c-142 -65 -312 -50 -384 -189c43 37 102 58 169 58zM369 160c62 0 110 49 110 111c0 61 -48 109 -110 109c-61 0 -109 -47 -109 -109
c0 -63 48 -111 109 -111z" />
    <glyph glyph-name="uni0432.ss01" horiz-adv-x="598" 
d="M461 306c75 -16 110 -72 110 -140c0 -101 -82 -166 -208 -166h-312v556h314c119 0 174 -69 174 -136c0 -60 -32 -98 -78 -114zM336 412h-102v-69h96c33 0 41 20 41 37c0 14 -12 32 -35 32zM344 148c25 0 40 17 40 36c0 23 -15 36 -37 36h-113v-72h110z" />
    <glyph glyph-name="uni0433.ss01" horiz-adv-x="473" 
d="M456 556v-176h-210v-380h-195v556h405z" />
    <glyph glyph-name="uni0434.ss01" horiz-adv-x="689" 
d="M595 165h63v-284h-185v119h-263v-119h-185v284h59c45 87 78 199 102 371l3 21h406v-392zM343 373c-4 -15 -23 -115 -61 -208h121v244h-52z" />
    <glyph glyph-name="uni0436.ss01" horiz-adv-x="866" 
d="M880 0h-218l-136 195v-195h-186v195l-136 -195h-218l206 284l-183 272h214l117 -202v202h186v-202l117 202h214l-183 -273z" />
    <glyph glyph-name="uni0437.ss01" horiz-adv-x="554" 
d="M258 -12c-93 0 -173 22 -246 59l59 135c74 -30 139 -39 194 -39c53 0 73 16 73 35c0 17 -15 29 -60 29h-122v140h92c53 0 67 16 67 31c0 20 -23 35 -67 35c-38 0 -94 -12 -145 -38l-80 123c62 44 158 72 252 72c147 0 227 -75 227 -147c0 -41 -29 -84 -91 -108l-1 -3
c81 -23 118 -79 118 -138c0 -87 -82 -186 -270 -186z" />
    <glyph glyph-name="uni0438.ss01" horiz-adv-x="664" 
d="M51 0v556h192v-256l240 256h130v-556h-192v250l-243 -250h-127z" />
    <glyph glyph-name="uni0439.ss01" horiz-adv-x="664" 
d="M342 589c-84 0 -158 39 -219 116l91 93c54 -69 88 -80 129 -80s76 11 130 80l91 -93c-62 -77 -138 -116 -222 -116zM51 0v556h192v-256l240 256h130v-556h-192v250l-243 -250h-127z" />
    <glyph glyph-name="uni043A.ss01" horiz-adv-x="611" 
d="M404 0l-134 190l-30 -32v-158h-189v556h189v-169l158 169h221l-226 -237l233 -319h-222z" />
    <glyph glyph-name="uni043B.ss01" horiz-adv-x="646" 
d="M79 -12c-10 0 -20 1 -31 1l-50 152c1 0 4 1 6 1c48 0 74 22 93 55c34 60 41 146 64 359h434v-556h-196v377h-68c-14 -103 -25 -217 -74 -295c-36 -57 -89 -94 -178 -94z" />
    <glyph glyph-name="uni043F.ss01" horiz-adv-x="642" 
d="M591 556v-556h-195v377h-150v-377h-195v556h540z" />
    <glyph glyph-name="uni0442.ss01" horiz-adv-x="527" 
d="M511 556v-170h-150v-386h-195v386h-150v170h495z" />
    <glyph glyph-name="uni0444.ss01" horiz-adv-x="892" 
d="M863 279c0 -185 -128 -280 -322 -291v-150h-190v150c-189 11 -322 105 -322 291c0 178 123 283 322 293v149h190v-149c195 -10 322 -110 322 -293zM541 154c88 3 127 53 127 124c0 69 -37 119 -127 123v-247zM224 278c0 -71 40 -121 127 -124v247
c-89 -5 -127 -54 -127 -123z" />
    <glyph glyph-name="uni0446.ss01" horiz-adv-x="713" 
d="M505 -180v180h-454v556h196v-373h156v373h196v-373h94v-363h-188z" />
    <glyph glyph-name="uni0448.ss01" horiz-adv-x="974" 
d="M51 0v556h196v-373h142v373h196v-373h142v373h196v-556h-872z" />
    <glyph glyph-name="uni0449.ss01" horiz-adv-x="1037" 
d="M923 183h93v-363h-188v180h-777v556h196v-373h142v373h196v-373h142v373h196v-373z" />
    <glyph glyph-name="uni044C.ss01" horiz-adv-x="564" 
d="M322 405c166 0 226 -105 226 -200c0 -121 -85 -205 -220 -205h-277v556h185l-1 -151h87zM310 156c34 0 49 24 49 46c0 26 -21 47 -49 47h-76v-93h76z" />
    <glyph glyph-name="uni044A.ss01" horiz-adv-x="641" 
d="M399 405c166 0 226 -105 226 -200c0 -121 -85 -205 -220 -205h-277v380h-105v176h290l-1 -151h87zM387 156c34 0 49 24 49 46c0 26 -21 47 -49 47h-76v-93h76z" />
    <glyph glyph-name="uni044E.ss01" horiz-adv-x="926" 
d="M593 572c186 0 306 -133 306 -294c0 -162 -120 -294 -306 -294c-154 0 -263 91 -295 215h-54v-199h-193v556h193v-201h54c31 124 141 217 295 217zM593 168c62 0 110 47 110 111c0 62 -48 109 -110 109c-61 0 -109 -47 -109 -109c0 -64 48 -111 109 -111z" />
    <glyph glyph-name="uni0394" unicode="&#x394;" horiz-adv-x="775" 
d="M15 0v139l315 600h116l314 -600v-139h-745zM258 200h259l-130 257z" />
    <glyph glyph-name="uni03A9" unicode="&#x3a9;" horiz-adv-x="860" 
d="M42 0v182h122c-45 34 -107 107 -107 229c0 198 163 341 373 341s373 -143 373 -341c0 -122 -62 -195 -107 -229h122v-182h-356v194c76 27 124 91 124 176c0 106 -75 164 -156 164c-82 0 -156 -59 -156 -164c0 -85 48 -149 124 -176v-194h-356z" />
    <glyph glyph-name="uni03BC" unicode="&#x3bc;" horiz-adv-x="692" 
d="M444 535h197v-535h-189v64c-22 -47 -58 -75 -113 -75c-42 0 -78 17 -100 67v-274h-188v753h197v-254c0 -70 34 -113 93 -113c58 0 103 42 103 137v230z" />
    <glyph glyph-name="pi" unicode="&#x3c0;" horiz-adv-x="649" 
d="M92 0v361h-60v174h585v-174h-60v-361h-199v361h-69v-361h-197z" />
    <glyph glyph-name="zero" unicode="0" horiz-adv-x="699" 
d="M349 -12c-194 0 -312 145 -312 382s118 382 312 382c195 0 313 -145 313 -382s-118 -382 -313 -382zM350 183c72 0 107 77 107 187c0 108 -37 187 -107 187c-71 0 -108 -79 -108 -187c0 -110 35 -187 108 -187z" />
    <glyph glyph-name="one" unicode="1" horiz-adv-x="457" 
d="M242 739h147v-739h-200v470l-99 -70l-101 149z" />
    <glyph glyph-name="two" unicode="2" horiz-adv-x="605" 
d="M344 189h216v-190h-507v173l221 225c24 25 65 58 65 100c0 35 -28 57 -63 57c-43 0 -94 -29 -151 -79l-111 150c92 90 196 127 287 127c147 0 256 -102 256 -231c0 -109 -81 -200 -182 -301z" />
    <glyph glyph-name="three" unicode="3" horiz-adv-x="579" 
d="M261 -12c-95 0 -179 27 -258 73l83 165c70 -39 125 -47 158 -47c56 0 84 21 84 52c0 26 -24 45 -67 45h-97v185h69c53 0 78 22 78 48c0 30 -29 47 -67 47c-39 0 -71 -13 -128 -48l-96 150c63 54 154 94 254 94c133 0 245 -80 245 -191c0 -82 -60 -138 -121 -161v-4
c99 -22 146 -99 146 -183c0 -133 -116 -225 -283 -225z" />
    <glyph glyph-name="four" unicode="4" horiz-adv-x="642" 
d="M607 322v-168h-76v-154h-190v154h-302l-40 138l366 447h166v-417h76zM211 322h130v163z" />
    <glyph glyph-name="five" unicode="5" horiz-adv-x="608" 
d="M325 469c134 0 250 -85 250 -229c0 -138 -105 -252 -293 -252c-87 0 -178 24 -261 73l73 167c67 -34 129 -49 177 -49c72 0 97 33 97 62c0 34 -37 57 -83 57c-37 0 -73 -13 -106 -38l-110 108l36 371h419v-193h-266l-9 -87c23 6 48 10 76 10z" />
    <glyph glyph-name="six" unicode="6" horiz-adv-x="656" 
d="M372 477c145 0 250 -99 250 -235c0 -141 -113 -251 -283 -251c-208 0 -302 161 -302 356c0 207 106 405 339 405c76 0 152 -22 223 -69l-92 -155c-35 22 -76 36 -121 36c-84 0 -140 -45 -154 -137c40 40 93 50 140 50zM339 165c45 0 77 32 77 73s-33 70 -77 70
c-42 0 -79 -26 -79 -70c0 -43 35 -73 79 -73z" />
    <glyph glyph-name="seven" unicode="7" horiz-adv-x="550" 
d="M22 739h502v-154l-235 -585h-214l220 544h-273v195z" />
    <glyph glyph-name="eight" unicode="8" horiz-adv-x="649" 
d="M325 -12c-177 0 -291 90 -291 221c0 83 51 156 131 184v2c-53 25 -100 76 -100 156c0 116 100 201 260 201c158 0 260 -84 260 -201c0 -78 -45 -129 -102 -156v-3c81 -27 132 -100 132 -183c0 -131 -114 -221 -290 -221zM324 468c45 0 72 25 72 58s-27 59 -72 59
s-73 -26 -73 -59s28 -58 73 -58zM325 170c49 0 80 26 80 62c0 37 -32 63 -81 63s-80 -26 -80 -62c0 -37 32 -63 81 -63z" />
    <glyph glyph-name="nine" unicode="9" horiz-adv-x="646" 
d="M313 752c197 0 297 -158 297 -353c0 -216 -110 -411 -336 -411c-79 0 -158 24 -219 69l75 151c26 -16 75 -38 128 -38c77 0 127 45 147 126c-39 -24 -89 -31 -129 -31c-140 0 -241 98 -241 235c0 144 109 252 278 252zM310 435c44 0 76 30 76 72s-33 71 -76 71
c-41 0 -76 -26 -76 -71c0 -44 34 -72 76 -72z" />
    <glyph glyph-name="zero.lf" horiz-adv-x="699" 
d="M349 -12c-194 0 -312 145 -312 382s118 382 312 382c195 0 313 -145 313 -382s-118 -382 -313 -382zM350 183c72 0 107 77 107 187c0 108 -37 187 -107 187c-71 0 -108 -79 -108 -187c0 -110 35 -187 108 -187z" />
    <glyph glyph-name="one.lf" horiz-adv-x="457" 
d="M242 739h147v-739h-200v470l-99 -70l-101 149z" />
    <glyph glyph-name="two.lf" horiz-adv-x="615" 
d="M344 189h216v-190h-507v173l221 225c24 25 65 58 65 100c0 35 -28 57 -63 57c-43 0 -94 -29 -151 -79l-111 150c92 90 196 127 287 127c147 0 256 -102 256 -231c0 -109 -81 -200 -182 -301z" />
    <glyph glyph-name="three.lf" horiz-adv-x="579" 
d="M261 -12c-95 0 -179 27 -258 73l83 165c70 -39 125 -47 158 -47c56 0 84 21 84 52c0 26 -24 45 -67 45h-97v185h69c53 0 78 22 78 48c0 30 -29 47 -67 47c-39 0 -71 -13 -128 -48l-96 150c63 54 154 94 254 94c133 0 245 -80 245 -191c0 -82 -60 -138 -121 -161v-4
c99 -22 146 -99 146 -183c0 -133 -116 -225 -283 -225z" />
    <glyph glyph-name="four.lf" horiz-adv-x="642" 
d="M607 322v-168h-76v-154h-190v154h-302l-40 138l366 447h166v-417h76zM211 322h130v163z" />
    <glyph glyph-name="five.lf" horiz-adv-x="608" 
d="M325 469c134 0 250 -85 250 -229c0 -138 -105 -252 -293 -252c-87 0 -178 24 -261 73l73 167c67 -34 129 -49 177 -49c72 0 97 33 97 62c0 34 -37 57 -83 57c-37 0 -73 -13 -106 -38l-110 108l36 371h419v-193h-266l-9 -87c23 6 48 10 76 10z" />
    <glyph glyph-name="six.lf" horiz-adv-x="643" 
d="M372 477c145 0 250 -99 250 -235c0 -141 -113 -251 -283 -251c-208 0 -302 161 -302 356c0 207 106 405 339 405c76 0 152 -22 223 -69l-92 -155c-35 22 -76 36 -121 36c-84 0 -140 -45 -154 -137c40 40 93 50 140 50zM339 165c45 0 77 32 77 73s-33 70 -77 70
c-42 0 -79 -26 -79 -70c0 -43 35 -73 79 -73z" />
    <glyph glyph-name="seven.lf" horiz-adv-x="550" 
d="M22 739h502v-154l-235 -585h-214l220 544h-273v195z" />
    <glyph glyph-name="eight.lf" horiz-adv-x="649" 
d="M325 -12c-177 0 -291 90 -291 221c0 83 51 156 131 184v2c-53 25 -100 76 -100 156c0 116 100 201 260 201c158 0 260 -84 260 -201c0 -78 -45 -129 -102 -156v-3c81 -27 132 -100 132 -183c0 -131 -114 -221 -290 -221zM324 468c45 0 72 25 72 58s-27 59 -72 59
s-73 -26 -73 -59s28 -58 73 -58zM325 170c49 0 80 26 80 62c0 37 -32 63 -81 63s-80 -26 -80 -62c0 -37 32 -63 81 -63z" />
    <glyph glyph-name="nine.lf" horiz-adv-x="634" 
d="M313 752c197 0 297 -158 297 -353c0 -216 -110 -411 -336 -411c-79 0 -158 24 -219 69l75 151c26 -16 75 -38 128 -38c77 0 127 45 147 126c-39 -24 -89 -31 -129 -31c-140 0 -241 98 -241 235c0 144 109 252 278 252zM310 435c44 0 76 30 76 72s-33 71 -76 71
c-41 0 -76 -26 -76 -71c0 -44 34 -72 76 -72z" />
    <glyph glyph-name="zero.num" horiz-adv-x="404" 
d="M202 341c-114 0 -180 78 -180 205s66 206 180 206s180 -79 180 -206s-66 -205 -180 -205zM202 451c49 0 54 54 54 95c0 40 -6 95 -54 95s-54 -54 -54 -95c0 -43 5 -95 54 -95z" />
    <glyph glyph-name="one.num" horiz-adv-x="291" 
d="M159 743h90v-396h-121v231l-66 -45l-61 98z" />
    <glyph glyph-name="two.num" horiz-adv-x="349" 
d="M260 508l-56 -56h114v-105h-285v96l128 128c26 26 34 41 34 53s-11 22 -29 22c-23 0 -61 -26 -98 -61l-55 88c46 52 105 79 161 79c82 0 144 -52 144 -128c0 -46 -23 -81 -58 -116z" />
    <glyph glyph-name="three.num" horiz-adv-x="336" 
d="M147 341c-54 0 -98 14 -145 40l47 94c39 -17 67 -25 92 -25c31 0 45 11 45 25s-18 22 -44 22h-56v101h46c10 0 45 0 45 23c0 17 -21 20 -36 20s-35 -2 -72 -23l-57 86c37 29 90 48 145 48c78 0 143 -44 143 -104c0 -45 -33 -75 -73 -88v-2c57 -12 85 -52 85 -95
c0 -73 -68 -122 -165 -122z" />
    <glyph glyph-name="four.num" horiz-adv-x="376" 
d="M351 521v-95h-40v-79h-113v79h-168l-25 73l205 244h101v-222h40zM126 521h72v84z" />
    <glyph glyph-name="five.num" horiz-adv-x="334" 
d="M175 604c87 0 137 -55 137 -129c0 -72 -58 -134 -160 -134c-47 0 -102 13 -147 43l44 95c36 -21 67 -31 96 -31c35 0 52 15 52 34c0 16 -16 31 -47 31c-28 0 -43 -10 -62 -23l-54 60l24 189h226v-100h-147l-5 -41c12 4 27 6 43 6z" />
    <glyph glyph-name="six.num" horiz-adv-x="362" 
d="M202 604c81 0 135 -54 135 -127c0 -78 -62 -136 -149 -136c-112 0 -163 87 -163 192c0 119 60 219 189 219c41 0 84 -10 120 -36l-45 -85c-23 14 -45 21 -69 21c-46 0 -80 -25 -91 -72c22 21 51 24 73 24zM187 437c24 0 42 17 42 39s-18 38 -42 38s-41 -16 -41 -38
s17 -39 41 -39z" />
    <glyph glyph-name="seven.num" horiz-adv-x="314" 
d="M11 743h288v-86l-140 -306h-132l133 280h-149v112z" />
    <glyph glyph-name="eight.num" horiz-adv-x="367" 
d="M184 341c-107 0 -161 54 -161 117c0 46 30 80 78 101v1c-33 13 -60 41 -60 82c0 65 55 110 143 110c86 0 143 -45 143 -110c0 -41 -27 -68 -62 -82v-1c54 -23 79 -58 79 -100c0 -63 -54 -118 -160 -118zM183 596c22 0 37 13 37 32s-15 33 -37 33s-37 -14 -37 -33
s15 -32 37 -32zM184 435c26 0 45 15 45 37s-19 38 -46 38s-46 -16 -46 -38s19 -37 47 -37z" />
    <glyph glyph-name="nine.num" horiz-adv-x="353" 
d="M166 752c111 0 162 -87 162 -194c0 -116 -60 -217 -189 -217c-41 0 -84 10 -120 36l45 85c23 -14 45 -21 69 -21c46 0 82 26 92 74c-27 -22 -54 -26 -77 -26c-87 0 -133 55 -133 125c0 82 62 138 151 138zM166 579c24 0 41 16 41 38s-17 39 -41 39s-42 -17 -42 -39
s18 -38 42 -38z" />
    <glyph glyph-name="one.numalt" horiz-adv-x="347" 
d="M166 743h90v-396h-121v231l-66 -45l-61 98z" />
    <glyph glyph-name="zero.osf" horiz-adv-x="652" 
d="M326 -12c-183 0 -289 121 -289 312s106 312 289 312s289 -121 289 -312s-106 -312 -289 -312zM326 158c65 0 99 53 99 142s-34 142 -98 142c-65 0 -100 -53 -100 -142s34 -142 99 -142z" />
    <glyph glyph-name="one.osf" horiz-adv-x="548" 
d="M413 171h122v-171h-477v171h157v200l-119 -75l-88 146l250 160h155v-431z" />
    <glyph glyph-name="two.osf" horiz-adv-x="566" 
d="M339 171h182v-172h-475v157l179 146c54 44 85 67 85 97c0 20 -14 38 -43 38c-40 0 -95 -36 -155 -82l-98 137c86 81 174 119 270 119c143 0 234 -90 234 -191c0 -98 -84 -174 -179 -249z" />
    <glyph glyph-name="three.osf" horiz-adv-x="566" 
d="M255 -117c-95 0 -179 27 -258 70l83 163c70 -38 135 -45 168 -45c56 0 84 19 84 46c0 22 -24 37 -67 37h-107v183h79c53 0 78 20 78 41c0 27 -29 41 -67 41c-39 0 -81 -12 -138 -44l-96 147c63 52 154 90 254 90c133 0 245 -76 245 -182c0 -78 -60 -131 -121 -153v-3
c99 -21 146 -96 146 -175c0 -128 -116 -216 -283 -216z" />
    <glyph glyph-name="four.osf" horiz-adv-x="649" 
d="M617 224v-166h-76v-159h-189v159h-302l-40 136l366 402h165v-372h76zM233 224h119v133z" />
    <glyph glyph-name="five.osf" horiz-adv-x="594" 
d="M319 341c134 0 250 -81 250 -217c0 -130 -105 -239 -293 -239c-87 0 -178 22 -261 68l73 160c67 -30 129 -45 177 -45c72 0 97 29 97 53c0 29 -37 52 -83 52c-37 0 -73 -12 -106 -35l-110 108l36 350h419v-183h-266l-9 -82c23 6 49 10 76 10z" />
    <glyph glyph-name="six.osf" horiz-adv-x="632" 
d="M354 454c141 0 244 -95 244 -225c0 -135 -110 -240 -276 -240c-203 0 -295 154 -295 340c0 198 104 388 331 388c74 0 148 -22 218 -67l-91 -150c-33 20 -73 34 -117 34c-82 0 -136 -40 -150 -127c39 38 91 47 136 47zM322 159c43 0 74 28 74 66s-32 64 -74 64
c-40 0 -76 -23 -76 -64c0 -40 34 -66 76 -66z" />
    <glyph glyph-name="seven.osf" horiz-adv-x="533" 
d="M17 596h502v-152l-238 -545h-214l219 506h-269v191z" />
    <glyph glyph-name="eight.osf" horiz-adv-x="642" 
d="M322 -11c-177 0 -291 86 -291 212c0 79 51 148 131 175v2c-53 23 -100 71 -100 148c0 111 100 193 260 193c157 0 259 -81 259 -193c0 -75 -45 -123 -102 -148v-3c81 -26 132 -95 132 -174c0 -126 -114 -212 -289 -212zM321 448c45 0 73 24 73 53c0 31 -28 55 -73 55
c-46 0 -75 -24 -75 -55c0 -29 29 -53 75 -53zM322 166c49 0 81 24 81 57s-33 57 -82 57c-50 0 -82 -24 -82 -56c0 -34 33 -58 83 -58z" />
    <glyph glyph-name="nine.osf" horiz-adv-x="622" 
d="M301 612c192 0 290 -151 290 -335c0 -206 -107 -392 -328 -392c-78 0 -155 23 -215 67l75 146c25 -14 72 -35 124 -35c74 0 123 40 142 114c-38 -22 -86 -29 -124 -29c-137 0 -236 94 -236 224c0 137 107 240 272 240zM298 311c42 0 74 26 74 64s-33 64 -74 64
c-40 0 -74 -23 -74 -64c0 -40 33 -64 74 -64z" />
    <glyph glyph-name="zero.slash" horiz-adv-x="699" 
d="M349 752c195 0 313 -145 313 -382s-118 -382 -313 -382c-194 0 -312 145 -312 382s118 382 312 382zM350 581c-80 0 -122 -89 -122 -211c0 -40 4 -76 13 -107l171 294c-17 16 -38 24 -62 24zM350 159c81 0 121 87 121 211c0 38 -4 72 -12 102l-170 -292
c17 -14 37 -21 61 -21z" />
    <glyph glyph-name="zero.tf" horiz-adv-x="650" 
d="M324 -12c-186 0 -301 145 -301 382s115 382 301 382c188 0 304 -145 304 -382s-116 -382 -304 -382zM326 183c66 0 99 77 99 187c0 108 -35 187 -99 187c-66 0 -101 -79 -101 -187c0 -110 33 -187 101 -187z" />
    <glyph glyph-name="one.tf" horiz-adv-x="650" 
d="M448 189h145v-190h-497v190h152v281l-99 -70l-101 149l253 190h147v-550z" />
    <glyph glyph-name="two.tf" horiz-adv-x="650" 
d="M361 189h216v-190h-507v173l221 225c24 25 65 58 65 100c0 35 -28 57 -63 57c-43 0 -94 -29 -151 -79l-111 150c92 90 196 127 287 127c147 0 256 -102 256 -231c0 -109 -81 -200 -182 -301z" />
    <glyph glyph-name="three.tf" horiz-adv-x="650" 
d="M292 -12c-95 0 -179 27 -258 73l83 165c70 -39 125 -47 158 -47c56 0 84 21 84 52c0 26 -24 45 -67 45h-97v185h69c53 0 78 22 78 48c0 30 -29 47 -67 47c-39 0 -71 -13 -128 -48l-96 150c63 54 154 94 254 94c133 0 245 -80 245 -191c0 -82 -60 -138 -121 -161v-4
c99 -22 146 -99 146 -183c0 -133 -116 -225 -283 -225z" />
    <glyph glyph-name="four.tf" horiz-adv-x="650" 
d="M621 322v-168h-76v-154h-190v154h-302l-40 138l366 447h166v-417h76zM225 322h130v163z" />
    <glyph glyph-name="five.tf" horiz-adv-x="650" 
d="M338 469c134 0 250 -85 250 -229c0 -138 -105 -252 -293 -252c-87 0 -178 24 -261 73l73 167c67 -34 129 -49 177 -49c72 0 97 33 97 62c0 34 -37 57 -83 57c-37 0 -73 -13 -106 -38l-110 108l36 371h419v-193h-266l-9 -87c23 6 48 10 76 10z" />
    <glyph glyph-name="six.tf" horiz-adv-x="650" 
d="M375 477c145 0 250 -99 250 -235c0 -141 -113 -251 -283 -251c-208 0 -302 161 -302 356c0 207 106 405 339 405c76 0 152 -22 223 -69l-92 -155c-35 22 -76 36 -121 36c-84 0 -140 -45 -154 -137c40 40 93 50 140 50zM342 165c45 0 77 32 77 73s-33 70 -77 70
c-42 0 -79 -26 -79 -70c0 -43 35 -73 79 -73z" />
    <glyph glyph-name="seven.tf" horiz-adv-x="650" 
d="M72 739h522v-137l-281 -602h-216l263 552h-288v187z" />
    <glyph glyph-name="eight.tf" horiz-adv-x="650" 
d="M325 -12c-177 0 -291 90 -291 221c0 83 51 156 131 184v2c-53 25 -100 76 -100 156c0 116 100 201 260 201c158 0 260 -84 260 -201c0 -78 -45 -129 -102 -156v-3c81 -27 132 -100 132 -183c0 -131 -114 -221 -290 -221zM324 468c45 0 72 25 72 58s-27 59 -72 59
s-73 -26 -73 -59s28 -58 73 -58zM325 170c49 0 80 26 80 62c0 37 -32 63 -81 63s-80 -26 -80 -62c0 -37 32 -63 81 -63z" />
    <glyph glyph-name="nine.tf" horiz-adv-x="650" 
d="M321 752c197 0 297 -158 297 -353c0 -216 -110 -411 -336 -411c-79 0 -158 24 -219 69l75 151c26 -16 75 -38 128 -38c77 0 127 45 147 126c-39 -24 -89 -31 -129 -31c-140 0 -241 98 -241 235c0 144 109 252 278 252zM318 435c44 0 76 30 76 72s-33 71 -76 71
c-41 0 -76 -26 -76 -71c0 -44 34 -72 76 -72z" />
    <glyph glyph-name="uni2080" unicode="&#x2080;" horiz-adv-x="404" 
d="M202 -161c-114 0 -180 78 -180 205s66 206 180 206s180 -79 180 -206s-66 -205 -180 -205zM202 -51c49 0 54 54 54 95c0 40 -6 95 -54 95s-54 -54 -54 -95c0 -43 5 -95 54 -95z" />
    <glyph glyph-name="uni2081" unicode="&#x2081;" horiz-adv-x="291" 
d="M159 241h90v-396h-121v231l-66 -45l-61 98z" />
    <glyph glyph-name="uni2082" unicode="&#x2082;" horiz-adv-x="349" 
d="M260 6l-56 -56h114v-105h-285v96l128 128c26 26 34 41 34 53s-11 22 -29 22c-23 0 -61 -26 -98 -61l-55 88c46 52 105 79 161 79c82 0 144 -52 144 -128c0 -46 -23 -81 -58 -116z" />
    <glyph glyph-name="uni2083" unicode="&#x2083;" horiz-adv-x="336" 
d="M147 -161c-54 0 -98 14 -145 40l47 94c39 -17 67 -25 92 -25c31 0 45 11 45 25s-18 22 -44 22h-56v101h46c10 0 45 0 45 23c0 17 -21 20 -36 20s-35 -2 -72 -23l-57 86c37 29 90 48 145 48c78 0 143 -44 143 -104c0 -45 -33 -75 -73 -88v-2c57 -12 85 -52 85 -95
c0 -73 -68 -122 -165 -122z" />
    <glyph glyph-name="uni2084" unicode="&#x2084;" horiz-adv-x="376" 
d="M351 19v-95h-40v-79h-113v79h-168l-25 73l205 244h101v-222h40zM126 19h72v84z" />
    <glyph glyph-name="uni2085" unicode="&#x2085;" horiz-adv-x="334" 
d="M175 102c87 0 137 -55 137 -129c0 -72 -58 -134 -160 -134c-47 0 -102 13 -147 43l44 95c36 -21 67 -31 96 -31c35 0 52 15 52 34c0 16 -16 31 -47 31c-28 0 -43 -10 -62 -23l-54 60l24 189h226v-100h-147l-5 -41c12 4 27 6 43 6z" />
    <glyph glyph-name="uni2086" unicode="&#x2086;" horiz-adv-x="362" 
d="M202 102c81 0 135 -54 135 -127c0 -78 -62 -136 -149 -136c-112 0 -163 87 -163 192c0 119 60 219 189 219c41 0 84 -10 120 -36l-45 -85c-23 14 -45 21 -69 21c-46 0 -80 -25 -91 -72c22 21 51 24 73 24zM187 -65c24 0 42 17 42 39s-18 38 -42 38s-41 -16 -41 -38
s17 -39 41 -39z" />
    <glyph glyph-name="uni2087" unicode="&#x2087;" horiz-adv-x="314" 
d="M11 241h288v-86l-140 -306h-132l133 280h-149v112z" />
    <glyph glyph-name="uni2088" unicode="&#x2088;" horiz-adv-x="367" 
d="M184 -161c-107 0 -161 54 -161 117c0 46 30 80 78 101v1c-33 13 -60 41 -60 82c0 65 55 110 143 110c86 0 143 -45 143 -110c0 -41 -27 -68 -62 -82v-1c54 -23 79 -58 79 -100c0 -63 -54 -118 -160 -118zM183 94c22 0 37 13 37 32s-15 33 -37 33s-37 -14 -37 -33
s15 -32 37 -32zM184 -67c26 0 45 15 45 37s-19 38 -46 38s-46 -16 -46 -38s19 -37 47 -37z" />
    <glyph glyph-name="uni2089" unicode="&#x2089;" horiz-adv-x="353" 
d="M166 250c111 0 162 -87 162 -194c0 -116 -60 -217 -189 -217c-41 0 -84 10 -120 36l45 85c23 -14 45 -21 69 -21c46 0 82 26 92 74c-27 -22 -54 -26 -77 -26c-87 0 -133 55 -133 125c0 82 62 138 151 138zM166 77c24 0 41 16 41 38s-17 39 -41 39s-42 -17 -42 -39
s18 -38 42 -38z" />
    <glyph glyph-name="zero.dnom" horiz-adv-x="404" 
d="M202 -5c-114 0 -180 78 -180 205s66 206 180 206s180 -79 180 -206s-66 -205 -180 -205zM202 105c49 0 54 54 54 95c0 40 -6 95 -54 95s-54 -54 -54 -95c0 -43 5 -95 54 -95z" />
    <glyph glyph-name="one.dnom" horiz-adv-x="291" 
d="M159 396h90v-396h-121v231l-66 -45l-61 98z" />
    <glyph glyph-name="two.dnom" horiz-adv-x="349" 
d="M260 161l-56 -56h114v-105h-285v96l128 128c26 26 34 41 34 53s-11 22 -29 22c-23 0 -61 -26 -98 -61l-55 88c46 52 105 79 161 79c82 0 144 -52 144 -128c0 -46 -23 -81 -58 -116z" />
    <glyph glyph-name="three.dnom" horiz-adv-x="336" 
d="M147 -6c-54 0 -98 14 -145 40l47 94c39 -17 67 -25 92 -25c31 0 45 11 45 25s-18 22 -44 22h-56v101h46c10 0 45 0 45 23c0 17 -21 20 -36 20s-35 -2 -72 -23l-57 86c37 29 90 48 145 48c78 0 143 -44 143 -104c0 -45 -33 -75 -73 -88v-2c57 -12 85 -52 85 -95
c0 -73 -68 -122 -165 -122z" />
    <glyph glyph-name="four.dnom" horiz-adv-x="376" 
d="M351 174v-95h-40v-79h-113v79h-168l-25 73l205 244h101v-222h40zM126 174h72v84z" />
    <glyph glyph-name="five.dnom" horiz-adv-x="334" 
d="M175 257c87 0 137 -55 137 -129c0 -72 -58 -134 -160 -134c-47 0 -102 13 -147 43l44 95c36 -21 67 -31 96 -31c35 0 52 15 52 34c0 16 -16 31 -47 31c-28 0 -43 -10 -62 -23l-54 60l24 189h226v-100h-147l-5 -41c12 4 27 6 43 6z" />
    <glyph glyph-name="six.dnom" horiz-adv-x="362" 
d="M202 257c81 0 135 -54 135 -127c0 -78 -62 -136 -149 -136c-112 0 -163 87 -163 192c0 119 60 219 189 219c41 0 84 -10 120 -36l-45 -85c-23 14 -45 21 -69 21c-46 0 -80 -25 -91 -72c22 21 51 24 73 24zM187 90c24 0 42 17 42 39s-18 38 -42 38s-41 -16 -41 -38
s17 -39 41 -39z" />
    <glyph glyph-name="seven.dnom" horiz-adv-x="314" 
d="M11 396h288v-86l-140 -306h-132l133 280h-149v112z" />
    <glyph glyph-name="eight.dnom" horiz-adv-x="367" 
d="M184 -6c-107 0 -161 54 -161 117c0 46 30 80 78 101v1c-33 13 -60 41 -60 82c0 65 55 110 143 110c86 0 143 -45 143 -110c0 -41 -27 -68 -62 -82v-1c54 -23 79 -58 79 -100c0 -63 -54 -118 -160 -118zM183 249c22 0 37 13 37 32s-15 33 -37 33s-37 -14 -37 -33
s15 -32 37 -32zM184 88c26 0 45 15 45 37s-19 38 -46 38s-46 -16 -46 -38s19 -37 47 -37z" />
    <glyph glyph-name="nine.dnom" horiz-adv-x="353" 
d="M166 405c111 0 162 -87 162 -194c0 -116 -60 -217 -189 -217c-41 0 -84 10 -120 36l45 85c23 -14 45 -21 69 -21c46 0 82 26 92 74c-27 -22 -54 -26 -77 -26c-87 0 -133 55 -133 125c0 82 62 138 151 138zM166 232c24 0 41 16 41 38s-17 39 -41 39s-42 -17 -42 -39
s18 -38 42 -38z" />
    <glyph glyph-name="uni2070" unicode="&#x2070;" horiz-adv-x="404" 
d="M202 501c-114 0 -180 78 -180 205s66 206 180 206s180 -79 180 -206s-66 -205 -180 -205zM202 611c49 0 54 54 54 95c0 40 -6 95 -54 95s-54 -54 -54 -95c0 -43 5 -95 54 -95z" />
    <glyph glyph-name="uni00B9" unicode="&#xb9;" horiz-adv-x="291" 
d="M159 903h90v-396h-121v231l-66 -45l-61 98z" />
    <glyph glyph-name="uni00B2" unicode="&#xb2;" horiz-adv-x="349" 
d="M260 668l-56 -56h114v-105h-285v96l128 128c26 26 34 41 34 53s-11 22 -29 22c-23 0 -61 -26 -98 -61l-55 88c46 52 105 79 161 79c82 0 144 -52 144 -128c0 -46 -23 -81 -58 -116z" />
    <glyph glyph-name="uni00B3" unicode="&#xb3;" horiz-adv-x="336" 
d="M147 501c-54 0 -98 14 -145 40l47 94c39 -17 67 -25 92 -25c31 0 45 11 45 25s-18 22 -44 22h-56v101h46c10 0 45 0 45 23c0 17 -21 20 -36 20s-35 -2 -72 -23l-57 86c37 29 90 48 145 48c78 0 143 -44 143 -104c0 -45 -33 -75 -73 -88v-2c57 -12 85 -52 85 -95
c0 -73 -68 -122 -165 -122z" />
    <glyph glyph-name="uni2074" unicode="&#x2074;" horiz-adv-x="376" 
d="M351 681v-95h-40v-79h-113v79h-168l-25 73l205 244h101v-222h40zM126 681h72v84z" />
    <glyph glyph-name="uni2075" unicode="&#x2075;" horiz-adv-x="334" 
d="M175 764c87 0 137 -55 137 -129c0 -72 -58 -134 -160 -134c-47 0 -102 13 -147 43l44 95c36 -21 67 -31 96 -31c35 0 52 15 52 34c0 16 -16 31 -47 31c-28 0 -43 -10 -62 -23l-54 60l24 189h226v-100h-147l-5 -41c12 4 27 6 43 6z" />
    <glyph glyph-name="uni2076" unicode="&#x2076;" horiz-adv-x="362" 
d="M202 764c81 0 135 -54 135 -127c0 -78 -62 -136 -149 -136c-112 0 -163 87 -163 192c0 119 60 219 189 219c41 0 84 -10 120 -36l-45 -85c-23 14 -45 21 -69 21c-46 0 -80 -25 -91 -72c22 21 51 24 73 24zM187 597c24 0 42 17 42 39s-18 38 -42 38s-41 -16 -41 -38
s17 -39 41 -39z" />
    <glyph glyph-name="uni2077" unicode="&#x2077;" horiz-adv-x="314" 
d="M11 903h288v-86l-140 -306h-132l133 280h-149v112z" />
    <glyph glyph-name="uni2078" unicode="&#x2078;" horiz-adv-x="367" 
d="M184 501c-107 0 -161 54 -161 117c0 46 30 80 78 101v1c-33 13 -60 41 -60 82c0 65 55 110 143 110c86 0 143 -45 143 -110c0 -41 -27 -68 -62 -82v-1c54 -23 79 -58 79 -100c0 -63 -54 -118 -160 -118zM183 756c22 0 37 13 37 32s-15 33 -37 33s-37 -14 -37 -33
s15 -32 37 -32zM184 595c26 0 45 15 45 37s-19 38 -46 38s-46 -16 -46 -38s19 -37 47 -37z" />
    <glyph glyph-name="uni2079" unicode="&#x2079;" horiz-adv-x="353" 
d="M166 912c111 0 162 -87 162 -194c0 -116 -60 -217 -189 -217c-41 0 -84 10 -120 36l45 85c23 -14 45 -21 69 -21c46 0 82 26 92 74c-27 -22 -54 -26 -77 -26c-87 0 -133 55 -133 125c0 82 62 138 151 138zM166 739c24 0 41 16 41 38s-17 39 -41 39s-42 -17 -42 -39
s18 -38 42 -38z" />
    <glyph glyph-name="fraction" unicode="&#x2044;" horiz-adv-x="240" 
d="M-243 0l578 739h150l-577 -739h-151z" />
    <glyph glyph-name="onehalf" unicode="&#xbd;" horiz-adv-x="898" 
d="M153 578l-66 -45l-61 98l158 112h90v-396h-121v231zM663 739h150l-577 -739h-151zM798 161l-56 -56h114v-105h-285v96l128 128c26 26 34 41 34 53s-11 22 -29 22c-23 0 -61 -26 -98 -61l-55 88c46 52 105 79 161 79c82 0 144 -52 144 -128c0 -46 -23 -81 -58 -116z" />
    <glyph glyph-name="uni2153" unicode="&#x2153;" horiz-adv-x="922" 
d="M153 347v231l-66 -45l-61 98l158 112h90v-396h-121zM667 739h150l-577 -739h-151zM789 212c57 -12 85 -52 85 -95c0 -73 -68 -122 -165 -122c-54 0 -98 14 -145 40l47 94c39 -17 67 -25 92 -25c31 0 45 11 45 25s-18 22 -44 22h-56v101h46c10 0 45 0 45 23
c0 17 -21 20 -36 20s-35 -2 -72 -23l-57 86c37 29 90 48 145 48c78 0 143 -44 143 -104c0 -45 -33 -75 -73 -88v-2z" />
    <glyph glyph-name="uni2154" unicode="&#x2154;" horiz-adv-x="914" 
d="M47 443l128 128c26 26 34 41 34 53s-11 22 -29 22c-23 0 -61 -26 -98 -61l-55 88c46 52 105 79 161 79c82 0 144 -52 144 -128c0 -46 -23 -81 -58 -116l-56 -56h114v-105h-285v96zM687 739h150l-577 -739h-151zM784 210c57 -12 85 -52 85 -95c0 -73 -68 -122 -165 -122
c-54 0 -98 14 -145 40l47 94c39 -17 67 -25 92 -25c31 0 45 11 45 25s-18 22 -44 22h-56v101h46c10 0 45 0 45 23c0 17 -21 20 -36 20s-35 -2 -72 -23l-57 86c37 29 90 48 145 48c78 0 143 -44 143 -104c0 -45 -33 -75 -73 -88v-2z" />
    <glyph glyph-name="onequarter" unicode="&#xbc;" horiz-adv-x="916" 
d="M152 347v231l-66 -45l-61 98l158 112h90v-396h-121zM683 739h150l-577 -739h-151zM871 174v-95h-40v-79h-113v79h-168l-25 73l205 244h101v-222h40zM646 174h72v84z" />
    <glyph glyph-name="threequarters" unicode="&#xbe;" horiz-adv-x="860" 
d="M157 450c31 0 45 11 45 25s-18 22 -44 22h-56v101h46c10 0 45 0 45 23c0 17 -21 20 -36 20s-35 -2 -72 -23l-57 86c37 29 90 48 145 48c78 0 143 -44 143 -104c0 -45 -33 -75 -73 -88v-2c57 -12 85 -52 85 -95c0 -73 -68 -122 -165 -122c-54 0 -98 14 -145 40l47 94
c39 -17 67 -25 92 -25zM663 739h150l-577 -739h-151zM767 396v-222h40v-95h-40v-79h-113v79h-168l-25 73l205 244h101zM582 174h72v84z" />
    <glyph glyph-name="uni2155" unicode="&#x2155;" horiz-adv-x="906" 
d="M152 347v231l-66 -45l-61 98l158 112h90v-396h-121zM673 739h150l-577 -739h-151zM733 257c87 0 137 -55 137 -129c0 -72 -58 -134 -160 -134c-47 0 -102 13 -147 43l44 95c36 -21 67 -31 96 -31c35 0 52 15 52 34c0 16 -16 31 -47 31c-28 0 -43 -10 -62 -23l-54 60
l24 189h226v-100h-147l-5 -41c12 4 27 6 43 6z" />
    <glyph glyph-name="uni2156" unicode="&#x2156;" horiz-adv-x="895" 
d="M46 443l128 128c26 26 34 41 34 53s-11 22 -29 22c-23 0 -61 -26 -98 -61l-55 88c46 52 105 79 161 79c82 0 144 -52 144 -128c0 -46 -23 -81 -58 -116l-56 -56h114v-105h-285v96zM681 739h150l-577 -739h-151zM697 257c87 0 137 -55 137 -129c0 -72 -58 -134 -160 -134
c-47 0 -102 13 -147 43l44 95c36 -21 67 -31 96 -31c35 0 52 15 52 34c0 16 -16 31 -47 31c-28 0 -43 -10 -62 -23l-54 60l24 189h226v-100h-147l-5 -41c12 4 27 6 43 6z" />
    <glyph glyph-name="uni2157" unicode="&#x2157;" horiz-adv-x="846" 
d="M157 450c31 0 45 11 45 25s-18 22 -44 22h-56v101h46c10 0 45 0 45 23c0 17 -21 20 -36 20s-35 -2 -72 -23l-57 86c37 29 90 48 145 48c78 0 143 -44 143 -104c0 -45 -33 -75 -73 -88v-2c57 -12 85 -52 85 -95c0 -73 -68 -122 -165 -122c-54 0 -98 14 -145 40l47 94
c39 -17 67 -25 92 -25zM637 739h150l-577 -739h-151zM662 257c87 0 137 -55 137 -129c0 -72 -58 -134 -160 -134c-47 0 -102 13 -147 43l44 95c36 -21 67 -31 96 -31c35 0 52 15 52 34c0 16 -16 31 -47 31c-28 0 -43 -10 -62 -23l-54 60l24 189h226v-100h-147l-5 -41
c12 4 27 6 43 6z" />
    <glyph glyph-name="uni2158" unicode="&#x2158;" horiz-adv-x="911" 
d="M216 347v79h-168l-25 73l205 244h101v-222h40v-95h-40v-79h-113zM689 739h150l-577 -739h-151zM144 521h72v84zM711 257c87 0 137 -55 137 -129c0 -72 -58 -134 -160 -134c-47 0 -102 13 -147 43l44 95c36 -21 67 -31 96 -31c35 0 52 15 52 34c0 16 -16 31 -47 31
c-28 0 -43 -10 -62 -23l-54 60l24 189h226v-100h-147l-5 -41c12 4 27 6 43 6z" />
    <glyph glyph-name="uni2159" unicode="&#x2159;" horiz-adv-x="886" 
d="M152 347v231l-66 -45l-61 98l158 112h90v-396h-121zM669 739h150l-577 -739h-151zM730 257c87 0 137 -55 137 -129c0 -72 -58 -134 -160 -134c-47 0 -102 13 -147 43l44 95c36 -21 67 -31 96 -31c35 0 52 15 52 34c0 16 -16 31 -47 31c-28 0 -43 -10 -62 -23l-54 60
l24 189h226v-100h-147l-5 -41c12 4 27 6 43 6z" />
    <glyph glyph-name="uni215A" unicode="&#x215a;" horiz-adv-x="894" 
d="M159 448c35 0 52 15 52 34c0 16 -16 31 -47 31c-28 0 -43 -10 -62 -23l-54 60l24 189h226v-100h-147l-5 -41c12 4 27 6 43 6c87 0 137 -55 137 -129c0 -72 -58 -134 -160 -134c-47 0 -102 13 -147 43l44 95c36 -21 67 -31 96 -31zM666 739h150l-577 -739h-151zM724 257
c81 0 135 -54 135 -127c0 -78 -62 -136 -149 -136c-112 0 -163 87 -163 192c0 119 60 219 189 219c41 0 84 -10 120 -36l-45 -85c-23 14 -45 21 -69 21c-46 0 -80 -25 -91 -72c22 21 51 24 73 24zM709 90c24 0 42 17 42 39s-18 38 -42 38s-41 -16 -41 -38s17 -39 41 -39z
" />
    <glyph glyph-name="uni2150" unicode="&#x2150;" horiz-adv-x="926" 
d="M152 578l-66 -45l-61 98l158 112h90v-396h-121v231zM657 739h150l-577 -739h-151zM597 396h288v-86l-140 -306h-132l133 280h-149v112z" />
    <glyph glyph-name="two_fraction_seven" horiz-adv-x="947" 
d="M49 443l128 128c26 26 34 41 34 53s-11 22 -29 22c-23 0 -61 -26 -98 -61l-55 88c46 52 105 79 161 79c82 0 144 -52 144 -128c0 -46 -23 -81 -58 -116l-56 -56h114v-105h-285v96zM708 739h150l-577 -739h-151zM621 396h288v-86l-140 -306h-132l133 280h-149v112z" />
    <glyph glyph-name="three_fraction_seven" horiz-adv-x="898" 
d="M158 450c31 0 45 11 45 25s-18 22 -44 22h-56v101h46c10 0 45 0 45 23c0 17 -21 20 -36 20s-35 -2 -72 -23l-57 86c37 29 90 48 145 48c78 0 143 -44 143 -104c0 -45 -33 -75 -73 -88v-2c57 -12 85 -52 85 -95c0 -73 -68 -122 -165 -122c-54 0 -98 14 -145 40l47 94
c39 -17 67 -25 92 -25zM658 739h150l-577 -739h-151zM572 396h288v-86l-140 -306h-132l133 280h-149v112z" />
    <glyph glyph-name="four_fraction_seven" horiz-adv-x="956" 
d="M216 347v79h-168l-25 73l205 244h101v-222h40v-95h-40v-79h-113zM710 739h150l-577 -739h-151zM144 521h72v84zM624 396h288v-86l-140 -306h-132l133 280h-149v112z" />
    <glyph glyph-name="five_fraction_seven" horiz-adv-x="888" 
d="M162 448c35 0 52 15 52 34c0 16 -16 31 -47 31c-28 0 -43 -10 -62 -23l-54 60l24 189h226v-100h-147l-5 -41c12 4 27 6 43 6c87 0 137 -55 137 -129c0 -72 -58 -134 -160 -134c-47 0 -102 13 -147 43l44 95c36 -21 67 -31 96 -31zM648 739h150l-577 -739h-151zM562 396
h288v-86l-140 -306h-132l133 280h-149v112z" />
    <glyph glyph-name="six_fraction_seven" horiz-adv-x="887" 
d="M197 341c-112 0 -163 87 -163 192c0 119 60 219 189 219c41 0 84 -10 120 -36l-45 -85c-23 14 -45 21 -69 21c-46 0 -80 -25 -91 -72c22 21 51 24 73 24c81 0 135 -54 135 -127c0 -78 -62 -136 -149 -136zM649 739h150l-577 -739h-151zM196 514c-24 0 -41 -16 -41 -38
s17 -39 41 -39s42 17 42 39s-18 38 -42 38zM561 396h288v-86l-140 -306h-132l133 280h-149v112z" />
    <glyph glyph-name="oneeighth" unicode="&#x215b;" horiz-adv-x="917" 
d="M152 347v231l-66 -45l-61 98l158 112h90v-396h-121zM672 739h150l-577 -739h-151zM802 212c54 -23 79 -58 79 -100c0 -63 -54 -118 -160 -118c-107 0 -161 54 -161 117c0 46 30 80 78 101v1c-33 13 -60 41 -60 82c0 65 55 110 143 110c86 0 143 -45 143 -110
c0 -41 -27 -68 -62 -82v-1zM720 314c-22 0 -37 -14 -37 -33s15 -32 37 -32s37 13 37 32s-15 33 -37 33zM721 88c26 0 45 15 45 37s-19 38 -46 38s-46 -16 -46 -38s19 -37 47 -37z" />
    <glyph glyph-name="threeeighths" unicode="&#x215c;" horiz-adv-x="877" 
d="M163 341c-54 0 -98 14 -145 40l47 94c39 -17 67 -25 92 -25c31 0 45 11 45 25s-18 22 -44 22h-56v101h46c10 0 45 0 45 23c0 17 -21 20 -36 20s-35 -2 -72 -23l-57 86c37 29 90 48 145 48c78 0 143 -44 143 -104c0 -45 -33 -75 -73 -88v-2c57 -12 85 -52 85 -95
c0 -73 -68 -122 -165 -122zM86 0l578 739h150l-577 -739h-151zM687 -6c-107 0 -161 54 -161 117c0 46 30 80 78 101v1c-33 13 -60 41 -60 82c0 65 55 110 143 110c86 0 143 -45 143 -110c0 -41 -27 -68 -62 -82v-1c54 -23 79 -58 79 -100c0 -63 -54 -118 -160 -118zM686 249
c22 0 37 13 37 32s-15 33 -37 33s-37 -14 -37 -33s15 -32 37 -32zM687 88c26 0 45 15 45 37s-19 38 -46 38s-46 -16 -46 -38s19 -37 47 -37z" />
    <glyph glyph-name="fiveeighths" unicode="&#x215d;" horiz-adv-x="903" 
d="M159 448c35 0 52 15 52 34c0 16 -16 31 -47 31c-28 0 -43 -10 -62 -23l-54 60l24 189h226v-100h-147l-5 -41c12 4 27 6 43 6c87 0 137 -55 137 -129c0 -72 -58 -134 -160 -134c-47 0 -102 13 -147 43l44 95c36 -21 67 -31 96 -31zM690 739h150l-577 -739h-151zM794 212
c54 -23 79 -58 79 -100c0 -63 -54 -118 -160 -118c-107 0 -161 54 -161 117c0 46 30 80 78 101v1c-33 13 -60 41 -60 82c0 65 55 110 143 110c86 0 143 -45 143 -110c0 -41 -27 -68 -62 -82v-1zM712 314c-22 0 -37 -14 -37 -33s15 -32 37 -32s37 13 37 32s-15 33 -37 33z
M713 88c26 0 45 15 45 37s-19 38 -46 38s-46 -16 -46 -38s19 -37 47 -37z" />
    <glyph glyph-name="seveneighths" unicode="&#x215e;" horiz-adv-x="827" 
d="M56 351l133 280h-149v112h288v-86l-140 -306h-132zM612 739h150l-577 -739h-151zM719 212c54 -23 79 -58 79 -100c0 -63 -54 -118 -160 -118c-107 0 -161 54 -161 117c0 46 30 80 78 101v1c-33 13 -60 41 -60 82c0 65 55 110 143 110c86 0 143 -45 143 -110
c0 -41 -27 -68 -62 -82v-1zM637 314c-22 0 -37 -14 -37 -33s15 -32 37 -32s37 13 37 32s-15 33 -37 33zM638 88c26 0 45 15 45 37s-19 38 -46 38s-46 -16 -46 -38s19 -37 47 -37z" />
    <glyph glyph-name="uni2151" unicode="&#x2151;" horiz-adv-x="957" 
d="M152 347v231l-66 -45l-61 98l158 112h90v-396h-121zM677 739h150l-577 -739h-151zM751 405c111 0 162 -87 162 -194c0 -116 -60 -217 -189 -217c-41 0 -84 10 -120 36l45 85c23 -14 45 -21 69 -21c46 0 82 26 92 74c-27 -22 -54 -26 -77 -26c-87 0 -133 55 -133 125
c0 82 62 138 151 138zM751 232c24 0 41 16 41 38s-17 39 -41 39s-42 -17 -42 -39s18 -38 42 -38z" />
    <glyph glyph-name="two_fraction_nine" horiz-adv-x="970" 
d="M46 443l128 128c26 26 34 41 34 53s-11 22 -29 22c-23 0 -61 -26 -98 -61l-55 88c46 52 105 79 161 79c82 0 144 -52 144 -128c0 -46 -23 -81 -58 -116l-56 -56h114v-105h-285v96zM717 739h150l-577 -739h-151zM767 405c111 0 162 -87 162 -194
c0 -116 -60 -217 -189 -217c-41 0 -84 10 -120 36l45 85c23 -14 45 -21 69 -21c46 0 82 26 92 74c-27 -22 -54 -26 -77 -26c-87 0 -133 55 -133 125c0 82 62 138 151 138zM767 232c24 0 41 16 41 38s-17 39 -41 39s-42 -17 -42 -39s18 -38 42 -38z" />
    <glyph glyph-name="four_fraction_nine" horiz-adv-x="1003" 
d="M216 347v79h-168l-25 73l205 244h101v-222h40v-95h-40v-79h-113zM742 739h150l-577 -739h-151zM144 521h72v84zM792 405c111 0 162 -87 162 -194c0 -116 -60 -217 -189 -217c-41 0 -84 10 -120 36l45 85c23 -14 45 -21 69 -21c46 0 82 26 92 74c-27 -22 -54 -26 -77 -26
c-87 0 -133 55 -133 125c0 82 62 138 151 138zM792 232c24 0 41 16 41 38s-17 39 -41 39s-42 -17 -42 -39s18 -38 42 -38z" />
    <glyph glyph-name="five_fraction_nine" horiz-adv-x="901" 
d="M159 448c35 0 52 15 52 34c0 16 -16 31 -47 31c-28 0 -43 -10 -62 -23l-54 60l24 189h226v-100h-147l-5 -41c12 4 27 6 43 6c87 0 137 -55 137 -129c0 -72 -58 -134 -160 -134c-47 0 -102 13 -147 43l44 95c36 -21 67 -31 96 -31zM658 739h150l-577 -739h-151zM698 405
c111 0 162 -87 162 -194c0 -116 -60 -217 -189 -217c-41 0 -84 10 -120 36l45 85c23 -14 45 -21 69 -21c46 0 82 26 92 74c-27 -22 -54 -26 -77 -26c-87 0 -133 55 -133 125c0 82 62 138 151 138zM698 232c24 0 41 16 41 38s-17 39 -41 39s-42 -17 -42 -39s18 -38 42 -38z
" />
    <glyph glyph-name="seven_fraction_nine" horiz-adv-x="865" 
d="M55 351l133 280h-149v112h288v-86l-140 -306h-132zM611 739h150l-577 -739h-151zM663 405c111 0 162 -87 162 -194c0 -116 -60 -217 -189 -217c-41 0 -84 10 -120 36l45 85c23 -14 45 -21 69 -21c46 0 82 26 92 74c-27 -22 -54 -26 -77 -26c-87 0 -133 55 -133 125
c0 82 62 138 151 138zM663 232c24 0 41 16 41 38s-17 39 -41 39s-42 -17 -42 -39s18 -38 42 -38z" />
    <glyph glyph-name="eight_fraction_nine" horiz-adv-x="904" 
d="M351 459c0 -63 -54 -118 -160 -118c-107 0 -161 54 -161 117c0 46 30 80 78 101v1c-33 13 -60 41 -60 82c0 65 55 110 143 110c86 0 143 -45 143 -110c0 -41 -27 -68 -62 -82v-1c54 -23 79 -58 79 -100zM662 739h150l-577 -739h-151zM190 661c-22 0 -37 -14 -37 -33
s15 -32 37 -32s37 13 37 32s-15 33 -37 33zM144 472c0 -22 19 -37 47 -37c26 0 45 15 45 37s-19 38 -46 38s-46 -16 -46 -38zM702 405c111 0 162 -87 162 -194c0 -116 -60 -217 -189 -217c-41 0 -84 10 -120 36l45 85c23 -14 45 -21 69 -21c46 0 82 26 92 74
c-27 -22 -54 -26 -77 -26c-87 0 -133 55 -133 125c0 82 62 138 151 138zM702 232c24 0 41 16 41 38s-17 39 -41 39s-42 -17 -42 -39s18 -38 42 -38z" />
    <glyph glyph-name="asterisk" unicode="*" horiz-adv-x="539" 
d="M174 341l-104 94l88 97l-129 54l54 127l120 -56l-7 138h148l-7 -138l120 56l53 -126l-128 -55l87 -97l-104 -94l-95 113z" />
    <glyph glyph-name="backslash" unicode="\" horiz-adv-x="730" 
d="M715 -123h-225l-474 948h228z" />
    <glyph glyph-name="periodcentered" unicode="&#xb7;" horiz-adv-x="277" 
d="M141 -16c-59 0 -106 44 -106 104c0 57 47 102 106 102c55 0 101 -45 101 -102c0 -60 -46 -104 -101 -104z" />
    <glyph glyph-name="bullet" unicode="&#x2022;" horiz-adv-x="507" 
d="M252 140c-109 0 -199 90 -199 199c0 111 90 202 199 202c111 0 202 -91 202 -202c0 -109 -91 -199 -202 -199z" />
    <glyph glyph-name="colon" unicode=":" horiz-adv-x="299" 
d="M152 331c-59 0 -106 44 -106 104c0 57 47 102 106 102c55 0 101 -45 101 -102c0 -60 -46 -104 -101 -104zM152 -16c-59 0 -106 44 -106 104c0 57 47 102 106 102c55 0 101 -45 101 -102c0 -60 -46 -104 -101 -104z" />
    <glyph glyph-name="comma" unicode="," horiz-adv-x="287" 
d="M141 190c65 0 113 -52 113 -122c0 -92 -65 -181 -191 -265l-55 72c50 38 95 73 118 113h-2c-50 0 -92 44 -92 95c0 63 50 107 109 107z" />
    <glyph glyph-name="ellipsis" unicode="&#x2026;" horiz-adv-x="801" 
d="M136 -16c-59 0 -106 44 -106 104c0 57 47 102 106 102c55 0 101 -45 101 -102c0 -60 -46 -104 -101 -104zM403 -16c-59 0 -106 44 -106 104c0 57 47 102 106 102c55 0 101 -45 101 -102c0 -60 -46 -104 -101 -104zM670 -16c-59 0 -106 44 -106 104c0 57 47 102 106 102
c55 0 101 -45 101 -102c0 -60 -46 -104 -101 -104z" />
    <glyph glyph-name="exclam" unicode="!" horiz-adv-x="337" 
d="M86 236l-12 533h200l-14 -533h-174zM175 -13c-59 0 -106 44 -106 104c0 57 47 102 106 102c55 0 101 -45 101 -102c0 -60 -46 -104 -101 -104z" />
    <glyph glyph-name="exclamdown" unicode="&#xa1;" horiz-adv-x="299" 
d="M171 527c55 0 101 -44 101 -104c0 -57 -46 -102 -101 -102c-59 0 -106 45 -106 102c0 60 47 104 106 104zM82 278h174l14 -533h-200z" />
    <glyph glyph-name="numbersign" unicode="#" horiz-adv-x="796" 
d="M736 433h-94l-24 -127h94l-31 -166h-95l-27 -140h-201l29 140h-75l-29 -140h-201l31 140h-83l34 166h85l29 127h-90l32 166h94l31 140h191l-29 -140h74l29 140h191l-27 -140h94zM421 306l26 127h-74l-27 -127h75z" />
    <glyph glyph-name="period" unicode="." horiz-adv-x="267" 
d="M136 -16c-59 0 -106 44 -106 104c0 57 47 102 106 102c55 0 101 -45 101 -102c0 -60 -46 -104 -101 -104z" />
    <glyph glyph-name="question" unicode="?" horiz-adv-x="599" 
d="M183 230v56c0 171 162 190 162 274c0 33 -25 52 -58 52c-46 0 -100 -41 -145 -96l-122 135c68 89 162 146 284 146c168 0 257 -104 257 -222c0 -170 -185 -194 -185 -305v-40h-193zM283 -13c-57 0 -105 44 -105 103c0 58 47 103 105 103c57 0 102 -45 102 -103
c0 -59 -46 -103 -102 -103z" />
    <glyph glyph-name="questiondown" unicode="&#xbf;" horiz-adv-x="593" 
d="M312 528c57 0 105 -44 105 -103c0 -58 -47 -103 -105 -103c-57 0 -102 45 -102 103c0 59 46 103 102 103zM412 285v-56c0 -171 -162 -190 -162 -274c0 -33 25 -52 58 -52c46 0 100 41 145 96l122 -135c-68 -89 -162 -146 -284 -146c-168 0 -257 104 -257 222
c0 170 185 194 185 305v40h193z" />
    <glyph glyph-name="quotedbl" unicode="&#x22;" horiz-adv-x="658" 
d="M23 405l96 330h221l-124 -330h-193zM338 405l96 330h221l-124 -330h-193z" />
    <glyph glyph-name="quotesingle" unicode="'" horiz-adv-x="343" 
d="M24 405l96 330h221l-124 -330h-193z" />
    <glyph glyph-name="semicolon" unicode=";" horiz-adv-x="314" 
d="M162 329c-62 0 -112 46 -112 109c0 60 50 107 112 107c58 0 106 -47 106 -107c0 -63 -48 -109 -106 -109zM152 190c65 0 113 -52 113 -122c0 -92 -65 -181 -191 -265l-55 72c50 38 95 73 118 113h-2c-50 0 -92 44 -92 95c0 63 50 107 109 107z" />
    <glyph glyph-name="slash" unicode="/" horiz-adv-x="750" 
d="M15 -123l491 948h228l-491 -948h-228z" />
    <glyph glyph-name="underscore" unicode="_" horiz-adv-x="601" 
d="M0 -217v182h601v-182h-601z" />
    <glyph glyph-name="backslash.case" horiz-adv-x="660" 
d="M643 0h-225l-403 739h228z" />
    <glyph glyph-name="periodcentered.case" horiz-adv-x="277" 
d="M141 254c-59 0 -106 44 -106 104c0 57 47 102 106 102c55 0 101 -45 101 -102c0 -60 -46 -104 -101 -104z" />
    <glyph glyph-name="colon.case" horiz-adv-x="321" 
d="M163 421c-59 0 -106 44 -106 104c0 57 47 102 106 102c55 0 101 -45 101 -102c0 -60 -46 -104 -101 -104zM163 84c-59 0 -106 44 -106 104c0 57 47 102 106 102c55 0 101 -45 101 -102c0 -60 -46 -104 -101 -104z" />
    <glyph glyph-name="exclamdown.case" horiz-adv-x="319" 
d="M181 757c55 0 101 -44 101 -104c0 -57 -46 -102 -101 -102c-59 0 -106 45 -106 102c0 60 47 104 106 104zM92 508h174l14 -533h-200z" />
    <glyph glyph-name="questiondown.case" horiz-adv-x="600" 
d="M317 758c57 0 105 -44 105 -103c0 -58 -47 -103 -105 -103c-57 0 -102 45 -102 103c0 59 46 103 102 103zM417 515v-56c0 -171 -162 -190 -162 -274c0 -33 25 -52 58 -52c46 0 100 41 145 96l122 -135c-68 -89 -162 -146 -284 -146c-168 0 -257 104 -257 222
c0 170 185 194 185 305v40h193z" />
    <glyph glyph-name="semicolon.case" horiz-adv-x="326" 
d="M174 413c-62 0 -112 46 -112 109c0 60 50 107 112 107c58 0 106 -47 106 -107c0 -63 -48 -109 -106 -109zM169 295c65 0 113 -52 113 -122c0 -92 -65 -181 -191 -265l-55 72c50 38 95 73 118 113h-2c-50 0 -92 44 -92 95c0 63 50 107 109 107z" />
    <glyph glyph-name="slash.case" horiz-adv-x="660" 
d="M17 0l400 739h228l-403 -739h-225z" />
    <glyph glyph-name="semicolon.case.ss03" horiz-adv-x="326" 
d="M174 413c-62 0 -112 46 -112 109c0 60 50 107 112 107c58 0 106 -47 106 -107c0 -63 -48 -109 -106 -109zM76 185h189l-120 -341h-159z" />
    <glyph glyph-name="comma.ss03" horiz-adv-x="312" 
d="M88 156h189l-120 -341h-159z" />
    <glyph glyph-name="semicolon.ss03" horiz-adv-x="314" 
d="M162 329c-62 0 -112 46 -112 109c0 60 50 107 112 107c58 0 106 -47 106 -107c0 -63 -48 -109 -106 -109zM72 156h189l-120 -341h-159z" />
    <glyph glyph-name="braceleft" unicode="{" horiz-adv-x="452" 
d="M254 287c34 -10 89 -42 89 -108c0 -40 -14 -108 -14 -149c0 -39 18 -61 61 -61h22v-200h-99c-136 0 -191 73 -191 202c0 39 10 93 10 145c0 76 -42 87 -115 89v170c73 3 115 13 115 89c0 52 -10 107 -10 156c0 121 55 191 206 191h84v-200h-22c-43 0 -61 -22 -61 -61
c0 -41 14 -112 14 -151c0 -66 -55 -98 -89 -109v-3z" />
    <glyph glyph-name="braceright" unicode="}" horiz-adv-x="452" 
d="M198 287v3c-34 11 -89 43 -89 109c0 39 14 110 14 151c0 39 -18 61 -61 61h-22v200h84c151 0 206 -70 206 -191c0 -49 -10 -104 -10 -156c0 -76 42 -86 115 -89v-170c-73 -2 -115 -13 -115 -89c0 -52 10 -106 10 -145c0 -129 -55 -202 -191 -202h-99v200h22
c43 0 61 22 61 61c0 41 -14 109 -14 149c0 66 55 98 89 108z" />
    <glyph glyph-name="bracketleft" unicode="[" horiz-adv-x="453" 
d="M62 -227v1038h367v-182h-167v-674h167v-182h-367z" />
    <glyph glyph-name="bracketright" unicode="]" horiz-adv-x="453" 
d="M24 -227v182h167v674h-167v182h367v-1038h-367z" />
    <glyph glyph-name="parenleft" unicode="(" horiz-adv-x="451" 
d="M356 -221c-218 111 -329 290 -329 515s110 404 338 515l85 -161c-138 -84 -207 -199 -207 -353c0 -156 70 -264 206 -359z" />
    <glyph glyph-name="parenright" unicode=")" horiz-adv-x="451" 
d="M95 -221l-93 157c136 95 206 203 206 359c0 154 -69 269 -207 353l85 161c228 -111 338 -290 338 -515s-111 -404 -329 -515z" />
    <glyph glyph-name="braceleft.case" horiz-adv-x="461" 
d="M260 374c34 -10 89 -42 89 -108c0 -40 -14 -108 -14 -149c0 -39 18 -61 61 -61h22v-200h-99c-136 0 -191 73 -191 202c0 39 10 93 10 145c0 76 -42 87 -115 89v170c73 3 115 13 115 89c0 52 -10 107 -10 156c0 121 55 191 206 191h84v-200h-22c-43 0 -61 -22 -61 -61
c0 -41 14 -112 14 -151c0 -66 -55 -98 -89 -109v-3z" />
    <glyph glyph-name="braceright.case" horiz-adv-x="461" 
d="M201 376v3c-34 11 -89 43 -89 109c0 39 14 110 14 151c0 39 -18 61 -61 61h-22v200h84c151 0 206 -70 206 -191c0 -49 -10 -104 -10 -156c0 -76 42 -86 115 -89v-170c-73 -2 -115 -13 -115 -89c0 -52 10 -106 10 -145c0 -129 -55 -202 -191 -202h-99v200h22
c43 0 61 22 61 61c0 41 -14 109 -14 149c0 66 55 98 89 108z" />
    <glyph glyph-name="bracketleft.case" horiz-adv-x="464" 
d="M69 -137v1038h367v-182h-167v-674h167v-182h-367z" />
    <glyph glyph-name="bracketright.case" horiz-adv-x="464" 
d="M28 -137v182h167v674h-167v182h367v-1038h-367z" />
    <glyph glyph-name="parenleft.case" horiz-adv-x="447" 
d="M339 -134c-205 111 -309 290 -309 515s103 404 318 515l85 -161c-125 -84 -187 -199 -187 -353c0 -156 63 -264 186 -359z" />
    <glyph glyph-name="parenright.case" horiz-adv-x="447" 
d="M108 -134l-93 157c123 95 186 203 186 359c0 154 -62 269 -187 353l85 161c215 -111 318 -290 318 -515s-104 -404 -309 -515z" />
    <glyph glyph-name="emdash" unicode="&#x2014;" horiz-adv-x="1044" 
d="M52 186v182h940v-182h-940z" />
    <glyph glyph-name="endash" unicode="&#x2013;" horiz-adv-x="725" 
d="M52 186v182h621v-182h-621z" />
    <glyph glyph-name="hyphen" unicode="-" horiz-adv-x="546" 
d="M52 186v182h442v-182h-442z" />
    <glyph glyph-name="uni00AD" unicode="&#xad;" horiz-adv-x="486" 
d="M52 237v182h382v-182h-382z" />
    <glyph glyph-name="emdash.case" horiz-adv-x="1052" 
d="M56 267v200h940v-200h-940z" />
    <glyph glyph-name="endash.case" horiz-adv-x="733" 
d="M56 267v200h621v-200h-621z" />
    <glyph glyph-name="hyphen.case" horiz-adv-x="554" 
d="M56 267v200h442v-200h-442z" />
    <glyph glyph-name="guillemotleft" unicode="&#xab;" horiz-adv-x="672" 
d="M151 88l-128 203l129 203h211l-137 -203l137 -203h-212zM424 88l-128 203l129 203h211l-137 -203l137 -203h-212z" />
    <glyph glyph-name="guillemotright" unicode="&#xbb;" horiz-adv-x="672" 
d="M248 88h-212l137 203l-137 203h211l129 -203zM521 88h-212l137 203l-137 203h211l129 -203z" />
    <glyph glyph-name="guilsinglleft" unicode="&#x2039;" horiz-adv-x="399" 
d="M151 88l-128 203l129 203h211l-137 -203l137 -203h-212z" />
    <glyph glyph-name="guilsinglright" unicode="&#x203a;" horiz-adv-x="399" 
d="M248 88h-212l137 203l-137 203h211l129 -203z" />
    <glyph glyph-name="quotedblbase" unicode="&#x201e;" horiz-adv-x="547" 
d="M136 190c63 0 109 -50 109 -118c0 -84 -60 -164 -177 -241l-51 73c41 31 78 59 100 91c-47 1 -87 44 -87 92c0 60 49 103 106 103zM404 190c63 0 109 -50 109 -118c0 -84 -60 -164 -177 -241l-51 73c41 31 78 59 100 91c-47 1 -87 44 -87 92c0 60 49 103 106 103z" />
    <glyph glyph-name="quotedblleft" unicode="&#x201c;" horiz-adv-x="537" 
d="M249 801c-41 -31 -78 -59 -100 -91c47 -1 87 -44 87 -92c0 -60 -49 -103 -106 -103c-63 0 -109 50 -109 118c0 84 60 164 177 241zM416 710c47 -1 87 -44 87 -92c0 -60 -49 -103 -106 -103c-63 0 -109 50 -109 118c0 84 60 164 177 241l51 -73c-41 -31 -78 -59 -100 -91z
" />
    <glyph glyph-name="quotedblright" unicode="&#x201d;" horiz-adv-x="536" 
d="M143 870c63 0 109 -50 109 -118c0 -84 -60 -164 -177 -241l-51 73c41 31 78 59 100 91c-47 1 -87 44 -87 92c0 60 49 103 106 103zM411 870c63 0 109 -50 109 -118c0 -84 -60 -164 -177 -241l-51 73c41 31 78 59 100 91c-47 1 -87 44 -87 92c0 60 49 103 106 103z" />
    <glyph glyph-name="quoteleft" unicode="&#x2018;" horiz-adv-x="270" 
d="M148 710c47 -1 87 -44 87 -92c0 -60 -49 -103 -106 -103c-63 0 -109 50 -109 118c0 84 60 164 177 241l51 -73c-41 -31 -78 -59 -100 -91z" />
    <glyph glyph-name="quoteright" unicode="&#x2019;" horiz-adv-x="268" 
d="M144 866c63 0 109 -50 109 -118c0 -84 -60 -164 -177 -241l-51 73c41 31 78 59 100 91c-47 1 -87 44 -87 92c0 60 49 103 106 103z" />
    <glyph glyph-name="quotesinglbase" unicode="&#x201a;" horiz-adv-x="279" 
d="M137 190c63 0 109 -50 109 -118c0 -84 -60 -164 -177 -241l-51 73c41 31 78 59 100 91c-47 1 -87 44 -87 92c0 60 49 103 106 103z" />
    <glyph glyph-name="guillemotleft.case" horiz-adv-x="677" 
d="M154 167l-128 203l129 203h211l-137 -203l137 -203h-212zM427 167l-128 203l129 203h211l-137 -203l137 -203h-212z" />
    <glyph glyph-name="guillemotright.case" horiz-adv-x="677" 
d="M250 167h-212l137 203l-137 203h211l129 -203zM523 167h-212l137 203l-137 203h211l129 -203z" />
    <glyph glyph-name="guilsinglleft.case" horiz-adv-x="404" 
d="M154 167l-128 203l129 203h211l-137 -203l137 -203h-212z" />
    <glyph glyph-name="guilsinglright.case" horiz-adv-x="404" 
d="M250 167h-212l137 203l-137 203h211l129 -203z" />
    <glyph glyph-name="quotedblbase.ss03" horiz-adv-x="547" 
d="M86 185h189l-120 -341h-159zM338 185h189l-120 -341h-159z" />
    <glyph glyph-name="quotedblleft.ss03" horiz-adv-x="537" 
d="M205 532h-189l120 341h159zM457 532h-189l120 341h159z" />
    <glyph glyph-name="quotedblright.ss03" horiz-adv-x="536" 
d="M101 874h189l-120 -341h-159zM353 874h189l-120 -341h-159z" />
    <glyph glyph-name="quoteleft.ss03" horiz-adv-x="270" 
d="M196 532h-189l120 341h159z" />
    <glyph glyph-name="quoteright.ss03" horiz-adv-x="268" 
d="M92 874h189l-120 -341h-159z" />
    <glyph glyph-name="quotesinglbase.ss03" horiz-adv-x="279" 
d="M78 185h189l-120 -341h-159z" />
    <glyph glyph-name="space" unicode=" " horiz-adv-x="247" 
 />
    <glyph glyph-name="uni2009" unicode="&#x2009;" horiz-adv-x="78" 
 />
    <glyph glyph-name="CR" unicode="&#xd;" horiz-adv-x="130" 
 />
    <glyph glyph-name="cent" unicode="&#xa2;" horiz-adv-x="631" 
d="M375 174c30 10 55 31 67 59l157 -93c-43 -82 -123 -137 -224 -149v-74h-93v74c-149 20 -248 134 -248 288c0 153 98 267 248 288v70h93v-70c95 -11 181 -63 225 -163l-156 -81c-17 28 -40 49 -69 59v-208zM228 279c0 -43 21 -79 54 -97v192c-33 -18 -54 -53 -54 -95z" />
    <glyph glyph-name="currency" unicode="&#xa4;" horiz-adv-x="654" 
d="M570 367c0 -43 -12 -83 -34 -117l81 -79l-83 -84l-85 84c-36 -19 -78 -30 -125 -30c-45 0 -86 10 -121 28l-83 -82l-83 84l78 77c-22 34 -35 75 -35 119c0 48 15 93 41 130l-84 82l83 84l92 -91c33 15 71 24 112 24c43 0 82 -9 116 -25l94 92l83 -84l-86 -85
c25 -36 39 -80 39 -127zM324 277c54 0 93 42 93 92s-39 91 -93 91c-53 0 -91 -41 -91 -91s38 -92 91 -92z" />
    <glyph glyph-name="dollar" unicode="$" horiz-adv-x="623" 
d="M588 229c0 -117 -72 -196 -173 -228v-113h-192v109c-74 18 -143 62 -196 137l127 137c34 -44 95 -89 155 -89c28 0 48 12 48 34s-18 32 -48 46c-28 13 -105 49 -150 81c-72 51 -97 112 -97 181c0 110 66 183 161 213v106h192v-100c55 -13 105 -40 158 -80l-98 -157
c-66 41 -112 55 -149 55c-40 0 -50 -17 -50 -33c0 -30 46 -41 86 -62c29 -15 80 -35 128 -66c91 -59 98 -129 98 -171z" />
    <glyph glyph-name="Euro" unicode="&#x20ac;" horiz-adv-x="790" 
d="M405 238c33 -33 79 -53 133 -53s130 20 170 43v-194c-46 -27 -138 -45 -202 -45c-167 0 -300 100 -350 249h-133l45 113h68v18v17h-85l44 113h60c48 154 182 253 351 253c86 0 188 -26 249 -69l-97 -163c-31 21 -73 36 -119 36c-55 0 -103 -22 -136 -57h283l-51 -113
h-281c-1 -5 -1 -11 -1 -16c0 -6 0 -13 1 -19h271l-48 -113h-172z" />
    <glyph glyph-name="sterling" unicode="&#xa3;" horiz-adv-x="610" 
d="M317 289c-5 -31 -17 -63 -42 -99h289v-190h-512v159c40 50 58 92 65 130h-74v148h54c-7 28 -12 57 -12 88c0 133 123 227 255 227c109 0 200 -54 239 -117l-124 -131c-23 32 -58 49 -91 49c-43 0 -73 -29 -73 -68c0 -14 4 -30 9 -48h210v-148h-193z" />
    <glyph glyph-name="yen" unicode="&#xa5;" horiz-adv-x="755" 
d="M731 739l-147 -290h56v-148h-131l-17 -32h148v-148h-159v-121h-208v121h-159v148h148l-16 32h-132v148h58l-146 290h236l115 -280l118 280h236z" />
    <glyph glyph-name="dollar.osf" horiz-adv-x="555" 
d="M533 180c0 -90 -66 -155 -158 -181v-123h-170v117c-69 14 -135 50 -183 113l111 113c32 -35 88 -72 148 -72c30 0 52 9 52 27c0 17 -18 26 -47 37c-55 21 -98 41 -139 67c-66 42 -92 82 -92 144c0 95 61 155 150 178v115h170v-112c50 -11 96 -32 144 -64l-87 -129
c-59 33 -103 44 -139 44c-39 0 -53 -13 -53 -27c0 -19 28 -29 77 -49c52 -21 93 -36 124 -54c84 -48 92 -112 92 -144z" />
    <glyph glyph-name="Euro.osf" horiz-adv-x="620" 
d="M317 174c30 -28 72 -45 122 -45c55 0 96 19 144 44v-148c-35 -21 -114 -36 -165 -36c-130 0 -236 73 -281 185h-131l45 101h64c-1 8 -1 16 -1 24v8h-96l45 101h69c41 121 150 204 288 204c71 0 158 -21 208 -56l-62 -122c-36 18 -79 32 -124 32c-60 0 -109 -22 -140 -58
h263l-48 -101h-252v-6c0 -9 1 -18 2 -26h236l-48 -101h-138z" />
    <glyph glyph-name="sterling.osf" horiz-adv-x="522" 
d="M288 229c-6 -19 -16 -39 -33 -62h262v-167h-466v137c32 38 49 67 57 92h-65v127h46c-5 17 -8 35 -8 56c0 120 111 197 236 197c91 0 176 -42 216 -98l-114 -114c-20 27 -52 39 -79 39c-49 0 -72 -37 -72 -65c0 -5 1 -10 2 -15h198v-127h-180z" />
    <glyph glyph-name="yen.osf" horiz-adv-x="556" 
d="M582 602l-124 -224h45v-121h-113l-15 -27h128v-121h-131v-109h-188v109h-131v121h129l-15 27h-114v121h47l-124 224h200l102 -217l104 217h200z" />
    <glyph glyph-name="plus" unicode="+" horiz-adv-x="624" 
d="M593 438v-184h-188v-188l-184 -3v191h-190v184h190v189h184v-189h188z" />
    <glyph glyph-name="minus" unicode="&#x2212;" horiz-adv-x="572" 
d="M55 235v182h462v-182h-462z" />
    <glyph glyph-name="multiply" unicode="&#xd7;" horiz-adv-x="602" 
d="M569 489l-149 -150l148 -147l-118 -125l-150 151l-150 -151l-118 125l147 147l-146 146l117 123l149 -148l147 147z" />
    <glyph glyph-name="divide" unicode="&#xf7;" horiz-adv-x="556" 
d="M278 468c-53 0 -95 39 -95 93c0 51 42 92 95 92c50 0 91 -41 91 -92c0 -54 -41 -93 -91 -93zM31 279v160h494v-160h-494zM279 66c-53 0 -95 39 -95 93c0 51 42 92 95 92c50 0 91 -41 91 -92c0 -54 -41 -93 -91 -93z" />
    <glyph glyph-name="equal" unicode="=" horiz-adv-x="574" 
d="M56 359v156h462v-156h-462zM56 141v155h462v-155h-462z" />
    <glyph glyph-name="notequal" unicode="&#x2260;" horiz-adv-x="574" 
d="M518 359h-172l-25 -63h197v-155h-256l-38 -98h-92l38 98h-114v155h173l25 63h-198v156h258l38 99h92l-38 -99h112v-156z" />
    <glyph glyph-name="greater" unicode="&#x3e;" horiz-adv-x="539" 
d="M55 30v194l246 97l-246 94v190l456 -206v-161z" />
    <glyph glyph-name="less" unicode="&#x3c;" horiz-adv-x="539" 
d="M484 30l-456 208v161l456 206v-190l-246 -94l246 -97v-194z" />
    <glyph glyph-name="greaterequal" unicode="&#x2265;" horiz-adv-x="563" 
d="M61 194v178l227 63l-227 66v178l455 -177v-140zM61 20v156h457v-156h-457z" />
    <glyph glyph-name="lessequal" unicode="&#x2264;" horiz-adv-x="563" 
d="M502 194l-455 168v140l455 177v-178l-227 -66l227 -63v-178zM502 20h-457v156h457v-156z" />
    <glyph glyph-name="plusminus" unicode="&#xb1;" horiz-adv-x="648" 
d="M602 324h-188v-136h188v-175h-556v175h190v136h-190v179h190v189h178v-189h188v-179z" />
    <glyph glyph-name="approxequal" unicode="&#x2248;" horiz-adv-x="646" 
d="M392 376c-99 0 -142 55 -195 55c-20 0 -36 -10 -76 -62l-106 93c35 80 104 128 187 128c99 0 139 -54 197 -54c20 0 37 10 77 70l109 -98c-43 -81 -109 -132 -193 -132zM399 128c-99 0 -142 55 -195 55c-20 0 -36 -10 -76 -62l-106 93c35 80 104 128 187 128
c99 0 139 -54 197 -54c20 0 37 10 77 70l109 -98c-43 -81 -109 -132 -193 -132z" />
    <glyph glyph-name="asciitilde" unicode="~" horiz-adv-x="738" 
d="M480 208c-119 0 -170 61 -233 61c-24 0 -44 -12 -92 -69l-126 103c42 88 124 141 223 141c119 0 167 -60 236 -60c24 0 45 12 92 78l131 -108c-52 -90 -131 -146 -231 -146z" />
    <glyph glyph-name="logicalnot" unicode="&#xac;" horiz-adv-x="598" 
d="M54 223v180h484v-278h-178v98h-306z" />
    <glyph glyph-name="infinity" unicode="&#x221e;" horiz-adv-x="981" 
d="M716 596c131 0 230 -102 230 -225c0 -124 -103 -226 -232 -226c-92 0 -148 53 -222 126c-91 -86 -147 -125 -230 -125c-131 0 -227 102 -227 224c0 124 103 226 229 226c68 0 123 -30 226 -119c102 92 156 119 226 119zM203 367c0 -35 27 -63 59 -63c34 0 74 30 118 71
c-60 49 -89 57 -110 57c-43 0 -67 -33 -67 -65zM709 304c39 0 69 30 69 65c0 37 -34 63 -72 63c-34 0 -65 -20 -105 -56c64 -59 82 -72 108 -72z" />
    <glyph glyph-name="integral" unicode="&#x222b;" horiz-adv-x="540" 
d="M125 -210c-52 0 -104 11 -146 32l37 170c21 -11 48 -19 72 -19c46 0 90 27 90 113v483c0 191 107 255 227 255c38 0 109 -12 160 -38l-50 -168c-20 11 -48 18 -72 18c-46 0 -89 -28 -89 -114v-480c0 -197 -139 -252 -229 -252z" />
    <glyph glyph-name="product" unicode="&#x220f;" horiz-adv-x="783" 
d="M751 734v-200h-88v-652h-210v652h-123v-652h-210v652h-88v200h719z" />
    <glyph glyph-name="summation" unicode="&#x2211;" horiz-adv-x="673" 
d="M43 -179v160l193 298l-193 300v160h595v-190h-333l162 -270l-162 -268h333v-190h-595z" />
    <glyph glyph-name="radical" unicode="&#x221a;" horiz-adv-x="809" 
d="M311 -118l-168 432h-139v180h292l106 -320l216 634h219l-350 -926h-176z" />
    <glyph glyph-name="partialdiff" unicode="&#x2202;" horiz-adv-x="618" 
d="M290 -12c-153 0 -264 108 -264 254c0 141 97 248 237 252c39 1 66 -6 105 -29c-58 96 -147 160 -217 210l117 142c126 -67 319 -222 319 -477c0 -196 -114 -352 -297 -352zM299 157c46 0 82 38 82 86c0 47 -36 83 -80 83c-46 0 -81 -38 -81 -85c0 -45 33 -84 79 -84z" />
    <glyph glyph-name="percent" unicode="%" horiz-adv-x="931" 
d="M221 381c-109 0 -194 82 -194 183c0 103 85 187 194 187c108 0 194 -84 194 -187c0 -101 -86 -183 -194 -183zM105 0l532 739h183l-532 -739h-183zM221 510c26 0 56 22 56 56c0 33 -29 56 -56 56c-28 0 -55 -23 -55 -56c0 -34 29 -56 55 -56zM709 -12
c-108 0 -193 83 -193 184c0 103 85 186 193 186c109 0 195 -83 195 -186c0 -101 -86 -184 -195 -184zM709 117c27 0 57 21 57 57c0 32 -29 55 -57 55c-27 0 -55 -23 -55 -55c0 -36 29 -57 55 -57z" />
    <glyph glyph-name="perthousand" unicode="&#x2030;" horiz-adv-x="1338" 
d="M221 381c-109 0 -194 82 -194 183c0 103 85 187 194 187c108 0 194 -84 194 -187c0 -101 -86 -183 -194 -183zM105 0l532 739h183l-532 -739h-183zM221 510c26 0 56 22 56 56c0 33 -29 56 -56 56c-28 0 -55 -23 -55 -56c0 -34 29 -56 55 -56zM709 -12
c-108 0 -193 83 -193 184c0 103 85 186 193 186c109 0 195 -83 195 -186c0 -101 -86 -184 -195 -184zM1119 -12c-108 0 -193 83 -193 184c0 102 85 185 193 185s194 -83 194 -185c0 -101 -86 -184 -194 -184zM1119 111c30 0 62 24 62 62c0 36 -31 61 -62 61s-61 -25 -61 -61
c0 -38 31 -62 61 -62zM709 117c27 0 57 21 57 57c0 32 -29 55 -57 55c-27 0 -55 -23 -55 -55c0 -36 29 -57 55 -57z" />
    <glyph glyph-name="lozenge" unicode="&#x25ca;" horiz-adv-x="712" 
d="M271 -42l-243 418l243 416h170l243 -416l-243 -418h-170zM356 201l97 176l-97 174l-97 -174z" />
    <glyph glyph-name="at" unicode="@" horiz-adv-x="957" 
d="M551 489h143v-237c0 -40 18 -49 30 -49c29 0 69 51 69 129c0 172 -142 289 -306 284c-181 -5 -321 -149 -321 -327c0 -187 152 -334 331 -334c91 0 187 37 253 84l59 -106c-54 -47 -178 -103 -314 -103c-262 0 -460 210 -460 462c0 248 197 448 458 448
c264 0 435 -181 435 -397c0 -163 -100 -275 -228 -275c-62 0 -100 29 -121 65c-34 -42 -86 -65 -143 -65c-116 0 -203 91 -203 217c0 123 82 219 201 219c45 0 86 -14 117 -44v29zM466 204c44 0 82 35 82 82s-37 85 -82 85c-44 0 -83 -36 -83 -84c0 -47 38 -83 83 -83z" />
    <glyph glyph-name="ampersand" unicode="&#x26;" horiz-adv-x="709" 
d="M705 87l-110 -114l-89 83c-69 -52 -140 -67 -214 -67c-171 0 -265 98 -265 218c0 100 58 162 126 206c-26 43 -43 90 -43 143c0 88 72 196 230 196c118 0 207 -81 207 -176c0 -101 -80 -156 -160 -201c5 -5 10 -10 16 -15l98 -88c6 6 12 12 18 19c20 21 44 51 66 77
l115 -99c-30 -40 -59 -74 -83 -102zM327 604c-36 0 -51 -28 -51 -56c0 -19 6 -39 17 -60c45 23 78 45 78 75c0 20 -15 41 -44 41zM302 156c31 0 56 5 80 17l-102 96c-8 8 -17 16 -25 23c-20 -19 -32 -40 -32 -66c0 -37 26 -70 79 -70z" />
    <glyph glyph-name="paragraph" unicode="&#xb6;" horiz-adv-x="886" 
d="M845 734v-200h-86v-737h-204v737h-68v-737h-204v452h-29c-133 0 -229 87 -229 239c0 151 96 246 255 246h565z" />
    <glyph glyph-name="section" unicode="&#xa7;" horiz-adv-x="684" 
d="M650 216c0 -49 -18 -103 -67 -146c19 -28 31 -60 31 -99c0 -120 -111 -224 -283 -224c-112 0 -225 44 -302 148l127 138c39 -51 110 -93 171 -93c36 0 57 15 57 33c0 31 -62 52 -132 83c-92 40 -197 97 -197 213c0 69 32 115 67 148c-20 29 -32 63 -32 102
c0 144 124 234 282 234c88 0 179 -33 248 -108l-141 -135c-32 34 -68 49 -103 49c-40 0 -65 -18 -65 -39c0 -34 65 -52 138 -82c94 -38 201 -93 201 -222zM333 227c28 -13 62 -26 96 -42c4 6 6 12 6 18c0 21 -35 39 -82 61c-26 12 -56 25 -86 41c-4 -7 -7 -14 -7 -20
c0 -21 30 -39 73 -58z" />
    <glyph glyph-name="copyright" unicode="&#xa9;" horiz-adv-x="836" 
d="M418 -12c-212 0 -385 171 -385 381c0 211 173 383 385 383s385 -172 385 -383c0 -210 -173 -381 -385 -381zM418 92c153 1 279 125 279 277c0 153 -126 278 -279 278s-279 -125 -279 -278c0 -152 126 -276 279 -277zM422 162c-124 0 -210 88 -210 207s84 208 209 208
c79 0 150 -39 187 -120l-101 -54c-22 31 -48 51 -83 51c-49 0 -85 -37 -85 -85c0 -49 36 -86 84 -86c36 0 65 21 82 51l102 -62c-35 -67 -100 -110 -185 -110z" />
    <glyph glyph-name="registered" unicode="&#xae;" horiz-adv-x="625" 
d="M313 796c152 0 276 -121 276 -273s-124 -273 -276 -273s-276 121 -276 273s124 273 276 273zM313 328c110 0 191 90 191 195s-81 195 -191 195s-191 -90 -191 -195s81 -195 191 -195zM420 564c0 -33 -17 -59 -43 -72l46 -87h-79l-39 77h-22v-77h-74v241h126
c49 0 85 -34 85 -82zM283 586v-45h32c19 0 27 10 27 24c0 12 -9 21 -26 21h-33z" />
    <glyph glyph-name="trademark" unicode="&#x2122;" horiz-adv-x="818" 
d="M30 633v106h294v-106h-94v-244h-106v244h-94zM659 739h96v-350h-106v144l-67 -105h-50l-67 105v-144h-106v350h96l101 -166z" />
    <glyph glyph-name="degree" unicode="&#xb0;" horiz-adv-x="369" 
d="M185 520c-92 0 -164 70 -164 159c0 90 72 161 164 161s163 -71 163 -161c0 -89 -71 -159 -163 -159zM185 627c28 0 52 23 52 52s-24 51 -52 51s-52 -22 -52 -51s24 -52 52 -52z" />
    <glyph glyph-name="bar" unicode="|" horiz-adv-x="330" 
d="M62 -179v1026h206v-1026h-206z" />
    <glyph glyph-name="brokenbar" unicode="&#xa6;" horiz-adv-x="330" 
d="M62 434v413h206v-413h-206zM268 234v-413h-206v413h206z" />
    <glyph glyph-name="dagger" unicode="&#x2020;" horiz-adv-x="542" 
d="M503 561v-182h-132v-557h-200v557h-133v182h133v288h200v-288h132z" />
    <glyph glyph-name="daggerdbl" unicode="&#x2021;" horiz-adv-x="542" 
d="M504 421h-133v-171h133v-182h-133v-246h-200v246h-133v182h133v171h-133v182h133v246h200v-246h133v-182z" />
    <glyph glyph-name="estimated" unicode="&#x212e;" horiz-adv-x="944" 
d="M478 -17c-245 0 -439 164 -439 383c0 220 194 385 439 385c236 0 439 -154 439 -390v-21c0 -3 -4 -5 -7 -5h-686v-230c0 -1 1 -3 4 -4c67 -47 154 -72 250 -72c136 0 257 51 326 142l35 -29c-79 -97 -210 -159 -361 -159zM224 385h508v244c0 2 -1 3 -3 4
c-68 47 -155 73 -251 73s-183 -26 -252 -73c-1 -1 -2 -3 -2 -5v-243z" />
    <glyph glyph-name="asciicircum" unicode="^" horiz-adv-x="569" 
d="M27 431l187 358h142l186 -358h-191l-66 157l-66 -157h-192z" />
    <glyph glyph-name="at.case" horiz-adv-x="957" 
d="M551 573h143v-237c0 -40 18 -49 30 -49c29 0 69 51 69 129c0 172 -142 289 -306 284c-181 -6 -321 -149 -321 -327c0 -187 152 -334 331 -334c91 0 187 37 253 84l59 -106c-54 -47 -178 -103 -314 -103c-262 0 -460 210 -460 462c0 248 197 448 458 448
c264 0 435 -181 435 -397c0 -163 -100 -275 -228 -275c-62 0 -100 29 -121 65c-34 -42 -86 -65 -143 -65c-116 0 -203 91 -203 217c0 123 82 219 201 219c45 0 86 -14 117 -44v29zM466 288c44 0 82 35 82 82s-37 85 -82 85c-44 0 -83 -36 -83 -84c0 -47 38 -83 83 -83z" />
    <glyph glyph-name="acute" unicode="&#xb4;" horiz-adv-x="352" 
d="M40 620l65 187h207l-95 -187h-177z" />
    <glyph glyph-name="breve" unicode="&#x2d8;" horiz-adv-x="493" 
d="M246 618c-118 0 -194 70 -206 192h147c2 -32 17 -70 59 -70s57 38 58 70h149c-12 -122 -88 -192 -207 -192z" />
    <glyph glyph-name="caron" unicode="&#x2c7;" horiz-adv-x="546" 
d="M40 814h174l56 -83l56 83h180l-158 -191h-150z" />
    <glyph glyph-name="cedilla" unicode="&#xb8;" horiz-adv-x="382" 
d="M237 -50c56 -8 105 -47 105 -108c0 -65 -56 -131 -165 -131c-45 0 -90 11 -137 33l38 104c22 -11 54 -21 81 -21c34 0 45 15 45 30c0 21 -21 32 -59 32h-52l-7 33l39 98l140 -2z" />
    <glyph glyph-name="circumflex" unicode="&#x2c6;" horiz-adv-x="546" 
d="M40 618l158 191h150l158 -191h-180l-56 83l-56 -83h-174z" />
    <glyph glyph-name="dieresis" unicode="&#xa8;" horiz-adv-x="526" 
d="M143 612c-58 0 -103 43 -103 103c0 58 46 102 103 102c58 0 103 -44 103 -102c0 -60 -45 -103 -103 -103zM383 612c-58 0 -103 43 -103 103c0 58 46 102 103 102c58 0 103 -44 103 -102c0 -60 -45 -103 -103 -103z" />
    <glyph glyph-name="dotaccent" unicode="&#x2d9;" horiz-adv-x="300" 
d="M150 582c-62 0 -110 46 -110 109c0 62 49 109 110 109c62 0 110 -47 110 -109c0 -63 -48 -109 -110 -109z" />
    <glyph glyph-name="grave" unicode="`" horiz-adv-x="352" 
d="M312 620h-177l-95 187h207z" />
    <glyph glyph-name="hungarumlaut" unicode="&#x2dd;" horiz-adv-x="577" 
d="M40 620l44 187h193l-75 -187h-162zM265 620l70 187h202l-104 -187h-168z" />
    <glyph glyph-name="macron" unicode="&#xaf;" horiz-adv-x="432" 
d="M40 625v169h352v-167z" />
    <glyph glyph-name="ogonek" unicode="&#x2db;" horiz-adv-x="332" 
d="M266 -120l26 -118c-42 -22 -80 -31 -122 -31c-89 0 -130 58 -130 121c0 59 38 119 119 167l118 -19c-42 -21 -83 -65 -83 -99c0 -21 14 -32 31 -32c11 0 25 5 41 11z" />
    <glyph glyph-name="ring" unicode="&#x2da;" horiz-adv-x="386" 
d="M193 589c-85 0 -153 65 -153 146c0 82 68 148 153 148s153 -66 153 -148c0 -81 -68 -146 -153 -146zM193 687c27 0 49 22 49 50c0 27 -22 48 -49 48c-28 0 -50 -21 -50 -48c0 -28 22 -50 50 -50z" />
    <glyph glyph-name="tilde" unicode="&#x2dc;" horiz-adv-x="568" 
d="M163 608l-123 62c48 90 93 138 174 138c64 0 95 -42 130 -42c20 0 35 12 60 51l124 -59c-40 -88 -93 -139 -158 -139c-59 0 -96 44 -138 44c-22 0 -44 -11 -69 -55z" />
    <glyph glyph-name="caron.alt" horiz-adv-x="325" 
d="M20 628l74 194h199l-105 -194h-168z" />
    <glyph glyph-name="acute.case" horiz-adv-x="374" 
d="M40 797l70 202h224l-103 -202h-191z" />
    <glyph glyph-name="breve.case" horiz-adv-x="526" 
d="M262 788c-127 0 -209 75 -222 207h159c2 -34 18 -75 63 -75c46 0 62 41 63 75h161c-13 -132 -95 -207 -224 -207z" />
    <glyph glyph-name="caron.case" horiz-adv-x="602" 
d="M77 987h174l56 -83l56 83h180l-158 -191h-150z" />
    <glyph glyph-name="cedilla.case" horiz-adv-x="382" 
d="M237 -50c56 -8 105 -47 105 -108c0 -65 -56 -131 -165 -131c-45 0 -90 11 -137 33l38 104c22 -11 54 -21 81 -21c34 0 45 15 45 30c0 21 -21 32 -59 32h-52l-7 33l39 98l140 -2z" />
    <glyph glyph-name="circumflex.case" horiz-adv-x="583" 
d="M40 796l170 206h162l171 -206h-194l-61 90l-60 -90h-188z" />
    <glyph glyph-name="dieresis.case" horiz-adv-x="562" 
d="M151 786c-62 0 -111 46 -111 111c0 62 50 110 111 110c63 0 111 -48 111 -110c0 -65 -48 -111 -111 -111zM410 786c-62 0 -111 46 -111 111c0 62 50 110 111 110c63 0 112 -48 112 -110c0 -65 -49 -111 -112 -111z" />
    <glyph glyph-name="dotaccent.case" horiz-adv-x="300" 
d="M150 787c-62 0 -110 46 -110 109c0 62 49 109 110 109c62 0 110 -47 110 -109c0 -63 -48 -109 -110 -109z" />
    <glyph glyph-name="grave.case" horiz-adv-x="374" 
d="M334 797h-191l-103 202h224z" />
    <glyph glyph-name="hungarumlaut.case" horiz-adv-x="617" 
d="M40 797l48 202h208l-81 -202h-175zM283 797l76 202h218l-112 -202h-182z" />
    <glyph glyph-name="macron.case" horiz-adv-x="485" 
d="M40 805v169h405v-167z" />
    <glyph glyph-name="ogonek.case" horiz-adv-x="332" 
d="M266 -120l26 -118c-42 -22 -80 -31 -122 -31c-89 0 -130 58 -130 121c0 59 38 119 119 167l118 -19c-42 -21 -83 -65 -83 -99c0 -21 14 -32 31 -32c11 0 25 5 41 11z" />
    <glyph glyph-name="ring.case" horiz-adv-x="410" 
d="M205 773c-92 0 -165 70 -165 157c0 89 73 160 165 160s165 -71 165 -160c0 -87 -73 -157 -165 -157zM205 878c29 0 53 24 53 54s-24 52 -53 52c-30 0 -54 -22 -54 -52s24 -54 54 -54z" />
    <glyph glyph-name="tilde.case" horiz-adv-x="592" 
d="M169 797l-129 65c50 94 98 145 183 145c67 0 99 -44 136 -44c21 0 37 12 63 53l130 -62c-42 -92 -97 -146 -166 -146c-61 0 -100 47 -144 47c-24 0 -47 -12 -73 -58z" />
    <glyph glyph-name="brevecombcy" horiz-adv-x="0" 
d="M-267 580c-94 0 -176 43 -244 129l101 103c60 -76 98 -89 144 -89c45 0 84 13 144 89l101 -103c-69 -86 -153 -129 -246 -129z" />
    <glyph glyph-name="NULL" horiz-adv-x="0" 
 />
    <glyph glyph-name="commaccent" horiz-adv-x="272" 
d="M149 -53c55 0 108 -38 108 -108c0 -76 -64 -133 -170 -214l-66 82c32 23 57 43 76 61c-29 15 -50 47 -50 83c0 52 43 96 102 96z" />
    <glyph glyph-name="commaccent.case" horiz-adv-x="298" 
d="M159 -56c58 0 114 -40 114 -113c0 -80 -67 -140 -179 -225l-69 86c33 25 60 46 80 64c-31 16 -53 50 -53 88c0 54 45 100 107 100z" />
    </font>
</defs>
</svg>
