<svg width="38" height="38" viewBox="0 0 38 38" fill="none" xmlns="http://www.w3.org/2000/svg">
<g id="Icon_whatsapp">
<path id="Shape" fill-rule="evenodd" clip-rule="evenodd" d="M19 38C29.4934 38 38 29.4934 38 19C38 8.50659 29.4934 0 19 0C8.50659 0 0 8.50659 0 19C0 29.4934 8.50659 38 19 38Z" fill="white"/>
<path id="Vector" fill-rule="evenodd" clip-rule="evenodd" d="M26.0859 11.9068C25.1634 10.9827 24.0658 10.2499 22.8567 9.75091C21.6476 9.25194 20.3511 8.99672 19.0421 9.00003C13.5535 9.00003 9.08541 13.4458 9.08319 18.9106C9.08319 20.6571 9.54132 22.3617 10.4121 23.8653L9 29L14.279 27.6211C15.7392 28.4122 17.3751 28.8271 19.0377 28.8278H19.0421C24.5296 28.8278 28.9977 24.382 29 18.9172C29.0037 17.615 28.7481 16.325 28.248 15.1217C27.7478 13.9185 27.013 12.8258 26.0859 11.9068V11.9068ZM19.0421 27.1552H19.0388C17.5563 27.1554 16.1011 26.7584 14.8258 26.006L14.5241 25.8271L11.3916 26.6452L12.2268 23.6059L12.0305 23.2946C11.2016 21.9813 10.7629 20.4615 10.7648 18.9106C10.7671 14.3688 14.4797 10.6737 19.0455 10.6737C20.1328 10.6713 21.2098 10.8835 22.2142 11.2982C23.2186 11.7128 24.1304 12.3216 24.8968 13.0892C25.6673 13.8532 26.278 14.7617 26.6937 15.762C27.1093 16.7623 27.3216 17.8347 27.3183 18.9172C27.3161 23.4591 23.6034 27.1552 19.0421 27.1552ZM23.5823 20.985C23.3327 20.8602 22.1103 20.2619 21.8818 20.1791C21.6544 20.0963 21.4892 20.0554 21.3228 20.3027C21.1564 20.55 20.6794 21.1075 20.5341 21.2731C20.3888 21.4387 20.2435 21.4586 19.995 21.335C19.7465 21.2113 18.9445 20.9497 17.9939 20.1062C17.254 19.4493 16.7548 18.639 16.6095 18.3906C16.4642 18.1422 16.594 18.0086 16.7193 17.885C16.8314 17.7746 16.9678 17.5957 17.0921 17.4511C17.2163 17.3065 17.2573 17.2038 17.3405 17.0382C17.4237 16.8726 17.3827 16.728 17.3195 16.6043C17.2573 16.4796 16.7593 15.2608 16.5518 14.7651C16.3511 14.2849 16.1459 14.3489 15.9928 14.3423C15.8342 14.3358 15.6756 14.3329 15.5169 14.3334C15.3907 14.3366 15.2666 14.3657 15.1522 14.4189C15.0379 14.4721 14.9358 14.5483 14.8525 14.6425C14.6239 14.8909 13.9817 15.4893 13.9817 16.7081C13.9817 17.9269 14.8735 19.1049 14.9978 19.2705C15.122 19.4361 16.7526 21.9366 19.2485 23.0097C19.843 23.2647 20.3067 23.4171 20.6672 23.5319C21.2629 23.7207 21.8053 23.6931 22.2346 23.6302C22.7127 23.5595 23.7066 23.0318 23.914 22.4533C24.1214 21.8748 24.1214 21.3791 24.0593 21.2753C23.9972 21.1716 23.8297 21.1086 23.5823 20.985" fill="#2B85C1"/>
</g>
</svg>
