<svg width="22" height="23" xmlns="http://www.w3.org/2000/svg"><g fill="none" fill-rule="evenodd"><path d="M-1.882-1.882H24V24H-1.882z"/><path d="M17.592 22.47c.1 0 .188-.055.232-.139l2.979-6.462a.224.224 0 00-.039-.246.267.267 0 00-.187-.084.274.274 0 00-.067.011l-2.184.548.943-2.586a.23.23 0 00.028-.1.242.242 0 00-.248-.236h-1.81a.246.246 0 00-.243.18l-1.108 4.607a.22.22 0 00.071.218c.044.04.11.061.171.061.022 0 .044 0 .067-.005l2.24-.564-1.088 4.513c-.027.117.045.234.166.273a.428.428 0 00.077.012z" fill="#2B85C1" fill-rule="nonzero"/><path d="M11.118 1.378c-5.38 0-9.74 4.36-9.74 9.74 0 5.379 4.36 9.74 9.74 9.74l-.001.01a.515.515 0 01.616.502.513.513 0 01-.616.502v.01c-5.945 0-10.764-4.82-10.764-10.764C.353 5.172 5.173.353 11.118.353c5.849 0 10.609 4.665 10.76 10.478l.004.287a.513.513 0 01-1.025 0c0-5.38-4.36-9.74-9.74-9.74z" fill="#2B85C1" fill-rule="nonzero"/><path d="M11.718 4.118c.286 0 .517.23.517.513v7.604H6.753a.516.516 0 01-.518-.513c0-.284.232-.514.518-.514v-.059h4.386V4.631h.062c0-.283.231-.513.517-.513z" fill="#2B85C1"/></g></svg>