<svg width="24" height="17" xmlns="http://www.w3.org/2000/svg"><g fill="none" fill-rule="evenodd"><path d="M-1.235-5.235h26.47v26.47h-26.47z"/><path d="M19.412 12.647a.53.53 0 110 1.059h-4.236a.53.53 0 110-1.059h4.236zm3.706-4.235V9.47H.882V8.41h22.236zm0-4.236v1.06H.882v-1.06h22.236z" fill="#2B85C1" fill-rule="nonzero"/><path d="M4.588 1.118a2.647 2.647 0 00-2.647 2.647v9.53a2.647 2.647 0 002.647 2.646h14.824a2.647 2.647 0 002.647-2.647v-9.53a2.647 2.647 0 00-2.647-2.646H4.588zm0-1.06h14.824a3.706 3.706 0 013.706 3.707v9.53A3.706 3.706 0 0119.412 17H4.588a3.706 3.706 0 01-3.706-3.706v-9.53A3.706 3.706 0 014.588.06z" fill="#2B85C1" fill-rule="nonzero"/></g></svg>