<?xml version="1.0" standalone="no"?>
<!DOCTYPE svg PUBLIC "-//W3C//DTD SVG 1.1//EN" "http://www.w3.org/Graphics/SVG/1.1/DTD/svg11.dtd" >
<svg xmlns="http://www.w3.org/2000/svg" xmlns:xlink="http://www.w3.org/1999/xlink" version="1.1">
<metadata>
Created by FontForge 20170924 at Mon Feb 20 02:04:57 2017
 By www-data
Copyright \(c\) 2017 by Kastelov. All rights reserved.
</metadata>
<defs>
<font id="Axiforma-Thin" horiz-adv-x="580" >
  <font-face 
    font-family="Axiforma Thin"
    font-weight="300"
    font-stretch="normal"
    units-per-em="1000"
    panose-1="0 0 4 0 0 0 0 0 0 0"
    ascent="800"
    descent="-200"
    x-height="534"
    cap-height="739"
    bbox="-389 -268 1263 1006"
    underline-thickness="50"
    underline-position="-100"
    unicode-range="U+000D-25CA"
  />
<missing-glyph horiz-adv-x="130" 
 />
    <glyph glyph-name="f_b" unicode="fb" horiz-adv-x="1042" 
d="M116 582c0 121 74 186 176 186c40 0 73 -10 102 -26l-17 -32c-26 13 -52 21 -85 21c-84 0 -136 -54 -136 -149v-47h220v-37h-220v-498h-40v498h-94v37h94v47zM731 547c152 0 264 -124 264 -280c0 -157 -112 -281 -264 -281c-103 0 -186 56 -228 142v-128h-40v753h40v-345
c42 84 125 139 228 139zM732 23c131 0 223 108 223 244s-92 243 -223 243c-134 0 -230 -108 -230 -240c0 -136 96 -247 230 -247z" />
    <glyph glyph-name="f_f" unicode="ff" horiz-adv-x="707" 
d="M623 731c-87 0 -138 -54 -138 -149v-47h220v-37h-220v-498h-40v498h-289v-498h-40v498h-94v37h94v47c0 121 77 186 188 186c49 0 104 -16 143 -44l-19 -31c-35 26 -82 38 -124 38c-93 0 -148 -54 -148 -149v-47h289v47c0 121 73 186 178 186c42 0 81 -12 114 -30l-17 -31
c-29 16 -62 24 -97 24z" />
    <glyph glyph-name="f_f_i" unicode="ffi" horiz-adv-x="915" 
d="M621 731c-84 0 -136 -54 -136 -149v-47h223v-37h-223v-498h-40v498h-289v-498h-40v498h-94v37h94v47c0 121 77 186 188 186c49 0 104 -16 143 -44l-19 -31c-35 26 -82 38 -124 38c-93 0 -148 -54 -148 -149v-47h289v47c0 121 74 186 176 186c40 0 73 -10 102 -26l-17 -32
c-26 13 -52 21 -85 21zM810 706c23 0 41 -18 41 -42c0 -23 -18 -41 -41 -41s-42 18 -42 41c0 24 19 42 42 42zM790 0v535h40v-535h-40z" />
    <glyph glyph-name="f_f_j" unicode="ffj" horiz-adv-x="915" 
d="M715 498h-230v-498h-40v498h-289v-498h-40v498h-94v37h94v47c0 121 77 186 188 186c49 0 104 -16 143 -44l-19 -31c-35 26 -82 38 -124 38c-93 0 -148 -54 -148 -149v-47h289v47c0 121 74 186 176 186c40 0 73 -10 102 -26l-17 -32c-26 13 -52 21 -85 21
c-84 0 -136 -54 -136 -149v-47h230v-37zM810 706c23 0 41 -18 41 -42c0 -23 -18 -41 -41 -41s-42 18 -42 41c0 24 19 42 42 42zM790 -65v600h40v-600c0 -107 -61 -163 -149 -163c-39 0 -77 13 -98 25l14 34c17 -9 50 -22 85 -22c67 0 108 44 108 126z" />
    <glyph glyph-name="f_h" unicode="fh" horiz-adv-x="988" 
d="M116 582c0 121 74 186 176 186c40 0 73 -10 102 -26l-17 -32c-26 13 -52 21 -85 21c-84 0 -136 -54 -136 -149v-47h220v-37h-220v-498h-40v498h-94v37h94v47zM697 549c117 0 213 -78 213 -227v-322h-40v322c0 113 -63 190 -173 190c-77 0 -194 -43 -194 -210v-302h-40
v753h38v-325c31 82 104 121 196 121z" />
    <glyph glyph-name="f_i" unicode="fi" horiz-adv-x="586" 
d="M116 582c0 121 74 186 176 186c40 0 73 -10 102 -26l-17 -32c-26 13 -52 21 -85 21c-84 0 -136 -54 -136 -149v-47h220v-37h-220v-498h-40v498h-94v37h94v47zM481 706c23 0 41 -18 41 -42c0 -23 -18 -41 -41 -41s-42 18 -42 41c0 24 19 42 42 42zM461 0v535h40v-535h-40z
" />
    <glyph glyph-name="f_j" unicode="fj" horiz-adv-x="586" 
d="M386 498h-230v-498h-40v498h-94v37h94v47c0 121 74 186 176 186c40 0 73 -10 102 -26l-17 -32c-26 13 -52 21 -85 21c-84 0 -136 -54 -136 -149v-47h230v-37zM481 707c23 0 41 -18 41 -42c0 -23 -18 -41 -41 -41s-42 18 -42 41c0 24 19 42 42 42zM461 -65v600h40v-600
c0 -107 -61 -163 -149 -163c-39 0 -77 13 -98 25l14 34c17 -9 50 -22 85 -22c67 0 108 44 108 126z" />
    <glyph glyph-name="f_k" unicode="fk" horiz-adv-x="864" 
d="M116 582c0 121 74 186 176 186c40 0 73 -10 102 -26l-17 -32c-26 13 -52 21 -85 21c-84 0 -136 -54 -136 -149v-47h220v-37h-220v-498h-40v498h-94v37h94v47zM820 0l-249 297l-68 -62v-235h-40v753h40v-469l281 251h52l-237 -214l271 -321h-50z" />
    <glyph glyph-name="f_l" unicode="fl" horiz-adv-x="588" 
d="M116 582c0 121 70 186 172 186c40 0 73 -10 102 -26l-13 -32c-26 13 -52 21 -85 21c-84 0 -136 -54 -136 -149v-47h220v-37h-220v-498h-40v498h-94v37h94v47zM463 753h40v-753h-40v753z" />
    <glyph glyph-name=".notdef" horiz-adv-x="130" 
 />
    <glyph glyph-name="A" unicode="A" horiz-adv-x="639" 
d="M578 0l-93 242h-331l-94 -242h-43l290 739h25l289 -739h-43zM319 672l-153 -393h306z" />
    <glyph glyph-name="Aacute" unicode="&#xc1;" horiz-adv-x="639" 
d="M416 954l-80 -156h-33l60 156h53zM578 0l-93 242h-331l-94 -242h-43l290 739h25l289 -739h-43zM319 672l-153 -393h306z" />
    <glyph glyph-name="Abreve" unicode="&#x102;" horiz-adv-x="639" 
d="M321 792c-97 0 -156 58 -156 152h37c2 -87 50 -120 119 -120s117 33 119 120h38c0 -94 -60 -152 -157 -152zM578 0l-93 242h-331l-94 -242h-43l290 739h25l289 -739h-43zM319 672l-153 -393h306z" />
    <glyph glyph-name="Acircumflex" unicode="&#xc2;" horiz-adv-x="639" 
d="M319 910l-105 -114h-41l137 151h19l137 -151h-42zM578 0l-93 242h-331l-94 -242h-43l290 739h25l289 -739h-43zM319 672l-153 -393h306z" />
    <glyph glyph-name="Adieresis" unicode="&#xc4;" horiz-adv-x="639" 
d="M230 811c-27 0 -47 20 -47 46c0 23 20 45 47 45s47 -22 47 -45c0 -26 -20 -46 -47 -46zM406 811c-27 0 -47 20 -47 46c0 23 20 45 47 45s47 -22 47 -45c0 -26 -20 -46 -47 -46zM578 0l-93 242h-331l-94 -242h-43l290 739h25l289 -739h-43zM319 672l-153 -393h306z" />
    <glyph glyph-name="Agrave" unicode="&#xc0;" horiz-adv-x="639" 
d="M334 796h-33l-80 156h53zM578 0l-93 242h-331l-94 -242h-43l290 739h25l289 -739h-43zM319 672l-153 -393h306z" />
    <glyph glyph-name="Amacron" unicode="&#x100;" horiz-adv-x="639" 
d="M485 864v-36l-331 -1v37h331zM578 0l-93 242h-331l-94 -242h-43l290 739h25l289 -739h-43zM319 672l-153 -393h306z" />
    <glyph glyph-name="Aogonek" unicode="&#x104;" horiz-adv-x="633" 
d="M620 -203l15 -25c-27 -21 -56 -31 -86 -31c-61 0 -103 43 -103 104c0 56 38 113 130 159l-91 238h-331l-94 -242h-43l290 739h25l289 -739c-94 -42 -141 -104 -141 -155c0 -40 31 -73 71 -73c15 0 41 5 69 25zM319 672l-153 -393h306z" />
    <glyph glyph-name="Aring" unicode="&#xc5;" horiz-adv-x="639" 
d="M322 790c-62 0 -110 48 -110 107c0 60 48 109 110 109s110 -49 110 -109c0 -59 -48 -107 -110 -107zM322 977c-45 0 -80 -35 -80 -80c0 -44 35 -78 80 -78s80 34 80 78c0 45 -35 80 -80 80zM578 0l-93 242h-331l-94 -242h-43l290 739h25l289 -739h-43zM319 672l-153 -393
h306z" />
    <glyph glyph-name="Atilde" unicode="&#xc3;" horiz-adv-x="639" 
d="M248 881c-35 0 -62 -34 -71 -57l-26 11c14 45 54 83 102 83c66 0 82 -64 133 -64c32 0 60 33 69 58l24 -10c-11 -43 -48 -83 -97 -83c-68 0 -84 62 -134 62zM578 0l-93 242h-331l-94 -242h-43l290 739h25l289 -739h-43zM319 672l-153 -393h306z" />
    <glyph glyph-name="AE" unicode="&#xc6;" horiz-adv-x="977" 
d="M531 37h395v-37h-435v256h-288l-168 -256h-46l488 739h448v-37h-394v-314h364v-37h-364v-314zM227 293h264v404z" />
    <glyph glyph-name="B" unicode="B" horiz-adv-x="655" 
d="M455 397c100 -25 148 -108 148 -189c0 -103 -74 -208 -239 -208h-259v739h252c142 0 207 -91 207 -183c0 -73 -43 -138 -109 -159zM354 702h-209v-289h229c87 0 150 63 150 146c0 81 -55 143 -170 143zM365 37c117 0 198 72 198 172c0 102 -85 167 -195 167h-223v-339
h220z" />
    <glyph glyph-name="C" unicode="C" horiz-adv-x="790" 
d="M432 -11c-208 0 -379 152 -379 378c0 228 175 385 381 385c138 0 262 -70 322 -165l-31 -19c-52 86 -166 147 -292 147c-192 0 -340 -143 -340 -345c0 -200 145 -344 339 -344c118 0 229 53 295 143l28 -21c-70 -92 -185 -159 -323 -159z" />
    <glyph glyph-name="Cacute" unicode="&#x106;" horiz-adv-x="790" 
d="M419 798l60 156h53l-80 -156h-33zM432 -11c-208 0 -379 152 -379 378c0 228 175 385 381 385c138 0 262 -70 322 -165l-31 -19c-52 86 -166 147 -292 147c-192 0 -340 -143 -340 -345c0 -200 145 -344 339 -344c118 0 229 53 295 143l28 -21c-70 -92 -185 -159 -323 -159
z" />
    <glyph glyph-name="Ccaron" unicode="&#x10c;" horiz-adv-x="790" 
d="M293 949h41l105 -114l105 114h42l-137 -151h-19zM432 -11c-208 0 -379 152 -379 378c0 228 175 385 381 385c138 0 262 -70 322 -165l-31 -19c-52 86 -166 147 -292 147c-192 0 -340 -143 -340 -345c0 -200 145 -344 339 -344c118 0 229 53 295 143l28 -21
c-70 -92 -185 -159 -323 -159z" />
    <glyph glyph-name="Ccedilla" unicode="&#xc7;" horiz-adv-x="790" 
d="M432 26c118 0 229 53 295 143l28 -21c-70 -92 -185 -159 -323 -159h-4l-21 -53c12 3 26 3 37 3c51 0 94 -29 94 -84c0 -54 -44 -105 -127 -105c-33 0 -64 8 -95 22l12 29c26 -13 58 -20 83 -20c59 0 93 38 93 73c0 28 -20 54 -68 54h-62l-7 13l26 70
c-190 18 -340 164 -340 376c0 228 175 385 381 385c138 0 262 -70 322 -165l-31 -19c-52 86 -166 147 -292 147c-192 0 -340 -143 -340 -345c0 -200 145 -344 339 -344z" />
    <glyph glyph-name="Ccircumflex" unicode="&#x108;" horiz-adv-x="790" 
d="M286 796l137 151h19l137 -151h-42l-105 114l-105 -114h-41zM432 -11c-208 0 -379 152 -379 378c0 228 175 385 381 385c138 0 262 -70 322 -165l-31 -19c-52 86 -166 147 -292 147c-192 0 -340 -143 -340 -345c0 -200 145 -344 339 -344c118 0 229 53 295 143l28 -21
c-70 -92 -185 -159 -323 -159z" />
    <glyph glyph-name="Cdotaccent" unicode="&#x10a;" horiz-adv-x="790" 
d="M433 813c-23 0 -42 18 -42 41c0 24 19 42 42 42s41 -18 41 -42c0 -23 -18 -41 -41 -41zM432 -11c-208 0 -379 152 -379 378c0 228 175 385 381 385c138 0 262 -70 322 -165l-31 -19c-52 86 -166 147 -292 147c-192 0 -340 -143 -340 -345c0 -200 145 -344 339 -344
c118 0 229 53 295 143l28 -21c-70 -92 -185 -159 -323 -159z" />
    <glyph glyph-name="D" unicode="D" horiz-adv-x="744" 
d="M105 0v739h241c212 0 342 -143 342 -371c0 -226 -131 -368 -348 -368h-235zM145 37h193c195 0 310 125 310 331s-113 334 -300 334h-203v-665z" />
    <glyph glyph-name="Eth" unicode="&#xd0;" horiz-adv-x="773" 
d="M375 739c212 0 342 -143 342 -371c0 -226 -131 -368 -348 -368h-235v352h-134v37h134v350h241zM367 37c195 0 310 125 310 331s-113 334 -300 334h-203v-313h226v-37h-226v-315h193z" />
    <glyph glyph-name="Dcaron" unicode="&#x10e;" horiz-adv-x="744" 
d="M179 949h41l105 -114l105 114h42l-137 -151h-19zM105 0v739h241c212 0 342 -143 342 -371c0 -226 -131 -368 -348 -368h-235zM145 37h193c195 0 310 125 310 331s-113 334 -300 334h-203v-665z" />
    <glyph glyph-name="Dcroat" unicode="&#x110;" horiz-adv-x="773" 
d="M375 739c212 0 342 -143 342 -371c0 -226 -131 -368 -348 -368h-235v352h-134v37h134v350h241zM367 37c195 0 310 125 310 331s-113 334 -300 334h-203v-313h226v-37h-226v-315h193z" />
    <glyph glyph-name="E" unicode="E" horiz-adv-x="599" 
d="M105 0v739h439v-37h-399v-310h374v-37h-374v-318h403v-37h-443z" />
    <glyph glyph-name="Eacute" unicode="&#xc9;" horiz-adv-x="599" 
d="M300 798l60 156h53l-80 -156h-33zM105 0v739h439v-37h-399v-310h374v-37h-374v-318h403v-37h-443z" />
    <glyph glyph-name="Ebreve" unicode="&#x114;" horiz-adv-x="599" 
d="M330 797c-97 0 -156 58 -156 152h37c2 -87 50 -120 119 -120s117 33 119 120h38c0 -94 -60 -152 -157 -152zM105 0v739h439v-37h-399v-310h374v-37h-374v-318h403v-37h-443z" />
    <glyph glyph-name="Ecaron" unicode="&#x11a;" horiz-adv-x="599" 
d="M174 949h41l105 -114l105 114h42l-137 -151h-19zM105 0v739h439v-37h-399v-310h374v-37h-374v-318h403v-37h-443z" />
    <glyph glyph-name="Ecircumflex" unicode="&#xca;" horiz-adv-x="599" 
d="M167 796l137 151h19l137 -151h-42l-105 114l-105 -114h-41zM105 0v739h439v-37h-399v-310h374v-37h-374v-318h403v-37h-443z" />
    <glyph glyph-name="Edieresis" unicode="&#xcb;" horiz-adv-x="599" 
d="M241 811c-27 0 -47 20 -47 46c0 23 20 45 47 45s47 -22 47 -45c0 -26 -20 -46 -47 -46zM417 811c-27 0 -47 20 -47 46c0 23 20 45 47 45s47 -22 47 -45c0 -26 -20 -46 -47 -46zM105 0v739h439v-37h-399v-310h374v-37h-374v-318h403v-37h-443z" />
    <glyph glyph-name="Edotaccent" unicode="&#x116;" horiz-adv-x="599" 
d="M327 813c-23 0 -42 18 -42 41c0 24 19 42 42 42s41 -18 41 -42c0 -23 -18 -41 -41 -41zM105 0v739h439v-37h-399v-310h374v-37h-374v-318h403v-37h-443z" />
    <glyph glyph-name="Egrave" unicode="&#xc8;" horiz-adv-x="599" 
d="M334 796h-33l-80 156h53zM105 0v739h439v-37h-399v-310h374v-37h-374v-318h403v-37h-443z" />
    <glyph glyph-name="Emacron" unicode="&#x112;" horiz-adv-x="599" 
d="M165 827v37h331v-36zM105 0v739h439v-37h-399v-310h374v-37h-374v-318h403v-37h-443z" />
    <glyph glyph-name="Eogonek" unicode="&#x118;" horiz-adv-x="587" 
d="M547 -203l15 -25c-27 -21 -56 -31 -86 -31c-61 0 -103 43 -103 104c0 55 36 110 123 155h-391v739h439v-37h-399v-310h374v-37h-374v-318h403v-37c-94 -42 -141 -104 -141 -155c0 -40 31 -73 71 -73c15 0 41 5 69 25z" />
    <glyph glyph-name="F" unicode="F" horiz-adv-x="546" 
d="M105 0v739h416v-37h-376v-310h338v-37h-338v-355h-40z" />
    <glyph glyph-name="G" unicode="G" horiz-adv-x="824" 
d="M430 -11c-217 0 -377 161 -377 380c0 225 175 383 383 383c126 0 243 -56 308 -137l-28 -26c-60 77 -170 126 -280 126c-194 0 -343 -149 -343 -346c0 -198 142 -343 337 -343c113 0 215 48 296 132v185h-323v37h362v-234c-92 -106 -211 -157 -335 -157z" />
    <glyph glyph-name="Gbreve" unicode="&#x11e;" horiz-adv-x="824" 
d="M431 794c-97 0 -156 58 -156 152h37c2 -87 50 -120 119 -120s117 33 119 120h38c0 -94 -60 -152 -157 -152zM430 -11c-217 0 -377 161 -377 380c0 225 175 383 383 383c126 0 243 -56 308 -137l-28 -26c-60 77 -170 126 -280 126c-194 0 -343 -149 -343 -346
c0 -198 142 -343 337 -343c113 0 215 48 296 132v185h-323v37h362v-234c-92 -106 -211 -157 -335 -157z" />
    <glyph glyph-name="Gcircumflex" unicode="&#x11c;" horiz-adv-x="824" 
d="M285 798l137 151h19l137 -151h-42l-105 114l-105 -114h-41zM430 -11c-217 0 -377 161 -377 380c0 225 175 383 383 383c126 0 243 -56 308 -137l-28 -26c-60 77 -170 126 -280 126c-194 0 -343 -149 -343 -346c0 -198 142 -343 337 -343c113 0 215 48 296 132v185h-323
v37h362v-234c-92 -106 -211 -157 -335 -157z" />
    <glyph glyph-name="Gcommaaccent" unicode="&#x122;" horiz-adv-x="824" 
d="M403 380h362v-234c-92 -106 -211 -157 -335 -157c-217 0 -377 161 -377 380c0 225 175 383 383 383c126 0 243 -56 308 -137l-28 -26c-60 77 -170 126 -280 126c-194 0 -343 -149 -343 -346c0 -198 142 -343 337 -343c113 0 215 48 296 132v185h-323v37zM434 -43
c25 0 45 -21 45 -51c0 -42 -34 -92 -95 -130l-12 18c44 28 73 63 82 95c-10 -10 -23 -11 -28 -11c-18 0 -36 15 -36 37c0 24 18 42 44 42z" />
    <glyph glyph-name="Gdotaccent" unicode="&#x120;" horiz-adv-x="824" 
d="M436 813c-23 0 -42 18 -42 41c0 24 19 42 42 42s41 -18 41 -42c0 -23 -18 -41 -41 -41zM430 -11c-217 0 -377 161 -377 380c0 225 175 383 383 383c126 0 243 -56 308 -137l-28 -26c-60 77 -170 126 -280 126c-194 0 -343 -149 -343 -346c0 -198 142 -343 337 -343
c113 0 215 48 296 132v185h-323v37h362v-234c-92 -106 -211 -157 -335 -157z" />
    <glyph glyph-name="H" unicode="H" horiz-adv-x="724" 
d="M105 0v739h40v-360h434v360h40v-739h-40v342h-434v-342h-40z" />
    <glyph glyph-name="Hbar" unicode="&#x126;" horiz-adv-x="726" 
d="M711 572v-37h-79v-535h-40v342h-434v-342h-40v535h-79v37h79v167h40v-167h434v167h40v-167h79zM592 379v156h-434v-156h434z" />
    <glyph glyph-name="Hcircumflex" unicode="&#x124;" horiz-adv-x="724" 
d="M216 796l137 151h19l137 -151h-42l-105 114l-105 -114h-41zM105 0v739h40v-360h434v360h40v-739h-40v342h-434v-342h-40z" />
    <glyph glyph-name="I" unicode="I" horiz-adv-x="250" 
d="M105 739h40v-739h-40v739z" />
    <glyph glyph-name="IJ" unicode="&#x132;" horiz-adv-x="761" 
d="M105 739h40v-739h-40v739zM459 -12c-78 0 -152 31 -207 100l27 26c40 -52 103 -89 179 -89c103 0 178 76 178 193v521h40v-510c0 -167 -102 -241 -217 -241z" />
    <glyph glyph-name="Iacute" unicode="&#xcd;" horiz-adv-x="243" 
d="M111 798l60 156h53l-80 -156h-33zM110 739h40v-739h-40v739z" />
    <glyph glyph-name="Ibreve" unicode="&#x12c;" horiz-adv-x="250" 
d="M137 792c-97 0 -156 58 -156 152h37c2 -87 50 -120 119 -120s117 33 119 120h38c0 -94 -60 -152 -157 -152zM117 739h40v-739h-40v739z" />
    <glyph glyph-name="Icircumflex" unicode="&#xce;" horiz-adv-x="250" 
d="M-10 796l137 151h19l137 -151h-42l-105 114l-105 -114h-41zM117 739h40v-739h-40v739z" />
    <glyph glyph-name="Idieresis" unicode="&#xcf;" horiz-adv-x="250" 
d="M49 811c-27 0 -47 20 -47 46c0 23 20 45 47 45s47 -22 47 -45c0 -26 -20 -46 -47 -46zM225 811c-27 0 -47 20 -47 46c0 23 20 45 47 45s47 -22 47 -45c0 -26 -20 -46 -47 -46zM117 739h40v-739h-40v739z" />
    <glyph glyph-name="Idotaccent" unicode="&#x130;" horiz-adv-x="250" 
d="M138 813c-23 0 -42 18 -42 41c0 24 19 42 42 42s41 -18 41 -42c0 -23 -18 -41 -41 -41zM117 739h40v-739h-40v739z" />
    <glyph glyph-name="Igrave" unicode="&#xcc;" horiz-adv-x="261" 
d="M152 798h-33l-80 156h53zM117 739h40v-739h-40v739z" />
    <glyph glyph-name="Imacron" unicode="&#x12a;" horiz-adv-x="250" 
d="M-28 827v37h331v-36zM117 739h40v-739h-40v739z" />
    <glyph glyph-name="Iogonek" unicode="&#x12e;" horiz-adv-x="250" 
d="M156 -203l15 -25c-27 -21 -56 -31 -86 -31c-61 0 -103 43 -103 104c0 57 40 115 135 161v733h40v-739c-94 -42 -141 -104 -141 -155c0 -40 31 -73 71 -73c15 0 41 5 69 25z" />
    <glyph glyph-name="Itilde" unicode="&#x128;" horiz-adv-x="250" 
d="M2 824l-26 11c14 45 54 83 102 83c66 0 82 -64 133 -64c32 0 60 33 69 58l24 -10c-11 -43 -48 -83 -97 -83c-68 0 -84 62 -134 62c-35 0 -62 -34 -71 -57zM117 739h40v-739h-40v739z" />
    <glyph glyph-name="J" unicode="J" horiz-adv-x="547" 
d="M233 -12c-78 0 -152 31 -207 100l27 26c40 -52 103 -89 179 -89c103 0 178 76 178 193v521h40v-510c0 -167 -102 -241 -217 -241z" />
    <glyph glyph-name="Jacute" horiz-adv-x="535" 
d="M413 798l60 156h53l-80 -156h-33zM233 -12c-78 0 -152 31 -207 100l27 26c40 -52 103 -89 179 -89c103 0 178 76 178 193v521h40v-510c0 -167 -102 -241 -217 -241z" />
    <glyph glyph-name="Jcircumflex" unicode="&#x134;" horiz-adv-x="535" 
d="M284 796l137 151h19l137 -151h-42l-105 114l-105 -114h-41zM233 -12c-78 0 -152 31 -207 100l27 26c40 -52 103 -89 179 -89c103 0 178 76 178 193v521h40v-510c0 -167 -102 -241 -217 -241z" />
    <glyph glyph-name="K" unicode="K" horiz-adv-x="600" 
d="M605 0h-52l-300 359l-1 -1l-107 -124v-234h-40v739h40v-447l383 447h49l-296 -349z" />
    <glyph glyph-name="Kcommaaccent" unicode="&#x136;" horiz-adv-x="600" 
d="M281 390l324 -390h-52l-300 359l-1 -1l-107 -124v-234h-40v739h40v-447l383 447h49zM341 -19c25 0 45 -21 45 -51c0 -42 -34 -92 -95 -130l-12 18c44 28 73 63 82 95c-10 -10 -23 -11 -28 -11c-18 0 -36 15 -36 37c0 24 18 42 44 42z" />
    <glyph glyph-name="L" unicode="L" horiz-adv-x="581" 
d="M105 0v739h40v-702h421v-37h-461z" />
    <glyph glyph-name="Lacute" unicode="&#x139;" horiz-adv-x="590" 
d="M116 798l60 156h53l-80 -156h-33zM114 0v739h40v-702h421v-37h-461z" />
    <glyph glyph-name="Lcaron" unicode="&#x13d;" horiz-adv-x="584" 
d="M420 618l57 151h50l-73 -151h-34zM105 0v739h40v-702h421v-37h-461z" />
    <glyph glyph-name="Lcommaaccent" unicode="&#x13b;" horiz-adv-x="581" 
d="M145 37h421v-37h-461v739h40v-702zM333 -33c25 0 45 -21 45 -51c0 -42 -34 -92 -95 -130l-12 18c44 28 73 63 82 95c-10 -10 -23 -11 -28 -11c-18 0 -36 15 -36 37c0 24 18 42 44 42z" />
    <glyph glyph-name="Ldot" unicode="&#x13f;" horiz-adv-x="582" 
d="M105 0v739h40v-702h421v-37h-461zM420 350c-22 0 -40 17 -40 39c0 21 18 38 40 38c21 0 39 -16 39 -38c0 -23 -18 -39 -39 -39z" />
    <glyph glyph-name="Lslash" unicode="&#x141;" horiz-adv-x="597" 
d="M161 37h421v-37h-461v309l-95 -67v44l95 67v386h40v-357l137 97v-45l-137 -97v-300z" />
    <glyph glyph-name="M" unicode="M" horiz-adv-x="896" 
d="M105 0v739h18l326 -480l323 480h19v-739h-39v641l-298 -443h-10l-300 442v-640h-39z" />
    <glyph glyph-name="N" unicode="N" horiz-adv-x="764" 
d="M619 739h40v-739h-24l-490 647v-647h-40v739h20l494 -654v654z" />
    <glyph glyph-name="Nacute" unicode="&#x143;" horiz-adv-x="764" 
d="M366 798l60 156h53l-80 -156h-33zM619 739h40v-739h-24l-490 647v-647h-40v739h20l494 -654v654z" />
    <glyph glyph-name="Ncaron" unicode="&#x147;" horiz-adv-x="764" 
d="M245 949h41l105 -114l105 114h42l-137 -151h-19zM619 739h40v-739h-24l-490 647v-647h-40v739h20l494 -654v654z" />
    <glyph glyph-name="Ncommaaccent" unicode="&#x145;" horiz-adv-x="764" 
d="M619 739h40v-739h-24l-490 647v-647h-40v739h20l494 -654v654zM390 -36c25 0 45 -21 45 -51c0 -42 -34 -92 -95 -130l-12 18c44 28 73 63 82 95c-10 -10 -23 -11 -28 -11c-18 0 -36 15 -36 37c0 24 18 42 44 42z" />
    <glyph glyph-name="Eng" unicode="&#x14a;" horiz-adv-x="764" 
d="M619 739h40v-768c0 -146 -89 -222 -204 -222c-53 0 -106 16 -154 44l17 33c42 -26 92 -40 138 -40c100 0 163 73 163 182v53l-474 626v-647h-40v739h20l494 -654v654z" />
    <glyph glyph-name="Ntilde" unicode="&#xd1;" horiz-adv-x="764" 
d="M249 814l-26 11c14 45 54 83 102 83c66 0 82 -64 133 -64c32 0 60 33 69 58l24 -10c-11 -43 -48 -83 -97 -83c-68 0 -84 62 -134 62c-35 0 -62 -34 -71 -57zM619 739h40v-739h-24l-490 647v-647h-40v739h20l494 -654v654z" />
    <glyph glyph-name="O" unicode="O" horiz-adv-x="862" 
d="M431 -12c-211 0 -379 172 -379 382s168 382 379 382s379 -172 379 -382s-168 -382 -379 -382zM431 25c189 0 339 155 339 345s-150 345 -339 345s-339 -155 -339 -345s150 -345 339 -345z" />
    <glyph glyph-name="Oacute" unicode="&#xd3;" horiz-adv-x="862" 
d="M416 798l60 156h53l-80 -156h-33zM431 -12c-211 0 -379 172 -379 382s168 382 379 382s379 -172 379 -382s-168 -382 -379 -382zM431 25c189 0 339 155 339 345s-150 345 -339 345s-339 -155 -339 -345s150 -345 339 -345z" />
    <glyph glyph-name="Obreve" unicode="&#x14e;" horiz-adv-x="862" 
d="M429 792c-97 0 -156 58 -156 152h37c2 -87 50 -120 119 -120s117 33 119 120h38c0 -94 -60 -152 -157 -152zM431 -12c-211 0 -379 172 -379 382s168 382 379 382s379 -172 379 -382s-168 -382 -379 -382zM431 25c189 0 339 155 339 345s-150 345 -339 345
s-339 -155 -339 -345s150 -345 339 -345z" />
    <glyph glyph-name="Ocircumflex" unicode="&#xd4;" horiz-adv-x="862" 
d="M284 796l137 151h19l137 -151h-42l-105 114l-105 -114h-41zM431 -12c-211 0 -379 172 -379 382s168 382 379 382s379 -172 379 -382s-168 -382 -379 -382zM431 25c189 0 339 155 339 345s-150 345 -339 345s-339 -155 -339 -345s150 -345 339 -345z" />
    <glyph glyph-name="Odieresis" unicode="&#xd6;" horiz-adv-x="862" 
d="M342 811c-27 0 -47 20 -47 46c0 23 20 45 47 45s47 -22 47 -45c0 -26 -20 -46 -47 -46zM518 811c-27 0 -47 20 -47 46c0 23 20 45 47 45s47 -22 47 -45c0 -26 -20 -46 -47 -46zM431 -12c-211 0 -379 172 -379 382s168 382 379 382s379 -172 379 -382s-168 -382 -379 -382
zM431 25c189 0 339 155 339 345s-150 345 -339 345s-339 -155 -339 -345s150 -345 339 -345z" />
    <glyph glyph-name="Ograve" unicode="&#xd2;" horiz-adv-x="862" 
d="M460 796h-33l-80 156h53zM431 -12c-211 0 -379 172 -379 382s168 382 379 382s379 -172 379 -382s-168 -382 -379 -382zM431 25c189 0 339 155 339 345s-150 345 -339 345s-339 -155 -339 -345s150 -345 339 -345z" />
    <glyph glyph-name="Ohungarumlaut" unicode="&#x150;" horiz-adv-x="862" 
d="M339 795l48 156h51l-75 -156h-24zM479 795l65 156h52l-92 -156h-25zM431 -12c-211 0 -379 172 -379 382s168 382 379 382s379 -172 379 -382s-168 -382 -379 -382zM431 25c189 0 339 155 339 345s-150 345 -339 345s-339 -155 -339 -345s150 -345 339 -345z" />
    <glyph glyph-name="Omacron" unicode="&#x14c;" horiz-adv-x="862" 
d="M264 827v37h331v-36zM431 -12c-211 0 -379 172 -379 382s168 382 379 382s379 -172 379 -382s-168 -382 -379 -382zM431 25c189 0 339 155 339 345s-150 345 -339 345s-339 -155 -339 -345s150 -345 339 -345z" />
    <glyph glyph-name="Oslash" unicode="&#xd8;" horiz-adv-x="862" 
d="M665 671c89 -70 145 -179 145 -301c0 -210 -168 -382 -379 -382c-76 0 -146 22 -205 60l-53 -75l-32 20l55 77c-88 70 -144 179 -144 300c0 210 168 382 379 382c75 0 145 -22 203 -59l53 74l31 -21zM92 370c0 -108 49 -205 126 -268l395 560c-53 33 -115 53 -182 53
c-189 0 -339 -155 -339 -345zM431 25c189 0 339 155 339 345c0 109 -49 206 -127 270l-395 -561c53 -34 115 -54 183 -54z" />
    <glyph glyph-name="Otilde" unicode="&#xd5;" horiz-adv-x="862" 
d="M296 824l-26 11c14 45 54 83 102 83c66 0 82 -64 133 -64c32 0 60 33 69 58l24 -10c-11 -43 -48 -83 -97 -83c-68 0 -84 62 -134 62c-35 0 -62 -34 -71 -57zM431 -12c-211 0 -379 172 -379 382s168 382 379 382s379 -172 379 -382s-168 -382 -379 -382zM431 25
c189 0 339 155 339 345s-150 345 -339 345s-339 -155 -339 -345s150 -345 339 -345z" />
    <glyph glyph-name="OE" unicode="&#x152;" horiz-adv-x="967" 
d="M513 37h403v-37h-439c-17 -1 -33 -2 -48 -2c-262 0 -372 157 -372 370c0 215 109 373 363 373c15 0 31 -1 47 -2h445v-37h-399v-310h374v-37h-374v-318zM418 36c16 0 37 1 55 2v663c-18 1 -39 2 -55 2c-241 0 -321 -158 -321 -333c0 -178 79 -334 321 -334z" />
    <glyph glyph-name="P" unicode="P" horiz-adv-x="595" 
d="M323 739c163 0 236 -114 236 -226c0 -114 -78 -226 -245 -226h-169v-287h-40v739h218zM314 324c125 0 205 78 205 189c0 112 -77 189 -196 189h-178v-378h169z" />
    <glyph glyph-name="Thorn" unicode="&#xde;" horiz-adv-x="606" 
d="M323 610c163 0 236 -114 236 -226c0 -114 -78 -226 -245 -226h-169v-158h-40v739h40v-129h178zM314 195c125 0 205 78 205 189c0 112 -77 189 -196 189h-178v-378h169z" />
    <glyph glyph-name="Q" unicode="Q" horiz-adv-x="862" 
d="M702 -86c31 0 71 8 95 18l6 -36c-29 -12 -69 -19 -101 -19c-85 0 -166 33 -237 112c-11 0 -23 -1 -34 -1c-211 0 -379 172 -379 382s168 382 379 382s379 -172 379 -382c0 -182 -126 -335 -297 -373c57 -57 115 -83 189 -83zM92 370c0 -190 150 -345 339 -345
s339 155 339 345s-150 345 -339 345s-339 -155 -339 -345z" />
    <glyph glyph-name="R" unicode="R" horiz-adv-x="607" 
d="M552 0h-46l-184 318c-7 -1 -14 -1 -22 -1h-155v-317h-40v739h208c163 0 236 -106 236 -211c0 -92 -59 -183 -186 -206zM145 354h157c132 0 207 71 207 175c0 105 -77 173 -196 173h-168v-348z" />
    <glyph glyph-name="Racute" unicode="&#x154;" horiz-adv-x="607" 
d="M382 954l-80 -156h-33l60 156h53zM552 0h-46l-184 318c-7 -1 -14 -1 -22 -1h-155v-317h-40v739h208c163 0 236 -106 236 -211c0 -92 -59 -183 -186 -206zM145 354h157c132 0 207 71 207 175c0 105 -77 173 -196 173h-168v-348z" />
    <glyph glyph-name="Rcaron" unicode="&#x158;" horiz-adv-x="607" 
d="M309 798h-19l-137 151h41l105 -114l105 114h42zM552 0h-46l-184 318c-7 -1 -14 -1 -22 -1h-155v-317h-40v739h208c163 0 236 -106 236 -211c0 -92 -59 -183 -186 -206zM145 354h157c132 0 207 71 207 175c0 105 -77 173 -196 173h-168v-348z" />
    <glyph glyph-name="Rcommaaccent" unicode="&#x156;" horiz-adv-x="607" 
d="M363 322l189 -322h-46l-184 318c-7 -1 -14 -1 -22 -1h-155v-317h-40v739h208c163 0 236 -106 236 -211c0 -92 -59 -183 -186 -206zM145 354h157c132 0 207 71 207 175c0 105 -77 173 -196 173h-168v-348zM313 -25c25 0 45 -21 45 -51c0 -42 -34 -92 -95 -130l-12 18
c44 28 73 63 82 95c-10 -10 -23 -11 -28 -11c-18 0 -36 15 -36 37c0 24 18 42 44 42z" />
    <glyph glyph-name="S" unicode="S" horiz-adv-x="547" 
d="M274 -12c-98 0 -193 47 -240 154l34 17c35 -78 103 -134 203 -134c110 0 189 68 189 161c0 66 -37 105 -110 140c-40 19 -115 48 -142 60c-90 40 -136 97 -136 178c0 107 81 188 207 188c77 0 152 -31 205 -110l-31 -22c-41 61 -100 95 -173 95c-99 0 -168 -61 -168 -151
c0 -55 25 -100 107 -140c35 -17 112 -46 152 -65c77 -37 129 -87 129 -173c0 -119 -100 -198 -226 -198z" />
    <glyph glyph-name="Sacute" unicode="&#x15a;" horiz-adv-x="547" 
d="M254 796l60 156h53l-80 -156h-33zM274 -12c-98 0 -193 47 -240 154l34 17c35 -78 103 -134 203 -134c110 0 189 68 189 161c0 66 -37 105 -110 140c-40 19 -115 48 -142 60c-90 40 -136 97 -136 178c0 107 81 188 207 188c77 0 152 -31 205 -110l-31 -22
c-41 61 -100 95 -173 95c-99 0 -168 -61 -168 -151c0 -55 25 -100 107 -140c35 -17 112 -46 152 -65c77 -37 129 -87 129 -173c0 -119 -100 -198 -226 -198z" />
    <glyph glyph-name="Scaron" unicode="&#x160;" horiz-adv-x="547" 
d="M145 947h41l105 -114l105 114h42l-137 -151h-19zM274 -12c-98 0 -193 47 -240 154l34 17c35 -78 103 -134 203 -134c110 0 189 68 189 161c0 66 -37 105 -110 140c-40 19 -115 48 -142 60c-90 40 -136 97 -136 178c0 107 81 188 207 188c77 0 152 -31 205 -110l-31 -22
c-41 61 -100 95 -173 95c-99 0 -168 -61 -168 -151c0 -55 25 -100 107 -140c35 -17 112 -46 152 -65c77 -37 129 -87 129 -173c0 -119 -100 -198 -226 -198z" />
    <glyph glyph-name="Scedilla" unicode="&#x15e;" horiz-adv-x="547" 
d="M500 186c0 -119 -99 -197 -225 -198l-27 -70c12 3 26 3 37 3c51 0 94 -29 94 -84c0 -54 -44 -105 -127 -105c-33 0 -64 8 -95 22l12 29c26 -13 58 -20 83 -20c59 0 93 38 93 73c0 28 -20 54 -68 54h-62l-7 13l32 87c-85 10 -164 57 -206 152l34 17
c35 -78 103 -134 203 -134c110 0 189 68 189 161c0 66 -37 105 -110 140c-40 19 -115 48 -142 60c-90 40 -136 97 -136 178c0 107 81 188 207 188c77 0 152 -31 205 -110l-31 -22c-41 61 -100 95 -173 95c-99 0 -168 -61 -168 -151c0 -55 25 -100 107 -140
c35 -17 112 -46 152 -65c77 -37 129 -87 129 -173z" />
    <glyph glyph-name="Scircumflex" unicode="&#x15c;" horiz-adv-x="547" 
d="M138 794l137 151h19l137 -151h-42l-105 114l-105 -114h-41zM274 -12c-98 0 -193 47 -240 154l34 17c35 -78 103 -134 203 -134c110 0 189 68 189 161c0 66 -37 105 -110 140c-40 19 -115 48 -142 60c-90 40 -136 97 -136 178c0 107 81 188 207 188c77 0 152 -31 205 -110
l-31 -22c-41 61 -100 95 -173 95c-99 0 -168 -61 -168 -151c0 -55 25 -100 107 -140c35 -17 112 -46 152 -65c77 -37 129 -87 129 -173c0 -119 -100 -198 -226 -198z" />
    <glyph glyph-name="Scommaaccent" unicode="&#x218;" horiz-adv-x="547" 
d="M371 359c77 -37 129 -87 129 -173c0 -119 -100 -198 -226 -198c-98 0 -193 47 -240 154l34 17c35 -78 103 -134 203 -134c110 0 189 68 189 161c0 66 -37 105 -110 140c-40 19 -115 48 -142 60c-90 40 -136 97 -136 178c0 107 81 188 207 188c77 0 152 -31 205 -110
l-31 -22c-41 61 -100 95 -173 95c-99 0 -168 -61 -168 -151c0 -55 25 -100 107 -140c35 -17 112 -46 152 -65zM275 -55c25 0 45 -21 45 -51c0 -42 -34 -92 -95 -130l-12 18c44 28 73 63 82 95c-10 -10 -23 -11 -28 -11c-18 0 -36 15 -36 37c0 24 18 42 44 42z" />
    <glyph glyph-name="T" unicode="T" horiz-adv-x="523" 
d="M242 702h-227v37h493v-37h-226v-702h-40v702z" />
    <glyph glyph-name="Tbar" unicode="&#x166;" horiz-adv-x="563" 
d="M528 702h-226v-282h180v-37h-180v-383h-40v383h-180v37h180v282h-227v37h493v-37z" />
    <glyph glyph-name="Tcaron" unicode="&#x164;" horiz-adv-x="523" 
d="M116 949h41l105 -114l105 114h42l-137 -151h-19zM242 702h-227v37h493v-37h-226v-702h-40v702z" />
    <glyph glyph-name="uni021A" unicode="&#x21a;" horiz-adv-x="523" 
d="M15 739h493v-37h-226v-702h-40v702h-227v37zM264 -35c25 0 45 -21 45 -51c0 -42 -34 -92 -95 -130l-12 18c44 28 73 63 82 95c-10 -10 -23 -11 -28 -11c-18 0 -36 15 -36 37c0 24 18 42 44 42z" />
    <glyph glyph-name="U" unicode="U" horiz-adv-x="673" 
d="M337 -13c-143 0 -240 92 -240 249v503h40v-499c0 -134 74 -213 200 -213s199 79 199 213v499h40v-503c0 -157 -96 -249 -239 -249z" />
    <glyph glyph-name="Uacute" unicode="&#xda;" horiz-adv-x="673" 
d="M312 798l60 156h53l-80 -156h-33zM337 -13c-143 0 -240 92 -240 249v503h40v-499c0 -134 74 -213 200 -213s199 79 199 213v499h40v-503c0 -157 -96 -249 -239 -249z" />
    <glyph glyph-name="Ubreve" unicode="&#x16c;" horiz-adv-x="673" 
d="M334 792c-97 0 -156 58 -156 152h37c2 -87 50 -120 119 -120s117 33 119 120h38c0 -94 -60 -152 -157 -152zM337 -13c-143 0 -240 92 -240 249v503h40v-499c0 -134 74 -213 200 -213s199 79 199 213v499h40v-503c0 -157 -96 -249 -239 -249z" />
    <glyph glyph-name="Ucircumflex" unicode="&#xdb;" horiz-adv-x="673" 
d="M187 796l137 151h19l137 -151h-42l-105 114l-105 -114h-41zM337 -13c-143 0 -240 92 -240 249v503h40v-499c0 -134 74 -213 200 -213s199 79 199 213v499h40v-503c0 -157 -96 -249 -239 -249z" />
    <glyph glyph-name="Udieresis" unicode="&#xdc;" horiz-adv-x="673" 
d="M246 811c-27 0 -47 20 -47 46c0 23 20 45 47 45s47 -22 47 -45c0 -26 -20 -46 -47 -46zM422 811c-27 0 -47 20 -47 46c0 23 20 45 47 45s47 -22 47 -45c0 -26 -20 -46 -47 -46zM337 -13c-143 0 -240 92 -240 249v503h40v-499c0 -134 74 -213 200 -213s199 79 199 213v499
h40v-503c0 -157 -96 -249 -239 -249z" />
    <glyph glyph-name="Ugrave" unicode="&#xd9;" horiz-adv-x="673" 
d="M360 796h-33l-80 156h53zM337 -13c-143 0 -240 92 -240 249v503h40v-499c0 -134 74 -213 200 -213s199 79 199 213v499h40v-503c0 -157 -96 -249 -239 -249z" />
    <glyph glyph-name="Uhungarumlaut" unicode="&#x170;" horiz-adv-x="673" 
d="M235 795l48 156h51l-75 -156h-24zM375 795l65 156h52l-92 -156h-25zM337 -13c-143 0 -240 92 -240 249v503h40v-499c0 -134 74 -213 200 -213s199 79 199 213v499h40v-503c0 -157 -96 -249 -239 -249z" />
    <glyph glyph-name="Umacron" unicode="&#x16a;" horiz-adv-x="673" 
d="M160 827v37h331v-36zM337 -13c-143 0 -240 92 -240 249v503h40v-499c0 -134 74 -213 200 -213s199 79 199 213v499h40v-503c0 -157 -96 -249 -239 -249z" />
    <glyph glyph-name="Uogonek" unicode="&#x172;" horiz-adv-x="673" 
d="M536 739h40v-503c0 -121 -57 -203 -148 -235c-87 -41 -131 -101 -131 -150c0 -40 31 -73 71 -73c15 0 41 5 69 25l15 -25c-27 -21 -56 -31 -86 -31c-61 0 -103 43 -103 104c0 48 27 95 91 136h-17c-143 0 -240 92 -240 249v503h40v-499c0 -134 74 -213 200 -213
s199 79 199 213v499z" />
    <glyph glyph-name="Uring" unicode="&#x16e;" horiz-adv-x="673" 
d="M337 790c-62 0 -110 48 -110 107c0 60 48 109 110 109s110 -49 110 -109c0 -59 -48 -107 -110 -107zM337 819c45 0 80 34 80 78c0 45 -35 80 -80 80s-80 -35 -80 -80c0 -44 35 -78 80 -78zM337 -13c-143 0 -240 92 -240 249v503h40v-499c0 -134 74 -213 200 -213
s199 79 199 213v499h40v-503c0 -157 -96 -249 -239 -249z" />
    <glyph glyph-name="Utilde" unicode="&#x168;" horiz-adv-x="673" 
d="M202 816l-26 11c14 45 54 83 102 83c66 0 82 -64 133 -64c32 0 60 33 69 58l24 -10c-11 -43 -48 -83 -97 -83c-68 0 -84 62 -134 62c-35 0 -62 -34 -71 -57zM337 -13c-143 0 -240 92 -240 249v503h40v-499c0 -134 74 -213 200 -213s199 79 199 213v499h40v-503
c0 -157 -96 -249 -239 -249z" />
    <glyph glyph-name="V" unicode="V" horiz-adv-x="636" 
d="M578 739h41l-290 -739h-20l-294 739h41l263 -670z" />
    <glyph glyph-name="W" unicode="W" horiz-adv-x="1000" 
d="M261 0l-242 739h37l214 -666l221 666h18l223 -665l212 665h36l-239 -739h-19l-222 663l-220 -663h-19z" />
    <glyph glyph-name="Wacute" unicode="&#x1e82;" horiz-adv-x="1000" 
d="M492 798l60 156h53l-80 -156h-33zM261 0l-242 739h37l214 -666l221 666h18l223 -665l212 665h36l-239 -739h-19l-222 663l-220 -663h-19z" />
    <glyph glyph-name="Wcircumflex" unicode="&#x174;" horiz-adv-x="1000" 
d="M353 796l137 151h19l137 -151h-42l-105 114l-105 -114h-41zM261 0l-242 739h37l214 -666l221 666h18l223 -665l212 665h36l-239 -739h-19l-222 663l-220 -663h-19z" />
    <glyph glyph-name="Wdieresis" unicode="&#x1e84;" horiz-adv-x="1000" 
d="M411 811c-27 0 -47 20 -47 46c0 23 20 45 47 45s47 -22 47 -45c0 -26 -20 -46 -47 -46zM587 811c-27 0 -47 20 -47 46c0 23 20 45 47 45s47 -22 47 -45c0 -26 -20 -46 -47 -46zM261 0l-242 739h37l214 -666l221 666h18l223 -665l212 665h36l-239 -739h-19l-222 663
l-220 -663h-19z" />
    <glyph glyph-name="Wgrave" unicode="&#x1e80;" horiz-adv-x="1000" 
d="M517 796h-33l-80 156h53zM261 0l-242 739h37l214 -666l221 666h18l223 -665l212 665h36l-239 -739h-19l-222 663l-220 -663h-19z" />
    <glyph glyph-name="X" unicode="X" horiz-adv-x="571" 
d="M14 0l248 376l-237 363h48l213 -326l214 326h48l-238 -363l245 -376h-48l-222 340l-223 -340h-48z" />
    <glyph glyph-name="Y" unicode="Y" 
d="M558 739l-248 -429v-310h-40v310l-247 429h44l223 -394l224 394h44z" />
    <glyph glyph-name="Yacute" unicode="&#xdd;" 
d="M272 798l60 156h53l-80 -156h-33zM558 739l-248 -429v-310h-40v310l-247 429h44l223 -394l224 394h44z" />
    <glyph glyph-name="Ycircumflex" unicode="&#x176;" 
d="M145 796l137 151h19l137 -151h-42l-105 114l-105 -114h-41zM558 739l-248 -429v-310h-40v310l-247 429h44l223 -394l224 394h44z" />
    <glyph glyph-name="Ydieresis" unicode="&#x178;" 
d="M203 811c-27 0 -47 20 -47 46c0 23 20 45 47 45s47 -22 47 -45c0 -26 -20 -46 -47 -46zM379 811c-27 0 -47 20 -47 46c0 23 20 45 47 45s47 -22 47 -45c0 -26 -20 -46 -47 -46zM558 739l-248 -429v-310h-40v310l-247 429h44l223 -394l224 394h44z" />
    <glyph glyph-name="Ygrave" unicode="&#x1ef2;" 
d="M306 796h-33l-80 156h53zM558 739l-248 -429v-310h-40v310l-247 429h44l223 -394l224 394h44z" />
    <glyph glyph-name="Z" unicode="Z" horiz-adv-x="552" 
d="M23 0v25l445 677h-426v37h470v-39l-434 -663h445v-37h-500z" />
    <glyph glyph-name="Zacute" unicode="&#x179;" horiz-adv-x="552" 
d="M268 798l60 156h53l-80 -156h-33zM23 0v25l445 677h-426v37h470v-39l-434 -663h445v-37h-500z" />
    <glyph glyph-name="Zcaron" unicode="&#x17d;" horiz-adv-x="552" 
d="M141 949h41l105 -114l105 114h42l-137 -151h-19zM23 0v25l445 677h-426v37h470v-39l-434 -663h445v-37h-500z" />
    <glyph glyph-name="Zdotaccent" unicode="&#x17b;" horiz-adv-x="552" 
d="M285 813c-23 0 -42 18 -42 41c0 24 19 42 42 42s41 -18 41 -42c0 -23 -18 -41 -41 -41zM23 0v25l445 677h-426v37h470v-39l-434 -663h445v-37h-500z" />
    <glyph glyph-name="Iacute_J.loclNLD" horiz-adv-x="766" 
d="M115 798l60 156h53l-80 -156h-33zM642 798l60 156h53l-80 -156h-33zM110 739h40v-739h-40v739zM464 -12c-78 0 -152 31 -207 100l27 26c40 -52 103 -89 179 -89c103 0 178 76 178 193v521h40v-510c0 -167 -102 -241 -217 -241z" />
    <glyph glyph-name="J.loclNLD" horiz-adv-x="535" 
d="M411 798l60 156h53l-80 -156h-33zM233 -12c-78 0 -152 31 -207 100l27 26c40 -52 103 -89 179 -89c103 0 178 76 178 193v521h40v-510c0 -167 -102 -241 -217 -241z" />
    <glyph glyph-name="a" unicode="a" horiz-adv-x="661" 
d="M536 535h40v-535h-40v123c-42 -82 -124 -136 -225 -136c-152 0 -264 124 -264 283c0 158 112 278 264 278c101 0 183 -52 225 -133v120zM310 24c134 0 230 111 230 247c0 132 -96 240 -230 240c-131 0 -223 -105 -223 -242s92 -245 223 -245z" />
    <glyph glyph-name="aacute" unicode="&#xe1;" horiz-adv-x="661" 
d="M415 776l-80 -156h-33l60 156h53zM536 535h40v-535h-40v123c-42 -82 -124 -136 -225 -136c-152 0 -264 124 -264 283c0 158 112 278 264 278c101 0 183 -52 225 -133v120zM310 24c134 0 230 111 230 247c0 132 -96 240 -230 240c-131 0 -223 -105 -223 -242
s92 -245 223 -245z" />
    <glyph glyph-name="abreve" unicode="&#x103;" horiz-adv-x="661" 
d="M313 616c-97 0 -156 58 -156 152h37c2 -87 50 -120 119 -120s117 33 119 120h38c0 -94 -60 -152 -157 -152zM536 535h40v-535h-40v123c-42 -82 -124 -136 -225 -136c-152 0 -264 124 -264 283c0 158 112 278 264 278c101 0 183 -52 225 -133v120zM310 24
c134 0 230 111 230 247c0 132 -96 240 -230 240c-131 0 -223 -105 -223 -242s92 -245 223 -245z" />
    <glyph glyph-name="acircumflex" unicode="&#xe2;" horiz-adv-x="661" 
d="M322 733l-105 -114h-41l137 151h19l137 -151h-42zM536 535h40v-535h-40v123c-42 -82 -124 -136 -225 -136c-152 0 -264 124 -264 283c0 158 112 278 264 278c101 0 183 -52 225 -133v120zM310 24c134 0 230 111 230 247c0 132 -96 240 -230 240
c-131 0 -223 -105 -223 -242s92 -245 223 -245z" />
    <glyph glyph-name="adieresis" unicode="&#xe4;" horiz-adv-x="661" 
d="M234 631c-27 0 -47 20 -47 46c0 23 20 45 47 45s47 -22 47 -45c0 -26 -20 -46 -47 -46zM410 631c-27 0 -47 20 -47 46c0 23 20 45 47 45s47 -22 47 -45c0 -26 -20 -46 -47 -46zM536 535h40v-535h-40v123c-42 -82 -124 -136 -225 -136c-152 0 -264 124 -264 283
c0 158 112 278 264 278c101 0 183 -52 225 -133v120zM310 24c134 0 230 111 230 247c0 132 -96 240 -230 240c-131 0 -223 -105 -223 -242s92 -245 223 -245z" />
    <glyph glyph-name="agrave" unicode="&#xe0;" horiz-adv-x="661" 
d="M348 620h-33l-80 156h53zM536 535h40v-535h-40v123c-42 -82 -124 -136 -225 -136c-152 0 -264 124 -264 283c0 158 112 278 264 278c101 0 183 -52 225 -133v120zM310 24c134 0 230 111 230 247c0 132 -96 240 -230 240c-131 0 -223 -105 -223 -242s92 -245 223 -245z
" />
    <glyph glyph-name="amacron" unicode="&#x101;" horiz-adv-x="661" 
d="M472 708v-36l-301 -1v37h301zM536 535h40v-535h-40v123c-42 -82 -124 -136 -225 -136c-152 0 -264 124 -264 283c0 158 112 278 264 278c101 0 183 -52 225 -133v120zM310 24c134 0 230 111 230 247c0 132 -96 240 -230 240c-131 0 -223 -105 -223 -242s92 -245 223 -245
z" />
    <glyph glyph-name="aogonek" unicode="&#x105;" horiz-adv-x="653" 
d="M575 -203l15 -25c-27 -21 -56 -31 -86 -31c-61 0 -103 43 -103 104c0 57 40 115 135 161v117c-42 -82 -124 -136 -225 -136c-152 0 -264 124 -264 283c0 158 112 278 264 278c101 0 183 -52 225 -133v120h40v-535c-94 -42 -141 -104 -141 -155c0 -40 31 -73 71 -73
c15 0 41 5 69 25zM310 24c134 0 230 111 230 247c0 132 -96 240 -230 240c-131 0 -223 -105 -223 -242s92 -245 223 -245z" />
    <glyph glyph-name="aring" unicode="&#xe5;" horiz-adv-x="661" 
d="M321 607c-62 0 -110 48 -110 107c0 60 48 109 110 109s110 -49 110 -109c0 -59 -48 -107 -110 -107zM321 794c-45 0 -80 -35 -80 -80c0 -44 35 -78 80 -78s80 34 80 78c0 45 -35 80 -80 80zM536 535h40v-535h-40v123c-42 -82 -124 -136 -225 -136
c-152 0 -264 124 -264 283c0 158 112 278 264 278c101 0 183 -52 225 -133v120zM310 24c134 0 230 111 230 247c0 132 -96 240 -230 240c-131 0 -223 -105 -223 -242s92 -245 223 -245z" />
    <glyph glyph-name="atilde" unicode="&#xe3;" horiz-adv-x="661" 
d="M259 686c-32 0 -57 -31 -65 -52l-23 10c12 41 49 75 92 75c60 0 75 -58 121 -58c29 0 55 30 63 53l22 -9c-10 -39 -44 -76 -88 -76c-62 0 -77 57 -122 57zM536 535h40v-535h-40v123c-42 -82 -124 -136 -225 -136c-152 0 -264 124 -264 283c0 158 112 278 264 278
c101 0 183 -52 225 -133v120zM310 24c134 0 230 111 230 247c0 132 -96 240 -230 240c-131 0 -223 -105 -223 -242s92 -245 223 -245z" />
    <glyph glyph-name="ae" unicode="&#xe6;" horiz-adv-x="981" 
d="M936 301c0 -22 -2 -35 -3 -47h-439c6 -137 85 -229 220 -229c70 0 145 27 189 66l20 -30c-44 -38 -122 -73 -210 -73c-133 0 -210 75 -241 170c-39 -113 -142 -171 -250 -171c-104 0 -186 54 -186 154c0 114 107 150 236 150h180c-12 169 -83 220 -198 220
c-62 0 -132 -22 -176 -57l-20 29c48 38 126 65 196 65c95 0 189 -41 222 -157c37 95 118 157 228 157c127 0 232 -91 232 -247zM704 511c-120 0 -201 -87 -209 -220h401c1 135 -76 220 -192 220zM223 24c115 0 223 78 230 230h-179c-150 0 -198 -45 -198 -111
c0 -75 60 -119 147 -119z" />
    <glyph glyph-name="b" unicode="b" horiz-adv-x="664" 
d="M353 547c152 0 264 -124 264 -280c0 -157 -112 -281 -264 -281c-103 0 -186 56 -228 142v-128h-40v753h40v-345c42 84 125 139 228 139zM354 23c131 0 223 108 223 244s-92 243 -223 243c-134 0 -230 -108 -230 -240c0 -136 96 -247 230 -247z" />
    <glyph glyph-name="c" unicode="c" horiz-adv-x="593" 
d="M316 -12c-156 0 -268 116 -268 279c0 166 117 281 274 281c106 0 197 -52 238 -137l-33 -18c-35 72 -113 118 -205 118c-134 0 -234 -98 -234 -244c0 -144 97 -242 228 -242c93 0 173 50 209 119l32 -20c-44 -85 -138 -136 -241 -136z" />
    <glyph glyph-name="cacute" unicode="&#x107;" horiz-adv-x="593" 
d="M298 620l60 156h53l-80 -156h-33zM316 -12c-156 0 -268 116 -268 279c0 166 117 281 274 281c106 0 197 -52 238 -137l-33 -18c-35 72 -113 118 -205 118c-134 0 -234 -98 -234 -244c0 -144 97 -242 228 -242c93 0 173 50 209 119l32 -20c-44 -85 -138 -136 -241 -136z
" />
    <glyph glyph-name="ccaron" unicode="&#x10d;" horiz-adv-x="593" 
d="M171 773h41l105 -114l105 114h42l-137 -151h-19zM316 -12c-156 0 -268 116 -268 279c0 166 117 281 274 281c106 0 197 -52 238 -137l-33 -18c-35 72 -113 118 -205 118c-134 0 -234 -98 -234 -244c0 -144 97 -242 228 -242c93 0 173 50 209 119l32 -20
c-44 -85 -138 -136 -241 -136z" />
    <glyph glyph-name="ccedilla" unicode="&#xe7;" horiz-adv-x="593" 
d="M316 25c93 0 173 50 209 119l32 -20c-44 -85 -137 -135 -239 -136l-20 -50c12 3 26 3 37 3c51 0 94 -29 94 -84c0 -54 -44 -105 -127 -105c-33 0 -64 8 -95 22l12 29c26 -13 58 -20 83 -20c59 0 93 38 93 73c0 28 -20 54 -68 54h-62l-7 13l25 67
c-139 15 -235 126 -235 277c0 166 117 281 274 281c106 0 197 -52 238 -137l-33 -18c-35 72 -113 118 -205 118c-134 0 -234 -98 -234 -244c0 -144 97 -242 228 -242z" />
    <glyph glyph-name="ccircumflex" unicode="&#x109;" horiz-adv-x="593" 
d="M172 620l137 151h19l137 -151h-42l-105 114l-105 -114h-41zM316 -12c-156 0 -268 116 -268 279c0 166 117 281 274 281c106 0 197 -52 238 -137l-33 -18c-35 72 -113 118 -205 118c-134 0 -234 -98 -234 -244c0 -144 97 -242 228 -242c93 0 173 50 209 119l32 -20
c-44 -85 -138 -136 -241 -136z" />
    <glyph glyph-name="cdotaccent" unicode="&#x10b;" horiz-adv-x="593" 
d="M318 623c-23 0 -42 18 -42 41c0 24 19 42 42 42s41 -18 41 -42c0 -23 -18 -41 -41 -41zM316 -12c-156 0 -268 116 -268 279c0 166 117 281 274 281c106 0 197 -52 238 -137l-33 -18c-35 72 -113 118 -205 118c-134 0 -234 -98 -234 -244c0 -144 97 -242 228 -242
c93 0 173 50 209 119l32 -20c-44 -85 -138 -136 -241 -136z" />
    <glyph glyph-name="d" unicode="d" horiz-adv-x="664" 
d="M539 753h40v-753h-40v128c-42 -86 -125 -142 -228 -142c-152 0 -264 124 -264 281c0 156 112 280 264 280c103 0 186 -55 228 -139v345zM310 23c134 0 230 111 230 247c0 132 -96 240 -230 240c-131 0 -223 -107 -223 -243s92 -244 223 -244z" />
    <glyph glyph-name="eth" unicode="&#xf0;" horiz-adv-x="657" 
d="M458 704c74 -87 142 -206 142 -358c0 -213 -109 -359 -287 -359c-153 0 -265 117 -265 268c0 150 112 267 265 267c115 0 207 -66 247 -160c-3 100 -38 185 -83 254c-16 24 -33 46 -50 67l-122 -82l-24 31l120 79c-44 46 -87 80 -116 103l25 29c30 -24 76 -60 123 -110
l120 79l21 -30zM313 24c133 0 229 101 229 231s-96 230 -229 230s-226 -100 -226 -230s93 -231 226 -231z" />
    <glyph glyph-name="dcaron" unicode="&#x10f;" horiz-adv-x="692" 
d="M706 776h50l-73 -151h-34zM539 408v345h40v-753h-40v128c-42 -86 -125 -142 -228 -142c-152 0 -264 124 -264 281c0 156 112 280 264 280c103 0 186 -55 228 -139zM310 23c134 0 230 111 230 247c0 132 -96 240 -230 240c-131 0 -223 -107 -223 -243s92 -244 223 -244z
" />
    <glyph glyph-name="dcroat" unicode="&#x111;" horiz-adv-x="662" 
d="M649 651v-37h-70v-614h-40v128c-42 -86 -125 -142 -228 -142c-152 0 -264 124 -264 281c0 156 112 280 264 280c103 0 186 -55 228 -139v206h-197v37h197v102h40v-102h70zM310 23c134 0 230 111 230 247c0 132 -96 240 -230 240c-131 0 -223 -107 -223 -243
s92 -244 223 -244z" />
    <glyph glyph-name="e" unicode="e" horiz-adv-x="601" 
d="M556 301c0 -22 -2 -35 -3 -47h-465c6 -137 91 -229 235 -229c74 0 153 27 200 66l21 -30c-46 -38 -129 -73 -222 -73c-194 0 -274 142 -274 281c0 159 102 279 264 279c135 0 244 -91 244 -247zM312 511c-127 0 -215 -87 -223 -220h427c0 135 -82 220 -204 220z" />
    <glyph glyph-name="eacute" unicode="&#xe9;" horiz-adv-x="601" 
d="M398 776l-80 -156h-33l60 156h53zM556 301c0 -22 -2 -35 -3 -47h-465c6 -137 91 -229 235 -229c74 0 153 27 200 66l21 -30c-46 -38 -129 -73 -222 -73c-194 0 -274 142 -274 281c0 159 102 279 264 279c135 0 244 -91 244 -247zM312 511c-127 0 -215 -87 -223 -220h427
c0 135 -82 220 -204 220z" />
    <glyph glyph-name="ebreve" unicode="&#x115;" horiz-adv-x="601" 
d="M315 620c-97 0 -156 58 -156 152h37c2 -87 50 -120 119 -120s117 33 119 120h38c0 -94 -60 -152 -157 -152zM556 301c0 -22 -2 -35 -3 -47h-465c6 -137 91 -229 235 -229c74 0 153 27 200 66l21 -30c-46 -38 -129 -73 -222 -73c-194 0 -274 142 -274 281
c0 159 102 279 264 279c135 0 244 -91 244 -247zM312 511c-127 0 -215 -87 -223 -220h427c0 135 -82 220 -204 220z" />
    <glyph glyph-name="ecaron" unicode="&#x11b;" horiz-adv-x="601" 
d="M321 621h-19l-137 151h41l105 -114l105 114h42zM556 301c0 -22 -2 -35 -3 -47h-465c6 -137 91 -229 235 -229c74 0 153 27 200 66l21 -30c-46 -38 -129 -73 -222 -73c-194 0 -274 142 -274 281c0 159 102 279 264 279c135 0 244 -91 244 -247zM312 511
c-127 0 -215 -87 -223 -220h427c0 135 -82 220 -204 220z" />
    <glyph glyph-name="ecircumflex" unicode="&#xea;" horiz-adv-x="601" 
d="M305 733l-105 -114h-41l137 151h19l137 -151h-42zM556 301c0 -22 -2 -35 -3 -47h-465c6 -137 91 -229 235 -229c74 0 153 27 200 66l21 -30c-46 -38 -129 -73 -222 -73c-194 0 -274 142 -274 281c0 159 102 279 264 279c135 0 244 -91 244 -247zM312 511
c-127 0 -215 -87 -223 -220h427c0 135 -82 220 -204 220z" />
    <glyph glyph-name="edieresis" unicode="&#xeb;" horiz-adv-x="601" 
d="M229 630c-27 0 -47 20 -47 46c0 23 20 45 47 45s47 -22 47 -45c0 -26 -20 -46 -47 -46zM405 630c-27 0 -47 20 -47 46c0 23 20 45 47 45s47 -22 47 -45c0 -26 -20 -46 -47 -46zM556 301c0 -22 -2 -35 -3 -47h-465c6 -137 91 -229 235 -229c74 0 153 27 200 66l21 -30
c-46 -38 -129 -73 -222 -73c-194 0 -274 142 -274 281c0 159 102 279 264 279c135 0 244 -91 244 -247zM312 511c-127 0 -215 -87 -223 -220h427c0 135 -82 220 -204 220z" />
    <glyph glyph-name="edotaccent" unicode="&#x117;" horiz-adv-x="601" 
d="M314 623c-23 0 -42 18 -42 41c0 24 19 42 42 42s41 -18 41 -42c0 -23 -18 -41 -41 -41zM556 301c0 -22 -2 -35 -3 -47h-465c6 -137 91 -229 235 -229c74 0 153 27 200 66l21 -30c-46 -38 -129 -73 -222 -73c-194 0 -274 142 -274 281c0 159 102 279 264 279
c135 0 244 -91 244 -247zM312 511c-127 0 -215 -87 -223 -220h427c0 135 -82 220 -204 220z" />
    <glyph glyph-name="egrave" unicode="&#xe8;" horiz-adv-x="601" 
d="M331 620h-33l-80 156h53zM556 301c0 -22 -2 -35 -3 -47h-465c6 -137 91 -229 235 -229c74 0 153 27 200 66l21 -30c-46 -38 -129 -73 -222 -73c-194 0 -274 142 -274 281c0 159 102 279 264 279c135 0 244 -91 244 -247zM312 511c-127 0 -215 -87 -223 -220h427
c0 135 -82 220 -204 220z" />
    <glyph glyph-name="emacron" unicode="&#x113;" horiz-adv-x="601" 
d="M455 708v-36l-301 -1v37h301zM556 301c0 -22 -2 -35 -3 -47h-465c6 -137 91 -229 235 -229c74 0 153 27 200 66l21 -30c-46 -38 -129 -73 -222 -73c-194 0 -274 142 -274 281c0 159 102 279 264 279c135 0 244 -91 244 -247zM312 511c-127 0 -215 -87 -223 -220h427
c0 135 -82 220 -204 220z" />
    <glyph glyph-name="eogonek" unicode="&#x119;" horiz-adv-x="601" 
d="M556 301c0 -22 -2 -35 -3 -47h-465c6 -137 91 -229 235 -229c74 0 153 27 200 66l21 -30c-27 -22 -67 -44 -114 -57c-92 -42 -138 -104 -138 -154c0 -40 31 -73 71 -73c15 0 41 5 69 25l15 -25c-27 -21 -56 -31 -86 -31c-61 0 -103 43 -103 104c0 49 29 97 95 139
c-10 -1 -20 -1 -31 -1c-194 0 -274 142 -274 281c0 159 102 279 264 279c135 0 244 -91 244 -247zM312 511c-127 0 -215 -87 -223 -220h427c0 135 -82 220 -204 220z" />
    <glyph glyph-name="f" unicode="f" horiz-adv-x="378" 
d="M294 731c-87 0 -138 -54 -138 -149v-47h220v-37h-220v-498h-40v498h-94v37h94v47c0 121 73 186 178 186c42 0 81 -12 114 -30l-17 -31c-29 16 -62 24 -97 24z" />
    <glyph glyph-name="g" unicode="g" horiz-adv-x="661" 
d="M537 535h39v-493c0 -166 -103 -269 -271 -269c-87 0 -161 27 -227 76l22 32c66 -49 133 -71 206 -71c144 0 230 87 230 232v90c-42 -81 -124 -134 -224 -134c-153 0 -265 122 -265 275s112 275 264 275c102 0 184 -52 226 -132v119zM310 35c134 0 230 108 230 241
c0 130 -96 235 -230 235c-131 0 -223 -104 -223 -238c0 -133 92 -238 223 -238z" />
    <glyph glyph-name="gbreve" unicode="&#x11f;" horiz-adv-x="661" 
d="M306 616c-97 0 -156 58 -156 152h37c2 -87 50 -120 119 -120s117 33 119 120h38c0 -94 -60 -152 -157 -152zM537 535h39v-493c0 -166 -103 -269 -271 -269c-87 0 -161 27 -227 76l22 32c66 -49 133 -71 206 -71c144 0 230 87 230 232v90c-42 -81 -124 -134 -224 -134
c-153 0 -265 122 -265 275s112 275 264 275c102 0 184 -52 226 -132v119zM310 35c134 0 230 108 230 241c0 130 -96 235 -230 235c-131 0 -223 -104 -223 -238c0 -133 92 -238 223 -238z" />
    <glyph glyph-name="gcircumflex" unicode="&#x11d;" horiz-adv-x="661" 
d="M317 734l-105 -114h-41l137 151h19l137 -151h-42zM537 535h39v-493c0 -166 -103 -269 -271 -269c-87 0 -161 27 -227 76l22 32c66 -49 133 -71 206 -71c144 0 230 87 230 232v90c-42 -81 -124 -134 -224 -134c-153 0 -265 122 -265 275s112 275 264 275
c102 0 184 -52 226 -132v119zM310 35c134 0 230 108 230 241c0 130 -96 235 -230 235c-131 0 -223 -104 -223 -238c0 -133 92 -238 223 -238z" />
    <glyph glyph-name="gcommaaccent" unicode="&#x123;" horiz-adv-x="661" 
d="M304 601c-25 0 -45 21 -45 51c0 42 34 92 95 130l12 -18c-44 -28 -73 -63 -82 -95c10 10 23 11 28 11c18 0 36 -15 36 -37c0 -24 -18 -42 -44 -42zM537 535h39v-493c0 -166 -103 -269 -271 -269c-87 0 -161 27 -227 76l22 32c66 -49 133 -71 206 -71
c144 0 230 87 230 232v90c-42 -81 -124 -134 -224 -134c-153 0 -265 122 -265 275s112 275 264 275c102 0 184 -52 226 -132v119zM310 35c134 0 230 108 230 241c0 130 -96 235 -230 235c-131 0 -223 -104 -223 -238c0 -133 92 -238 223 -238z" />
    <glyph glyph-name="gdotaccent" unicode="&#x121;" horiz-adv-x="661" 
d="M315 623c-23 0 -42 18 -42 41c0 24 19 42 42 42s41 -18 41 -42c0 -23 -18 -41 -41 -41zM537 535h39v-493c0 -166 -103 -269 -271 -269c-87 0 -161 27 -227 76l22 32c66 -49 133 -71 206 -71c144 0 230 87 230 232v90c-42 -81 -124 -134 -224 -134
c-153 0 -265 122 -265 275s112 275 264 275c102 0 184 -52 226 -132v119zM310 35c134 0 230 108 230 241c0 130 -96 235 -230 235c-131 0 -223 -104 -223 -238c0 -133 92 -238 223 -238z" />
    <glyph glyph-name="h" unicode="h" horiz-adv-x="610" 
d="M85 0v753h38v-325c31 82 104 121 196 121c117 0 213 -78 213 -227v-322h-40v322c0 113 -63 190 -173 190c-77 0 -194 -43 -194 -210v-302h-40z" />
    <glyph glyph-name="hbar" unicode="&#x127;" horiz-adv-x="630" 
d="M339 549c117 0 213 -78 213 -227v-322h-40v322c0 113 -63 190 -173 190c-77 0 -194 -43 -194 -210v-302h-40v614h-93v37h93v102h38v-102h176v-37h-176v-186c31 82 104 121 196 121z" />
    <glyph glyph-name="hcircumflex" unicode="&#x125;" horiz-adv-x="630" 
d="M-21 798l137 151h19l137 -151h-42l-105 114l-105 -114h-41zM105 0v753h38v-325c31 82 104 121 196 121c117 0 213 -78 213 -227v-322h-40v322c0 113 -63 190 -173 190c-77 0 -194 -43 -194 -210v-302h-40z" />
    <glyph glyph-name="i" unicode="i" horiz-adv-x="210" 
d="M100 623c-23 0 -42 18 -42 41c0 24 19 42 42 42s41 -18 41 -42c0 -23 -18 -41 -41 -41zM119 0h-40v535h40v-535z" />
    <glyph glyph-name="dotlessi" unicode="&#x131;" horiz-adv-x="210" 
d="M125 0h-40v535h40v-535z" />
    <glyph glyph-name="iacute" unicode="&#xed;" horiz-adv-x="216" 
d="M91 620l60 156h53l-80 -156h-33zM125 0h-40v535h40v-535z" />
    <glyph glyph-name="ibreve" unicode="&#x12d;" horiz-adv-x="210" 
d="M99 617c-97 0 -156 58 -156 152h37c2 -87 50 -120 119 -120s117 33 119 120h38c0 -94 -60 -152 -157 -152zM119 0h-40v535h40v-535z" />
    <glyph glyph-name="icircumflex" unicode="&#xee;" horiz-adv-x="210" 
d="M-47 619l137 151h19l137 -151h-42l-105 114l-105 -114h-41zM119 0h-40v535h40v-535z" />
    <glyph glyph-name="idieresis" unicode="&#xef;" horiz-adv-x="210" 
d="M12 631c-27 0 -47 20 -47 46c0 23 20 45 47 45s47 -22 47 -45c0 -26 -20 -46 -47 -46zM188 631c-27 0 -47 20 -47 46c0 23 20 45 47 45s47 -22 47 -45c0 -26 -20 -46 -47 -46zM119 0h-40v535h40v-535z" />
    <glyph glyph-name="i.loclTRK" horiz-adv-x="210" 
d="M101 623c-23 0 -42 18 -42 41c0 24 19 42 42 42s41 -18 41 -42c0 -23 -18 -41 -41 -41zM119 0h-40v535h40v-535z" />
    <glyph glyph-name="igrave" unicode="&#xec;" horiz-adv-x="210" 
d="M119 620h-33l-80 156h53zM119 0h-40v535h40v-535z" />
    <glyph glyph-name="ij" unicode="&#x133;" horiz-adv-x="483" 
d="M100 623c-23 0 -42 18 -42 41c0 24 19 42 42 42s41 -18 41 -42c0 -23 -18 -41 -41 -41zM353 623c-23 0 -42 18 -42 41c0 24 19 42 42 42s41 -18 41 -42c0 -23 -18 -41 -41 -41zM119 0h-40v535h40v-535zM223 -228c-39 0 -77 13 -98 25l14 34c17 -9 50 -22 85 -22
c67 0 108 44 108 126v600h40v-600c0 -107 -61 -163 -149 -163z" />
    <glyph glyph-name="imacron" unicode="&#x12b;" horiz-adv-x="210" 
d="M-50 672v37h301v-36zM119 0h-40v535h40v-535z" />
    <glyph glyph-name="iogonek" unicode="&#x12f;" horiz-adv-x="211" 
d="M101 623c-23 0 -42 18 -42 41c0 24 19 42 42 42s41 -18 41 -42c0 -23 -18 -41 -41 -41zM50 -228c15 0 41 5 69 25l15 -25c-27 -21 -56 -31 -86 -31c-61 0 -103 43 -103 104c0 57 40 115 135 161v529h40v-535c-94 -42 -141 -104 -141 -155c0 -40 31 -73 71 -73z" />
    <glyph glyph-name="itilde" unicode="&#x129;" horiz-adv-x="210" 
d="M-23 634l-23 10c12 41 49 75 92 75c60 0 75 -58 121 -58c29 0 55 30 63 53l22 -9c-10 -39 -44 -76 -88 -76c-62 0 -77 57 -122 57c-32 0 -57 -31 -65 -52zM119 0h-40v535h40v-535z" />
    <glyph glyph-name="j" unicode="j" horiz-adv-x="234" 
d="M130 623c-23 0 -42 18 -42 41c0 24 19 42 42 42s41 -18 41 -42c0 -23 -18 -41 -41 -41zM0 -228c-39 0 -77 13 -98 25l14 34c17 -9 50 -22 85 -22c67 0 108 44 108 126v600h40v-600c0 -107 -61 -163 -149 -163z" />
    <glyph glyph-name="uni0237" unicode="&#x237;" horiz-adv-x="234" 
d="M0 -228c-39 0 -77 13 -98 25l14 34c17 -9 50 -22 85 -22c67 0 108 44 108 126v600h40v-600c0 -107 -61 -163 -149 -163z" />
    <glyph glyph-name="jacute" horiz-adv-x="234" 
d="M111 620l60 156h53l-80 -156h-33zM0 -228c-39 0 -77 13 -98 25l14 34c17 -9 50 -22 85 -22c67 0 108 44 108 126v600h40v-600c0 -107 -61 -163 -149 -163z" />
    <glyph glyph-name="jcircumflex" unicode="&#x135;" horiz-adv-x="234" 
d="M-18 619l137 151h19l137 -151h-42l-105 114l-105 -114h-41zM0 -228c-39 0 -77 13 -98 25l14 34c17 -9 50 -22 85 -22c67 0 108 44 108 126v600h40v-600c0 -107 -61 -163 -149 -163z" />
    <glyph glyph-name="k" unicode="k" horiz-adv-x="486" 
d="M442 0l-249 297l-68 -62v-235h-40v753h40v-469l281 251h52l-237 -214l271 -321h-50z" />
    <glyph glyph-name="kcommaaccent" unicode="&#x137;" horiz-adv-x="486" 
d="M221 321l271 -321h-50l-249 297l-68 -62v-235h-40v753h40v-469l281 251h52zM270 -35c25 0 45 -21 45 -51c0 -42 -34 -92 -95 -130l-12 18c44 28 73 63 82 95c-10 -10 -23 -11 -28 -11c-18 0 -36 15 -36 37c0 24 18 42 44 42z" />
    <glyph glyph-name="kgreenlandic" unicode="&#x138;" horiz-adv-x="486" 
d="M442 0l-239 276l-78 -80v-196h-40v535h40v-290l281 290h52l-229 -233l263 -302h-50z" />
    <glyph glyph-name="l" unicode="l" horiz-adv-x="210" 
d="M125 0h-40v753h40v-753z" />
    <glyph glyph-name="lacute" unicode="&#x13a;" horiz-adv-x="206" 
d="M96 799l60 156h53l-80 -156h-33zM132 0h-40v753h40v-753z" />
    <glyph glyph-name="lcaron" unicode="&#x13e;" horiz-adv-x="229" 
d="M194 629l57 151h50l-73 -151h-34zM125 0h-40v753h40v-753z" />
    <glyph glyph-name="lcommaaccent" unicode="&#x13c;" horiz-adv-x="210" 
d="M136 753v-753h-40v753h40zM118 -44c25 0 45 -21 45 -51c0 -42 -34 -92 -95 -130l-12 18c44 28 73 63 82 95c-10 -10 -23 -11 -28 -11c-18 0 -36 15 -36 37c0 24 18 42 44 42z" />
    <glyph glyph-name="ldot" unicode="&#x140;" horiz-adv-x="266" 
d="M125 0h-40v753h40v-753zM235 315c-22 0 -40 17 -40 39c0 21 18 38 40 38c21 0 39 -16 39 -38c0 -23 -18 -39 -39 -39z" />
    <glyph glyph-name="lslash" unicode="&#x142;" horiz-adv-x="274" 
d="M247 481v-50l-79 -65v-366h-40v333l-78 -64v49l78 65v370h40v-337z" />
    <glyph glyph-name="m" unicode="m" horiz-adv-x="943" 
d="M666 549c104 0 199 -66 199 -205v-344h-40v344c0 104 -61 168 -157 168c-63 0 -173 -37 -173 -180v-332h-40v334c0 108 -61 178 -155 178c-64 0 -175 -39 -175 -210v-302h-40v535h39v-97c29 72 97 111 174 111c78 0 148 -40 178 -128c37 93 118 128 190 128z" />
    <glyph glyph-name="n" unicode="n" horiz-adv-x="610" 
d="M85 0v535h38v-107c31 82 104 121 196 121c117 0 213 -78 213 -227v-322h-40v322c0 113 -63 190 -173 190c-77 0 -194 -43 -194 -210v-302h-40z" />
    <glyph glyph-name="nacute" unicode="&#x144;" horiz-adv-x="610" 
d="M286 621l60 156h53l-80 -156h-33zM85 0v535h38v-107c31 82 104 121 196 121c117 0 213 -78 213 -227v-322h-40v322c0 113 -63 190 -173 190c-77 0 -194 -43 -194 -210v-302h-40z" />
    <glyph glyph-name="napostrophe" unicode="&#x149;" horiz-adv-x="623" 
d="M-23 629l57 151h50l-73 -151h-34zM98 0v535h38v-107c31 82 104 121 196 121c117 0 213 -78 213 -227v-322h-40v322c0 113 -63 190 -173 190c-77 0 -194 -43 -194 -210v-302h-40z" />
    <glyph glyph-name="ncaron" unicode="&#x148;" horiz-adv-x="610" 
d="M163 771h41l105 -114l105 114h42l-137 -151h-19zM85 0v535h38v-107c31 82 104 121 196 121c117 0 213 -78 213 -227v-322h-40v322c0 113 -63 190 -173 190c-77 0 -194 -43 -194 -210v-302h-40z" />
    <glyph glyph-name="ncommaaccent" unicode="&#x146;" horiz-adv-x="610" 
d="M319 549c117 0 213 -78 213 -227v-322h-40v322c0 113 -63 190 -173 190c-77 0 -194 -43 -194 -210v-302h-40v535h38v-107c31 82 104 121 196 121zM314 -36c25 0 45 -21 45 -51c0 -42 -34 -92 -95 -130l-12 18c44 28 73 63 82 95c-10 -10 -23 -11 -28 -11
c-18 0 -36 15 -36 37c0 24 18 42 44 42z" />
    <glyph glyph-name="eng" unicode="&#x14b;" horiz-adv-x="590" 
d="M306 -225l4 37c107 -13 162 39 162 156v365c0 109 -65 179 -164 179c-67 0 -183 -33 -183 -200v-312h-40v535h38v-97c31 72 102 111 183 111c109 0 206 -72 206 -216v-345c0 -165 -70 -227 -206 -213z" />
    <glyph glyph-name="ntilde" unicode="&#xf1;" horiz-adv-x="610" 
d="M178 634l-23 10c12 41 49 75 92 75c60 0 75 -58 121 -58c29 0 55 30 63 53l22 -9c-10 -39 -44 -76 -88 -76c-62 0 -77 57 -122 57c-32 0 -57 -31 -65 -52zM85 0v535h38v-107c31 82 104 121 196 121c117 0 213 -78 213 -227v-322h-40v322c0 113 -63 190 -173 190
c-77 0 -194 -43 -194 -210v-302h-40z" />
    <glyph glyph-name="o" unicode="o" horiz-adv-x="648" 
d="M324 -13c-159 0 -277 123 -277 281c0 157 118 280 277 280s277 -123 277 -280c0 -158 -118 -281 -277 -281zM324 24c138 0 237 107 237 244s-99 243 -237 243s-237 -106 -237 -243s99 -244 237 -244z" />
    <glyph glyph-name="oacute" unicode="&#xf3;" horiz-adv-x="648" 
d="M302 620l60 156h53l-80 -156h-33zM324 -13c-159 0 -277 123 -277 281c0 157 118 280 277 280s277 -123 277 -280c0 -158 -118 -281 -277 -281zM324 24c138 0 237 107 237 244s-99 243 -237 243s-237 -106 -237 -243s99 -244 237 -244z" />
    <glyph glyph-name="obreve" unicode="&#x14f;" horiz-adv-x="648" 
d="M327 618c-97 0 -156 58 -156 152h37c2 -87 50 -120 119 -120s117 33 119 120h38c0 -94 -60 -152 -157 -152zM324 -13c-159 0 -277 123 -277 281c0 157 118 280 277 280s277 -123 277 -280c0 -158 -118 -281 -277 -281zM324 24c138 0 237 107 237 244s-99 243 -237 243
s-237 -106 -237 -243s99 -244 237 -244z" />
    <glyph glyph-name="ocircumflex" unicode="&#xf4;" horiz-adv-x="648" 
d="M176 619l137 151h19l137 -151h-42l-105 114l-105 -114h-41zM324 -13c-159 0 -277 123 -277 281c0 157 118 280 277 280s277 -123 277 -280c0 -158 -118 -281 -277 -281zM324 24c138 0 237 107 237 244s-99 243 -237 243s-237 -106 -237 -243s99 -244 237 -244z" />
    <glyph glyph-name="odieresis" unicode="&#xf6;" horiz-adv-x="648" 
d="M236 631c-27 0 -47 20 -47 46c0 23 20 45 47 45s47 -22 47 -45c0 -26 -20 -46 -47 -46zM412 631c-27 0 -47 20 -47 46c0 23 20 45 47 45s47 -22 47 -45c0 -26 -20 -46 -47 -46zM324 -13c-159 0 -277 123 -277 281c0 157 118 280 277 280s277 -123 277 -280
c0 -158 -118 -281 -277 -281zM324 24c138 0 237 107 237 244s-99 243 -237 243s-237 -106 -237 -243s99 -244 237 -244z" />
    <glyph glyph-name="ograve" unicode="&#xf2;" horiz-adv-x="648" 
d="M348 620h-33l-80 156h53zM324 -13c-159 0 -277 123 -277 281c0 157 118 280 277 280s277 -123 277 -280c0 -158 -118 -281 -277 -281zM324 24c138 0 237 107 237 244s-99 243 -237 243s-237 -106 -237 -243s99 -244 237 -244z" />
    <glyph glyph-name="ohungarumlaut" unicode="&#x151;" horiz-adv-x="648" 
d="M240 620l48 156h51l-75 -156h-24zM380 620l65 156h52l-92 -156h-25zM324 -13c-159 0 -277 123 -277 281c0 157 118 280 277 280s277 -123 277 -280c0 -158 -118 -281 -277 -281zM324 24c138 0 237 107 237 244s-99 243 -237 243s-237 -106 -237 -243s99 -244 237 -244z
" />
    <glyph glyph-name="omacron" unicode="&#x14d;" horiz-adv-x="648" 
d="M173 671v37h301v-36zM324 -13c-159 0 -277 123 -277 281c0 157 118 280 277 280s277 -123 277 -280c0 -158 -118 -281 -277 -281zM324 24c138 0 237 107 237 244s-99 243 -237 243s-237 -106 -237 -243s99 -244 237 -244z" />
    <glyph glyph-name="oslash" unicode="&#xf8;" horiz-adv-x="648" 
d="M499 488c63 -51 102 -130 102 -220c0 -158 -118 -281 -277 -281c-54 0 -103 14 -144 39l-55 -80l-29 21l54 79c-64 51 -103 131 -103 222c0 157 118 280 277 280c54 0 103 -14 145 -39l49 72l32 -20zM87 268c0 -78 32 -146 85 -190l275 400c-35 21 -77 33 -123 33
c-138 0 -237 -106 -237 -243zM324 24c138 0 237 107 237 244c0 77 -31 144 -83 188l-277 -399c36 -21 77 -33 123 -33z" />
    <glyph glyph-name="otilde" unicode="&#xf5;" horiz-adv-x="648" 
d="M195 631l-23 10c12 41 49 75 92 75c60 0 75 -58 121 -58c29 0 55 30 63 53l22 -9c-10 -39 -44 -76 -88 -76c-62 0 -77 57 -122 57c-32 0 -57 -31 -65 -52zM324 -13c-159 0 -277 123 -277 281c0 157 118 280 277 280s277 -123 277 -280c0 -158 -118 -281 -277 -281z
M324 24c138 0 237 107 237 244s-99 243 -237 243s-237 -106 -237 -243s99 -244 237 -244z" />
    <glyph glyph-name="oe" unicode="&#x153;" horiz-adv-x="1064" 
d="M1018 301c0 -22 -2 -35 -3 -47h-439c6 -137 86 -229 222 -229c70 0 144 27 188 66l20 -30c-43 -38 -121 -73 -209 -73c-136 0 -212 78 -243 175c-38 -104 -130 -175 -244 -175c-150 0 -263 123 -263 281c0 157 113 280 263 280c114 0 206 -71 244 -174
c33 103 117 173 233 173c128 0 231 -91 231 -247zM310 25c130 0 224 107 224 244s-94 243 -224 243s-223 -106 -223 -243s93 -244 223 -244zM787 511c-120 0 -202 -87 -210 -220h403c0 135 -77 220 -193 220z" />
    <glyph glyph-name="p" unicode="p" horiz-adv-x="664" 
d="M353 549c152 0 264 -124 264 -281c0 -156 -112 -280 -264 -280c-103 0 -186 55 -228 139v-347h-40v755h40v-128c42 86 125 142 228 142zM354 25c131 0 223 107 223 243s-92 244 -223 244c-134 0 -230 -111 -230 -247c0 -132 96 -240 230 -240z" />
    <glyph glyph-name="thorn" unicode="&#xfe;" horiz-adv-x="664" 
d="M353 549c152 0 264 -124 264 -281c0 -156 -112 -280 -264 -280c-103 0 -186 55 -228 139v-347h-40v973h40v-346c42 86 125 142 228 142zM354 25c131 0 223 107 223 243s-92 244 -223 244c-134 0 -230 -111 -230 -247c0 -132 96 -240 230 -240z" />
    <glyph glyph-name="q" unicode="q" horiz-adv-x="664" 
d="M539 535h40v-755h-40v347c-42 -84 -125 -139 -228 -139c-152 0 -264 124 -264 280c0 157 112 281 264 281c103 0 186 -56 228 -142v128zM310 25c134 0 230 108 230 240c0 136 -96 247 -230 247c-131 0 -223 -108 -223 -244s92 -243 223 -243z" />
    <glyph glyph-name="r" unicode="r" horiz-adv-x="353" 
d="M85 0v535h37v-90c30 73 86 104 156 104c21 0 45 -3 68 -10l-6 -36c-18 6 -39 9 -58 9c-115 0 -157 -99 -157 -196v-316h-40z" />
    <glyph glyph-name="racute" unicode="&#x155;" horiz-adv-x="357" 
d="M177 620l60 156h53l-80 -156h-33zM85 0v535h37v-90c30 73 86 104 156 104c21 0 45 -3 68 -10l-6 -36c-18 6 -39 9 -58 9c-115 0 -157 -99 -157 -196v-316h-40z" />
    <glyph glyph-name="rcaron" unicode="&#x159;" horiz-adv-x="364" 
d="M60 772h41l105 -114l105 114h42l-137 -151h-19zM95 0v535h37v-90c30 73 86 104 156 104c21 0 45 -3 68 -10l-6 -36c-18 6 -39 9 -58 9c-115 0 -157 -99 -157 -196v-316h-40z" />
    <glyph glyph-name="rcommaaccent" unicode="&#x157;" horiz-adv-x="367" 
d="M288 549c21 0 45 -3 68 -10l-6 -36c-18 6 -39 9 -58 9c-115 0 -157 -99 -157 -196v-316h-40v535h37v-90c30 73 86 104 156 104zM118 -38c25 0 45 -21 45 -51c0 -42 -34 -92 -95 -130l-12 18c44 28 73 63 82 95c-10 -10 -23 -11 -28 -11c-18 0 -36 15 -36 37
c0 24 18 42 44 42z" />
    <glyph glyph-name="s" unicode="s" horiz-adv-x="438" 
d="M220 -12c-74 0 -147 35 -186 116l34 19c31 -63 84 -98 150 -98c84 0 138 55 138 117c0 51 -36 77 -80 98c-39 19 -88 34 -125 52c-56 28 -89 67 -89 123c0 75 58 138 160 138c67 0 123 -28 157 -83l-29 -20c-25 42 -68 66 -126 66c-80 0 -123 -44 -123 -100
c0 -47 30 -73 69 -92c35 -17 86 -34 130 -55c55 -26 96 -57 96 -123c0 -87 -71 -158 -176 -158z" />
    <glyph glyph-name="sacute" unicode="&#x15b;" horiz-adv-x="438" 
d="M196 620l60 156h53l-80 -156h-33zM220 -12c-74 0 -147 35 -186 116l34 19c31 -63 84 -98 150 -98c84 0 138 55 138 117c0 51 -36 77 -80 98c-39 19 -88 34 -125 52c-56 28 -89 67 -89 123c0 75 58 138 160 138c67 0 123 -28 157 -83l-29 -20c-25 42 -68 66 -126 66
c-80 0 -123 -44 -123 -100c0 -47 30 -73 69 -92c35 -17 86 -34 130 -55c55 -26 96 -57 96 -123c0 -87 -71 -158 -176 -158z" />
    <glyph glyph-name="scaron" unicode="&#x161;" horiz-adv-x="438" 
d="M72 771h41l105 -114l105 114h42l-137 -151h-19zM220 -12c-74 0 -147 35 -186 116l34 19c31 -63 84 -98 150 -98c84 0 138 55 138 117c0 51 -36 77 -80 98c-39 19 -88 34 -125 52c-56 28 -89 67 -89 123c0 75 58 138 160 138c67 0 123 -28 157 -83l-29 -20
c-25 42 -68 66 -126 66c-80 0 -123 -44 -123 -100c0 -47 30 -73 69 -92c35 -17 86 -34 130 -55c55 -26 96 -57 96 -123c0 -87 -71 -158 -176 -158z" />
    <glyph glyph-name="scedilla" unicode="&#x15f;" horiz-adv-x="438" 
d="M220 -12h-4l-20 -52c12 3 26 3 37 3c51 0 94 -29 94 -84c0 -54 -44 -105 -127 -105c-33 0 -64 8 -95 22l12 29c26 -13 58 -20 83 -20c59 0 93 38 93 73c0 28 -20 54 -68 54h-62l-7 13l26 70c-60 10 -116 46 -148 113l34 19c31 -63 84 -98 150 -98c84 0 138 55 138 117
c0 51 -36 77 -80 98c-39 19 -88 34 -125 52c-56 28 -89 67 -89 123c0 75 58 138 160 138c67 0 123 -28 157 -83l-29 -20c-25 42 -68 66 -126 66c-80 0 -123 -44 -123 -100c0 -47 30 -73 69 -92c35 -17 86 -34 130 -55c55 -26 96 -57 96 -123c0 -87 -71 -158 -176 -158z" />
    <glyph glyph-name="scircumflex" unicode="&#x15d;" horiz-adv-x="438" 
d="M74 620l137 151h19l137 -151h-42l-105 114l-105 -114h-41zM220 -12c-74 0 -147 35 -186 116l34 19c31 -63 84 -98 150 -98c84 0 138 55 138 117c0 51 -36 77 -80 98c-39 19 -88 34 -125 52c-56 28 -89 67 -89 123c0 75 58 138 160 138c67 0 123 -28 157 -83l-29 -20
c-25 42 -68 66 -126 66c-80 0 -123 -44 -123 -100c0 -47 30 -73 69 -92c35 -17 86 -34 130 -55c55 -26 96 -57 96 -123c0 -87 -71 -158 -176 -158z" />
    <glyph glyph-name="scommaaccent" unicode="&#x219;" horiz-adv-x="438" 
d="M300 269c55 -26 96 -57 96 -123c0 -87 -71 -158 -176 -158c-74 0 -147 35 -186 116l34 19c31 -63 84 -98 150 -98c84 0 138 55 138 117c0 51 -36 77 -80 98c-39 19 -88 34 -125 52c-56 28 -89 67 -89 123c0 75 58 138 160 138c67 0 123 -28 157 -83l-29 -20
c-25 42 -68 66 -126 66c-80 0 -123 -44 -123 -100c0 -47 30 -73 69 -92c35 -17 86 -34 130 -55zM216 -52c25 0 45 -21 45 -51c0 -42 -34 -92 -95 -130l-12 18c44 28 73 63 82 95c-10 -10 -23 -11 -28 -11c-18 0 -36 15 -36 37c0 24 18 42 44 42z" />
    <glyph glyph-name="germandbls" unicode="&#xdf;" horiz-adv-x="605" 
d="M394 391c99 -23 165 -98 165 -199c0 -121 -94 -211 -231 -211c-51 0 -111 12 -143 31l16 36c29 -17 79 -30 126 -30c109 0 192 71 192 175c0 107 -86 176 -218 178v31c77 0 187 64 187 167c0 94 -69 165 -172 165c-115 0 -191 -91 -191 -230v-681h-40v683
c0 177 107 265 233 265c129 0 210 -94 210 -200c0 -79 -52 -147 -134 -180z" />
    <glyph glyph-name="t" unicode="t" horiz-adv-x="408" 
d="M387 65l19 -30c-40 -31 -92 -47 -144 -47c-107 0 -155 74 -155 180v330h-95v37h95v189h40v-189h240v-37h-240v-327c0 -95 41 -146 118 -146c46 0 89 15 122 40z" />
    <glyph glyph-name="tbar" unicode="&#x167;" horiz-adv-x="416" 
d="M393 65l19 -30c-40 -31 -92 -47 -144 -47c-107 0 -155 74 -155 180v145h-93v37h93v148h-95v37h95v189h40v-189h240v-37h-240v-148h238v-37h-238v-142c0 -95 41 -146 118 -146c46 0 89 15 122 40z" />
    <glyph glyph-name="tcaron" unicode="&#x165;" horiz-adv-x="414" 
d="M453 777l-73 -151h-34l57 151h50zM265 25c46 0 89 15 122 40l19 -30c-40 -31 -92 -47 -144 -47c-107 0 -155 74 -155 180v330h-95v37h95v189h40v-189h240v-37h-240v-327c0 -95 41 -146 118 -146z" />
    <glyph glyph-name="uni021B" unicode="&#x21b;" horiz-adv-x="408" 
d="M406 35c-40 -31 -92 -47 -144 -47c-107 0 -155 74 -155 180v330h-95v37h95v189h40v-189h240v-37h-240v-327c0 -95 41 -146 118 -146c46 0 89 15 122 40zM258 -64c25 0 45 -21 45 -51c0 -42 -34 -92 -95 -130l-12 18c44 28 73 63 82 95c-10 -10 -23 -11 -28 -11
c-18 0 -36 15 -36 37c0 24 18 42 44 42z" />
    <glyph glyph-name="u" unicode="u" 
d="M290 -13c-130 0 -212 87 -212 218v330h40v-329c0 -112 66 -182 172 -182c108 0 172 69 172 183v328h40v-330c0 -133 -80 -218 -212 -218z" />
    <glyph glyph-name="uacute" unicode="&#xfa;" 
d="M268 620l60 156h53l-80 -156h-33zM290 -13c-130 0 -212 87 -212 218v330h40v-329c0 -112 66 -182 172 -182c108 0 172 69 172 183v328h40v-330c0 -133 -80 -218 -212 -218z" />
    <glyph glyph-name="ubreve" unicode="&#x16d;" 
d="M289 615c-97 0 -156 58 -156 152h37c2 -87 50 -120 119 -120s117 33 119 120h38c0 -94 -60 -152 -157 -152zM290 -13c-130 0 -212 87 -212 218v330h40v-329c0 -112 66 -182 172 -182c108 0 172 69 172 183v328h40v-330c0 -133 -80 -218 -212 -218z" />
    <glyph glyph-name="ucircumflex" unicode="&#xfb;" 
d="M144 619l137 151h19l137 -151h-42l-105 114l-105 -114h-41zM290 -13c-130 0 -212 87 -212 218v330h40v-329c0 -112 66 -182 172 -182c108 0 172 69 172 183v328h40v-330c0 -133 -80 -218 -212 -218z" />
    <glyph glyph-name="udieresis" unicode="&#xfc;" 
d="M202 631c-27 0 -47 20 -47 46c0 23 20 45 47 45s47 -22 47 -45c0 -26 -20 -46 -47 -46zM378 631c-27 0 -47 20 -47 46c0 23 20 45 47 45s47 -22 47 -45c0 -26 -20 -46 -47 -46zM290 -13c-130 0 -212 87 -212 218v330h40v-329c0 -112 66 -182 172 -182
c108 0 172 69 172 183v328h40v-330c0 -133 -80 -218 -212 -218z" />
    <glyph glyph-name="ugrave" unicode="&#xf9;" 
d="M317 620h-33l-80 156h53zM290 -13c-130 0 -212 87 -212 218v330h40v-329c0 -112 66 -182 172 -182c108 0 172 69 172 183v328h40v-330c0 -133 -80 -218 -212 -218z" />
    <glyph glyph-name="uhungarumlaut" unicode="&#x171;" 
d="M192 620l48 156h51l-75 -156h-24zM332 620l65 156h52l-92 -156h-25zM290 -13c-130 0 -212 87 -212 218v330h40v-329c0 -112 66 -182 172 -182c108 0 172 69 172 183v328h40v-330c0 -133 -80 -218 -212 -218z" />
    <glyph glyph-name="umacron" unicode="&#x16b;" 
d="M140 661v37h301v-36zM290 -13c-130 0 -212 87 -212 218v330h40v-329c0 -112 66 -182 172 -182c108 0 172 69 172 183v328h40v-330c0 -133 -80 -218 -212 -218z" />
    <glyph glyph-name="uogonek" unicode="&#x173;" 
d="M462 535h40v-330c0 -102 -47 -175 -128 -204c-93 -42 -140 -104 -140 -155c0 -40 31 -73 71 -73c15 0 41 5 69 25l15 -25c-27 -21 -56 -31 -86 -31c-61 0 -103 43 -103 104c0 49 29 99 98 141h-8c-130 0 -212 87 -212 218v330h40v-329c0 -112 66 -182 172 -182
c108 0 172 69 172 183v328z" />
    <glyph glyph-name="uring" unicode="&#x16f;" 
d="M290 593c-62 0 -110 48 -110 107c0 60 48 109 110 109s110 -49 110 -109c0 -59 -48 -107 -110 -107zM290 622c45 0 80 34 80 78c0 45 -35 80 -80 80s-80 -35 -80 -80c0 -44 35 -78 80 -78zM290 -13c-130 0 -212 87 -212 218v330h40v-329c0 -112 66 -182 172 -182
c108 0 172 69 172 183v328h40v-330c0 -133 -80 -218 -212 -218z" />
    <glyph glyph-name="utilde" unicode="&#x169;" 
d="M163 634l-23 10c12 41 49 75 92 75c60 0 75 -58 121 -58c29 0 55 30 63 53l22 -9c-10 -39 -44 -76 -88 -76c-62 0 -77 57 -122 57c-32 0 -57 -31 -65 -52zM290 -13c-130 0 -212 87 -212 218v330h40v-329c0 -112 66 -182 172 -182c108 0 172 69 172 183v328h40v-330
c0 -133 -80 -218 -212 -218z" />
    <glyph glyph-name="v" unicode="v" horiz-adv-x="526" 
d="M465 535h44l-236 -534h-20l-236 534h43l203 -465z" />
    <glyph glyph-name="w" unicode="w" horiz-adv-x="801" 
d="M211 1l-193 534h42l161 -462l167 462l25 -1l167 -461l161 462h42l-193 -534h-20l-170 476l-169 -476h-20z" />
    <glyph glyph-name="wacute" unicode="&#x1e83;" horiz-adv-x="801" 
d="M382 620l60 156h53l-80 -156h-33zM211 1l-193 534h42l161 -462l167 462l25 -1l167 -461l161 462h42l-193 -534h-20l-170 476l-169 -476h-20z" />
    <glyph glyph-name="wcircumflex" unicode="&#x175;" horiz-adv-x="801" 
d="M254 619l137 151h19l137 -151h-42l-105 114l-105 -114h-41zM211 1l-193 534h42l161 -462l167 462l25 -1l167 -461l161 462h42l-193 -534h-20l-170 476l-169 -476h-20z" />
    <glyph glyph-name="wdieresis" unicode="&#x1e85;" horiz-adv-x="801" 
d="M312 631c-27 0 -47 20 -47 46c0 23 20 45 47 45s47 -22 47 -45c0 -26 -20 -46 -47 -46zM488 631c-27 0 -47 20 -47 46c0 23 20 45 47 45s47 -22 47 -45c0 -26 -20 -46 -47 -46zM211 1l-193 534h42l161 -462l167 462l25 -1l167 -461l161 462h42l-193 -534h-20l-170 476
l-169 -476h-20z" />
    <glyph glyph-name="wgrave" unicode="&#x1e81;" horiz-adv-x="801" 
d="M416 620h-33l-80 156h53zM211 1l-193 534h42l161 -462l167 462l25 -1l167 -461l161 462h42l-193 -534h-20l-170 476l-169 -476h-20z" />
    <glyph glyph-name="x" unicode="x" horiz-adv-x="455" 
d="M434 0h-47l-160 239l-164 -239h-47l188 274l-174 261h47l151 -226l155 226h47l-179 -261z" />
    <glyph glyph-name="y" unicode="y" horiz-adv-x="519" 
d="M460 535h42l-225 -558c-57 -142 -98 -204 -185 -204c-28 0 -54 8 -74 19l9 35c20 -10 38 -17 67 -17c69 0 107 70 143 166l8 22l-226 537h41l204 -487z" />
    <glyph glyph-name="yacute" unicode="&#xfd;" horiz-adv-x="519" 
d="M349 776l-80 -156h-33l60 156h53zM460 535h42l-225 -558c-57 -142 -98 -204 -185 -204c-28 0 -54 8 -74 19l9 35c20 -10 38 -17 67 -17c69 0 107 70 143 166l8 22l-226 537h41l204 -487z" />
    <glyph glyph-name="ycircumflex" unicode="&#x177;" horiz-adv-x="519" 
d="M263 733l-105 -114h-41l137 151h19l137 -151h-42zM460 535h42l-225 -558c-57 -142 -98 -204 -185 -204c-28 0 -54 8 -74 19l9 35c20 -10 38 -17 67 -17c69 0 107 70 143 166l8 22l-226 537h41l204 -487z" />
    <glyph glyph-name="ydieresis" unicode="&#xff;" horiz-adv-x="519" 
d="M176 630c-27 0 -47 20 -47 46c0 23 20 45 47 45s47 -22 47 -45c0 -26 -20 -46 -47 -46zM352 630c-27 0 -47 20 -47 46c0 23 20 45 47 45s47 -22 47 -45c0 -26 -20 -46 -47 -46zM460 535h42l-225 -558c-57 -142 -98 -204 -185 -204c-28 0 -54 8 -74 19l9 35
c20 -10 38 -17 67 -17c69 0 107 70 143 166l8 22l-226 537h41l204 -487z" />
    <glyph glyph-name="ygrave" unicode="&#x1ef3;" horiz-adv-x="519" 
d="M288 620h-33l-80 156h53zM460 535h42l-225 -558c-57 -142 -98 -204 -185 -204c-28 0 -54 8 -74 19l9 35c20 -10 38 -17 67 -17c69 0 107 70 143 166l8 22l-226 537h41l204 -487z" />
    <glyph glyph-name="z" unicode="z" horiz-adv-x="458" 
d="M75 36h356v-36h-404v31l343 467h-326v36h368v-37z" />
    <glyph glyph-name="zacute" unicode="&#x17a;" horiz-adv-x="458" 
d="M204 620l60 156h53l-80 -156h-33zM75 36h356v-36h-404v31l343 467h-326v36h368v-37z" />
    <glyph glyph-name="zcaron" unicode="&#x17e;" horiz-adv-x="458" 
d="M83 771h41l105 -114l105 114h42l-137 -151h-19zM75 36h356v-36h-404v31l343 467h-326v36h368v-37z" />
    <glyph glyph-name="zdotaccent" unicode="&#x17c;" horiz-adv-x="458" 
d="M236 620c-23 0 -42 18 -42 41c0 24 19 42 42 42s41 -18 41 -42c0 -23 -18 -41 -41 -41zM75 36h356v-36h-404v31l343 467h-326v36h368v-37z" />
    <glyph glyph-name="iacute_j.loclNLD" horiz-adv-x="457" 
d="M91 620l60 156h53l-80 -156h-33zM334 620l60 156h53l-80 -156h-33zM125 0h-40v535h40v-535zM223 -228c-39 0 -77 13 -98 25l14 34c17 -9 50 -22 85 -22c67 0 108 44 108 126v600h40v-600c0 -107 -61 -163 -149 -163z" />
    <glyph glyph-name="j.loclNLD" horiz-adv-x="234" 
d="M130 623c-23 0 -42 18 -42 41c0 24 19 42 42 42s41 -18 41 -42c0 -23 -18 -41 -41 -41zM0 -228c-39 0 -77 13 -98 25l14 34c17 -9 50 -22 85 -22c67 0 108 44 108 126v600h40v-600c0 -107 -61 -163 -149 -163z" />
    <glyph glyph-name="a.ss02" horiz-adv-x="539" 
d="M251 548c117 0 210 -69 210 -224v-324h-40v100c-37 -69 -106 -116 -202 -116c-114 0 -183 72 -183 167c0 97 72 159 207 159c74 0 137 -1 178 15c0 119 -62 186 -170 186c-62 0 -129 -22 -167 -55l-22 31c34 30 111 61 189 61zM219 21c121 0 202 91 202 221v42
c-43 -12 -104 -11 -170 -11c-101 0 -175 -32 -175 -123c0 -78 56 -129 143 -129z" />
    <glyph glyph-name="aacute.ss02" horiz-adv-x="539" 
d="M340 776l-80 -156h-33l60 156h53zM251 548c117 0 210 -69 210 -224v-324h-40v100c-37 -69 -106 -116 -202 -116c-114 0 -183 72 -183 167c0 97 72 159 207 159c74 0 137 -1 178 15c0 119 -62 186 -170 186c-62 0 -129 -22 -167 -55l-22 31c34 30 111 61 189 61zM219 21
c121 0 202 91 202 221v42c-43 -12 -104 -11 -170 -11c-101 0 -175 -32 -175 -123c0 -78 56 -129 143 -129z" />
    <glyph glyph-name="abreve.ss02" horiz-adv-x="539" 
d="M258 616c-97 0 -156 58 -156 152h37c2 -87 50 -120 119 -120s117 33 119 120h38c0 -94 -60 -152 -157 -152zM251 548c117 0 210 -69 210 -224v-324h-40v100c-37 -69 -106 -116 -202 -116c-114 0 -183 72 -183 167c0 97 72 159 207 159c74 0 137 -1 178 15
c0 119 -62 186 -170 186c-62 0 -129 -22 -167 -55l-22 31c34 30 111 61 189 61zM219 21c121 0 202 91 202 221v42c-43 -12 -104 -11 -170 -11c-101 0 -175 -32 -175 -123c0 -78 56 -129 143 -129z" />
    <glyph glyph-name="acircumflex.ss02" horiz-adv-x="539" 
d="M257 733l-105 -114h-41l137 151h19l137 -151h-42zM251 548c117 0 210 -69 210 -224v-324h-40v100c-37 -69 -106 -116 -202 -116c-114 0 -183 72 -183 167c0 97 72 159 207 159c74 0 137 -1 178 15c0 119 -62 186 -170 186c-62 0 -129 -22 -167 -55l-22 31
c34 30 111 61 189 61zM219 21c121 0 202 91 202 221v42c-43 -12 -104 -11 -170 -11c-101 0 -175 -32 -175 -123c0 -78 56 -129 143 -129z" />
    <glyph glyph-name="adieresis.ss02" horiz-adv-x="539" 
d="M174 631c-27 0 -47 20 -47 46c0 23 20 45 47 45s47 -22 47 -45c0 -26 -20 -46 -47 -46zM350 631c-27 0 -47 20 -47 46c0 23 20 45 47 45s47 -22 47 -45c0 -26 -20 -46 -47 -46zM251 548c117 0 210 -69 210 -224v-324h-40v100c-37 -69 -106 -116 -202 -116
c-114 0 -183 72 -183 167c0 97 72 159 207 159c74 0 137 -1 178 15c0 119 -62 186 -170 186c-62 0 -129 -22 -167 -55l-22 31c34 30 111 61 189 61zM219 21c121 0 202 91 202 221v42c-43 -12 -104 -11 -170 -11c-101 0 -175 -32 -175 -123c0 -78 56 -129 143 -129z" />
    <glyph glyph-name="agrave.ss02" horiz-adv-x="539" 
d="M283 620h-33l-80 156h53zM251 548c117 0 210 -69 210 -224v-324h-40v100c-37 -69 -106 -116 -202 -116c-114 0 -183 72 -183 167c0 97 72 159 207 159c74 0 137 -1 178 15c0 119 -62 186 -170 186c-62 0 -129 -22 -167 -55l-22 31c34 30 111 61 189 61zM219 21
c121 0 202 91 202 221v42c-43 -12 -104 -11 -170 -11c-101 0 -175 -32 -175 -123c0 -78 56 -129 143 -129z" />
    <glyph glyph-name="amacron.ss02" horiz-adv-x="539" 
d="M406 708v-36l-301 -1v37h301zM251 548c117 0 210 -69 210 -224v-324h-40v100c-37 -69 -106 -116 -202 -116c-114 0 -183 72 -183 167c0 97 72 159 207 159c74 0 137 -1 178 15c0 119 -62 186 -170 186c-62 0 -129 -22 -167 -55l-22 31c34 30 111 61 189 61zM219 21
c121 0 202 91 202 221v42c-43 -12 -104 -11 -170 -11c-101 0 -175 -32 -175 -123c0 -78 56 -129 143 -129z" />
    <glyph glyph-name="aogonek.ss02" horiz-adv-x="540" 
d="M460 -203l15 -25c-27 -21 -56 -31 -86 -31c-61 0 -103 43 -103 104c0 57 40 115 135 161v94c-37 -69 -106 -116 -202 -116c-114 0 -183 72 -183 167c0 97 72 159 207 159c74 0 137 -1 178 15c0 119 -62 186 -170 186c-62 0 -129 -22 -167 -55l-22 31c34 30 111 61 189 61
c117 0 210 -69 210 -224v-324c-94 -42 -141 -104 -141 -155c0 -40 31 -73 71 -73c15 0 41 5 69 25zM219 21c121 0 202 91 202 221v42c-43 -12 -104 -11 -170 -11c-101 0 -175 -32 -175 -123c0 -78 56 -129 143 -129z" />
    <glyph glyph-name="aring.ss02" horiz-adv-x="539" 
d="M260 607c-62 0 -110 48 -110 107c0 60 48 109 110 109s110 -49 110 -109c0 -59 -48 -107 -110 -107zM260 794c-45 0 -80 -35 -80 -80c0 -44 35 -78 80 -78s80 34 80 78c0 45 -35 80 -80 80zM251 548c117 0 210 -69 210 -224v-324h-40v100c-37 -69 -106 -116 -202 -116
c-114 0 -183 72 -183 167c0 97 72 159 207 159c74 0 137 -1 178 15c0 119 -62 186 -170 186c-62 0 -129 -22 -167 -55l-22 31c34 30 111 61 189 61zM219 21c121 0 202 91 202 221v42c-43 -12 -104 -11 -170 -11c-101 0 -175 -32 -175 -123c0 -78 56 -129 143 -129z" />
    <glyph glyph-name="atilde.ss02" horiz-adv-x="539" 
d="M201 686c-32 0 -57 -31 -65 -52l-23 10c12 41 49 75 92 75c60 0 75 -58 121 -58c29 0 55 30 63 53l22 -9c-10 -39 -44 -76 -88 -76c-62 0 -77 57 -122 57zM251 548c117 0 210 -69 210 -224v-324h-40v100c-37 -69 -106 -116 -202 -116c-114 0 -183 72 -183 167
c0 97 72 159 207 159c74 0 137 -1 178 15c0 119 -62 186 -170 186c-62 0 -129 -22 -167 -55l-22 31c34 30 111 61 189 61zM219 21c121 0 202 91 202 221v42c-43 -12 -104 -11 -170 -11c-101 0 -175 -32 -175 -123c0 -78 56 -129 143 -129z" />
    <glyph glyph-name="I_J.loclNLD" horiz-adv-x="773" 
d="M105 739h40v-739h-40v739zM459 -12c-78 0 -152 31 -207 100l27 26c40 -52 103 -89 179 -89c103 0 178 76 178 193v521h40v-510c0 -167 -102 -241 -217 -241z" />
    <glyph glyph-name="i_j.loclNLD" horiz-adv-x="483" 
d="M100 623c-23 0 -42 18 -42 41c0 24 19 42 42 42s41 -18 41 -42c0 -23 -18 -41 -41 -41zM353 623c-23 0 -42 18 -42 41c0 24 19 42 42 42s41 -18 41 -42c0 -23 -18 -41 -41 -41zM119 0h-40v535h40v-535zM223 -228c-39 0 -77 13 -98 25l14 34c17 -9 50 -22 85 -22
c67 0 108 44 108 126v600h40v-600c0 -107 -61 -163 -149 -163z" />
    <glyph glyph-name="ordfeminine" unicode="&#xaa;" horiz-adv-x="408" 
d="M195 736c80 0 137 -44 137 -136v-209h-34v52c-25 -39 -69 -61 -121 -61c-75 0 -122 45 -122 106c0 64 54 108 145 108c32 0 66 -5 98 -13v17c0 71 -37 105 -102 105c-41 0 -82 -14 -105 -33l-20 26c28 23 78 38 124 38zM176 413c61 0 122 40 122 126v11
c-34 10 -67 15 -98 15c-72 0 -111 -30 -111 -77c0 -48 37 -75 87 -75z" />
    <glyph glyph-name="ordmasculine" unicode="&#xba;" horiz-adv-x="446" 
d="M223 381c-98 0 -173 76 -173 176c0 102 75 179 173 179s173 -77 173 -179c0 -100 -75 -176 -173 -176zM223 412c80 0 139 62 139 145c0 85 -59 148 -139 148s-139 -63 -139 -148c0 -83 59 -145 139 -145z" />
    <glyph glyph-name="uni0410" unicode="&#x410;" horiz-adv-x="639" 
d="M578 0l-93 242h-331l-94 -242h-43l290 739h25l289 -739h-43zM319 672l-153 -393h306z" />
    <glyph glyph-name="uni0411" unicode="&#x411;" horiz-adv-x="626" 
d="M356 433c175 0 234 -124 234 -219c0 -101 -66 -214 -241 -214h-244v739h405v-37h-365v-269h211zM343 37c129 0 207 76 207 183c0 110 -82 176 -200 176h-205v-359h198z" />
    <glyph glyph-name="uni0412" unicode="&#x412;" horiz-adv-x="655" 
d="M455 397c100 -25 148 -108 148 -189c0 -103 -74 -208 -239 -208h-259v739h252c142 0 207 -91 207 -183c0 -73 -43 -138 -109 -159zM354 702h-209v-289h229c87 0 150 63 150 146c0 81 -55 143 -170 143zM365 37c117 0 198 72 198 172c0 102 -85 167 -195 167h-223v-339
h220z" />
    <glyph glyph-name="uni0413" unicode="&#x413;" horiz-adv-x="525" 
d="M105 0v739h405v-37h-365v-702h-40z" />
    <glyph glyph-name="uni0414" unicode="&#x414;" horiz-adv-x="707" 
d="M622 37h60v-187h-43v150h-572v-150h-43v187h61l256 702h25zM127 37h452l-226 635z" />
    <glyph glyph-name="uni0415" unicode="&#x415;" horiz-adv-x="599" 
d="M105 0v739h439v-37h-399v-310h374v-37h-374v-318h403v-37h-443z" />
    <glyph glyph-name="uni0401" unicode="&#x401;" horiz-adv-x="599" 
d="M238 811c-27 0 -47 20 -47 46c0 23 20 45 47 45s47 -22 47 -45c0 -26 -20 -46 -47 -46zM414 811c-27 0 -47 20 -47 46c0 23 20 45 47 45s47 -22 47 -45c0 -26 -20 -46 -47 -46zM105 0v739h439v-37h-399v-310h374v-37h-374v-318h403v-37h-443z" />
    <glyph glyph-name="uni0416" unicode="&#x416;" horiz-adv-x="886" 
d="M866 41l13 -39c-27 -11 -46 -13 -61 -13c-101 0 -133 79 -206 220c-53 103 -74 137 -115 137h-34v-348h-40v348h-34c-41 0 -62 -34 -115 -137c-73 -141 -105 -220 -206 -220c-15 0 -34 2 -61 13l13 39c18 -8 35 -11 49 -11c75 0 86 44 185 224c30 54 51 92 79 112
c-48 21 -68 72 -92 135c-63 166 -77 209 -151 209c-19 0 -33 -3 -51 -11l-15 36c24 11 41 15 64 15c113 0 132 -91 186 -233c30 -77 60 -133 129 -133h20v353h40v-353h20c69 0 100 56 129 133c54 142 73 233 186 233c23 0 40 -4 64 -15l-15 -36c-18 8 -32 11 -51 11
c-74 0 -89 -43 -151 -209c-24 -63 -44 -114 -92 -135c28 -20 49 -58 79 -112c100 -180 110 -224 185 -224c14 0 31 3 49 11z" />
    <glyph glyph-name="uni0417" unicode="&#x417;" horiz-adv-x="579" 
d="M260 -12c-89 0 -166 29 -234 75l22 33c69 -46 137 -68 209 -68c127 0 225 67 225 175c0 74 -46 156 -175 156h-158v40h109c150 0 205 92 205 165c0 89 -81 148 -189 148c-74 0 -149 -28 -200 -74l-27 30c59 53 145 84 230 84c135 0 226 -79 226 -193
c0 -70 -34 -140 -127 -172v-2c105 -16 146 -105 146 -184c0 -127 -108 -213 -262 -213z" />
    <glyph glyph-name="uni0418" unicode="&#x418;" horiz-adv-x="764" 
d="M105 0v739h40v-647l490 647h24v-739h-40v654l-494 -654h-20z" />
    <glyph glyph-name="uni0419" unicode="&#x419;" horiz-adv-x="764" 
d="M384 786c-62 0 -117 24 -168 83l23 26c46 -54 91 -75 145 -75s99 21 145 75l23 -26c-51 -59 -106 -83 -168 -83zM105 0v739h40v-647l490 647h24v-739h-40v654l-494 -654h-20z" />
    <glyph glyph-name="uni041A" unicode="&#x41a;" horiz-adv-x="600" 
d="M605 0h-52l-300 359l-1 -1l-107 -124v-234h-40v739h40v-447l383 447h49l-296 -349z" />
    <glyph glyph-name="uni041B" unicode="&#x41b;" horiz-adv-x="604" 
d="M20 0l270 739h25l269 -739h-44l-236 667l-241 -667h-43z" />
    <glyph glyph-name="uni041C" unicode="&#x41c;" horiz-adv-x="896" 
d="M105 0v739h18l326 -480l323 480h19v-739h-39v641l-298 -443h-10l-300 442v-640h-39z" />
    <glyph glyph-name="uni041D" unicode="&#x41d;" horiz-adv-x="724" 
d="M105 0v739h40v-360h434v360h40v-739h-40v342h-434v-342h-40z" />
    <glyph glyph-name="uni041E" unicode="&#x41e;" horiz-adv-x="862" 
d="M431 -12c-211 0 -379 172 -379 382s168 382 379 382s379 -172 379 -382s-168 -382 -379 -382zM431 25c189 0 339 155 339 345s-150 345 -339 345s-339 -155 -339 -345s150 -345 339 -345z" />
    <glyph glyph-name="uni041F" unicode="&#x41f;" horiz-adv-x="724" 
d="M105 0v739h514v-739h-40v702h-434v-702h-40z" />
    <glyph glyph-name="uni0420" unicode="&#x420;" horiz-adv-x="595" 
d="M323 739c163 0 236 -114 236 -226c0 -114 -78 -226 -245 -226h-169v-287h-40v739h218zM314 324c125 0 205 78 205 189c0 112 -77 189 -196 189h-178v-378h169z" />
    <glyph glyph-name="uni0421" unicode="&#x421;" horiz-adv-x="790" 
d="M432 -11c-208 0 -379 152 -379 378c0 228 175 385 381 385c138 0 262 -70 322 -165l-31 -19c-52 86 -166 147 -292 147c-192 0 -340 -143 -340 -345c0 -200 145 -344 339 -344c118 0 229 53 295 143l28 -21c-70 -92 -185 -159 -323 -159z" />
    <glyph glyph-name="uni0422" unicode="&#x422;" horiz-adv-x="523" 
d="M242 702h-227v37h493v-37h-226v-702h-40v702z" />
    <glyph glyph-name="uni0423" unicode="&#x423;" horiz-adv-x="563" 
d="M118 -12c-20 0 -38 4 -56 11l3 41c18 -9 35 -13 52 -13c86 0 126 98 165 182l-269 529h44l246 -480l207 480h46c-76 -166 -23 -57 -245 -559c-35 -79 -86 -191 -193 -191z" />
    <glyph glyph-name="uni0424" unicode="&#x424;" horiz-adv-x="907" 
d="M853 370c0 -208 -158 -354 -380 -362v-88h-40v88c-222 8 -380 155 -380 362s158 354 380 362v87h40v-87c222 -8 380 -154 380 -362zM93 370c0 -186 142 -318 340 -326v652c-198 -8 -340 -140 -340 -326zM473 44c198 8 340 140 340 326s-142 318 -340 326v-652z" />
    <glyph glyph-name="uni0425" unicode="&#x425;" horiz-adv-x="571" 
d="M14 0l248 376l-237 363h48l213 -326l214 326h48l-238 -363l245 -376h-48l-222 340l-223 -340h-48z" />
    <glyph glyph-name="uni0427" unicode="&#x427;" horiz-adv-x="650" 
d="M505 739h40v-739h-40v289c-68 -33 -154 -49 -218 -49c-154 0 -231 92 -231 229v270h40v-266c0 -114 54 -193 192 -193c66 0 153 18 217 52v407z" />
    <glyph glyph-name="uni0426" unicode="&#x426;" horiz-adv-x="697" 
d="M613 -150v150h-508v739h43v-702h393v702h43v-702h72v-187h-43z" />
    <glyph glyph-name="uni0428" unicode="&#x428;" horiz-adv-x="1065" 
d="M105 0v739h43v-702h363v702h43v-702h363v702h43v-739h-855z" />
    <glyph glyph-name="uni0429" unicode="&#x429;" horiz-adv-x="1073" 
d="M989 -150v150h-884v739h43v-702h363v702h43v-702h363v702h43v-702h72v-187h-43z" />
    <glyph glyph-name="uni042C" unicode="&#x42c;" horiz-adv-x="628" 
d="M336 476c150 0 254 -90 254 -241c0 -115 -69 -235 -241 -235h-244v739h40v-308c55 30 123 45 191 45zM343 37c147 0 207 104 207 202c0 127 -88 200 -216 200c-63 0 -137 -13 -189 -46v-356h198z" />
    <glyph glyph-name="uni042A" unicode="&#x42a;" horiz-adv-x="711" 
d="M419 476c150 0 254 -90 254 -241c0 -115 -69 -235 -241 -235h-244v702h-172v37h212v-308c55 30 123 45 191 45zM426 37c147 0 207 104 207 202c0 127 -88 200 -216 200c-63 0 -137 -13 -189 -46v-356h198z" />
    <glyph glyph-name="uni042B" unicode="&#x42b;" horiz-adv-x="863" 
d="M368 443c175 0 234 -126 234 -224c0 -103 -66 -219 -241 -219h-244v739h40v-296h211zM718 739h40v-739h-40v739zM355 37c129 0 207 78 207 188c0 114 -82 181 -200 181h-205v-369h198z" />
    <glyph glyph-name="uni042D" unicode="&#x42d;" horiz-adv-x="795" 
d="M361 752c206 0 381 -157 381 -385c0 -226 -171 -378 -379 -378c-138 0 -253 67 -323 159l28 21c66 -90 177 -143 295 -143c187 0 328 134 338 322h-437v35h438c-6 195 -152 332 -340 332c-126 0 -240 -61 -292 -147l-31 19c60 95 184 165 322 165z" />
    <glyph glyph-name="uni042E" unicode="&#x42e;" horiz-adv-x="1068" 
d="M637 752c211 0 379 -172 379 -382s-168 -382 -379 -382c-202 0 -364 157 -378 354h-114v-342h-40v739h40v-360h113c5 206 171 373 379 373zM637 25c189 0 339 155 339 345s-150 345 -339 345s-339 -155 -339 -345s150 -345 339 -345z" />
    <glyph glyph-name="uni042F" unicode="&#x42f;" horiz-adv-x="619" 
d="M514 739v-739h-40v313c-51 -9 -114 -12 -161 -12c-11 0 -22 0 -33 1l-187 -302h-46l193 307c-126 24 -176 111 -176 213c0 119 76 219 246 219h204zM311 338c52 0 114 3 163 11v353h-164c-125 0 -206 -61 -206 -181c0 -119 65 -183 207 -183z" />
    <glyph glyph-name="uni0414.ss01" horiz-adv-x="712" 
d="M593 37h82v-187h-43v150h-571v-150h-43v187h62c70 100 94 243 126 584l11 118h376v-702zM136 37h414v665h-290l-11 -119c-30 -323 -60 -455 -113 -546z" />
    <glyph glyph-name="uni0416.ss01" horiz-adv-x="810" 
d="M768 0l-339 355l-4 -4v-351h-40v351l-3 3l-340 -354h-52l363 385l-325 354h49l308 -331v331h40v-331l308 331h49l-325 -354l363 -385h-52z" />
    <glyph glyph-name="uni041B.ss01" horiz-adv-x="684" 
d="M48 -1c-9 0 -30 1 -40 5l-3 43c14 -4 27 -6 38 -6c49 0 90 40 121 103c59 120 81 334 90 595h325v-739h-40v699h-245c-10 -216 -24 -413 -89 -565c-34 -79 -86 -135 -157 -135z" />
    <glyph glyph-name="uni0424.ss01" horiz-adv-x="898" 
d="M849 370c0 -198 -146 -325 -380 -332v-118h-40v118c-234 7 -380 134 -380 332s146 325 380 332v117h40v-117c234 -7 380 -134 380 -332zM89 370c0 -178 130 -289 340 -296v592c-210 -7 -340 -118 -340 -296zM469 74c210 7 340 118 340 296s-130 289 -340 296v-592z" />
    <glyph glyph-name="uni042C.ss01" horiz-adv-x="625" 
d="M356 443c175 0 234 -126 234 -224c0 -103 -66 -219 -241 -219h-244v739h40v-296h211zM343 37c129 0 207 78 207 188c0 114 -82 181 -200 181h-205v-369h198z" />
    <glyph glyph-name="uni042A.ss01" horiz-adv-x="720" 
d="M451 443c175 0 234 -126 234 -224c0 -103 -66 -219 -241 -219h-244v702h-184v37h224v-296h211zM438 37c129 0 207 78 207 188c0 114 -82 181 -200 181h-205v-369h198z" />
    <glyph glyph-name="uni0430" unicode="&#x430;" horiz-adv-x="661" 
d="M536 535h40v-535h-40v123c-42 -82 -124 -136 -225 -136c-152 0 -264 124 -264 283c0 158 112 278 264 278c101 0 183 -52 225 -133v120zM310 24c134 0 230 111 230 247c0 132 -96 240 -230 240c-131 0 -223 -105 -223 -242s92 -245 223 -245z" />
    <glyph glyph-name="uni0431" unicode="&#x431;" horiz-adv-x="650" 
d="M343 524c131 0 259 -93 259 -268c0 -149 -107 -269 -264 -269c-206 0 -277 187 -277 351c0 266 79 325 248 358c67 13 140 21 225 99l15 -36c-76 -67 -151 -83 -219 -96c-173 -33 -223 -83 -234 -299c45 126 169 160 247 160zM338 24c129 0 224 98 224 232
c0 136 -92 231 -219 231c-133 0 -234 -97 -234 -224c0 -136 99 -239 229 -239z" />
    <glyph glyph-name="uni0432" unicode="&#x432;" horiz-adv-x="594" 
d="M378 406c76 -11 169 -73 169 -199c0 -121 -85 -220 -234 -220c-160 0 -237 114 -237 274v227c0 164 87 284 244 284c116 0 196 -81 196 -188c0 -79 -46 -151 -138 -178zM320 735c-125 0 -204 -90 -204 -247v-71h169c98 0 192 67 192 168c0 85 -64 150 -157 150zM314 24
c120 0 193 77 193 185c0 119 -90 171 -203 171h-188v-119c0 -148 69 -237 198 -237z" />
    <glyph glyph-name="uni0433" unicode="&#x433;" horiz-adv-x="481" 
d="M236 -13c-105 0 -196 42 -196 145c0 202 343 118 343 278c0 63 -54 101 -147 101c-53 0 -114 -12 -164 -33l-10 34c50 21 113 36 174 36c98 0 189 -42 189 -138c0 -191 -343 -105 -343 -278c0 -70 54 -108 154 -108c64 0 132 17 194 50l15 -34c-64 -34 -138 -53 -209 -53
z" />
    <glyph glyph-name="uni0434" unicode="&#x434;" horiz-adv-x="661" 
d="M537 535h39v-480c0 -189 -117 -283 -291 -283c-66 0 -133 16 -190 38l11 35c60 -24 124 -36 179 -36c157 0 251 82 251 246v77c-42 -81 -124 -134 -224 -134c-153 0 -265 122 -265 275s112 275 264 275c102 0 184 -52 226 -132v119zM310 35c134 0 230 108 230 241
c0 130 -96 235 -230 235c-131 0 -223 -104 -223 -238c0 -133 92 -238 223 -238z" />
    <glyph glyph-name="uni0435" unicode="&#x435;" horiz-adv-x="601" 
d="M556 301c0 -22 -2 -35 -3 -47h-465c6 -137 91 -229 235 -229c74 0 153 27 200 66l21 -30c-46 -38 -129 -73 -222 -73c-194 0 -274 142 -274 281c0 159 102 279 264 279c135 0 244 -91 244 -247zM312 511c-127 0 -215 -87 -223 -220h427c0 135 -82 220 -204 220z" />
    <glyph glyph-name="uni0451" unicode="&#x451;" horiz-adv-x="601" 
d="M228 601c-27 0 -47 20 -47 46c0 23 20 45 47 45s47 -22 47 -45c0 -26 -20 -46 -47 -46zM404 601c-27 0 -47 20 -47 46c0 23 20 45 47 45s47 -22 47 -45c0 -26 -20 -46 -47 -46zM556 301c0 -22 -2 -35 -3 -47h-465c6 -137 91 -229 235 -229c74 0 153 27 200 66l21 -30
c-46 -38 -129 -73 -222 -73c-194 0 -274 142 -274 281c0 159 102 279 264 279c135 0 244 -91 244 -247zM312 511c-127 0 -215 -87 -223 -220h427c0 135 -82 220 -204 220z" />
    <glyph glyph-name="uni0436" unicode="&#x436;" horiz-adv-x="816" 
d="M793 36l11 -34c-24 -9 -42 -11 -56 -11c-91 0 -121 60 -171 161c-38 76 -65 96 -103 96h-46v-250h-40v250h-46c-38 0 -65 -20 -103 -96c-50 -101 -80 -161 -171 -161c-14 0 -32 2 -56 11l11 34c16 -6 32 -8 45 -8c66 0 77 29 148 163c20 37 40 61 65 74
c-44 17 -65 57 -81 103c-39 109 -51 140 -117 140c-17 0 -32 -2 -49 -7l-9 33c21 8 36 10 57 10c101 0 116 -62 153 -166c22 -61 53 -95 116 -95h37v252h40v-252h37c63 0 94 34 116 95c37 104 52 166 153 166c21 0 36 -2 57 -10l-9 -33c-17 5 -32 7 -49 7
c-66 0 -78 -31 -117 -140c-16 -46 -37 -86 -81 -103c25 -13 45 -37 65 -74c71 -134 82 -163 148 -163c13 0 29 2 45 8z" />
    <glyph glyph-name="uni0437" unicode="&#x437;" horiz-adv-x="538" 
d="M249 -227c-85 0 -156 30 -223 79l21 29c64 -48 131 -71 201 -71c122 0 206 68 206 173c0 79 -48 169 -179 169h-154v37h107c141 0 209 92 209 173c0 85 -75 149 -181 149c-69 0 -139 -28 -190 -75l-23 27c58 51 135 85 217 85c127 0 217 -81 217 -191
c0 -77 -45 -147 -140 -178v-2c110 -18 157 -108 157 -193c0 -124 -100 -211 -245 -211z" />
    <glyph glyph-name="uni0438" unicode="&#x438;" horiz-adv-x="610" 
d="M525 535v-535h-38v111c-30 -75 -113 -124 -203 -124c-114 0 -206 67 -206 216v332h40v-330c0 -113 59 -181 166 -181c75 0 201 43 201 210v301h40z" />
    <glyph glyph-name="uni0439" unicode="&#x439;" horiz-adv-x="610" 
d="M308 580c-62 0 -117 24 -168 83l23 26c46 -54 91 -75 145 -75s99 21 145 75l23 -26c-51 -59 -106 -83 -168 -83zM525 535v-535h-38v111c-30 -75 -113 -124 -203 -124c-114 0 -206 67 -206 216v332h40v-330c0 -113 59 -181 166 -181c75 0 201 43 201 210v301h40z" />
    <glyph glyph-name="uni043A" unicode="&#x43a;" horiz-adv-x="486" 
d="M442 0l-249 297l-68 -62v-235h-40v753h40v-469l281 251h52l-237 -214l271 -321h-50z" />
    <glyph glyph-name="uni043B" unicode="&#x43b;" horiz-adv-x="536" 
d="M17 0l240 535h24l237 -535h-44l-205 467l-209 -467h-43z" />
    <glyph glyph-name="uni043C" unicode="&#x43c;" horiz-adv-x="748" 
d="M85 0v535h20l270 -346l267 346h21v-535h-40v447l-243 -317h-10l-245 316v-446h-40z" />
    <glyph glyph-name="uni043D" unicode="&#x43d;" horiz-adv-x="586" 
d="M461 535h40v-535h-40v261h-336v-261h-40v535h40v-237h336v237z" />
    <glyph glyph-name="uni043E" unicode="&#x43e;" horiz-adv-x="648" 
d="M324 -13c-159 0 -277 123 -277 281c0 157 118 280 277 280s277 -123 277 -280c0 -158 -118 -281 -277 -281zM324 24c138 0 237 107 237 244s-99 243 -237 243s-237 -106 -237 -243s99 -244 237 -244z" />
    <glyph glyph-name="uni043F" unicode="&#x43f;" horiz-adv-x="610" 
d="M85 0v535h38v-107c31 82 104 121 196 121c117 0 213 -78 213 -227v-322h-40v322c0 113 -63 190 -173 190c-77 0 -194 -43 -194 -210v-302h-40z" />
    <glyph glyph-name="uni0440" unicode="&#x440;" horiz-adv-x="664" 
d="M353 549c152 0 264 -124 264 -281c0 -156 -112 -280 -264 -280c-103 0 -186 55 -228 139v-347h-40v755h40v-128c42 86 125 142 228 142zM354 25c131 0 223 107 223 243s-92 244 -223 244c-134 0 -230 -111 -230 -247c0 -132 96 -240 230 -240z" />
    <glyph glyph-name="uni0441" unicode="&#x441;" horiz-adv-x="593" 
d="M316 -12c-156 0 -268 116 -268 279c0 166 117 281 274 281c106 0 197 -52 238 -137l-33 -18c-35 72 -113 118 -205 118c-134 0 -234 -98 -234 -244c0 -144 97 -242 228 -242c93 0 173 50 209 119l32 -20c-44 -85 -138 -136 -241 -136z" />
    <glyph glyph-name="uni0442" unicode="&#x442;" horiz-adv-x="943" 
d="M666 549c104 0 199 -66 199 -205v-344h-40v344c0 104 -61 168 -157 168c-63 0 -173 -37 -173 -180v-332h-40v334c0 108 -61 178 -155 178c-64 0 -175 -39 -175 -210v-302h-40v535h39v-97c29 72 97 111 174 111c78 0 148 -40 178 -128c37 93 118 128 190 128z" />
    <glyph glyph-name="uni0443" unicode="&#x443;" horiz-adv-x="519" 
d="M458 535h42l-225 -558c-57 -142 -98 -204 -185 -204c-28 0 -54 8 -74 19l9 35c20 -10 38 -17 67 -17c69 0 107 70 143 166l8 22l-226 537h41l204 -487z" />
    <glyph glyph-name="uni0444" unicode="&#x444;" horiz-adv-x="773" 
d="M726 268c0 -166 -124 -273 -320 -279v-212h-39v212c-196 6 -320 112 -320 279c0 168 126 274 320 280v205h39v-205c195 -6 320 -113 320 -280zM87 269c0 -149 108 -238 280 -244v486c-172 -5 -280 -94 -280 -242zM406 25c172 6 280 95 280 244c0 147 -108 237 -280 242
v-486z" />
    <glyph glyph-name="uni0445" unicode="&#x445;" horiz-adv-x="456" 
d="M435 0h-47l-160 239l-164 -239h-47l188 274l-174 261h47l151 -226l155 226h47l-179 -261z" />
    <glyph glyph-name="uni0447" unicode="&#x447;" horiz-adv-x="540" 
d="M415 535h40v-535h-40v210c-56 -22 -124 -34 -176 -34c-128 0 -193 64 -193 202v157h40v-152c0 -114 46 -170 156 -170c55 0 122 13 173 35v287z" />
    <glyph glyph-name="uni0446" unicode="&#x446;" horiz-adv-x="647" 
d="M525 117c0 -88 41 -91 118 -91v-206h-40v170c-56 0 -119 23 -116 119c-30 -75 -113 -122 -203 -122c-114 0 -206 67 -206 216v332h40v-330c0 -113 59 -181 166 -181c75 0 201 43 201 210v301h40v-418z" />
    <glyph glyph-name="uni0448" unicode="&#x448;" horiz-adv-x="948" 
d="M823 535h40v-535h-38v111c-27 -75 -103 -124 -185 -124c-80 0 -152 39 -176 133c-31 -87 -111 -133 -195 -133c-105 0 -191 64 -191 223v325h40v-323c0 -123 55 -188 152 -188c70 0 181 43 181 210v301h40v-330c0 -113 57 -181 152 -181c71 0 180 43 180 210v301z" />
    <glyph glyph-name="uni0449" unicode="&#x449;" horiz-adv-x="979" 
d="M863 117c0 -88 40 -91 117 -91v-206h-40v170c-56 0 -114 20 -114 112c-27 -69 -104 -115 -186 -115c-80 0 -152 39 -176 133c-31 -87 -111 -133 -195 -133c-105 0 -191 64 -191 223v325h40v-323c0 -123 55 -188 152 -188c70 0 181 43 181 210v301h40v-330
c0 -113 57 -181 152 -181c71 0 180 43 180 210v301h40v-418z" />
    <glyph glyph-name="uni044C" unicode="&#x44c;" horiz-adv-x="538" 
d="M289 411c125 0 213 -89 213 -215c0 -123 -86 -209 -212 -209c-188 0 -213 160 -213 247v301h40v-192c47 46 112 68 172 68zM290 24c102 0 172 72 172 175s-71 175 -173 175c-62 0 -130 -25 -172 -80v-77c0 -91 45 -193 173 -193z" />
    <glyph glyph-name="uni044A" unicode="&#x44a;" horiz-adv-x="622" 
d="M373 411c125 0 213 -89 213 -215c0 -123 -86 -209 -212 -209c-188 0 -213 160 -213 247v264h-144v37h184v-192c47 46 112 68 172 68zM374 24c102 0 172 72 172 175s-71 175 -173 175c-62 0 -130 -25 -172 -80v-77c0 -91 45 -193 173 -193z" />
    <glyph glyph-name="uni044B" unicode="&#x44b;" horiz-adv-x="720" 
d="M318 326c142 0 187 -92 187 -164c0 -77 -53 -162 -190 -162h-230v535h40v-209h193zM595 535h40v-535h-40v535zM309 37c100 0 156 54 156 129s-58 123 -150 123h-190v-252h184z" />
    <glyph glyph-name="uni044D" unicode="&#x44d;" horiz-adv-x="596" 
d="M275 548c156 0 273 -115 273 -281c0 -163 -112 -279 -267 -279c-103 0 -197 51 -241 136l32 20c36 -69 116 -119 209 -119c125 0 219 90 227 225h-314v37h313c-8 135 -105 224 -232 224c-92 0 -170 -46 -205 -118l-33 18c41 85 132 137 238 137z" />
    <glyph glyph-name="uni044E" unicode="&#x44e;" horiz-adv-x="824" 
d="M500 548c159 0 277 -123 277 -280c0 -158 -118 -281 -277 -281c-154 0 -270 116 -277 267h-98v-254h-40v753h40v-462h99c11 146 125 257 276 257zM500 24c138 0 237 107 237 244s-99 243 -237 243s-237 -106 -237 -243s99 -244 237 -244z" />
    <glyph glyph-name="uni044F" unicode="&#x44f;" horiz-adv-x="536" 
d="M451 535v-535h-40v224c-47 -7 -109 -10 -146 -10c-10 0 -20 0 -29 1l-148 -215h-46l154 220c-98 20 -139 83 -139 155c0 85 62 160 202 160h192zM264 250c40 0 102 2 147 8v241h-153c-99 0 -161 -43 -161 -124c0 -80 53 -125 167 -125z" />
    <glyph glyph-name="uni0431.ss01" horiz-adv-x="648" 
d="M341 524c131 0 259 -93 259 -268c0 -149 -107 -269 -264 -269c-206 0 -277 187 -277 351c0 386 271 355 488 442v-39c-236 -86 -434 -52 -455 -384c43 131 170 167 249 167zM336 24c129 0 224 98 224 232c0 136 -92 231 -219 231c-133 0 -234 -97 -234 -224
c0 -136 99 -239 229 -239z" />
    <glyph glyph-name="uni0432.ss01" horiz-adv-x="542" 
d="M391 289c69 -18 102 -78 102 -138c0 -75 -53 -151 -166 -151h-242v535h218c118 0 163 -67 163 -133c0 -51 -30 -97 -75 -113zM307 497h-182v-192h199c63 0 102 44 102 98c0 52 -37 94 -119 94zM326 38c77 0 127 51 127 115c0 66 -51 114 -126 114h-202v-229h201z" />
    <glyph glyph-name="uni0433.ss01" horiz-adv-x="403" 
d="M385 535v-37h-260v-498h-40v535h300z" />
    <glyph glyph-name="uni0434.ss01" 
d="M481 34h64v-155h-42v119h-453v-119h-42v155h54c51 67 72 163 98 400l11 101h310v-501zM201 421c-24 -228 -49 -325 -90 -387h330v464h-232z" />
    <glyph glyph-name="uni0436.ss01" horiz-adv-x="680" 
d="M626 0l-265 256l-1 -1v-255h-40v255l-1 1l-265 -256h-54l290 285l-272 250h51l251 -224v224h40v-225l251 225h51l-272 -250l290 -285h-54z" />
    <glyph glyph-name="uni0437.ss01" horiz-adv-x="480" 
d="M221 -12c-72 0 -134 21 -192 56l18 31c56 -35 115 -51 172 -51c102 0 172 48 172 122c0 56 -40 111 -143 111h-126v36h90c117 0 164 62 164 115c0 63 -65 103 -151 103c-60 0 -119 -20 -163 -53l-21 28c49 37 115 62 187 62c110 0 187 -59 187 -142
c0 -52 -31 -102 -104 -125v-2c84 -12 120 -74 120 -134c0 -92 -84 -157 -210 -157z" />
    <glyph glyph-name="uni0438.ss01" horiz-adv-x="627" 
d="M85 0v535h40v-455l393 455h24v-535h-40v459l-396 -459h-21z" />
    <glyph glyph-name="uni0439.ss01" horiz-adv-x="627" 
d="M319 579c-62 0 -117 24 -168 83l23 26c46 -54 91 -75 145 -75s99 21 145 75l23 -26c-51 -59 -106 -83 -168 -83zM85 0v535h40v-455l393 455h24v-535h-40v459l-396 -459h-21z" />
    <glyph glyph-name="uni043A.ss01" horiz-adv-x="487" 
d="M442 0l-239 276l-78 -80v-196h-40v535h40v-290l281 290h52l-229 -233l263 -302h-50z" />
    <glyph glyph-name="uni043B.ss01" horiz-adv-x="579" 
d="M56 -2c-8 0 -25 1 -34 4l-6 38c11 -3 22 -4 30 -4c40 0 74 26 98 67c49 84 68 247 81 432h269v-535h-40v500h-192c-12 -142 -29 -311 -80 -409c-29 -56 -74 -93 -126 -93z" />
    <glyph glyph-name="uni043F.ss01" horiz-adv-x="586" 
d="M501 535v-535h-40v498h-336v-498h-40v535h416z" />
    <glyph glyph-name="uni0442.ss01" horiz-adv-x="476" 
d="M458 535v-37h-200v-498h-40v498h-200v37h440z" />
    <glyph glyph-name="uni0444.ss01" horiz-adv-x="773" 
d="M726 268c0 -166 -124 -273 -320 -279v-144h-39v144c-196 6 -320 112 -320 279c0 168 126 274 320 280v143h39v-143c195 -6 320 -113 320 -280zM87 269c0 -149 108 -238 280 -244v486c-172 -5 -280 -94 -280 -242zM406 25c172 6 280 95 280 244c0 147 -108 237 -280 242
v-486z" />
    <glyph glyph-name="uni0446.ss01" horiz-adv-x="602" 
d="M536 -180v180h-451v548h43v-511h326v511h43v-511h82v-217h-43z" />
    <glyph glyph-name="uni0448.ss01" horiz-adv-x="853" 
d="M85 0v548h43v-511h277v511h43v-511h277v511h43v-548h-683z" />
    <glyph glyph-name="uni0449.ss01" horiz-adv-x="873" 
d="M768 37h86v-217h-43v180h-726v548h43v-511h277v511h43v-511h277v511h43v-511z" />
    <glyph glyph-name="uni044C.ss01" horiz-adv-x="537" 
d="M318 326c142 0 187 -92 187 -164c0 -77 -53 -162 -190 -162h-230v535h40v-209h193zM309 37c100 0 156 54 156 129s-58 123 -150 123h-190v-252h184z" />
    <glyph glyph-name="uni044A.ss01" horiz-adv-x="584" 
d="M365 326c142 0 187 -92 187 -164c0 -77 -53 -162 -190 -162h-210v498h-133v37h173v-209h173zM356 37c100 0 156 54 156 129s-58 123 -150 123h-170v-252h164z" />
    <glyph glyph-name="uni044E.ss01" horiz-adv-x="824" 
d="M500 548c159 0 277 -123 277 -280c0 -158 -118 -281 -277 -281c-154 0 -270 116 -277 267h-98v-254h-40v535h40v-244h99c11 146 125 257 276 257zM500 24c138 0 237 107 237 244s-99 243 -237 243s-237 -106 -237 -243s99 -244 237 -244z" />
    <glyph glyph-name="uni0394" unicode="&#x394;" horiz-adv-x="697" 
d="M16 0v26l323 713h20l322 -713v-26h-665zM65 37h567l-283 630z" />
    <glyph glyph-name="uni03A9" unicode="&#x3a9;" horiz-adv-x="828" 
d="M69 0v35h193c-134 79 -205 205 -205 346c0 211 159 371 357 371s357 -160 357 -371c0 -141 -71 -267 -205 -346h193v-35h-278v25c174 87 250 214 250 354c0 189 -137 336 -317 336s-317 -147 -317 -336c0 -140 76 -267 250 -354v-25h-278z" />
    <glyph glyph-name="uni03BC" unicode="&#x3bc;" horiz-adv-x="597" 
d="M472 535h40v-535h-38v107c-33 -85 -102 -121 -181 -121c-62 0 -132 26 -168 110v-314h-40v753h40v-315c0 -100 65 -197 169 -197c60 0 178 33 178 220v292z" />
    <glyph glyph-name="pi" unicode="&#x3c0;" horiz-adv-x="583" 
d="M116 0v498h-94v37h539v-37h-94v-498h-40v498h-271v-498h-40z" />
    <glyph glyph-name="zero" unicode="0" horiz-adv-x="652" 
d="M326 -12c-199 0 -267 208 -267 382s68 382 267 382c200 0 267 -208 267 -382s-67 -382 -267 -382zM326 25c141 0 227 134 227 345s-86 345 -227 345s-227 -135 -227 -345s86 -345 227 -345z" />
    <glyph glyph-name="one" unicode="1" horiz-adv-x="360" 
d="M227 739h28v-739h-40v679l-178 -150l-26 28z" />
    <glyph glyph-name="two" unicode="2" horiz-adv-x="525" 
d="M107 36h370v-37h-423v36l196 229c98 114 173 204 173 295c0 86 -67 156 -168 156c-69 0 -132 -32 -189 -92l-28 26c64 67 139 103 217 103c120 0 208 -84 208 -196c0 -70 -35 -144 -184 -318z" />
    <glyph glyph-name="three" unicode="3" horiz-adv-x="535" 
d="M244 -12c-80 0 -149 27 -209 76l23 31c62 -50 120 -70 186 -70c114 0 191 71 191 171c0 84 -47 161 -197 161h-72v37h61c147 0 193 94 193 164c0 91 -67 157 -170 157c-68 0 -136 -29 -179 -78l-24 26c47 54 125 89 203 89c130 0 210 -88 210 -194
c0 -85 -53 -153 -125 -177v-4c85 -20 140 -91 140 -181c0 -119 -94 -208 -231 -208z" />
    <glyph glyph-name="four" unicode="4" horiz-adv-x="549" 
d="M509 241v-37h-84v-204h-40v204h-364l-5 25l382 510h27v-498h84zM71 241h314v417z" />
    <glyph glyph-name="five" unicode="5" horiz-adv-x="551" 
d="M281 468c123 0 225 -86 225 -234c0 -150 -108 -246 -246 -246c-81 0 -150 34 -213 92l24 27c57 -52 117 -82 188 -82c121 0 207 84 207 210c0 122 -80 196 -187 196c-77 0 -130 -38 -170 -90l-31 13l35 385h344v-37h-309l-29 -299c42 45 103 65 162 65z" />
    <glyph glyph-name="six" unicode="6" horiz-adv-x="594" 
d="M312 -9c-170 0 -254 159 -254 358c0 201 87 403 280 403c51 0 118 -15 173 -61l-22 -30c-37 32 -93 54 -150 54c-194 0 -253 -232 -242 -418h2c16 103 117 180 219 180c127 0 229 -101 229 -240c0 -140 -97 -246 -235 -246zM318 28c104 0 189 87 189 208
c0 118 -83 204 -189 204c-104 0 -200 -93 -200 -205c0 -104 86 -207 200 -207z" />
    <glyph glyph-name="seven" unicode="7" horiz-adv-x="478" 
d="M17 739h442v-28l-297 -711h-43l297 702h-399v37z" />
    <glyph glyph-name="eight" unicode="8" horiz-adv-x="599" 
d="M300 -12c-144 0 -245 92 -245 209c0 86 55 168 158 192v2c-92 35 -129 107 -129 173c0 104 89 188 216 188s215 -83 215 -187c0 -68 -38 -142 -130 -174v-3c104 -23 159 -104 159 -191c0 -116 -100 -209 -244 -209zM299 407c125 0 178 90 178 158c0 80 -71 150 -177 150
c-107 0 -177 -71 -177 -151c0 -68 52 -157 176 -157zM300 25c121 0 205 75 205 172c0 76 -52 175 -204 175s-207 -98 -207 -176c0 -96 85 -171 206 -171z" />
    <glyph glyph-name="nine" unicode="9" horiz-adv-x="593" 
d="M261 -9c-51 0 -118 15 -173 61l22 30c37 -32 93 -54 150 -54c197 0 246 232 235 418h-2c-16 -102 -117 -179 -219 -179c-127 0 -229 101 -229 239c0 140 97 246 235 246c170 0 254 -159 254 -358c0 -201 -78 -403 -273 -403zM274 304c104 0 200 93 200 204
c0 104 -86 207 -200 207c-104 0 -189 -87 -189 -208c0 -117 83 -203 189 -203z" />
    <glyph glyph-name="zero.lf" horiz-adv-x="652" 
d="M326 -12c-199 0 -267 208 -267 382s68 382 267 382c200 0 267 -208 267 -382s-67 -382 -267 -382zM326 25c141 0 227 134 227 345s-86 345 -227 345s-227 -135 -227 -345s86 -345 227 -345z" />
    <glyph glyph-name="one.lf" horiz-adv-x="360" 
d="M227 739h28v-739h-40v679l-178 -150l-26 28z" />
    <glyph glyph-name="two.lf" horiz-adv-x="525" 
d="M107 36h370v-37h-423v36l196 229c98 114 173 204 173 295c0 86 -67 156 -168 156c-69 0 -132 -32 -189 -92l-28 26c64 67 139 103 217 103c120 0 208 -84 208 -196c0 -70 -35 -144 -184 -318z" />
    <glyph glyph-name="three.lf" horiz-adv-x="535" 
d="M244 -12c-80 0 -149 27 -209 76l23 31c62 -50 120 -70 186 -70c114 0 191 71 191 171c0 84 -47 161 -197 161h-72v37h61c147 0 193 94 193 164c0 91 -67 157 -170 157c-68 0 -136 -29 -179 -78l-24 26c47 54 125 89 203 89c130 0 210 -88 210 -194
c0 -85 -53 -153 -125 -177v-4c85 -20 140 -91 140 -181c0 -119 -94 -208 -231 -208z" />
    <glyph glyph-name="four.lf" horiz-adv-x="549" 
d="M509 241v-37h-84v-204h-40v204h-364l-5 25l382 510h27v-498h84zM71 241h314v417z" />
    <glyph glyph-name="five.lf" horiz-adv-x="551" 
d="M281 468c123 0 225 -86 225 -234c0 -150 -108 -246 -246 -246c-81 0 -150 34 -213 92l24 27c57 -52 117 -82 188 -82c121 0 207 84 207 210c0 122 -80 196 -187 196c-77 0 -130 -38 -170 -90l-31 13l35 385h344v-37h-309l-29 -299c42 45 103 65 162 65z" />
    <glyph glyph-name="six.lf" horiz-adv-x="594" 
d="M312 -9c-170 0 -254 159 -254 358c0 201 87 403 280 403c51 0 118 -15 173 -61l-22 -30c-37 32 -93 54 -150 54c-194 0 -253 -232 -242 -418h2c16 103 117 180 219 180c127 0 229 -101 229 -240c0 -140 -97 -246 -235 -246zM318 28c104 0 189 87 189 208
c0 118 -83 204 -189 204c-104 0 -200 -93 -200 -205c0 -104 86 -207 200 -207z" />
    <glyph glyph-name="seven.lf" horiz-adv-x="478" 
d="M17 739h442v-28l-297 -711h-43l297 702h-399v37z" />
    <glyph glyph-name="eight.lf" horiz-adv-x="599" 
d="M300 -12c-144 0 -245 92 -245 209c0 86 55 168 158 192v2c-92 35 -129 107 -129 173c0 104 89 188 216 188s215 -83 215 -187c0 -68 -38 -142 -130 -174v-3c104 -23 159 -104 159 -191c0 -116 -100 -209 -244 -209zM299 407c125 0 178 90 178 158c0 80 -71 150 -177 150
c-107 0 -177 -71 -177 -151c0 -68 52 -157 176 -157zM300 25c121 0 205 75 205 172c0 76 -52 175 -204 175s-207 -98 -207 -176c0 -96 85 -171 206 -171z" />
    <glyph glyph-name="nine.lf" horiz-adv-x="593" 
d="M261 -9c-51 0 -118 15 -173 61l22 30c37 -32 93 -54 150 -54c197 0 246 232 235 418h-2c-16 -102 -117 -179 -219 -179c-127 0 -229 101 -229 239c0 140 97 246 235 246c170 0 254 -159 254 -358c0 -201 -78 -403 -273 -403zM274 304c104 0 200 93 200 204
c0 104 -86 207 -200 207c-104 0 -189 -87 -189 -208c0 -117 83 -203 189 -203z" />
    <glyph glyph-name="zero.num" horiz-adv-x="367" 
d="M183 341c-109 0 -148 110 -148 206s39 205 148 205c110 0 149 -109 149 -205s-39 -206 -149 -206zM183 379c73 0 109 71 109 168c0 99 -37 167 -109 167s-108 -68 -108 -167c0 -97 36 -168 108 -168z" />
    <glyph glyph-name="one.num" horiz-adv-x="255" 
d="M157 743h28v-396h-38v342l-98 -78l-21 29z" />
    <glyph glyph-name="two.num" horiz-adv-x="329" 
d="M99 382h184v-35h-235l-1 31l112 127c46 52 80 94 80 137s-33 76 -80 76c-35 0 -68 -17 -98 -48l-22 26c36 36 78 56 121 56c68 0 117 -46 117 -111c0 -35 -17 -73 -84 -151z" />
    <glyph glyph-name="three.num" horiz-adv-x="301" 
d="M144 341c-47 0 -86 15 -122 41l18 30c35 -24 68 -35 103 -35c59 0 96 32 96 79c0 42 -26 76 -99 76h-44v36h39c69 0 96 39 96 76c0 44 -34 72 -85 72c-34 0 -69 -13 -96 -39l-20 27c28 29 73 48 118 48c74 0 122 -47 122 -104c0 -46 -30 -81 -71 -94v-2
c49 -11 79 -49 79 -97c0 -66 -55 -114 -134 -114z" />
    <glyph glyph-name="four.num" horiz-adv-x="334" 
d="M293 483v-34h-46v-102h-37v102h-190l-8 24l211 270h24v-260h46zM62 483h148v189z" />
    <glyph glyph-name="five.num" horiz-adv-x="315" 
d="M156 597c72 0 128 -48 128 -125c0 -78 -60 -131 -140 -131c-45 0 -87 18 -123 48l20 30c33 -27 65 -42 102 -42c61 0 101 38 101 96c0 56 -37 91 -92 91c-38 0 -66 -18 -87 -43l-25 17l21 201h197v-35h-168l-15 -133c21 17 50 26 81 26z" />
    <glyph glyph-name="six.num" horiz-adv-x="344" 
d="M177 341c-99 0 -147 86 -147 193c0 110 51 218 165 218c30 0 70 -8 102 -33l-17 -27c-22 17 -53 28 -83 28c-101 0 -136 -111 -132 -199h1c12 48 63 82 118 82c73 0 130 -54 130 -129c0 -76 -56 -133 -137 -133zM180 373c54 0 98 43 98 101c0 56 -43 98 -98 98
c-54 0 -102 -44 -102 -99c0 -52 44 -100 102 -100z" />
    <glyph glyph-name="seven.num" horiz-adv-x="299" 
d="M31 743h246v-25l-159 -371h-39l157 361h-205v35z" />
    <glyph glyph-name="eight.num" horiz-adv-x="344" 
d="M172 341c-86 0 -144 50 -144 113c0 46 31 88 88 103v1c-49 19 -71 55 -71 91c0 58 52 103 127 103s127 -45 127 -102c0 -37 -23 -74 -72 -92v-1c57 -15 89 -57 89 -103c0 -63 -58 -113 -144 -113zM172 574c62 0 88 39 88 74c0 39 -33 71 -88 71s-89 -32 -89 -72
c0 -35 26 -73 89 -73zM172 375c63 0 106 34 106 82c0 39 -29 83 -106 83c-76 0 -106 -43 -106 -83c0 -48 43 -82 106 -82z" />
    <glyph glyph-name="nine.num" horiz-adv-x="337" 
d="M150 341c-32 0 -70 9 -100 33l16 27c21 -16 51 -28 83 -28c98 0 127 107 124 200h-1c-12 -48 -62 -83 -115 -83c-72 0 -127 54 -127 128c0 77 55 134 134 134c96 0 143 -85 143 -194c0 -110 -45 -217 -157 -217zM161 521c53 0 99 45 99 99c0 52 -42 100 -99 100
c-53 0 -95 -42 -95 -101c0 -56 41 -98 95 -98z" />
    <glyph glyph-name="one.numalt" horiz-adv-x="328" 
d="M170 743h28v-397h-38v343l-98 -78l-21 29z" />
    <glyph glyph-name="zero.osf" horiz-adv-x="573" 
d="M286 -12c-169 0 -227 163 -227 301s58 300 227 300c170 0 228 -162 228 -300s-58 -301 -228 -301zM286 25c119 0 188 104 188 264c0 159 -69 263 -187 263s-188 -104 -188 -263c0 -160 70 -264 187 -264z" />
    <glyph glyph-name="one.osf" horiz-adv-x="418" 
d="M264 37h140v-37h-372v37h192v488l-185 -124l-22 32l218 147h29v-543z" />
    <glyph glyph-name="two.osf" horiz-adv-x="496" 
d="M112 36h336v-37h-395v35l208 193c65 60 136 122 136 200c0 76 -68 125 -150 125c-75 0 -132 -38 -184 -89l-25 28c58 59 130 98 211 98c100 0 187 -63 187 -162c0 -63 -34 -121 -168 -246z" />
    <glyph glyph-name="three.osf" horiz-adv-x="510" 
d="M231 -110c-79 0 -147 24 -206 69l23 31c61 -45 118 -63 183 -63c111 0 187 64 187 154c0 76 -47 146 -193 146h-71v36h60c144 0 189 84 189 148c0 82 -66 141 -166 141c-67 0 -134 -26 -176 -71l-24 26c46 50 123 82 200 82c127 0 206 -81 206 -178
c0 -77 -52 -139 -123 -161v-4c84 -18 138 -83 138 -165c0 -109 -93 -191 -227 -191z" />
    <glyph glyph-name="four.osf" horiz-adv-x="557" 
d="M519 115v-37h-84v-176h-40v176h-364l-5 25l382 475h27v-463h84zM82 115h313v384z" />
    <glyph glyph-name="five.osf" horiz-adv-x="528" 
d="M268 328c122 0 223 -80 223 -216c0 -137 -107 -226 -243 -226c-80 0 -149 31 -211 85l24 27c56 -48 116 -75 186 -75c119 0 204 77 204 190c0 110 -79 178 -185 178c-75 0 -128 -34 -167 -81l-31 13l34 352h341v-37h-307l-27 -269c42 40 101 59 159 59z" />
    <glyph glyph-name="six.osf" horiz-adv-x="594" 
d="M312 -9c-170 0 -254 152 -254 342c0 192 87 385 280 385c51 0 118 -14 173 -58l-22 -30c-37 31 -93 52 -150 52c-194 0 -253 -220 -242 -396h2c16 97 117 170 219 170c127 0 229 -97 229 -230c0 -134 -97 -235 -235 -235zM318 28c104 0 189 83 189 197
c0 112 -83 194 -189 194c-104 0 -200 -88 -200 -195c0 -99 86 -196 200 -196z" />
    <glyph glyph-name="seven.osf" horiz-adv-x="473" 
d="M13 575h442v-27l-287 -645h-43l287 635h-399v37z" />
    <glyph glyph-name="eight.osf" horiz-adv-x="593" 
d="M297 -12c-144 0 -245 88 -245 200c0 82 55 160 158 183v2c-92 34 -129 102 -129 165c0 100 89 180 216 180s215 -79 215 -179c0 -65 -38 -135 -130 -166v-3c104 -22 159 -99 159 -182c0 -111 -100 -200 -244 -200zM296 389c125 0 178 85 178 150c0 76 -71 143 -177 143
c-107 0 -177 -68 -177 -144c0 -65 52 -149 176 -149zM297 25c121 0 205 71 205 163c0 73 -52 166 -204 166s-207 -92 -207 -167c0 -91 85 -162 206 -162z" />
    <glyph glyph-name="nine.osf" horiz-adv-x="570" 
d="M250 -112c-50 0 -116 14 -170 56l22 30c36 -29 91 -49 147 -49c193 0 242 208 231 377h-2c-16 -91 -115 -159 -215 -159c-125 0 -225 92 -225 219c0 129 95 227 231 227c167 0 250 -146 250 -330c0 -186 -77 -371 -269 -371zM263 179c102 0 196 84 196 185
c0 95 -84 188 -196 188c-102 0 -185 -79 -185 -189c0 -106 81 -184 185 -184z" />
    <glyph glyph-name="zero.slash" horiz-adv-x="652" 
d="M326 752c200 0 267 -208 267 -382s-67 -382 -267 -382c-199 0 -267 208 -267 382s68 382 267 382zM326 715c-141 0 -227 -135 -227 -345c0 -90 16 -166 45 -224l345 481c-39 57 -95 88 -163 88zM326 25c141 0 227 134 227 345c0 90 -16 166 -44 223l-344 -482
c39 -55 94 -86 161 -86z" />
    <glyph glyph-name="zero.tf" horiz-adv-x="560" 
d="M280 -12c-188 0 -252 208 -252 382s64 382 252 382c189 0 252 -208 252 -382s-63 -382 -252 -382zM280 25c132 0 212 134 212 345s-80 345 -212 345s-212 -135 -212 -345s80 -345 212 -345z" />
    <glyph glyph-name="one.tf" horiz-adv-x="560" 
d="M332 36h170v-37h-387v37h177v643l-178 -150l-26 28l216 182h28v-703z" />
    <glyph glyph-name="two.tf" horiz-adv-x="560" 
d="M124 36h370v-37h-423v36l196 229c98 114 173 204 173 295c0 86 -67 156 -168 156c-69 0 -132 -32 -189 -92l-28 26c64 67 139 103 217 103c120 0 208 -84 208 -196c0 -70 -35 -144 -184 -318z" />
    <glyph glyph-name="three.tf" horiz-adv-x="560" 
d="M249 -12c-80 0 -149 27 -209 76l23 31c62 -50 120 -70 186 -70c114 0 191 71 191 171c0 84 -47 161 -197 161h-72v37h61c147 0 193 94 193 164c0 91 -67 157 -170 157c-68 0 -136 -29 -179 -78l-24 26c47 54 125 89 203 89c130 0 210 -88 210 -194
c0 -85 -53 -153 -125 -177v-4c85 -20 140 -91 140 -181c0 -119 -94 -208 -231 -208z" />
    <glyph glyph-name="four.tf" horiz-adv-x="560" 
d="M523 241v-37h-84v-204h-40v204h-364l-5 25l382 510h27v-498h84zM85 241h314v417z" />
    <glyph glyph-name="five.tf" horiz-adv-x="560" 
d="M286 468c123 0 225 -86 225 -234c0 -150 -108 -246 -246 -246c-81 0 -150 34 -213 92l24 27c57 -52 117 -82 188 -82c121 0 207 84 207 210c0 122 -80 196 -187 196c-77 0 -130 -38 -170 -90l-31 13l35 385h344v-37h-309l-29 -299c42 45 103 65 162 65z" />
    <glyph glyph-name="six.tf" horiz-adv-x="560" 
d="M295 -9c-170 0 -254 159 -254 358c0 201 87 403 280 403c51 0 118 -15 173 -61l-22 -30c-37 32 -93 54 -150 54c-194 0 -253 -232 -242 -418h2c16 103 117 180 219 180c127 0 229 -101 229 -240c0 -140 -97 -246 -235 -246zM301 28c104 0 189 87 189 208
c0 118 -83 204 -189 204c-104 0 -200 -93 -200 -205c0 -104 86 -207 200 -207z" />
    <glyph glyph-name="seven.tf" horiz-adv-x="560" 
d="M58 739h462v-28l-327 -711h-43l326 702h-418v37z" />
    <glyph glyph-name="eight.tf" horiz-adv-x="560" 
d="M280 -12c-144 0 -245 92 -245 209c0 86 55 168 158 192v2c-92 35 -129 107 -129 173c0 104 89 188 216 188s215 -83 215 -187c0 -68 -38 -142 -130 -174v-3c104 -23 159 -104 159 -191c0 -116 -100 -209 -244 -209zM279 407c125 0 178 90 178 158c0 80 -71 150 -177 150
c-107 0 -177 -71 -177 -151c0 -68 52 -157 176 -157zM280 25c121 0 205 75 205 172c0 76 -52 175 -204 175s-207 -98 -207 -176c0 -96 85 -171 206 -171z" />
    <glyph glyph-name="nine.tf" horiz-adv-x="560" 
d="M245 -9c-51 0 -118 15 -173 61l22 30c37 -32 93 -54 150 -54c197 0 246 232 235 418h-2c-16 -102 -117 -179 -219 -179c-127 0 -229 101 -229 239c0 140 97 246 235 246c170 0 254 -159 254 -358c0 -201 -78 -403 -273 -403zM258 304c104 0 200 93 200 204
c0 104 -86 207 -200 207c-104 0 -189 -87 -189 -208c0 -117 83 -203 189 -203z" />
    <glyph glyph-name="uni2080" unicode="&#x2080;" horiz-adv-x="367" 
d="M183 -161c-109 0 -148 110 -148 206s39 205 148 205c110 0 149 -109 149 -205s-39 -206 -149 -206zM183 -123c73 0 109 71 109 168c0 99 -37 167 -109 167s-108 -68 -108 -167c0 -97 36 -168 108 -168z" />
    <glyph glyph-name="uni2081" unicode="&#x2081;" horiz-adv-x="255" 
d="M157 241h28v-396h-38v342l-98 -78l-21 29z" />
    <glyph glyph-name="uni2082" unicode="&#x2082;" horiz-adv-x="329" 
d="M99 -120h184v-35h-235l-1 31l112 127c46 52 80 94 80 137s-33 76 -80 76c-35 0 -68 -17 -98 -48l-22 26c36 36 78 56 121 56c68 0 117 -46 117 -111c0 -35 -17 -73 -84 -151z" />
    <glyph glyph-name="uni2083" unicode="&#x2083;" horiz-adv-x="301" 
d="M144 -161c-47 0 -86 15 -122 41l18 30c35 -24 68 -35 103 -35c59 0 96 32 96 79c0 42 -26 76 -99 76h-44v36h39c69 0 96 39 96 76c0 44 -34 72 -85 72c-34 0 -69 -13 -96 -39l-20 27c28 29 73 48 118 48c74 0 122 -47 122 -104c0 -46 -30 -81 -71 -94v-2
c49 -11 79 -49 79 -97c0 -66 -55 -114 -134 -114z" />
    <glyph glyph-name="uni2084" unicode="&#x2084;" horiz-adv-x="334" 
d="M293 -19v-34h-46v-102h-37v102h-190l-8 24l211 270h24v-260h46zM62 -19h148v189z" />
    <glyph glyph-name="uni2085" unicode="&#x2085;" horiz-adv-x="315" 
d="M156 95c72 0 128 -48 128 -125c0 -78 -60 -131 -140 -131c-45 0 -87 18 -123 48l20 30c33 -27 65 -42 102 -42c61 0 101 38 101 96c0 56 -37 91 -92 91c-38 0 -66 -18 -87 -43l-25 17l21 201h197v-35h-168l-15 -133c21 17 50 26 81 26z" />
    <glyph glyph-name="uni2086" unicode="&#x2086;" horiz-adv-x="344" 
d="M177 -161c-99 0 -147 86 -147 193c0 110 51 218 165 218c30 0 70 -8 102 -33l-17 -27c-22 17 -53 28 -83 28c-101 0 -136 -111 -132 -199h1c12 48 63 82 118 82c73 0 130 -54 130 -129c0 -76 -56 -133 -137 -133zM180 -129c54 0 98 43 98 101c0 56 -43 98 -98 98
c-54 0 -102 -44 -102 -99c0 -52 44 -100 102 -100z" />
    <glyph glyph-name="uni2087" unicode="&#x2087;" horiz-adv-x="299" 
d="M31 241h246v-25l-159 -371h-39l157 361h-205v35z" />
    <glyph glyph-name="uni2088" unicode="&#x2088;" horiz-adv-x="344" 
d="M172 -161c-86 0 -144 50 -144 113c0 46 31 88 88 103v1c-49 19 -71 55 -71 91c0 58 52 103 127 103s127 -45 127 -102c0 -37 -23 -74 -72 -92v-1c57 -15 89 -57 89 -103c0 -63 -58 -113 -144 -113zM172 72c62 0 88 39 88 74c0 39 -33 71 -88 71s-89 -32 -89 -72
c0 -35 26 -73 89 -73zM172 -127c63 0 106 34 106 82c0 39 -29 83 -106 83c-76 0 -106 -43 -106 -83c0 -48 43 -82 106 -82z" />
    <glyph glyph-name="uni2089" unicode="&#x2089;" horiz-adv-x="337" 
d="M150 -161c-32 0 -70 9 -100 33l16 27c21 -16 51 -28 83 -28c98 0 127 107 124 200h-1c-12 -48 -62 -83 -115 -83c-72 0 -127 54 -127 128c0 77 55 134 134 134c96 0 143 -85 143 -194c0 -110 -45 -217 -157 -217zM161 19c53 0 99 45 99 99c0 52 -42 100 -99 100
c-53 0 -95 -42 -95 -101c0 -56 41 -98 95 -98z" />
    <glyph glyph-name="zero.dnom" horiz-adv-x="367" 
d="M183 -5c-109 0 -148 110 -148 206s39 205 148 205c110 0 149 -109 149 -205s-39 -206 -149 -206zM183 33c73 0 109 71 109 168c0 99 -37 167 -109 167s-108 -68 -108 -167c0 -97 36 -168 108 -168z" />
    <glyph glyph-name="one.dnom" horiz-adv-x="255" 
d="M157 396h28v-397h-38v343l-98 -78l-21 29z" />
    <glyph glyph-name="two.dnom" horiz-adv-x="329" 
d="M99 35h184v-35h-235l-1 31l112 127c46 52 80 94 80 137s-33 76 -80 76c-35 0 -68 -17 -98 -48l-22 26c36 36 78 56 121 56c68 0 117 -46 117 -111c0 -35 -17 -73 -84 -151z" />
    <glyph glyph-name="three.dnom" horiz-adv-x="301" 
d="M144 -6c-47 0 -86 15 -122 41l18 30c35 -24 68 -35 103 -35c59 0 96 32 96 79c0 42 -26 76 -99 76h-44v36h39c69 0 96 39 96 76c0 44 -34 72 -85 72c-34 0 -69 -13 -96 -39l-20 27c28 29 73 48 118 48c74 0 122 -47 122 -104c0 -46 -30 -81 -71 -94v-2
c49 -11 79 -49 79 -97c0 -66 -55 -114 -134 -114z" />
    <glyph glyph-name="four.dnom" horiz-adv-x="334" 
d="M293 136v-34h-46v-102h-37v102h-190l-8 24l211 270h24v-260h46zM62 136h148v189z" />
    <glyph glyph-name="five.dnom" horiz-adv-x="315" 
d="M156 250c72 0 128 -48 128 -125c0 -78 -60 -131 -140 -131c-45 0 -87 18 -123 48l20 30c33 -27 65 -42 102 -42c61 0 101 38 101 96c0 56 -37 91 -92 91c-38 0 -66 -18 -87 -43l-25 17l21 201h197v-35h-168l-15 -133c21 17 50 26 81 26z" />
    <glyph glyph-name="six.dnom" horiz-adv-x="344" 
d="M177 -6c-99 0 -147 86 -147 193c0 110 51 218 165 218c30 0 70 -8 102 -33l-17 -27c-22 17 -53 28 -83 28c-101 0 -136 -111 -132 -199h1c12 48 63 82 118 82c73 0 130 -54 130 -129c0 -76 -56 -133 -137 -133zM180 26c54 0 98 43 98 101c0 56 -43 98 -98 98
c-54 0 -102 -44 -102 -99c0 -52 44 -100 102 -100z" />
    <glyph glyph-name="seven.dnom" horiz-adv-x="299" 
d="M31 396h246v-25l-159 -371h-39l157 361h-205v35z" />
    <glyph glyph-name="eight.dnom" horiz-adv-x="344" 
d="M172 -6c-86 0 -144 50 -144 113c0 46 31 88 88 103v1c-49 19 -71 55 -71 91c0 58 52 103 127 103s127 -45 127 -102c0 -37 -23 -74 -72 -92v-1c57 -15 89 -57 89 -103c0 -63 -58 -113 -144 -113zM172 227c62 0 88 39 88 74c0 39 -33 71 -88 71s-89 -32 -89 -72
c0 -35 26 -73 89 -73zM172 28c63 0 106 34 106 82c0 39 -29 83 -106 83c-76 0 -106 -43 -106 -83c0 -48 43 -82 106 -82z" />
    <glyph glyph-name="nine.dnom" horiz-adv-x="337" 
d="M150 -6c-32 0 -70 9 -100 33l16 27c21 -16 51 -28 83 -28c98 0 127 107 124 200h-1c-12 -48 -62 -83 -115 -83c-72 0 -127 54 -127 128c0 77 55 134 134 134c96 0 143 -85 143 -194c0 -110 -45 -217 -157 -217zM161 174c53 0 99 45 99 99c0 52 -42 100 -99 100
c-53 0 -95 -42 -95 -101c0 -56 41 -98 95 -98z" />
    <glyph glyph-name="uni2070" unicode="&#x2070;" horiz-adv-x="367" 
d="M183 501c-109 0 -148 110 -148 206s39 205 148 205c110 0 149 -109 149 -205s-39 -206 -149 -206zM183 539c73 0 109 71 109 168c0 99 -37 167 -109 167s-108 -68 -108 -167c0 -97 36 -168 108 -168z" />
    <glyph glyph-name="uni00B9" unicode="&#xb9;" horiz-adv-x="255" 
d="M157 903h28v-396h-38v342l-98 -78l-21 29z" />
    <glyph glyph-name="uni00B2" unicode="&#xb2;" horiz-adv-x="329" 
d="M99 542h184v-35h-235l-1 31l112 127c46 52 80 94 80 137s-33 76 -80 76c-35 0 -68 -17 -98 -48l-22 26c36 36 78 56 121 56c68 0 117 -46 117 -111c0 -35 -17 -73 -84 -151z" />
    <glyph glyph-name="uni00B3" unicode="&#xb3;" horiz-adv-x="301" 
d="M144 501c-47 0 -86 15 -122 41l18 30c35 -24 68 -35 103 -35c59 0 96 32 96 79c0 42 -26 76 -99 76h-44v36h39c69 0 96 39 96 76c0 44 -34 72 -85 72c-34 0 -69 -13 -96 -39l-20 27c28 29 73 48 118 48c74 0 122 -47 122 -104c0 -46 -30 -81 -71 -94v-2
c49 -11 79 -49 79 -97c0 -66 -55 -114 -134 -114z" />
    <glyph glyph-name="uni2074" unicode="&#x2074;" horiz-adv-x="334" 
d="M293 643v-34h-46v-102h-37v102h-190l-8 24l211 270h24v-260h46zM62 643h148v189z" />
    <glyph glyph-name="uni2075" unicode="&#x2075;" horiz-adv-x="315" 
d="M156 757c72 0 128 -48 128 -125c0 -78 -60 -131 -140 -131c-45 0 -87 18 -123 48l20 30c33 -27 65 -42 102 -42c61 0 101 38 101 96c0 56 -37 91 -92 91c-38 0 -66 -18 -87 -43l-25 17l21 201h197v-35h-168l-15 -133c21 17 50 26 81 26z" />
    <glyph glyph-name="uni2076" unicode="&#x2076;" horiz-adv-x="344" 
d="M177 501c-99 0 -147 86 -147 193c0 110 51 218 165 218c30 0 70 -8 102 -33l-17 -27c-22 17 -53 28 -83 28c-101 0 -136 -111 -132 -199h1c12 48 63 82 118 82c73 0 130 -54 130 -129c0 -76 -56 -133 -137 -133zM180 533c54 0 98 43 98 101c0 56 -43 98 -98 98
c-54 0 -102 -44 -102 -99c0 -52 44 -100 102 -100z" />
    <glyph glyph-name="uni2077" unicode="&#x2077;" horiz-adv-x="299" 
d="M31 903h246v-25l-159 -371h-39l157 361h-205v35z" />
    <glyph glyph-name="uni2078" unicode="&#x2078;" horiz-adv-x="344" 
d="M172 501c-86 0 -144 50 -144 113c0 46 31 88 88 103v1c-49 19 -71 55 -71 91c0 58 52 103 127 103s127 -45 127 -102c0 -37 -23 -74 -72 -92v-1c57 -15 89 -57 89 -103c0 -63 -58 -113 -144 -113zM172 734c62 0 88 39 88 74c0 39 -33 71 -88 71s-89 -32 -89 -72
c0 -35 26 -73 89 -73zM172 535c63 0 106 34 106 82c0 39 -29 83 -106 83c-76 0 -106 -43 -106 -83c0 -48 43 -82 106 -82z" />
    <glyph glyph-name="uni2079" unicode="&#x2079;" horiz-adv-x="337" 
d="M150 501c-32 0 -70 9 -100 33l16 27c21 -16 51 -28 83 -28c98 0 127 107 124 200h-1c-12 -48 -62 -83 -115 -83c-72 0 -127 54 -127 128c0 77 55 134 134 134c96 0 143 -85 143 -194c0 -110 -45 -217 -157 -217zM161 681c53 0 99 45 99 99c0 52 -42 100 -99 100
c-53 0 -95 -42 -95 -101c0 -56 41 -98 95 -98z" />
    <glyph glyph-name="fraction" unicode="&#x2044;" horiz-adv-x="160" 
d="M-229 0l578 739h42l-577 -739h-43z" />
    <glyph glyph-name="onehalf" unicode="&#xbd;" horiz-adv-x="807" 
d="M160 346v343l-98 -78l-21 29l129 103h28v-397h-38zM663 739h42l-577 -739h-43zM569 35h184v-35h-235l-1 31l112 127c46 52 80 94 80 137s-33 76 -80 76c-35 0 -68 -17 -98 -48l-22 26c36 36 78 56 121 56c68 0 117 -46 117 -111c0 -35 -17 -73 -84 -151z" />
    <glyph glyph-name="uni2153" unicode="&#x2153;" horiz-adv-x="824" 
d="M161 346v343l-98 -78l-21 29l129 103h28v-397h-38zM667 739h42l-577 -739h-43zM691 206c49 -11 79 -49 79 -97c0 -66 -55 -114 -134 -114c-47 0 -86 15 -122 41l18 30c35 -24 68 -35 103 -35c59 0 96 32 96 79c0 42 -26 76 -99 76h-44v36h39c69 0 96 39 96 76
c0 44 -34 72 -85 72c-34 0 -69 -13 -96 -39l-20 27c28 29 73 48 118 48c74 0 122 -47 122 -104c0 -46 -30 -81 -71 -94v-2z" />
    <glyph glyph-name="uni2154" unicode="&#x2154;" horiz-adv-x="819" 
d="M286 382v-35h-235l-1 31l112 127c46 52 80 94 80 137s-33 76 -80 76c-35 0 -68 -17 -98 -48l-22 26c36 36 78 56 121 56c68 0 117 -46 117 -111c0 -35 -17 -73 -84 -151l-94 -108h184zM696 739h42l-577 -739h-43zM675 204c49 -11 79 -49 79 -97c0 -66 -55 -114 -134 -114
c-47 0 -86 15 -122 41l18 30c35 -24 68 -35 103 -35c59 0 96 32 96 79c0 42 -26 76 -99 76h-44v36h39c69 0 96 39 96 76c0 44 -34 72 -85 72c-34 0 -69 -13 -96 -39l-20 27c28 29 73 48 118 48c74 0 122 -47 122 -104c0 -46 -30 -81 -71 -94v-2z" />
    <glyph glyph-name="onequarter" unicode="&#xbc;" horiz-adv-x="831" 
d="M159 346v343l-98 -78l-21 29l129 103h28v-397h-38zM704 739h42l-577 -739h-43zM783 136v-34h-46v-102h-37v102h-190l-8 24l211 270h24v-260h46zM552 136h148v189z" />
    <glyph glyph-name="threequarters" unicode="&#xbe;" horiz-adv-x="794" 
d="M143 377c59 0 96 32 96 79c0 42 -26 76 -99 76h-44v36h39c69 0 96 39 96 76c0 44 -34 72 -85 72c-34 0 -69 -13 -96 -39l-20 27c28 29 73 48 118 48c74 0 122 -47 122 -104c0 -46 -30 -81 -71 -94v-2c49 -11 79 -49 79 -97c0 -66 -55 -114 -134 -114
c-47 0 -86 15 -122 41l18 30c35 -24 68 -35 103 -35zM705 739h42l-577 -739h-43zM687 396v-260h46v-34h-46v-102h-37v102h-190l-8 24l211 270h24zM502 136h148v189z" />
    <glyph glyph-name="uni2155" unicode="&#x2155;" horiz-adv-x="838" 
d="M159 346v343l-98 -78l-21 29l129 103h28v-397h-38zM673 739h42l-577 -739h-43zM667 250c72 0 128 -48 128 -125c0 -78 -60 -131 -140 -131c-45 0 -87 18 -123 48l20 30c33 -27 65 -42 102 -42c61 0 101 38 101 96c0 56 -37 91 -92 91c-38 0 -66 -18 -87 -43l-25 17
l21 201h197v-35h-168l-15 -133c21 17 50 26 81 26z" />
    <glyph glyph-name="uni2156" unicode="&#x2156;" horiz-adv-x="820" 
d="M286 382v-35h-235l-1 31l112 127c46 52 80 94 80 137s-33 76 -80 76c-35 0 -68 -17 -98 -48l-22 26c36 36 78 56 121 56c68 0 117 -46 117 -111c0 -35 -17 -73 -84 -151l-94 -108h184zM698 739h42l-577 -739h-43zM628 250c72 0 128 -48 128 -125
c0 -78 -60 -131 -140 -131c-45 0 -87 18 -123 48l20 30c33 -27 65 -42 102 -42c61 0 101 38 101 96c0 56 -37 91 -92 91c-38 0 -66 -18 -87 -43l-25 17l21 201h197v-35h-168l-15 -133c21 17 50 26 81 26z" />
    <glyph glyph-name="uni2157" unicode="&#x2157;" horiz-adv-x="811" 
d="M146 377c59 0 96 32 96 79c0 42 -26 76 -99 76h-44v36h39c69 0 96 39 96 76c0 44 -34 72 -85 72c-34 0 -69 -13 -96 -39l-20 27c28 29 73 48 118 48c74 0 122 -47 122 -104c0 -46 -30 -81 -71 -94v-2c49 -11 79 -49 79 -97c0 -66 -55 -114 -134 -114
c-47 0 -86 15 -122 41l18 30c35 -24 68 -35 103 -35zM686 739h42l-577 -739h-43zM620 250c72 0 128 -48 128 -125c0 -78 -60 -131 -140 -131c-45 0 -87 18 -123 48l20 30c33 -27 65 -42 102 -42c61 0 101 38 101 96c0 56 -37 91 -92 91c-38 0 -66 -18 -87 -43l-25 17l21 201
h197v-35h-168l-15 -133c21 17 50 26 81 26z" />
    <glyph glyph-name="uni2158" unicode="&#x2158;" horiz-adv-x="844" 
d="M214 347v102h-190l-8 24l211 270h24v-260h46v-34h-46v-102h-37zM708 739h42l-577 -739h-43zM66 483h148v189zM645 250c72 0 128 -48 128 -125c0 -78 -60 -131 -140 -131c-45 0 -87 18 -123 48l20 30c33 -27 65 -42 102 -42c61 0 101 38 101 96c0 56 -37 91 -92 91
c-38 0 -66 -18 -87 -43l-25 17l21 201h197v-35h-168l-15 -133c21 17 50 26 81 26z" />
    <glyph glyph-name="uni2159" unicode="&#x2159;" horiz-adv-x="838" 
d="M159 346v343l-98 -78l-21 29l129 103h28v-397h-38zM683 739h42l-577 -739h-43zM667 250c72 0 128 -48 128 -125c0 -78 -60 -131 -140 -131c-45 0 -87 18 -123 48l20 30c33 -27 65 -42 102 -42c61 0 101 38 101 96c0 56 -37 91 -92 91c-38 0 -66 -18 -87 -43l-25 17
l21 201h197v-35h-168l-15 -133c21 17 50 26 81 26z" />
    <glyph glyph-name="uni215A" unicode="&#x215a;" horiz-adv-x="844" 
d="M143 377c61 0 101 38 101 96c0 56 -37 91 -92 91c-38 0 -66 -18 -87 -43l-25 17l21 201h197v-35h-168l-15 -133c21 17 50 26 81 26c72 0 128 -48 128 -125c0 -78 -60 -131 -140 -131c-45 0 -87 18 -123 48l20 30c33 -27 65 -42 102 -42zM684 739h42l-577 -739h-43z
M653 256c73 0 130 -54 130 -129c0 -76 -56 -133 -137 -133c-99 0 -147 86 -147 193c0 110 51 218 165 218c30 0 70 -8 102 -33l-17 -27c-22 17 -53 28 -83 28c-101 0 -136 -111 -132 -199h1c12 48 63 82 118 82zM649 26c54 0 98 43 98 101c0 56 -43 98 -98 98
c-54 0 -102 -44 -102 -99c0 -52 44 -100 102 -100z" />
    <glyph glyph-name="uni2150" unicode="&#x2150;" horiz-adv-x="839" 
d="M167 346v343l-98 -78l-21 29l129 103h28v-397h-38zM701 739h42l-577 -739h-43zM557 396h246v-25l-159 -371h-39l157 361h-205v35z" />
    <glyph glyph-name="two_fraction_seven" horiz-adv-x="833" 
d="M290 382v-35h-235l-1 31l112 127c46 52 80 94 80 137s-33 76 -80 76c-35 0 -68 -17 -98 -48l-22 26c36 36 78 56 121 56c68 0 117 -46 117 -111c0 -35 -17 -73 -84 -151l-94 -108h184zM711 739h42l-577 -739h-43zM551 396h246v-25l-159 -371h-39l157 361h-205v35z" />
    <glyph glyph-name="three_fraction_seven" horiz-adv-x="856" 
d="M150 377c59 0 96 32 96 79c0 42 -26 76 -99 76h-44v36h39c69 0 96 39 96 76c0 44 -34 72 -85 72c-34 0 -69 -13 -96 -39l-20 27c28 29 73 48 118 48c74 0 122 -47 122 -104c0 -46 -30 -81 -71 -94v-2c49 -11 79 -49 79 -97c0 -66 -55 -114 -134 -114
c-47 0 -86 15 -122 41l18 30c35 -24 68 -35 103 -35zM703 739h42l-577 -739h-43zM575 396h246v-25l-159 -371h-39l157 361h-205v35z" />
    <glyph glyph-name="four_fraction_seven" horiz-adv-x="826" 
d="M214 347v102h-190l-8 24l211 270h24v-260h46v-34h-46v-102h-37zM707 739h42l-577 -739h-43zM66 483h148v189zM540 396h246v-25l-159 -371h-39l157 361h-205v35z" />
    <glyph glyph-name="five_fraction_seven" horiz-adv-x="817" 
d="M148 377c61 0 101 38 101 96c0 56 -37 91 -92 91c-38 0 -66 -18 -87 -43l-25 17l21 201h197v-35h-168l-15 -133c21 17 50 26 81 26c72 0 128 -48 128 -125c0 -78 -60 -131 -140 -131c-45 0 -87 18 -123 48l20 30c33 -27 65 -42 102 -42zM688 739h42l-577 -739h-43z
M535 396h246v-25l-159 -371h-39l157 361h-205v35z" />
    <glyph glyph-name="six_fraction_seven" horiz-adv-x="822" 
d="M311 474c0 -76 -56 -133 -137 -133c-99 0 -147 86 -147 193c0 110 51 218 165 218c30 0 70 -8 102 -33l-17 -27c-22 17 -53 28 -83 28c-101 0 -136 -111 -132 -199h1c12 48 63 82 118 82c73 0 130 -54 130 -129zM689 739h42l-577 -739h-43zM75 473
c0 -52 44 -100 102 -100c54 0 98 43 98 101c0 56 -43 98 -98 98c-54 0 -102 -44 -102 -99zM540 396h246v-25l-159 -371h-39l157 361h-205v35z" />
    <glyph glyph-name="oneeighth" unicode="&#x215b;" horiz-adv-x="857" 
d="M160 346v343l-98 -78l-21 29l129 103h28v-397h-38zM710 739h42l-577 -739h-43zM708 210c57 -15 89 -57 89 -103c0 -63 -58 -113 -144 -113s-144 50 -144 113c0 46 31 88 88 103v1c-49 19 -71 55 -71 91c0 58 52 103 127 103s127 -45 127 -102c0 -37 -23 -74 -72 -92v-1z
M564 300c0 -35 26 -73 89 -73c62 0 88 39 88 74c0 39 -33 71 -88 71s-89 -32 -89 -72zM653 28c63 0 106 34 106 82c0 39 -29 83 -106 83c-76 0 -106 -43 -106 -83c0 -48 43 -82 106 -82z" />
    <glyph glyph-name="threeeighths" unicode="&#x215c;" horiz-adv-x="857" 
d="M145 341c-47 0 -86 15 -122 41l18 30c35 -24 68 -35 103 -35c59 0 96 32 96 79c0 42 -26 76 -99 76h-44v36h39c69 0 96 39 96 76c0 44 -34 72 -85 72c-34 0 -69 -13 -96 -39l-20 27c28 29 73 48 118 48c74 0 122 -47 122 -104c0 -46 -30 -81 -71 -94v-2
c49 -11 79 -49 79 -97c0 -66 -55 -114 -134 -114zM122 0l578 739h42l-577 -739h-43zM654 -6c-86 0 -144 50 -144 113c0 46 31 88 88 103v1c-49 19 -71 55 -71 91c0 58 52 103 127 103s127 -45 127 -102c0 -37 -23 -74 -72 -92v-1c57 -15 89 -57 89 -103
c0 -63 -58 -113 -144 -113zM654 227c62 0 88 39 88 74c0 39 -33 71 -88 71s-89 -32 -89 -72c0 -35 26 -73 89 -73zM654 28c63 0 106 34 106 82c0 39 -29 83 -106 83c-76 0 -106 -43 -106 -83c0 -48 43 -82 106 -82z" />
    <glyph glyph-name="fiveeighths" unicode="&#x215d;" horiz-adv-x="855" 
d="M142 377c61 0 101 38 101 96c0 56 -37 91 -92 91c-38 0 -66 -18 -87 -43l-25 17l21 201h197v-35h-168l-15 -133c21 17 50 26 81 26c72 0 128 -48 128 -125c0 -78 -60 -131 -140 -131c-45 0 -87 18 -123 48l20 30c33 -27 65 -42 102 -42zM697 739h42l-577 -739h-43z
M707 210c57 -15 89 -57 89 -103c0 -63 -58 -113 -144 -113s-144 50 -144 113c0 46 31 88 88 103v1c-49 19 -71 55 -71 91c0 58 52 103 127 103s127 -45 127 -102c0 -37 -23 -74 -72 -92v-1zM563 300c0 -35 26 -73 89 -73c62 0 88 39 88 74c0 39 -33 71 -88 71
s-89 -32 -89 -72zM652 28c63 0 106 34 106 82c0 39 -29 83 -106 83c-76 0 -106 -43 -106 -83c0 -48 43 -82 106 -82z" />
    <glyph glyph-name="seveneighths" unicode="&#x215e;" horiz-adv-x="795" 
d="M86 347l157 361h-205v35h246v-25l-159 -371h-39zM635 739h42l-577 -739h-43zM645 210c57 -15 89 -57 89 -103c0 -63 -58 -113 -144 -113s-144 50 -144 113c0 46 31 88 88 103v1c-49 19 -71 55 -71 91c0 58 52 103 127 103s127 -45 127 -102c0 -37 -23 -74 -72 -92v-1z
M501 300c0 -35 26 -73 89 -73c62 0 88 39 88 74c0 39 -33 71 -88 71s-89 -32 -89 -72zM590 28c63 0 106 34 106 82c0 39 -29 83 -106 83c-76 0 -106 -43 -106 -83c0 -48 43 -82 106 -82z" />
    <glyph glyph-name="uni2151" unicode="&#x2151;" horiz-adv-x="834" 
d="M161 346v343l-98 -78l-21 29l129 103h28v-397h-38zM697 739h42l-577 -739h-43zM635 405c96 0 143 -85 143 -194c0 -110 -45 -217 -157 -217c-32 0 -70 9 -100 33l16 27c21 -16 51 -28 83 -28c98 0 127 107 124 200h-1c-12 -48 -62 -83 -115 -83c-72 0 -127 54 -127 128
c0 77 55 134 134 134zM632 174c53 0 99 45 99 99c0 52 -42 100 -99 100c-53 0 -95 -42 -95 -101c0 -56 41 -98 95 -98z" />
    <glyph glyph-name="two_fraction_nine" horiz-adv-x="836" 
d="M286 382v-35h-235l-1 31l112 127c46 52 80 94 80 137s-33 76 -80 76c-35 0 -68 -17 -98 -48l-22 26c36 36 78 56 121 56c68 0 117 -46 117 -111c0 -35 -17 -73 -84 -151l-94 -108h184zM699 739h42l-577 -739h-43zM637 405c96 0 143 -85 143 -194
c0 -110 -45 -217 -157 -217c-32 0 -70 9 -100 33l16 27c21 -16 51 -28 83 -28c98 0 127 107 124 200h-1c-12 -48 -62 -83 -115 -83c-72 0 -127 54 -127 128c0 77 55 134 134 134zM634 174c53 0 99 45 99 99c0 52 -42 100 -99 100c-53 0 -95 -42 -95 -101
c0 -56 41 -98 95 -98z" />
    <glyph glyph-name="four_fraction_nine" horiz-adv-x="865" 
d="M213 347v102h-190l-8 24l211 270h24v-260h46v-34h-46v-102h-37zM719 739h42l-577 -739h-43zM65 483h148v189zM658 405c96 0 143 -85 143 -194c0 -110 -45 -217 -157 -217c-32 0 -70 9 -100 33l16 27c21 -16 51 -28 83 -28c98 0 127 107 124 200h-1
c-12 -48 -62 -83 -115 -83c-72 0 -127 54 -127 128c0 77 55 134 134 134zM655 174c53 0 99 45 99 99c0 52 -42 100 -99 100c-53 0 -95 -42 -95 -101c0 -56 41 -98 95 -98z" />
    <glyph glyph-name="five_fraction_nine" horiz-adv-x="807" 
d="M146 377c61 0 101 38 101 96c0 56 -37 91 -92 91c-38 0 -66 -18 -87 -43l-25 17l21 201h197v-35h-168l-15 -133c21 17 50 26 81 26c72 0 128 -48 128 -125c0 -78 -60 -131 -140 -131c-45 0 -87 18 -123 48l20 30c33 -27 65 -42 102 -42zM672 739h42l-577 -739h-43z
M608 405c96 0 143 -85 143 -194c0 -110 -45 -217 -157 -217c-32 0 -70 9 -100 33l16 27c21 -16 51 -28 83 -28c98 0 127 107 124 200h-1c-12 -48 -62 -83 -115 -83c-72 0 -127 54 -127 128c0 77 55 134 134 134zM605 174c53 0 99 45 99 99c0 52 -42 100 -99 100
c-53 0 -95 -42 -95 -101c0 -56 41 -98 95 -98z" />
    <glyph glyph-name="seven_fraction_nine" horiz-adv-x="787" 
d="M85 347l157 361h-205v35h246v-25l-159 -371h-39zM625 739h42l-577 -739h-43zM587 405c96 0 143 -85 143 -194c0 -110 -45 -217 -157 -217c-32 0 -70 9 -100 33l16 27c21 -16 51 -28 83 -28c98 0 127 107 124 200h-1c-12 -48 -62 -83 -115 -83c-72 0 -127 54 -127 128
c0 77 55 134 134 134zM584 174c53 0 99 45 99 99c0 52 -42 100 -99 100c-53 0 -95 -42 -95 -101c0 -56 41 -98 95 -98z" />
    <glyph glyph-name="eight_fraction_nine" horiz-adv-x="809" 
d="M169 341c-86 0 -144 50 -144 113c0 46 31 88 88 103v1c-49 19 -71 55 -71 91c0 58 52 103 127 103s127 -45 127 -102c0 -37 -23 -74 -72 -92v-1c57 -15 89 -57 89 -103c0 -63 -58 -113 -144 -113zM97 0l578 739h42l-577 -739h-43zM169 574c62 0 88 39 88 74
c0 39 -33 71 -88 71s-89 -32 -89 -72c0 -35 26 -73 89 -73zM169 375c63 0 106 34 106 82c0 39 -29 83 -106 83c-76 0 -106 -43 -106 -83c0 -48 43 -82 106 -82zM596 -6c-32 0 -70 9 -100 33l16 27c21 -16 51 -28 83 -28c98 0 127 107 124 200h-1c-12 -48 -62 -83 -115 -83
c-72 0 -127 54 -127 128c0 77 55 134 134 134c96 0 143 -85 143 -194c0 -110 -45 -217 -157 -217zM607 174c53 0 99 45 99 99c0 52 -42 100 -99 100c-53 0 -95 -42 -95 -101c0 -56 41 -98 95 -98z" />
    <glyph glyph-name="asterisk" unicode="*" horiz-adv-x="435" 
d="M118 414l-28 23l100 116l-136 63l15 31l132 -61l-2 151h37l-2 -151l132 61l15 -31l-136 -63l100 -116l-28 -23l-99 122z" />
    <glyph glyph-name="backslash" unicode="\" horiz-adv-x="553" 
d="M531 -123h-37l-471 948h37z" />
    <glyph glyph-name="periodcentered" unicode="&#xb7;" horiz-adv-x="225" 
d="M125 -16c-22 0 -40 17 -40 39c0 21 18 38 40 38c21 0 39 -16 39 -38c0 -23 -18 -39 -39 -39z" />
    <glyph glyph-name="bullet" unicode="&#x2022;" horiz-adv-x="338" 
d="M169 290c-40 0 -72 32 -72 72s32 73 72 73s72 -33 72 -73s-32 -72 -72 -72z" />
    <glyph glyph-name="colon" unicode=":" horiz-adv-x="224" 
d="M124 377c-22 0 -40 17 -40 39c0 21 18 38 40 38c21 0 39 -16 39 -38c0 -23 -18 -39 -39 -39zM124 -16c-22 0 -40 17 -40 39c0 21 18 38 40 38c21 0 39 -16 39 -38c0 -23 -18 -39 -39 -39z" />
    <glyph glyph-name="comma" unicode="," horiz-adv-x="213" 
d="M114 62c25 0 45 -21 45 -51c0 -42 -34 -92 -95 -130l-12 18c44 28 73 63 82 95c-10 -10 -23 -11 -28 -11c-18 0 -36 15 -36 37c0 24 18 42 44 42z" />
    <glyph glyph-name="ellipsis" unicode="&#x2026;" horiz-adv-x="586" 
d="M118 -16c-22 0 -40 17 -40 39c0 21 18 38 40 38c21 0 39 -16 39 -38c0 -23 -18 -39 -39 -39zM305 -16c-22 0 -40 17 -40 39c0 21 18 38 40 38c21 0 39 -16 39 -38c0 -23 -18 -39 -39 -39zM492 -16c-22 0 -40 17 -40 39c0 21 18 38 40 38c21 0 39 -16 39 -38
c0 -23 -18 -39 -39 -39z" />
    <glyph glyph-name="exclam" unicode="!" horiz-adv-x="254" 
d="M110 156l-3 588h40l-4 -588h-33zM128 -12c-22 0 -40 17 -40 39c0 21 18 38 40 38c21 0 39 -16 39 -38c0 -23 -18 -39 -39 -39z" />
    <glyph glyph-name="exclamdown" unicode="&#xa1;" horiz-adv-x="218" 
d="M120 526c21 0 39 -16 39 -39c0 -22 -18 -38 -39 -38c-22 0 -40 17 -40 38c0 22 18 39 40 39zM102 358h33l4 -588h-40z" />
    <glyph glyph-name="numbersign" unicode="#" horiz-adv-x="675" 
d="M631 473h-135l-44 -205h139l-7 -35h-140l-50 -233h-37l50 233h-198l-50 -233h-38l51 233h-136l7 35h136l45 205h-141l7 35h142l50 231h37l-50 -231h198l50 231h37l-50 -231h134zM415 268l44 205h-198l-44 -205h198z" />
    <glyph glyph-name="period" unicode="." horiz-adv-x="212" 
d="M106 -16c-22 0 -40 17 -40 39c0 21 18 38 40 38c21 0 39 -16 39 -38c0 -23 -18 -39 -39 -39z" />
    <glyph glyph-name="question" unicode="?" horiz-adv-x="489" 
d="M201 159v76c0 150 199 191 199 332c0 82 -68 148 -167 148c-70 0 -132 -36 -175 -88l-28 23c50 63 125 102 203 102c109 0 207 -70 207 -186c0 -155 -201 -211 -201 -328v-79h-38zM220 -12c-22 0 -40 17 -40 39c0 21 18 38 40 38c21 0 39 -16 39 -38
c0 -23 -18 -39 -39 -39z" />
    <glyph glyph-name="questiondown" unicode="&#xbf;" horiz-adv-x="482" 
d="M264 527c22 0 40 -17 40 -39c0 -21 -18 -38 -40 -38c-21 0 -39 16 -39 38c0 23 18 39 39 39zM283 356v-76c0 -150 -199 -191 -199 -332c0 -82 68 -148 167 -148c70 0 132 36 175 88l28 -23c-50 -63 -125 -102 -203 -102c-109 0 -207 70 -207 186c0 155 201 211 201 328
v79h38z" />
    <glyph glyph-name="quotedbl" unicode="&#x22;" horiz-adv-x="357" 
d="M102 449l88 290h45l-100 -290h-33zM245 449l88 290h45l-100 -290h-33z" />
    <glyph glyph-name="quotesingle" unicode="'" horiz-adv-x="214" 
d="M51 449l88 290h45l-100 -290h-33z" />
    <glyph glyph-name="semicolon" unicode=";" horiz-adv-x="256" 
d="M128 373c-23 0 -42 18 -42 41c0 22 19 40 42 40c22 0 41 -17 41 -40c0 -24 -19 -41 -41 -41zM130 62c25 0 45 -21 45 -51c0 -42 -34 -92 -95 -130l-12 18c44 28 73 63 82 95c-10 -10 -23 -11 -28 -11c-18 0 -36 15 -36 37c0 24 18 42 44 42z" />
    <glyph glyph-name="slash" unicode="/" horiz-adv-x="552" 
d="M22 -123l471 948h36l-468 -948h-39z" />
    <glyph glyph-name="underscore" unicode="_" horiz-adv-x="571" 
d="M0 -123v37h571v-37h-571z" />
    <glyph glyph-name="backslash.case" horiz-adv-x="500" 
d="M471 0h-37l-407 739h37z" />
    <glyph glyph-name="periodcentered.case" horiz-adv-x="223" 
d="M112 324c-22 0 -40 17 -40 39c0 21 18 38 40 38c21 0 39 -16 39 -38c0 -23 -18 -39 -39 -39z" />
    <glyph glyph-name="colon.case" horiz-adv-x="231" 
d="M116 458c-22 0 -40 17 -40 39c0 21 18 38 40 38c21 0 39 -16 39 -38c0 -23 -18 -39 -39 -39zM116 159c-22 0 -40 17 -40 39c0 21 18 38 40 38c21 0 39 -16 39 -38c0 -23 -18 -39 -39 -39z" />
    <glyph glyph-name="exclamdown.case" horiz-adv-x="248" 
d="M135 757c21 0 39 -16 39 -39c0 -22 -18 -38 -39 -38c-22 0 -40 17 -40 38c0 22 18 39 40 39zM117 589h33l4 -588h-40z" />
    <glyph glyph-name="questiondown.case" horiz-adv-x="490" 
d="M269 757c22 0 40 -17 40 -39c0 -21 -18 -38 -40 -38c-21 0 -39 16 -39 38c0 23 18 39 39 39zM288 586v-76c0 -150 -199 -191 -199 -332c0 -82 68 -148 167 -148c70 0 132 36 175 88l28 -23c-50 -63 -125 -102 -203 -102c-109 0 -207 70 -207 186c0 155 201 211 201 328
v79h38z" />
    <glyph glyph-name="semicolon.case" horiz-adv-x="259" 
d="M135 455c-23 0 -42 18 -42 41c0 22 19 40 42 40c22 0 41 -17 41 -40c0 -24 -19 -41 -41 -41zM136 246c25 0 45 -21 45 -51c0 -42 -34 -92 -95 -130l-12 18c44 28 73 63 82 95c-10 -10 -23 -11 -28 -11c-18 0 -36 15 -36 37c0 24 18 42 44 42z" />
    <glyph glyph-name="slash.case" horiz-adv-x="500" 
d="M29 0l407 739h37l-407 -739h-37z" />
    <glyph glyph-name="semicolon.case.ss03" horiz-adv-x="259" 
d="M135 455c-23 0 -42 18 -42 41c0 22 19 40 42 40c22 0 41 -17 41 -40c0 -24 -19 -41 -41 -41zM113 171h38l-79 -270h-29z" />
    <glyph glyph-name="comma.ss03" horiz-adv-x="163" 
d="M85 95h38l-79 -270h-29z" />
    <glyph glyph-name="semicolon.ss03" horiz-adv-x="236" 
d="M128 373c-23 0 -42 18 -42 41c0 22 19 40 42 40c22 0 41 -17 41 -40c0 -24 -19 -41 -41 -41zM109 95h38l-79 -270h-29z" />
    <glyph glyph-name="braceleft" unicode="{" horiz-adv-x="327" 
d="M278 774c-83 0 -122 -42 -122 -136c0 -77 7 -181 7 -228c0 -58 -23 -99 -65 -120c43 -21 65 -62 65 -120c0 -47 -7 -150 -7 -227c0 -94 39 -137 122 -137h37v-37h-37c-105 0 -162 58 -162 174c0 78 7 181 7 227c0 74 -44 100 -97 105v31c49 4 97 30 97 104
c0 46 -7 150 -7 228c0 115 57 173 162 173h37v-37h-37z" />
    <glyph glyph-name="braceright" unicode="}" horiz-adv-x="327" 
d="M204 410c0 -74 48 -100 97 -104v-31c-53 -5 -97 -31 -97 -105c0 -46 7 -149 7 -227c0 -116 -57 -174 -162 -174h-37v37h37c83 0 122 43 122 137c0 77 -7 180 -7 227c0 58 22 99 65 120c-42 21 -65 62 -65 120c0 47 7 151 7 228c0 94 -39 136 -122 136h-37v37h37
c105 0 162 -58 162 -173c0 -78 -7 -182 -7 -228z" />
    <glyph glyph-name="bracketleft" unicode="[" horiz-adv-x="357" 
d="M99 -227v1038h250v-37h-210v-964h210v-37h-250z" />
    <glyph glyph-name="bracketright" unicode="]" horiz-adv-x="357" 
d="M8 -227v37h210v964h-210v37h250v-1038h-250z" />
    <glyph glyph-name="parenleft" unicode="(" horiz-adv-x="356" 
d="M335 -220c-184 102 -288 290 -288 514c0 225 104 412 288 515l18 -33c-171 -95 -267 -270 -267 -482s97 -387 267 -481z" />
    <glyph glyph-name="parenright" unicode=")" horiz-adv-x="356" 
d="M21 -220l-18 33c170 94 267 269 267 481s-96 387 -267 482l18 33c184 -103 288 -290 288 -515c0 -224 -104 -412 -288 -514z" />
    <glyph glyph-name="braceleft.case" horiz-adv-x="330" 
d="M280 842c-83 0 -122 -42 -122 -136c0 -77 7 -181 7 -228c0 -58 -23 -99 -65 -120c43 -21 65 -62 65 -120c0 -47 -7 -150 -7 -227c0 -94 39 -137 122 -137h37v-37h-37c-105 0 -162 58 -162 174c0 78 7 181 7 227c0 74 -44 100 -97 105v31c49 4 97 30 97 104
c0 46 -7 150 -7 228c0 115 57 173 162 173h37v-37h-37z" />
    <glyph glyph-name="braceright.case" horiz-adv-x="330" 
d="M205 478c0 -74 48 -100 97 -104v-31c-53 -5 -97 -31 -97 -105c0 -46 7 -149 7 -227c0 -116 -57 -174 -162 -174h-37v37h37c83 0 122 43 122 137c0 77 -7 180 -7 227c0 58 22 99 65 120c-42 21 -65 62 -65 120c0 47 7 151 7 228c0 94 -39 136 -122 136h-37v37h37
c105 0 162 -58 162 -173c0 -78 -7 -182 -7 -228z" />
    <glyph glyph-name="bracketleft.case" horiz-adv-x="366" 
d="M105 -157v1038h250v-37h-210v-964h210v-37h-250z" />
    <glyph glyph-name="bracketright.case" horiz-adv-x="366" 
d="M11 -157v37h210v964h-210v37h250v-1038h-250z" />
    <glyph glyph-name="parenleft.case" horiz-adv-x="360" 
d="M337 -155c-184 102 -288 290 -288 514c0 225 104 412 288 515l18 -33c-171 -95 -267 -270 -267 -482s97 -387 267 -481z" />
    <glyph glyph-name="parenright.case" horiz-adv-x="360" 
d="M23 -155l-18 33c170 94 267 269 267 481s-96 387 -267 482l18 33c184 -103 288 -290 288 -515c0 -224 -104 -412 -288 -514z" />
    <glyph glyph-name="emdash" unicode="&#x2014;" horiz-adv-x="1006" 
d="M73 259v37h860v-37h-860z" />
    <glyph glyph-name="endash" unicode="&#x2013;" horiz-adv-x="687" 
d="M73 259v37h541v-37h-541z" />
    <glyph glyph-name="hyphen" unicode="-" horiz-adv-x="528" 
d="M73 259v37h382v-37h-382z" />
    <glyph glyph-name="uni00AD" unicode="&#xad;" horiz-adv-x="524" 
d="M71 310v37h382v-37h-382z" />
    <glyph glyph-name="emdash.case" horiz-adv-x="1014" 
d="M77 343v37h860v-37h-860z" />
    <glyph glyph-name="endash.case" horiz-adv-x="695" 
d="M77 343v37h541v-37h-541z" />
    <glyph glyph-name="hyphen.case" horiz-adv-x="536" 
d="M77 343v37h382v-37h-382z" />
    <glyph glyph-name="guillemotleft" unicode="&#xab;" horiz-adv-x="482" 
d="M197 88l-146 203l146 203h42l-146 -203l146 -203h-42zM375 88l-146 203l146 203h42l-146 -203l146 -203h-42z" />
    <glyph glyph-name="guillemotright" unicode="&#xbb;" horiz-adv-x="482" 
d="M107 88h-42l146 203l-146 203h42l146 -203zM285 88h-42l146 203l-146 203h42l146 -203z" />
    <glyph glyph-name="guilsinglleft" unicode="&#x2039;" horiz-adv-x="304" 
d="M197 88l-146 203l146 203h42l-146 -203l146 -203h-42z" />
    <glyph glyph-name="guilsinglright" unicode="&#x203a;" horiz-adv-x="304" 
d="M107 88h-42l146 203l-146 203h42l146 -203z" />
    <glyph glyph-name="quotedblbase" unicode="&#x201e;" horiz-adv-x="381" 
d="M99 61c25 0 45 -21 45 -51c0 -42 -34 -92 -95 -130l-12 18c44 28 73 63 82 95c-10 -10 -23 -11 -28 -11c-18 0 -36 15 -36 37c0 24 18 42 44 42zM269 61c25 0 45 -21 45 -51c0 -42 -34 -92 -95 -130l-12 18c44 28 73 63 82 95c-10 -10 -23 -11 -28 -11
c-18 0 -36 15 -36 37c0 24 18 42 44 42z" />
    <glyph glyph-name="quotedblleft" unicode="&#x201c;" horiz-adv-x="383" 
d="M176 737c-44 -28 -73 -63 -82 -95c10 10 23 11 28 11c18 0 36 -15 36 -37c0 -24 -18 -42 -44 -42c-25 0 -45 21 -45 51c0 42 34 92 95 130zM294 653c18 0 36 -15 36 -37c0 -24 -18 -42 -44 -42c-25 0 -45 21 -45 51c0 42 34 92 95 130l12 -18c-44 -28 -73 -63 -82 -95
c10 10 23 11 28 11z" />
    <glyph glyph-name="quotedblright" unicode="&#x201d;" horiz-adv-x="380" 
d="M107 754c25 0 45 -21 45 -51c0 -42 -34 -92 -95 -130l-12 18c44 28 73 63 82 95c-10 -10 -23 -11 -28 -11c-18 0 -36 15 -36 37c0 24 18 42 44 42zM277 754c25 0 45 -21 45 -51c0 -42 -34 -92 -95 -130l-12 18c44 28 73 63 82 95c-10 -10 -23 -11 -28 -11
c-18 0 -36 15 -36 37c0 24 18 42 44 42z" />
    <glyph glyph-name="quoteleft" unicode="&#x2018;" horiz-adv-x="211" 
d="M108 653c18 0 36 -15 36 -37c0 -24 -18 -42 -44 -42c-25 0 -45 21 -45 51c0 42 34 92 95 130l12 -18c-44 -28 -73 -63 -82 -95c10 10 23 11 28 11z" />
    <glyph glyph-name="quoteright" unicode="&#x2019;" horiz-adv-x="208" 
d="M120 752c25 0 45 -21 45 -51c0 -42 -34 -92 -95 -130l-12 18c44 28 73 63 82 95c-10 -10 -23 -11 -28 -11c-18 0 -36 15 -36 37c0 24 18 42 44 42z" />
    <glyph glyph-name="quotesinglbase" unicode="&#x201a;" horiz-adv-x="213" 
d="M114 62c25 0 45 -21 45 -51c0 -42 -34 -92 -95 -130l-12 18c44 28 73 63 82 95c-10 -10 -23 -11 -28 -11c-18 0 -36 15 -36 37c0 24 18 42 44 42z" />
    <glyph glyph-name="guillemotleft.case" horiz-adv-x="493" 
d="M202 159l-146 203l146 203h42l-146 -203l146 -203h-42zM380 159l-146 203l146 203h42l-146 -203l146 -203h-42z" />
    <glyph glyph-name="guillemotright.case" horiz-adv-x="493" 
d="M113 159h-42l146 203l-146 203h42l146 -203zM291 159h-42l146 203l-146 203h42l146 -203z" />
    <glyph glyph-name="guilsinglleft.case" horiz-adv-x="315" 
d="M202 159l-146 203l146 203h42l-146 -203l146 -203h-42z" />
    <glyph glyph-name="guilsinglright.case" horiz-adv-x="315" 
d="M113 159h-42l146 203l-146 203h42l146 -203z" />
    <glyph glyph-name="quotedblbase.ss03" horiz-adv-x="361" 
d="M93 124h38l-79 -270h-29zM300 124h38l-79 -270h-29z" />
    <glyph glyph-name="quotedblleft.ss03" horiz-adv-x="383" 
d="M93 558h-38l79 270h29zM299 558h-38l79 270h29z" />
    <glyph glyph-name="quotedblright.ss03" horiz-adv-x="380" 
d="M129 829h38l-79 -270h-29zM336 829h38l-79 -270h-29z" />
    <glyph glyph-name="quoteleft.ss03" horiz-adv-x="211" 
d="M96 558h-38l79 270h29z" />
    <glyph glyph-name="quoteright.ss03" horiz-adv-x="208" 
d="M128 829h38l-79 -270h-29z" />
    <glyph glyph-name="quotesinglbase.ss03" horiz-adv-x="213" 
d="M107 124h38l-79 -270h-29z" />
    <glyph glyph-name="space" unicode=" " horiz-adv-x="247" 
 />
    <glyph glyph-name="uni2009" unicode="&#x2009;" horiz-adv-x="78" 
 />
    <glyph glyph-name="CR" unicode="&#xd;" horiz-adv-x="130" 
 />
    <glyph glyph-name="cent" unicode="&#xa2;" horiz-adv-x="605" 
d="M336 26c85 6 157 53 191 118l32 -20c-41 -80 -127 -130 -223 -135v-80h-40v80c-144 10 -246 123 -246 278c0 156 103 267 246 280v82h40v-81c101 -4 187 -55 226 -137l-33 -18c-33 69 -106 114 -193 118v-485zM90 267c0 -136 86 -231 206 -241v484
c-120 -13 -206 -107 -206 -243z" />
    <glyph glyph-name="currency" unicode="&#xa4;" horiz-adv-x="636" 
d="M534 367c0 -57 -23 -109 -60 -148l75 -74l-28 -26l-76 75c-37 -27 -82 -43 -130 -43c-47 0 -90 15 -126 41l-74 -73l-28 26l73 72c-38 39 -62 92 -62 150c0 49 16 94 43 130l-82 82l28 26l80 -79c39 37 91 60 148 60c58 0 112 -24 152 -62l82 81l28 -26l-85 -84
c26 -36 42 -80 42 -128zM138 367c0 -98 81 -179 177 -179c97 0 179 81 179 179c0 100 -81 182 -179 182c-96 0 -177 -82 -177 -182z" />
    <glyph glyph-name="dollar" unicode="$" horiz-adv-x="545" 
d="M501 186c0 -112 -89 -189 -204 -197v-101h-40v101c-91 5 -178 53 -222 153l34 17c35 -78 103 -134 203 -134c110 0 189 68 189 161c0 66 -37 105 -110 140c-40 19 -115 48 -142 60c-90 40 -136 97 -136 178c0 100 71 178 184 187v92h40v-92c71 -4 139 -36 188 -109
l-31 -22c-41 61 -100 95 -173 95c-99 0 -168 -61 -168 -151c0 -55 25 -100 107 -140c35 -17 112 -46 152 -65c77 -37 129 -87 129 -173z" />
    <glyph glyph-name="Euro" unicode="&#x20ac;" horiz-adv-x="729" 
d="M468 715c-155 0 -279 -107 -313 -260h439l-13 -37h-432c-2 -16 -3 -32 -3 -49c0 -21 2 -41 5 -60h393l-14 -37h-372c39 -144 161 -246 310 -246c64 0 122 15 177 45l19 -33c-57 -31 -124 -49 -196 -49c-167 0 -310 115 -351 283h-81l10 37h64c-3 19 -4 39 -4 60
c0 17 1 33 3 49h-66l12 37h59c36 178 181 297 354 297c84 0 166 -26 222 -68l-18 -31c-58 40 -129 62 -204 62z" />
    <glyph glyph-name="sterling" unicode="&#xa3;" horiz-adv-x="540" 
d="M121 37h373v-37h-436v25c51 44 93 129 93 219c0 40 -8 77 -18 112h-83v37h71c-16 50 -33 99 -33 151c0 120 87 207 204 208c83 1 155 -40 192 -115l-34 -21c-33 65 -87 100 -158 99c-95 -1 -164 -72 -164 -171c0 -49 19 -98 36 -151h267v-37h-256c9 -34 16 -71 16 -112
c0 -74 -27 -150 -70 -207z" />
    <glyph glyph-name="yen" unicode="&#xa5;" 
d="M547 739l-220 -391h165v-37h-182v-91h182v-37h-182v-183h-40v183h-184v37h184v91h-184v37h168l-219 391h41l215 -389l216 389h40z" />
    <glyph glyph-name="dollar.osf" horiz-adv-x="467" 
d="M441 149c0 -90 -78 -152 -180 -160v-110h-39v109c-81 5 -158 43 -197 122l33 19c31 -62 92 -104 179 -104c96 0 164 52 164 124c0 48 -30 77 -94 103c-38 16 -95 35 -131 49c-77 30 -115 78 -115 141c0 77 61 139 161 147v103h40v-103c62 -4 121 -29 165 -86l-30 -23
c-37 48 -89 74 -154 74c-84 0 -142 -45 -142 -112c0 -41 18 -74 86 -104c41 -18 106 -39 144 -54c69 -28 110 -69 110 -135z" />
    <glyph glyph-name="Euro.osf" horiz-adv-x="539" 
d="M360 553c-120 0 -209 -79 -236 -192h349l-13 -37h-342c-1 -12 -2 -24 -2 -36c0 -15 1 -29 3 -43h313l-14 -36h-293c28 -108 112 -183 236 -183c53 0 102 13 159 53v-41c-46 -34 -101 -49 -160 -49c-144 0 -247 90 -276 220h-68l12 36h49c-1 14 -2 28 -2 43
c0 12 1 24 2 36h-56l13 37h48c29 137 139 229 277 229c68 0 136 -22 183 -65l-21 -31c-46 41 -101 59 -161 59z" />
    <glyph glyph-name="sterling.osf" horiz-adv-x="448" 
d="M100 37h338v-37h-401v26c47 34 85 95 85 163c0 34 -9 61 -21 87h-71v36h55c-12 28 -22 57 -22 96c0 108 77 180 189 181c75 1 141 -38 173 -94l-31 -20c-29 47 -80 77 -142 77c-85 0 -149 -51 -149 -142c0 -39 12 -69 25 -98h252v-36h-236c10 -25 18 -52 18 -86
c0 -59 -24 -112 -62 -153z" />
    <glyph glyph-name="yen.osf" horiz-adv-x="401" 
d="M418 581l-180 -306h141v-34h-159v-66h159v-35h-159v-140h-39v140h-161v35h161v66h-161v34h144l-179 306h41l175 -301l177 301h40z" />
    <glyph glyph-name="plus" unicode="+" horiz-adv-x="502" 
d="M462 358v-37h-193v-192h-37v192h-192v37h193v193h36v-193h193z" />
    <glyph glyph-name="minus" unicode="&#x2212;" horiz-adv-x="574" 
d="M76 321v37h422v-37h-422z" />
    <glyph glyph-name="multiply" unicode="&#xd7;" horiz-adv-x="482" 
d="M415 191l-24 -26l-149 149l-149 -149l-24 26l148 148l-147 147l23 25l148 -147l148 148l25 -24l-148 -149z" />
    <glyph glyph-name="divide" unicode="&#xf7;" horiz-adv-x="501" 
d="M265 417c-26 0 -48 20 -48 47c0 25 22 45 48 45c25 0 47 -19 47 -45c0 -28 -22 -47 -47 -47zM74 308v37h353v-37h-353zM265 144c-26 0 -48 20 -48 47c0 25 22 45 48 45c25 0 47 -19 47 -45c0 -28 -22 -47 -47 -47z" />
    <glyph glyph-name="equal" unicode="=" horiz-adv-x="574" 
d="M76 395v37h422v-37h-422zM76 223v37h422v-37h-422z" />
    <glyph glyph-name="notequal" unicode="&#x2260;" horiz-adv-x="574" 
d="M498 395h-164l-66 -135h230v-37h-248l-62 -126h-39l62 126h-135v37h153l66 135h-219v37h237l62 126h39l-62 -126h146v-37z" />
    <glyph glyph-name="greater" unicode="&#x3e;" horiz-adv-x="518" 
d="M62 68v44l364 217l-364 216v43l424 -251v-18z" />
    <glyph glyph-name="less" unicode="&#x3c;" horiz-adv-x="518" 
d="M456 68l-424 251v18l424 251v-43l-364 -216l364 -217v-44z" />
    <glyph glyph-name="greaterequal" unicode="&#x2265;" horiz-adv-x="594" 
d="M84 192v43l379 184l-379 183v44l439 -218v-18zM84 80v37h442v-37h-442z" />
    <glyph glyph-name="lessequal" unicode="&#x2264;" horiz-adv-x="594" 
d="M510 192l-439 218v18l439 218v-44l-379 -183l379 -184v-43zM510 80h-442v37h442v-37z" />
    <glyph glyph-name="plusminus" unicode="&#xb1;" horiz-adv-x="584" 
d="M310 459h193v-37h-193v-192h-37v192h-192v37h193v193h36v-193zM81 109v37h422v-37h-422z" />
    <glyph glyph-name="approxequal" unicode="&#x2248;" horiz-adv-x="623" 
d="M425 398c-75 0 -126 68 -190 68c-53 0 -86 -22 -121 -68l-28 22c45 65 99 83 149 83c79 0 133 -68 190 -68c48 0 71 19 100 59l28 -23c-37 -52 -72 -73 -128 -73zM427 230c-75 0 -126 68 -190 68c-53 0 -86 -22 -121 -68l-28 22c45 65 99 83 149 83c79 0 133 -68 190 -68
c48 0 71 19 100 59l28 -23c-37 -52 -72 -73 -128 -73z" />
    <glyph glyph-name="asciitilde" unicode="~" horiz-adv-x="618" 
d="M415 290c-75 0 -126 68 -190 68c-53 0 -86 -22 -121 -68l-28 22c45 65 99 83 149 83c79 0 133 -68 190 -68c48 0 71 19 100 59l28 -23c-37 -52 -72 -73 -128 -73z" />
    <glyph glyph-name="logicalnot" unicode="&#xac;" horiz-adv-x="583" 
d="M84 321v37h423v-173h-36v136h-387z" />
    <glyph glyph-name="infinity" unicode="&#x221e;" horiz-adv-x="905" 
d="M681 546c96 0 169 -76 169 -174c0 -104 -83 -178 -173 -178c-99 0 -182 88 -231 145c-62 -64 -125 -147 -223 -147c-95 0 -168 78 -168 176c0 102 80 178 178 178c63 0 109 -32 214 -152c107 113 165 152 234 152zM221 229c75 0 137 68 201 138
c-113 128 -154 142 -191 142c-78 0 -138 -62 -138 -142c0 -78 59 -138 128 -138zM678 231c72 0 134 61 134 143c0 78 -57 135 -133 135c-56 0 -96 -31 -207 -143c53 -61 128 -135 206 -135z" />
    <glyph glyph-name="integral" unicode="&#x222b;" horiz-adv-x="413" 
d="M77 -210c-38 0 -76 11 -102 32l17 31c26 -18 53 -26 85 -26c67 0 108 57 108 153v663c0 127 66 181 147 181c38 0 79 -13 106 -33l-20 -31c-27 18 -55 27 -86 27c-66 0 -107 -47 -107 -144v-663c0 -127 -67 -190 -148 -190z" />
    <glyph glyph-name="product" unicode="&#x220f;" horiz-adv-x="691" 
d="M655 708v-37h-115v-789h-40v789h-309v-789h-40v789h-115v37h619z" />
    <glyph glyph-name="summation" unicode="&#x2211;" horiz-adv-x="603" 
d="M43 -179v35l230 423l-230 425v35h525v-37h-482l228 -423l-228 -421h482v-37h-525z" />
    <glyph glyph-name="radical" unicode="&#x221a;" horiz-adv-x="665" 
d="M299 -118l-194 432h-109v37h136l180 -408l326 865h42l-352 -926h-29z" />
    <glyph glyph-name="partialdiff" unicode="&#x2202;" horiz-adv-x="623" 
d="M302 -13c-147 0 -254 114 -254 258s108 253 248 253c109 0 204 -67 234 -171c-9 176 -109 331 -286 446l28 28c88 -58 297 -229 297 -492c0 -191 -109 -322 -267 -322zM297 24c124 0 214 103 214 220c0 116 -90 217 -216 217c-120 0 -207 -93 -207 -215s87 -222 209 -222
z" />
    <glyph glyph-name="percent" unicode="%" horiz-adv-x="869" 
d="M219 389c-99 0 -182 81 -182 181s83 182 182 182s182 -82 182 -182s-83 -181 -182 -181zM122 0l574 739h44l-574 -739h-44zM219 423c79 0 145 66 145 147s-66 148 -145 148s-145 -67 -145 -148s66 -147 145 -147zM650 -12c-99 0 -182 81 -182 181s83 182 182 182
s182 -82 182 -182s-83 -181 -182 -181zM650 22c80 0 145 66 145 147s-66 148 -145 148s-145 -67 -145 -148s65 -147 145 -147z" />
    <glyph glyph-name="perthousand" unicode="&#x2030;" horiz-adv-x="1298" 
d="M219 389c-99 0 -182 81 -182 181s83 182 182 182s182 -82 182 -182s-83 -181 -182 -181zM122 0l574 739h44l-574 -739h-44zM219 423c79 0 145 66 145 147s-66 148 -145 148s-145 -67 -145 -148s66 -147 145 -147zM650 -12c-99 0 -182 81 -182 181s83 182 182 182
s182 -82 182 -182s-83 -181 -182 -181zM1081 -12c-99 0 -182 81 -182 181s83 182 182 182s182 -82 182 -182s-83 -181 -182 -181zM650 22c80 0 145 66 145 147s-66 148 -145 148s-145 -67 -145 -148s65 -147 145 -147zM1081 22c80 0 145 66 145 147s-66 148 -145 148
s-145 -67 -145 -148s65 -147 145 -147z" />
    <glyph glyph-name="lozenge" unicode="&#x25ca;" horiz-adv-x="700" 
d="M339 -42l-307 418l307 416h22l307 -416l-307 -418h-22zM350 4l272 372l-272 370l-272 -370z" />
    <glyph glyph-name="at" unicode="@" horiz-adv-x="964" 
d="M616 479h38v-279c0 -59 34 -85 74 -85c79 0 143 98 143 216c0 198 -178 364 -386 364c-220 0 -398 -185 -398 -412c0 -229 182 -408 412 -408c111 0 217 42 289 112l23 -26c-62 -62 -174 -121 -313 -121c-254 0 -449 197 -449 443c0 244 191 447 437 447
c235 0 423 -185 423 -402c0 -144 -83 -250 -181 -250c-64 0 -104 45 -111 95c-31 -59 -91 -95 -160 -95c-110 0 -191 91 -191 206c0 118 86 210 196 210c66 0 124 -34 154 -83v68zM460 115c91 0 157 76 157 171c0 98 -69 171 -155 171c-87 0 -157 -74 -157 -173
c0 -94 64 -169 155 -169z" />
    <glyph glyph-name="ampersand" unicode="&#x26;" horiz-adv-x="669" 
d="M658 22l-27 -30l-122 118c-83 -86 -164 -120 -247 -120c-132 0 -218 88 -218 201c0 109 80 175 167 221c-36 49 -59 101 -59 158c0 105 77 180 169 180c80 0 148 -57 148 -140c0 -108 -116 -165 -202 -208c16 -19 34 -39 54 -58l187 -178c25 30 57 75 89 122l30 -23
c-29 -45 -63 -92 -91 -126zM323 713c-74 0 -130 -65 -130 -144c0 -44 18 -91 53 -140c95 47 183 96 183 178c0 57 -42 106 -106 106zM263 27c73 0 146 33 219 110l-187 182c-22 21 -43 43 -62 65c-84 -46 -149 -102 -149 -192c0 -93 70 -165 179 -165z" />
    <glyph glyph-name="paragraph" unicode="&#xb6;" horiz-adv-x="542" 
d="M495 734v-37h-80v-900h-39v900h-101v-900h-39v602h-26c-106 0 -178 73 -178 169c0 94 74 166 176 166h287z" />
    <glyph glyph-name="section" unicode="&#xa7;" horiz-adv-x="539" 
d="M499 183c0 -54 -27 -102 -70 -129c15 -23 24 -51 24 -85c0 -106 -88 -180 -201 -180c-83 0 -154 38 -206 106l29 23c46 -59 104 -92 176 -92c91 0 165 56 165 140c0 98 -102 142 -181 181c-104 51 -184 100 -184 192c0 52 25 99 65 126c-18 27 -29 60 -29 100
c0 108 79 187 198 187c93 0 155 -48 195 -106l-30 -22c-42 61 -95 91 -164 91c-97 0 -161 -60 -161 -150c0 -106 87 -144 197 -197c89 -43 177 -88 177 -185zM252 180c47 -23 112 -50 155 -97c33 22 54 57 54 99c0 74 -66 111 -156 153c-61 29 -123 57 -166 101
c-31 -20 -50 -55 -50 -96c0 -65 51 -106 163 -160z" />
    <glyph glyph-name="copyright" unicode="&#xa9;" horiz-adv-x="872" 
d="M436 -12c-212 0 -385 171 -385 381c0 211 173 383 385 383s385 -172 385 -383c0 -210 -173 -381 -385 -381zM436 25c190 0 345 154 345 344c0 191 -155 346 -345 346s-345 -155 -345 -346c0 -190 155 -344 345 -344zM438 164c-112 0 -202 87 -202 205
c0 120 89 205 202 205c70 0 123 -34 159 -77l-27 -22c-31 39 -77 64 -130 64c-91 0 -167 -70 -167 -170c0 -98 75 -170 167 -170c52 0 100 24 133 58l24 -22c-37 -42 -95 -71 -159 -71z" />
    <glyph glyph-name="registered" unicode="&#xae;" horiz-adv-x="574" 
d="M287 761c131 0 238 -108 238 -239s-107 -237 -238 -237s-238 108 -238 239s107 237 238 237zM287 316c111 0 206 94 206 207s-95 207 -206 207s-206 -94 -206 -207s95 -207 206 -207zM375 571c0 -36 -21 -62 -56 -71l56 -95h-33l-52 92h-51v-92h-28v241h88
c45 0 76 -32 76 -75zM287 522c41 0 62 19 62 49c0 28 -18 50 -56 50h-54v-99h48z" />
    <glyph glyph-name="trademark" unicode="&#x2122;" horiz-adv-x="781" 
d="M35 707v32h265v-32h-115v-318h-34v318h-116zM669 739h23v-350h-32v284l-135 -203h-19l-134 202v-283h-32v350h23l152 -230z" />
    <glyph glyph-name="degree" unicode="&#xb0;" horiz-adv-x="356" 
d="M178 551c-72 0 -132 57 -132 128c0 72 60 130 132 130s131 -58 131 -130c0 -71 -59 -128 -131 -128zM178 582c54 0 98 42 98 97c0 56 -44 99 -98 99c-55 0 -99 -43 -99 -99c0 -54 44 -97 99 -97z" />
    <glyph glyph-name="bar" unicode="|" horiz-adv-x="238" 
d="M99 -179v1026h40v-1026h-40z" />
    <glyph glyph-name="brokenbar" unicode="&#xa6;" horiz-adv-x="238" 
d="M99 434v413h40v-413h-40zM139 234v-413h-40v413h40z" />
    <glyph glyph-name="dagger" unicode="&#x2020;" horiz-adv-x="482" 
d="M443 488v-37h-182v-629h-40v629h-183v37h183v361h40v-361h182z" />
    <glyph glyph-name="daggerdbl" unicode="&#x2021;" horiz-adv-x="482" 
d="M444 479h-183v-287h183v-37h-183v-333h-40v333h-183v37h183v287h-183v37h183v333h40v-333h183v-37z" />
    <glyph glyph-name="estimated" unicode="&#x212e;" horiz-adv-x="968" 
d="M492 -17c-245 0 -439 164 -439 383c0 220 194 385 439 385c236 0 439 -154 439 -390v-21c0 -3 -4 -5 -7 -5h-686v-230c0 -1 1 -3 4 -4c67 -47 154 -72 250 -72c136 0 257 51 326 142l35 -29c-79 -97 -210 -159 -361 -159zM238 385h508v244c0 2 -1 3 -3 4
c-68 47 -155 73 -251 73s-183 -26 -252 -73c-1 -1 -2 -3 -2 -5v-243z" />
    <glyph glyph-name="asciicircum" unicode="^" horiz-adv-x="495" 
d="M50 431l193 308h10l192 -308h-43l-154 251l-155 -251h-43z" />
    <glyph glyph-name="at.case" horiz-adv-x="949" 
d="M618 553h38v-279c0 -59 34 -85 74 -85c79 0 143 98 143 216c0 198 -178 364 -386 364c-220 0 -398 -185 -398 -412c0 -229 182 -408 412 -408c111 0 217 42 289 112l23 -26c-62 -62 -174 -121 -313 -121c-254 0 -449 197 -449 443c0 244 191 447 437 447
c235 0 423 -185 423 -402c0 -144 -83 -250 -181 -250c-64 0 -104 45 -111 95c-31 -59 -91 -95 -160 -95c-110 0 -191 91 -191 206c0 118 86 210 196 210c66 0 124 -34 154 -83v68zM462 189c91 0 157 76 157 171c0 98 -69 171 -155 171c-87 0 -157 -74 -157 -173
c0 -94 64 -169 155 -169z" />
    <glyph glyph-name="acute" unicode="&#xb4;" horiz-adv-x="455" 
d="M63 620l60 156h53l-80 -156h-33z" />
    <glyph glyph-name="breve" unicode="&#x2d8;" horiz-adv-x="443" 
d="M216 624c-97 0 -156 58 -156 152h37c2 -87 50 -120 119 -120s117 33 119 120h38c0 -94 -60 -152 -157 -152z" />
    <glyph glyph-name="caron" unicode="&#x2c7;" horiz-adv-x="549" 
d="M60 775h41l105 -114l105 114h42l-137 -151h-19z" />
    <glyph glyph-name="cedilla" unicode="&#xb8;" horiz-adv-x="310" 
d="M188 -59c51 0 94 -29 94 -84c0 -54 -44 -105 -127 -105c-33 0 -64 8 -95 22l12 29c26 -13 58 -20 83 -20c59 0 93 38 93 73c0 28 -20 54 -68 54h-62l-7 13l36 97h36l-32 -82c12 3 26 3 37 3z" />
    <glyph glyph-name="circumflex" unicode="&#x2c6;" horiz-adv-x="575" 
d="M60 627l137 151h19l137 -151h-42l-105 114l-105 -114h-41z" />
    <glyph glyph-name="dieresis" unicode="&#xa8;" horiz-adv-x="494" 
d="M107 646c-27 0 -47 20 -47 46c0 23 20 45 47 45s47 -22 47 -45c0 -26 -20 -46 -47 -46zM283 646c-27 0 -47 20 -47 46c0 23 20 45 47 45s47 -22 47 -45c0 -26 -20 -46 -47 -46z" />
    <glyph glyph-name="dotaccent" unicode="&#x2d9;" horiz-adv-x="300" 
d="M102 623c-23 0 -42 18 -42 41c0 24 19 42 42 42s41 -18 41 -42c0 -23 -18 -41 -41 -41z" />
    <glyph glyph-name="grave" unicode="`" horiz-adv-x="426" 
d="M170 620h-33l-80 156h53z" />
    <glyph glyph-name="hungarumlaut" unicode="&#x2dd;" horiz-adv-x="513" 
d="M49 620l48 156h51l-75 -156h-24zM189 620l65 156h52l-92 -156h-25z" />
    <glyph glyph-name="macron" unicode="&#xaf;" horiz-adv-x="474" 
d="M50 691v37h301v-36z" />
    <glyph glyph-name="ogonek" unicode="&#x2db;" horiz-adv-x="387" 
d="M234 -203l15 -25c-27 -21 -56 -31 -86 -31c-61 0 -103 43 -103 104s45 122 154 170l21 -15c-94 -42 -141 -104 -141 -155c0 -40 31 -73 71 -73c15 0 41 5 69 25z" />
    <glyph glyph-name="ring" unicode="&#x2da;" horiz-adv-x="378" 
d="M170 608c-62 0 -110 48 -110 107c0 60 48 109 110 109s110 -49 110 -109c0 -59 -48 -107 -110 -107zM170 637c45 0 80 34 80 78c0 45 -35 80 -80 80s-80 -35 -80 -80c0 -44 35 -78 80 -78z" />
    <glyph glyph-name="tilde" unicode="&#x2dc;" horiz-adv-x="539" 
d="M87 662l-23 10c12 41 49 75 92 75c60 0 75 -58 121 -58c29 0 55 30 63 53l22 -9c-10 -39 -44 -76 -88 -76c-62 0 -77 57 -122 57c-32 0 -57 -31 -65 -52z" />
    <glyph glyph-name="caron.alt" horiz-adv-x="299" 
d="M45 629l57 151h50l-73 -151h-34z" />
    <glyph glyph-name="acute.case" horiz-adv-x="310" 
d="M63 798l60 156h53l-80 -156h-33z" />
    <glyph glyph-name="breve.case" horiz-adv-x="441" 
d="M216 801c-97 0 -156 58 -156 152h37c2 -87 50 -120 119 -120s117 33 119 120h38c0 -94 -60 -152 -157 -152z" />
    <glyph glyph-name="caron.case" horiz-adv-x="477" 
d="M91 946h41l105 -114l105 114h42l-137 -151h-19z" />
    <glyph glyph-name="cedilla.case" horiz-adv-x="310" 
d="M188 -59c51 0 94 -29 94 -84c0 -54 -44 -105 -127 -105c-33 0 -64 8 -95 22l12 29c26 -13 58 -20 83 -20c59 0 93 38 93 73c0 28 -20 54 -68 54h-62l-7 13l36 97h36l-32 -82c12 3 26 3 37 3z" />
    <glyph glyph-name="circumflex.case" horiz-adv-x="478" 
d="M60 800l137 151h19l137 -151h-42l-105 114l-105 -114h-41z" />
    <glyph glyph-name="dieresis.case" horiz-adv-x="392" 
d="M107 818c-27 0 -47 20 -47 46c0 23 20 45 47 45s47 -22 47 -45c0 -26 -20 -46 -47 -46zM283 818c-27 0 -47 20 -47 46c0 23 20 45 47 45s47 -22 47 -45c0 -26 -20 -46 -47 -46z" />
    <glyph glyph-name="dotaccent.case" horiz-adv-x="302" 
d="M102 821c-23 0 -42 18 -42 41c0 24 19 42 42 42s41 -18 41 -42c0 -23 -18 -41 -41 -41z" />
    <glyph glyph-name="grave.case" horiz-adv-x="294" 
d="M170 797h-33l-80 156h53z" />
    <glyph glyph-name="hungarumlaut.case" horiz-adv-x="502" 
d="M49 798l48 156h51l-75 -156h-24zM189 798l65 156h52l-92 -156h-25z" />
    <glyph glyph-name="macron.case" horiz-adv-x="474" 
d="M55 848v37h331v-36z" />
    <glyph glyph-name="ogonek.case" horiz-adv-x="323" 
d="M234 -203l15 -25c-27 -21 -56 -31 -86 -31c-61 0 -103 43 -103 104s45 122 154 170l21 -15c-94 -42 -141 -104 -141 -155c0 -40 31 -73 71 -73c15 0 41 5 69 25z" />
    <glyph glyph-name="ring.case" horiz-adv-x="320" 
d="M170 784c-62 0 -110 48 -110 107c0 60 48 109 110 109s110 -49 110 -109c0 -59 -48 -107 -110 -107zM170 813c45 0 80 34 80 78c0 45 -35 80 -80 80s-80 -35 -80 -80c0 -44 35 -78 80 -78z" />
    <glyph glyph-name="tilde.case" horiz-adv-x="536" 
d="M79 832l-26 11c14 45 54 83 102 83c66 0 82 -64 133 -64c32 0 60 33 69 58l24 -10c-11 -43 -48 -83 -97 -83c-68 0 -84 62 -134 62c-35 0 -62 -34 -71 -57z" />
    <glyph glyph-name="brevecombcy" horiz-adv-x="0" 
d="M-221 610c-62 0 -117 24 -168 83l23 26c46 -54 91 -75 145 -75s99 21 145 75l23 -26c-51 -59 -106 -83 -168 -83z" />
    <glyph glyph-name="NULL" horiz-adv-x="0" 
 />
    <glyph glyph-name="commaccent" horiz-adv-x="227" 
d="M126 -66c25 0 45 -21 45 -51c0 -42 -34 -92 -95 -130l-12 18c44 28 73 63 82 95c-10 -10 -23 -11 -28 -11c-18 0 -36 15 -36 37c0 24 18 42 44 42z" />
    <glyph glyph-name="commaccent.case" horiz-adv-x="163" 
d="M126 -66c25 0 45 -21 45 -51c0 -42 -34 -92 -95 -130l-12 18c44 28 73 63 82 95c-10 -10 -23 -11 -28 -11c-18 0 -36 15 -36 37c0 24 18 42 44 42z" />
    </font>
</defs>
</svg>
