<svg width="16" height="24" xmlns="http://www.w3.org/2000/svg"><g fill="#2B85C1" fill-rule="nonzero"><path d="M8.318 17.637c.45-.985.035-1.796-1.112-2.298l-1.9-.79a1.8 1.8 0 00-1.837.275l-1.748 1.44a.366.366 0 00-.05.512.36.36 0 00.508.052l1.748-1.44a1.08 1.08 0 011.102-.165l1.894.787c.798.349 1.001.746.737 1.322-.158.346-.507.48-1.09.365l-.799-.255a8.287 8.287 0 01-.391-.175.361.361 0 00-.495.205.365.365 0 00.21.518l.447.143c.28.112.542.196.786.251l2.695.862a.36.36 0 00.273-.022l4.2-2.148c.542-.247.846-.22 1.01.018.232.333.091.704-.374 1.14-.258.24-2.175 1.705-4.97 3.818a1.08 1.08 0 01-.949.178l-4.36-1.247-.1-.013H1.588v.728h2.115l4.313 1.233a1.8 1.8 0 001.581-.296c2.842-2.148 4.74-3.6 5.028-3.868.697-.652.972-1.377.475-2.091-.402-.578-1.079-.64-1.918-.257l-4.081 2.088-1.148-.367c.148-.129.27-.296.365-.503z"/><path d="M1.824 14.412c.194 0 .352.162.352.363v7.98c0 .2-.158.363-.352.363h-.706a.358.358 0 01-.353-.363c0-.2.158-.363.353-.363h.353v-7.255h-.353a.358.358 0 01-.353-.362c0-.2.158-.363.353-.363h.706zM3.055 5.294h-.879V2.206c0-.731.59-1.324 1.318-1.324h10.541a1.32 1.32 0 011.318 1.324v3.088H7.886v-.882h6.589V2.206a.44.44 0 00-.44-.441H3.495a.44.44 0 00-.44.44v2.207h3.074v.882H3.933v6.618a.44.44 0 00.44.44h8.784a.44.44 0 00.44-.44V6.176h.878v5.736a1.32 1.32 0 01-1.318 1.323H4.373a1.32 1.32 0 01-1.318-1.323V5.294z"/></g></svg>