<?xml version="1.0" encoding="UTF-8"?>
<svg width="26px" height="24px" viewBox="0 0 26 24" version="1.1" xmlns="http://www.w3.org/2000/svg" xmlns:xlink="http://www.w3.org/1999/xlink">
    <!-- Generator: Sketch 60.1 (88133) - https://sketch.com -->
    <title>Iconspace_Information Service</title>
    <desc>Created with Sketch.</desc>
    <g id="Symbols" stroke="none" stroke-width="1" fill="none" fill-rule="evenodd">
        <g id="Header-/-normal" transform="translate(-1416.000000, -13.000000)">
            <g id="Top-header">
                <g id="Atendimento" transform="translate(1413.000000, 9.000000)">
                    <g id="Iconspace_Information-Service">
                        <rect id="Shape" x="0.75" y="0.5625" width="29.6875" height="29.6875"></rect>
                        <path d="M7.79583333,13.625 L6.6875,13.625 L6.6875,12.5073529 C6.6875,7.87790724 10.409133,4.125 15,4.125 C19.590867,4.125 23.3125,7.87790724 23.3125,12.5073529 L23.3125,13.625 L22.2041667,13.625 L22.2041667,12.5073529 C22.2041667,8.49516667 18.9787514,5.24264706 15,5.24264706 C11.0212486,5.24264706 7.79583333,8.49516667 7.79583333,12.5073529 L7.79583333,13.625 Z M23.3125,21.9375 L24.5,21.9375 L24.5,24.90625 C24.5,25.8900072 23.7025072,26.6875 22.71875,26.6875 L17.375,26.6875 L17.375,25.5 L22.71875,25.5 C23.0466691,25.5 23.3125,25.2341691 23.3125,24.90625 L23.3125,21.9375 Z" id="Shape" fill="#2B85C1" fill-rule="nonzero"></path>
                        <path d="M8.1125,21.9375 L8.1125,14.8125 L6.865625,14.8125 C5.48836491,14.8125 4.371875,15.8758237 4.371875,17.1875 L4.371875,19.5625 C4.371875,20.8741763 5.48836491,21.9375 6.865625,21.9375 L8.1125,21.9375 Z M6.865625,13.625 L9.359375,13.625 L9.359375,23.125 L6.865625,23.125 C4.79973486,23.125 3.125,21.5300144 3.125,19.5625 L3.125,17.1875 C3.125,15.2199856 4.79973486,13.625 6.865625,13.625 Z M23.075,14.8125 L23.075,21.9375 L24.321875,21.9375 C25.6991351,21.9375 26.815625,20.8741763 26.815625,19.5625 L26.815625,17.1875 C26.815625,15.8758237 25.6991351,14.8125 24.321875,14.8125 L23.075,14.8125 Z M28.0625,17.1875 L28.0625,19.5625 C28.0625,21.5300144 26.3877651,23.125 24.321875,23.125 L21.828125,23.125 L21.828125,13.625 L24.321875,13.625 C26.3877651,13.625 28.0625,15.2199856 28.0625,17.1875 Z M14.9703125,25.5 C14.6259975,25.5 14.346875,25.7658309 14.346875,26.09375 C14.346875,26.4216691 14.6259975,26.6875 14.9703125,26.6875 L17.4640625,26.6875 C17.8083775,26.6875 18.0875,26.4216691 18.0875,26.09375 C18.0875,25.7658309 17.8083775,25.5 17.4640625,25.5 L14.9703125,25.5 Z M14.9703125,24.3125 L17.4640625,24.3125 C18.4970076,24.3125 19.334375,25.1099928 19.334375,26.09375 C19.334375,27.0775072 18.4970076,27.875 17.4640625,27.875 L14.9703125,27.875 C13.9373674,27.875 13.1,27.0775072 13.1,26.09375 C13.1,25.1099928 13.9373674,24.3125 14.9703125,24.3125 Z" id="Shape" fill="#2B85C1" fill-rule="nonzero"></path>
                    </g>
                </g>
            </g>
        </g>
    </g>
</svg>